<?xml version="1.0" encoding="UTF-8" standalone="no"?>
<svg
   xmlns:dc="http://purl.org/dc/elements/1.1/"
   xmlns:cc="http://creativecommons.org/ns#"
   xmlns:rdf="http://www.w3.org/1999/02/22-rdf-syntax-ns#"
   xmlns:svg="http://www.w3.org/2000/svg"
   xmlns="http://www.w3.org/2000/svg"
   xmlns:sodipodi="http://sodipodi.sourceforge.net/DTD/sodipodi-0.dtd"
   xmlns:inkscape="http://www.inkscape.org/namespaces/inkscape"
   viewBox="0 -1205 2048 2048"
   id="svg3026"
   version="1.1"
   inkscape:version="0.48.5 r10040"
   width="100%"
   height="100%"
   sodipodi:docname="ainfina_FatemiMaqala.svg">
  <metadata
     id="metadata3036">
    <rdf:RDF>
      <cc:Work
         rdf:about="">
        <dc:format>image/svg+xml</dc:format>
        <dc:type
           rdf:resource="http://purl.org/dc/dcmitype/StillImage" />
      </cc:Work>
    </rdf:RDF>
  </metadata>
  <defs
     id="defs3034">
    <inkscape:path-effect
       effect="spiro"
       id="path-effect3808"
       is_visible="true" />
  </defs>
  <sodipodi:namedview
     pagecolor="#ffffff"
     bordercolor="#666666"
     borderopacity="1"
     objecttolerance="10"
     gridtolerance="10"
     guidetolerance="10"
     inkscape:pageopacity="0"
     inkscape:pageshadow="2"
     inkscape:window-width="1301"
     inkscape:window-height="744"
     id="namedview3032"
     showgrid="false"
     inkscape:zoom="0.32593203"
     inkscape:cx="856.63929"
     inkscape:cy="-219.02701"
     inkscape:window-x="65"
     inkscape:window-y="24"
     inkscape:window-maximized="1"
     inkscape:current-layer="svg3026" />
  <g
     transform="matrix(1 0 0 -1 0 1638)"
     id="g3028"
     style="stroke:#000000;stroke-opacity:1;fill:none" />
  <path
     transform="translate(0,-1205)"
     style="fill:none;stroke:#000000;stroke-width:1px;stroke-linecap:butt;stroke-linejoin:miter;stroke-opacity:1"
     d="m 1047.8303,2670.3029 0.3835,171.0704 c -71.40371,2.2303 -143.20108,-8.8414 -210.61585,-32.4785 -49.46355,-17.343 -96.56427,-41.4109 -139.59966,-71.3338 -101.7956,52.4749 -197.88679,116.9377 -279.83475,196.9408 -55.47836,54.1617 -97.06354,121.8937 -134.8702,189.5841 -37.80666,67.6904 -69.41108,138.9178 -73.12682,216.3615 -3.60754,75.1887 2.33758,155.421 36.05701,222.7214 33.71944,67.3004 86.92419,123.997 151.36178,162.9091 90.95629,54.9259 206.08231,98.7609 312.26464,115.2935 106.18233,16.5325 204.38114,18.6308 311.83545,19.8901 66.4801,0.7791 -10.9578,14.5253 168.7469,-14.5737 26.2904,-4.2571 76.9794,-13.9822 101.6483,-24.0198 29.7281,-13.4686 59.0323,-34.1376 67.6993,-26.8804 8.5501,7.1592 1.1105,6.5233 -30.9509,38.8911 -13.114,13.4714 -53.6727,36.8893 -77.9195,55.1935 -27.2287,20.5554 -80.0352,48.5762 -105.7321,64.9671 -74.9722,47.8214 -152.26079,62.8549 -232.41041,82.0723 -55.71235,13.3581 -145.72125,14.7682 -218.98509,5.7356 -73.26385,-9.0325 -144.48358,-19.0407 -212.08638,-48.6893 -103.71758,-45.4875 -201.34575,-110.1188 -269.99494,-200.1951 -64.39819,-84.4984 -100.7789,-188.7405 -110.45248,-294.54 -10.868052,-118.8633 11.06821,-239.2367 52.15812,-351.3002 39.07405,-106.5657 95.63063,-206.9568 168.74684,-293.773 70.45663,-83.6583 156.14062,-154.452 251.58619,-207.8654 -14.49988,-21.5596 -34.47551,-39.4045 -57.52733,-51.391 -27.7626,-14.436 -59.93164,-20.2526 -90.99158,-16.4525 3.56629,-31.7992 10.86377,-63.1785 21.69491,-93.2882 10.97258,-30.5029 25.57102,-59.6998 43.38984,-86.7796 50.30939,-12.2754 102.2701,-17.7642 154.03389,-16.2712 57.14504,1.6482 114.06028,11.8221 168.1356,30.3729 15.75077,5.4034 31.39091,11.579 45.30261,20.7304 13.9117,9.1514 26.10357,21.5147 32.79908,36.7611 6.38812,14.5465 7.46962,31.0299 5.22291,46.7575 -2.24671,15.7277 -7.67654,30.8286 -13.90087,45.4459 -10.15576,23.8499 -22.51944,46.7591 -36.88136,68.339 29.897,16.1474 62.17178,27.8837 95.45763,34.7118 35.23549,7.228 71.59492,8.9494 107.35572,5.0826"
     id="path3806"
     inkscape:connector-curvature="0"
     sodipodi:nodetypes="ccscsssssssscscssssssssscscscsssssscsc" />
</svg>
