<?xml version="1.0" standalone="no"?>
<!DOCTYPE svg PUBLIC "-//W3C//DTD SVG 1.1//EN" "http://www.w3.org/Graphics/SVG/1.1/DTD/svg11.dtd" >
<svg viewBox="0 -817 2048 2048">
  <g transform="matrix(1 0 0 -1 0 1638)">
   <path fill="currentColor"
d="M312 907q-60 -223 184 -382q-474 -370 -380 -916l2 -8q2 -3 2 -6l2 -8q3 -4 4 -14q2 -3 2 -6q2 -3 2 -6l6 -14l4 -16q7 -10 8 -20l4 -6l8 -18l4 -6l8 -18l4 -4l24 -42l4 -2l2 -4l24 -32l4 -6l6 -6l6 -4q6 -10 12 -16q3 -2 4 -4q9 -7 14 -12q9 -7 14 -14l6 -2l4 -4l4 -4
l4 -2q12 -9 18 -16q15 -7 24 -16l8 -2l16 -12q19 -7 32 -16l6 -2l10 -4l4 -2l32 -14l4 -2l14 -4l16 -4l14 -6l8 -2l8 -2l8 -2l14 -2l28 -6h6l6 -2q11 0 16 -2q19 -1 32 -4h10h8h8h8h8h34h16h14h12h8q3 2 6 2h6l14 2l44 4q12 4 22 4l32 8l32 6q22 9 38 10l6 4l8 2l14 4l16 4
q3 2 6 2l4 4h6q3 2 6 2q13 7 24 10l6 4h6l4 4h6l4 4l36 14l8 4l8 4q9 7 16 10l8 2l4 4l4 2l6 2q18 11 32 16q5 4 10 6q22 17 40 24l8 8l10 4l10 8l8 4l6 6l8 4l8 8l6 4l6 4l6 4l6 4l4 4l12 8l4 2l12 8q8 10 18 14q5 7 12 10q2 3 4 4l22 24v4v4v-4v4q-26 -2 -42 -8l-4 -4
l-26 -8l-4 -4h-6l-4 -4l-14 -4q-14 -9 -26 -12h-8l-6 -4h-8q-12 -5 -22 -6l-16 -4l-16 -4q-2 -2 -4 -2q-22 -7 -38 -8l-8 -4l-34 -6q-15 -5 -26 -6h-6q-3 -2 -6 -2h-6q-3 -2 -6 -2l-4 -2h-6q-24 -6 -40 -6l-8 -2l-6 -2h-6l-50 -6l-6 -2h-12l-6 -2q-12 0 -22 -2h-6l-40 -2
l-6 -2h-6h-8h-36h-8h-22h-6h-6h-26h-8l-4 2q-17 -1 -30 2h-8h-8q-20 4 -34 4l-6 2h-6l-6 2h-6l-16 4l-14 2q-16 5 -28 6l-6 2l-6 2l-6 2l-6 2l-6 2l-6 2l-28 8q-22 11 -38 16l-8 4l-6 4l-8 4l-14 8l-6 2l-4 2l-4 2q-12 10 -22 14l-4 4l-12 10q-18 11 -28 24q-22 14 -32 32
l-4 2l-4 4l-24 32l-4 6l-2 6l-4 4l-2 6l-4 4l-4 6l-2 4q-6 15 -12 24l-2 4v6q-7 9 -8 18l-8 18q-4 22 -10 36v6l-4 16v6q-5 20 -6 34q0 12 -2 20v36v22v8v22l2 14v12l2 10v8q4 16 4 28q4 12 4 22q4 11 4 20q76 203 228 320q11 14 24 20q16 18 34 26l2 4q23 18 40 26l6 6
l28 18l4 4l8 4q10 7 18 10q12 11 26 16l4 4l4 2l6 4l4 2l24 12l8 6l26 12q2 2 4 2l4 4l6 2q13 9 24 12l4 4l4 2l4 2l38 16l8 6l34 14l8 6l12 4l8 4l12 4l22 12l24 8l4 4l24 8l6 2l4 4l8 2l46 18l2 8l2 6l2 6l2 6l2 4l10 32l2 6l2 4l8 18q4 10 8 16l2 6l2 8l4 6l2 6l4 4
q7 19 14 30l-8 -2q-27 -13 -48 -16l-10 -6l-8 -2l-34 -12l-6 -2q-10 -5 -16 -6l-40 -16l-6 -2l-4 -2l-12 -4q-19 -9 -32 -12q-5 -3 -10 -4l-12 -6l-10 -4l-12 -4l-8 -4l-8 -4l-12 -4l-6 -4l-12 -4q-12 -8 -22 -10q-9 -6 -18 -8l-4 -4l-8 -2l-14 -8l-6 -2q-13 -7 -24 -10
q-209 81 -288 246v6l-6 14l-8 32q166 118 348 120h14l34 -2h8l28 -4h6l14 -2q30 -6 56 -2v14q-114 94 -246 100h-14h-20h-6h-24q-224 -46 -268 -258z" />
  </g>

</svg>
