<?xml version="1.0" encoding="UTF-8" standalone="no"?>
<svg
   xmlns:dc="http://purl.org/dc/elements/1.1/"
   xmlns:cc="http://creativecommons.org/ns#"
   xmlns:rdf="http://www.w3.org/1999/02/22-rdf-syntax-ns#"
   xmlns:svg="http://www.w3.org/2000/svg"
   xmlns="http://www.w3.org/2000/svg"
   xmlns:sodipodi="http://sodipodi.sourceforge.net/DTD/sodipodi-0.dtd"
   xmlns:inkscape="http://www.inkscape.org/namespaces/inkscape"
   viewBox="0 -599 2048 2048"
   id="svg4371"
   version="1.1"
   inkscape:version="0.48.5 r10040"
   width="100%"
   height="100%"
   sodipodi:docname="behfina_FatemiMaqala.svg">
  <metadata
     id="metadata4381">
    <rdf:RDF>
      <cc:Work
         rdf:about="">
        <dc:format>image/svg+xml</dc:format>
        <dc:type
           rdf:resource="http://purl.org/dc/dcmitype/StillImage" />
        <dc:title></dc:title>
      </cc:Work>
    </rdf:RDF>
  </metadata>
  <defs
     id="defs4379" />
  <sodipodi:namedview
     pagecolor="#ffffff"
     bordercolor="#666666"
     borderopacity="1"
     objecttolerance="10"
     gridtolerance="10"
     guidetolerance="10"
     inkscape:pageopacity="0"
     inkscape:pageshadow="2"
     inkscape:window-width="1301"
     inkscape:window-height="744"
     id="namedview4377"
     showgrid="false"
     inkscape:zoom="0.23046875"
     inkscape:cx="997.63738"
     inkscape:cy="-56.920543"
     inkscape:window-x="65"
     inkscape:window-y="24"
     inkscape:window-maximized="1"
     inkscape:current-layer="svg4371" />
  <g
     transform="matrix(1 0 0 -1 0 1638)"
     id="g4373" />
  <path
     style="fill:none;stroke:#000000;stroke-width:1px;stroke-linecap:butt;stroke-linejoin:miter;stroke-opacity:1"
     d="m 1491.1084,2057.2044 0,176.7733 c 0,0 -60.3287,-2.6557 -110.7694,-21.0963 -50.4407,-18.4407 -90.5763,-62.9153 -101.9661,-80.8136 -11.3898,-17.8983 -20.6102,-42.8475 -18.9831,-83.5254 -28.7457,40.1356 -61.8305,69.9661 -77.5593,83.5254 -15.7288,13.5593 -87.8644,55.322 -116.6102,68.8814 -28.7457,13.5593 -129.62708,47.1864 -194.16945,59.1186 -64.54237,11.9322 -133.39412,17.8298 -164.33898,19.5254 -59.38984,3.2542 -182.50848,-3.7966 -198.77967,-6.5085 -16.27118,-2.7118 -168.40678,-28.4745 -222.64406,-54.7796 -41.14329,-19.9545 -110.64407,-59.1187 -143.18644,-104.678 -32.54238,-45.5593 -54.237293,-106.8474 -49.89831,-184.4068 4.338983,-77.5593 41.76271,-217.4915 66.16949,-260.3389 24.40678,-42.8475 31.45763,-48.8136 39.05085,-47.7289 7.59322,1.0848 2.16949,29.8306 -4.33898,44.4746 -6.50848,14.6441 -27.66102,88.4068 -28.20339,112.2712 -0.54238,23.8644 -7.59322,86.2373 23.32203,142.1017 30.91525,55.8644 66.93358,78.1784 77.01695,88.9492 11.9322,12.7457 100.24511,53.7868 110.37288,58.0339 90.97045,36.4415 180.49759,46.8512 275.25424,53.1525 23.38828,1.5553 126.79832,-2.7203 146.98305,-2.7119 56.15896,0.023 155.65182,-23.4221 192,-33.0847 48.19429,-12.8117 166.78309,-58.3306 216.94909,-96.8136 50.1661,-38.483 103.3221,-86.7796 125.8305,-125.0169 -8.4067,33.0847 -13.5592,73.2203 -7.0508,99.2542 6.5085,26.0339 28.7458,54.7797 42.8475,61.8305 14.1017,7.0509 55.322,26.5763 79.1864,29.2882 23.7118,2.6945 43.5152,4.323 43.5152,4.323 z"
     id="path4998"
     inkscape:connector-curvature="0"
     transform="translate(0,-599)"
     sodipodi:nodetypes="ccsscssssssssscsssscssszcsssc" />
</svg>
