<?xml version="1.0" standalone="no"?>
<!DOCTYPE svg PUBLIC "-//W3C//DTD SVG 1.1//EN" "http://www.w3.org/Graphics/SVG/1.1/DTD/svg11.dtd" >
<svg viewBox="-72 -410 2048 2048">
  <g transform="matrix(1 0 0 -1 0 1638)">
   <path fill="currentColor"
d="M661 969l-14 -6l-9 -8q-6 -6 -9 -7l-4 -6l-3 -2q-1 -2 -2 -2q-8 -12 -15 -18l-3 -4l-1 -3l-6 -7l-1 -3l-7 -9q-4 -9 -9 -14q-4 -9 -8 -15l-3 -4l-6 -11l-1 -2q-5 -6 -7 -11l-3 -4l-1 -3l-2 -3q-5 -7 -5 -8l-2 -1l-1 -2l-1 -3l-2 -1q-4 -9 -8 -14q-155 -190 -367 -248h-4
l-2 -1h-3h-3h-3q-11 0 -18 -4q-2 -1 -3 -1q-1 -1 -3 -1l-7 -3l-3 -1l-2 -2l-2 -1l-6 -2q-5 -5 -11 -7q-4 -5 -8 -6l-4 -4l-4 -4q-5 -10 -10 -16l-2 -4l-3 -4l-2 -4l-3 -3l-1 -3l-2 -1l-1 -3l-1 -2q-7 -8 -9 -14l-2 -2q-4 -7 -7 -10l-2 -3q-4 -6 -5 -7q-3 -8 -9 -14
q-2 -6 -6 -9q1 -2 3 -3q6 -2 10 -4h3l3 -2l3 -1h3l3 -1l3 -1l2 -1q11 -3 18 -6l8 -2l7 -3l8 -2l7 -2q7 -3 8 -3l12 -3q6 -2 8 -3l14 -4l5 -2q4 -2 11 -3l22 -8l4 -1l17 -5l3 -1l12 -4l7 -2l7 -3l7 -2l7 -2l4 -1q9 -4 16 -5q5 -2 8 -3l3 -1l5 -1l3 -1q11 -5 19 -6q5 -2 8 -3
l12 -4l7 -2q7 -3 8 -3l12 -3q5 -2 8 -3l2 -1l8 -2q8 -2 16 -6l16 -4l5 -2l4 -1l5 -2q7 -1 11 -4l5 -1l7 -2l2 -1l11 -3q5 -3 10 -3l3 -1l7 -3l11 -3l-5 -2l-5 -1h-3l-8 -2l-11 -4h-4l-4 -1q-6 -3 -11 -3q-3 -2 -6 -2l-3 -1q-9 -3 -11 -3q-2 -1 -3 -1q-1 -1 -3 -1l-16 -6
l-5 -1l-13 -4l-3 -1l-4 -1l-2 -2l-4 -1q-6 -1 -8 -3h-3q-10 -5 -18 -6q-7 -1 -12 -4q-2 -1 -3 -1q-18 -8 -30 -10q-5 -2 -19 -7l-3 -1l-4 -1l-25 -7l-8 -2l-8 -2q-7 -3 -12 -4h-3l-4 -2l-22 -4q-10 -3 -17 -3q-1 -1 -2 -1h-3l-2 -1l-17 -2l-8 -1q-16 -2 -20 -2l-4 -1h-4
l-13 -1h-11l-4 -1h-3h-13h-4q-6 0 -11 1h-4l-97 2v-164l75 -1h4h6l3 1h4h4h13l8 1h3l2 1h8q8 2 15 2q1 1 3 1h3q6 2 11 3q8 1 14 3h4l3 1l29 7l7 2l5 2l6 1q12 2 20 6q1 0 3 1l4 1q14 6 24 8l4 2l2 1l16 4l4 2l4 1q8 0 12 4q1 1 3 1q19 5 30 10q2 1 3 1q1 1 2 1q10 4 17 6
q16 0 23 7q1 1 3 1l7 3l8 2q8 4 15 5q18 7 30 9l2 1l16 5l11 2l4 2h3q6 3 12 3q6 3 11 3q6 3 10 3q6 2 11 2q1 0 3 1l19 5l15 2q8 3 15 3q2 1 3 1l3 1h3q12 3 20 3q1 1 3 1h3q8 2 14 2l8 2l16 2h4l4 1h6q6 1 11 1l4 1h3h4q15 2 25 2h7q3 1 6 1h3l20 1h5h13h4h17h3h12l5 -1h4
h14l4 -1h4h11l4 -1h3h4h3l4 -1q11 0 18 -2q9 0 14 -1l5 -1q10 0 17 -2h4l5 -1l4 -1h6l8 -2h3q5 -1 8 -1l8 -2l12 -2l4 6l4 6l3 6l2 2l1 3l3 3q6 13 13 21l3 6l3 4l3 6l3 3l1 3l1 2l2 2l2 2q1 5 3 7l2 2l4 6q4 7 8 12q4 10 10 16q6 14 14 22v3q-9 0 -15 2q-9 0 -16 2h-3l-3 1
h-3h-3l-3 1h-3q-12 3 -20 3l-7 2l-6 1h-4l-4 1l-19 4l-5 1l-2 1q-8 0 -14 3l-17 3l-4 1l-3 1l-14 3l-4 1l-3 1l-7 2h-3l-7 3l-12 2l-4 2h-3l-3 1l-3 1l-18 5l-3 1l-5 1l-4 2l-6 1q-6 2 -10 3l-4 1l-2 1l-3 1l-18 5l-14 5l-4 1q-8 3 -14 4l-5 2l-4 1l-4 2q-5 1 -8 3h-3l-3 1
l-3 1q-14 5 -16 5l-3 2l-11 3l-3 1l-13 5l-7 2l-6 2l-3 1l-18 7l-16 5l-4 1l-3 1l-3 2l-10 3l-3 1l-3 1l-4 1l-3 2l-2 1q-11 2 -18 6l-7 2l-7 2l-6 3l-2 1q-1 0 -4 1l-13 4q-7 3 -12 4l-6 2l-4 2l-3 1l-3 1l-3 1l-2 1l-16 5l-3 1q-5 2 -8 3l-7 3q-11 2 -18 6l-6 1l-14 5
l-3 1l-11 3l-4 2l-4 1l-7 2l-2 1l-3 1l-18 5l-3 1l-7 3q-6 1 -11 3q6 4 12 5l4 2q7 5 13 6l3 3l4 1q4 4 9 5l2 2l3 1q4 3 8 5l2 2l3 1q8 7 15 10q1 2 2 2q1 1 2 1l1 2q6 4 10 8l3 1q6 7 12 10l2 3l4 3l3 2l3 3l1 2l3 3l3 1q1 2 2 2q8 10 15 15l3 5l2 1q1 2 2 2q1 2 2 2
l12 15l4 3l2 4l3 2q3 5 7 8q2 3 4 5q6 11 14 18l3 6l2 2l2 2q4 7 7 10l3 5l4 4l3 5l2 3l13 19l3 4l2 4l8 11l2 3l2 3l1 3l2 1q2 6 6 10l2 3q1 2 2 2l2 3l1 2l2 4l2 3q8 12 9 14l2 1q19 31 46 46q9 2 16 1l2 -1l10 -9l1 -2q2 -3 14 -53q1 -4 1 -8q2 -6 2 -11q2 -9 8 -13l1 2
q1 2 5 8v3l1 2l1 3l1 3l4 20l1 6l2 7v4l1 3l1 7l3 18v4l1 2l1 16l1 4l1 5v4q0 5 1 8v3v5q1 7 1 12q0 6 1 10v3v3v4v3q0 6 -1 10v3v8l-1 3l-2 18q-6 16 -14 26q-20 8 -24 4zM842 -93q-10 -13 -108 -109q54 -78 117 -117q111 113 116 116l-2 3q-59 48 -83.5 76t-39.5 31z" />
  </g>

</svg>
