<?xml version="1.0" standalone="no"?>
<!DOCTYPE svg PUBLIC "-//W3C//DTD SVG 1.1//EN" "http://www.w3.org/Graphics/SVG/1.1/DTD/svg11.dtd" >
<svg viewBox="-280 -523 2048 2048">
  <g transform="matrix(1 0 0 -1 0 1638)">
   <path fill="currentColor"
d="M928 333q-5 -11 -10 -18q-48 -133 -156 -198q-103 -36 -180 22q-81 60 -106 148q-9 10 -18 12l-6 -6l-10 -8l-6 -8l-8 -10l-6 -4l-8 -8q-2 -4 -4 -4q-7 -9 -12 -14l-4 -4l-4 -4l-4 -4l-4 -4l-4 -2q-2 -4 -4 -4l-22 -24l-4 -2l-4 -6l-24 -22l-18 -16l-4 -6q-9 -10 -18 -14
q-2 -4 -4 -4l-2 -4l-4 -4l-4 -2l-2 -4l-4 -2q-7 -10 -14 -16l-18 -16l-4 -4q-20 -20 -34 -30l-2 -4l-4 -4l-4 -2q-10 -13 -22 -20q-2 -4 -4 -4q-7 -9 -12 -14l-6 -2q-16 -20 -32 -30q-10 -13 -22 -20l-10 -10l-10 -10l-10 -10l-4 -2l-4 -6q-16 -12 -24 -22l-6 -2l-4 -6
l-24 -22l-10 -10l-12 -8q-2 -4 -4 -4q-5 -7 -12 -10q-13 -16 -28 -26q-5 -7 -12 -10l-2 -4l-4 -4l-12 -8q-7 -9 -14 -14l-10 -10l-12 -8l-10 -10l-6 -6l-12 -10l-6 -6l-6 -4q-13 -15 -24 -22q-16 -16 -28 -24l-6 -6q-20 -20 -34 -30l-2 -138l8 8q11 7 18 14l6 6l4 4l6 6l6 4
l4 4l6 4q19 20 34 30l10 10q16 17 28 24q2 4 4 4q22 24 40 36l4 6q16 12 24 22l4 4l26 22l32 30l4 4l4 4l4 4l4 2l14 14l4 4l4 2q10 13 22 20l8 10l4 4l4 2q10 13 22 20q10 13 22 20l10 12l10 8l10 12l12 10l4 6l6 2q7 9 12 14l4 4l4 2q2 4 4 4l22 24l10 8l10 8l8 10l8 8
l4 2q2 4 4 4q16 20 30 30q2 4 4 4q14 18 28 28q7 11 16 16q7 9 14 14l4 6l18 16l4 6l6 6l4 6l4 2q2 4 4 4l22 24q229 -305 436 -94l4 8l6 6q10 17 20 28q4 12 10 18l2 6l4 4q8 24 20 38q32 -141 172 -144v62v28v6v10v6v8v6v40q-159 26 -130 182l-12 2zM805 1282
q-10 -13 -108 -109q54 -78 117 -117l114 119q-59 49 -83.5 76.5t-39.5 30.5zM572 1282q-10 -13 -108 -109q54 -78 117 -117l116 116l-2 3q-59 48 -83.5 76t-39.5 31z" />
  </g>

</svg>
