<?xml version="1.0" standalone="no"?>
<!DOCTYPE svg PUBLIC "-//W3C//DTD SVG 1.1//EN" "http://www.w3.org/Graphics/SVG/1.1/DTD/svg11.dtd" >
<svg viewBox="-297 -473 2048 2048">
  <g transform="matrix(1 0 0 -1 0 1638)">
   <path fill="currentColor"
d="M1020 626l-2 -3l-1 -3l-2 -2l-1 -4l-2 -3l-2 -2q-3 -11 -8 -18l-2 -4l-1 -2l-6 -15l-2 -4l-1 -4l-2 -4l-2 -3v-3l-2 -3q-1 -5 -3 -8q-3 -10 -6 -16l-2 -7l-4 -14l-1 -4l-2 -4l-1 -3l-1 -6l-2 -8l-1 -2l-1 -2v-3q-3 -11 -4 -18l2 -1l1 -2l9 -14q9 -10 12 -19q4 -4 6 -8
l4 -6q2 -6 5 -9l1 -3l2 -4l2 -2l2 -3l1 -2l2 -6q5 -6 7 -11l2 -4l2 -6l2 -2l1 -3l6 -12l1 -4q6 -10 8 -18l2 -3l2 -4l2 -6l3 -7q2 -6 4 -10v-3l2 -3l1 -5q1 -2 1 -3q5 -11 7 -19l-4 -6q-231 -187 -404 175q-11 11 -26 10q-1 -1 -2 -1q-2 -1 -3 -1q-1 -1 -2 -1l-1 -2l-2 -1
l-11 -8l-3 -4l-4 -2l-3 -4l-3 -1q-2 -2 -4 -3q-1 -2 -2 -2l-3 -3l-3 -2l-2 -3l-3 -1q-1 -2 -2 -2q-4 -4 -8 -6l-1 -2q-6 -5 -10 -7l-4 -5l-14 -11l-4 -3l-3 -2l-12 -11l-4 -2q-5 -6 -10 -9l-12 -10l-4 -3l-3 -2l-3 -3l-7 -6l-2 -1q-1 -1 -2 -1q-8 -9 -15 -13l-3 -2l-3 -3
l-7 -6l-2 -2q-10 -7 -16 -13l-4 -2q-4 -4 -7 -6l-3 -3q-8 -6 -12 -10l-3 -1l-1 -2l-15 -12l-2 -2l-2 -1l-3 -2l-12 -11l-3 -2l-2 -1q-1 -1 -2 -1q-6 -7 -13 -11q-1 -2 -3 -2q-1 -2 -2 -2l-2 -3l-2 -1l-2 -2l-3 -2q-6 -5 -10 -7q-4 -5 -8 -7l-3 -2q-4 -5 -9 -7q-3 -5 -7 -7
l-13 -10l-5 -4l-4 -3q-1 -1 -2 -1q-8 -9 -15 -12q-4 -5 -9 -8l-4 -3q-4 -5 -9 -7q-3 -4 -7 -6l-2 -2l-2 -2l-3 -1q-11 -12 -21 -17l-2 -3l-12 -8l-2 -3l-3 -1l-3 -3q-4 -4 -7 -5l-3 -4l-7 -4l-2 -3q-10 -7 -16 -13q-4 -3 -7 -5l-2 -2l-3 -1q-8 -9 -15 -12l-2 -3l-12 -8
l-2 -3l-3 -1l-3 -3q-4 -4 -7 -5l-3 -4l-7 -4l-2 -3q-10 -7 -16 -13l-7 -4q-2 -2 -4 -3l-2 -3l-4 -3l-4 -2l-3 -3q-5 -5 -11 -8l-2 -3l-3 -1l-1 -2l-2 -2l-3 -2l-2 -2q-10 -7 -16 -12l-3 -2l-3 -2l-2 -3l-3 -1l-1 -2l-3 -1q-3 -4 -7 -6l-10 -9l-4 -2q-1 -1 -2 -1
q-6 -7 -13 -11l-4 -3q-4 -4 -8 -6l-2 -3l-4 -2l-1 -2l-3 -1q-7 -7 -13 -10q-6 -6 -11 -9q-10 -10 -18 -14q-3 -3 -6 -5l-5 -5l-6 -4l-4 -4l-4 -2l-4 -4l-4 -2q-2 -3 -4 -4l-2 -1q-4 -4 -7 -6l-3 -3l-4 -2l-3 -3l-2 -2l-3 -1q-6 -7 -13 -10l-7 -7l-7 -4q-9 -10 -17 -14l-6 -5
l-3 -2l-2 -2l-2 -2l-7 -4q-7 -7 -12 -11l-5 -4l-6 -3l-3 -4l-4 -3l-5 -3l-4 -4l-4 -171l6 5l3 2l3 2l3 3l6 4l2 3l2 1l10 9l6 4l3 3l2 2l3 1q11 12 21 17q3 3 6 5q8 8 14 12l13 10q8 8 14 12l3 3l3 1q6 7 12 10l3 3l2 1l7 7l4 3l3 2l3 2l3 2l2 3l3 1q4 6 10 8q4 5 8 8l2 1
l6 4q5 6 11 10l5 3l2 3l3 2l3 2q1 2 3 2q1 2 2 2q4 4 7 6q1 1 2 1q10 10 18 15q1 2 3 2l2 3l4 2l2 3l4 2q5 6 9 8l3 2q10 9 17 14q1 1 2 1l1 2l2 1q8 7 14 11l2 3l7 4l2 3l6 4q8 8 14 12q6 5 10 7l3 3q8 8 15 12q5 6 9 8q10 9 17 13q7 8 14 12q1 2 2 2l2 2l7 6l3 1l1 2
q6 5 10 7l4 5l7 4l2 3l3 2l3 2l7 7q10 7 16 13l3 1q6 7 12 10q2 3 4 4q6 5 10 9l3 2l6 5l2 1q4 4 8 6l1 2q6 5 10 7l4 5l3 1l1 2q4 3 7 6l3 1l1 2l2 2q7 4 12 10l3 1q8 9 15 13l6 5q1 1 2 1q8 9 15 13l2 2l6 4q5 6 10 10l2 1l6 4q5 7 11 10l5 5q4 2 6 5l6 4l5 5l6 4q1 2 2 2
l3 3q7 6 12 9q7 8 14 12l2 3l2 1l7 6l3 3q4 3 7 6l3 1l1 2l2 2l2 1l10 9l2 2l3 2q7 7 13 10l5 5l3 3l2 2l2 1l10 9l5 4l5 4l5 4l4 4l6 4q4 5 8 7q2 3 6 5q2 3 6 5q4 5 8 8l2 2l10 8l3 3l3 3l4 2q2 3 6 5q4 5 8 8l2 2l2 2l3 1l1 2l2 2q8 6 13 11q63 -158 195 -231l4 -1
q5 -3 9 -4l3 -1l3 -2l3 -1l3 -1l4 -1l2 -1l8 -2l3 -1l12 -4h4l3 -1h3l3 -1h3q12 -2 21 -2h4h18q6 2 10 2h3l3 1h3l4 1l2 1l7 2h3q11 5 19 7l2 2l18 9l3 3l3 1q5 5 10 7l1 2l18 15l3 4q6 8 11 12l1 2q1 2 2 2l2 3q3 7 8 11q5 12 11 18q133 282 -33 511zM730 1267
q-10 -13 -108 -109q54 -78 117 -117q111 113 116 116l-2 3q-59 48 -83.5 76t-39.5 31z" />
  </g>

</svg>
