<?xml version="1.0" standalone="no"?>
<!DOCTYPE svg PUBLIC "-//W3C//DTD SVG 1.1//EN" "http://www.w3.org/Graphics/SVG/1.1/DTD/svg11.dtd" >
<svg viewBox="0 -941 2048 2048">
  <g transform="matrix(1 0 0 -1 0 1638)">
   <path fill="currentColor"
d="M136 514q149 137 334 96h6l16 -2l6 -2l34 -6q19 -3 32 -8q20 -1 34 -6l16 -2l14 -4q22 -1 36 -4q-357 -195 -486 -538l-2 -4l-4 -6q-7 -27 -16 -42l-2 -10l-10 -36l-8 -20l-2 -14q-5 -12 -6 -22l-2 -8l-2 -10l-6 -20l-2 -16l-6 -26v-6l-2 -18l-2 -6l-4 -34v-16
q-2 -8 -2 -16v-102l2 -6v-14l8 -58q8 -18 8 -34q7 -14 8 -26l8 -22l2 -6l2 -6l2 -8q5 -8 6 -16q2 -2 2 -4q9 -14 14 -26l2 -8l6 -6l2 -8q8 -10 12 -20l8 -12q14 -16 20 -30l6 -4l2 -4q13 -13 18 -24l8 -6l12 -14l6 -6q4 -2 4 -4q9 -7 14 -12l2 -4q21 -13 34 -28
q206 -138 428 -130q400 7 670 252h-8l-6 -4l-8 -2l-14 -6q-8 -5 -16 -6l-14 -6q-432 -158 -814 -14l-8 6q-12 4 -20 8l-8 4l-14 8l-6 2l-8 4l-6 6l-6 2q-3 2 -4 4l-4 2l-4 2l-6 2l-2 4q-19 9 -28 16l-4 4q-8 7 -14 10l-4 4l-18 16q-4 2 -4 4l-4 2l-4 4l-16 18q-13 10 -20 22
q-9 6 -12 14q-4 2 -4 4q-8 8 -12 14l-2 6l-4 2l-2 4l-2 6q-10 12 -16 22l-4 8l-2 8q-6 8 -8 16l-4 4l-2 10q-6 8 -8 16l-16 46q-55 317 146 554l4 6l2 6l6 6l2 4l18 20l24 30l20 18l6 10l4 2q2 4 4 4l2 4l6 4q11 15 24 22q7 9 14 14q3 3 6 4q7 9 12 14l20 14q2 4 4 4l6 4
q19 19 36 26q14 15 32 22q8 8 14 12l20 10l6 4l6 4l6 2q2 2 4 2l12 8q22 13 38 18q20 12 36 16q8 5 16 6l4 4l22 6q17 10 32 12q-78 -289 114 -462q19 -9 30 -18q12 -6 20 -8l4 -4h6l24 -10q213 -32 334 214q53 -213 264 -216v12v8v36v22v8v8v8v8v34v6v24q-194 2 -216 180
l-8 24q-10 -3 -16 -8q-106 -214 -298 -206q-158 29 -200 172q-29 100 2 186h6q20 7 36 8l8 2l8 2l8 2l14 2l12 2l8 2h10q19 5 32 4q12 3 22 2l6 2l40 2l18 32l16 30q9 13 14 24l4 4l2 6l4 4l2 8l6 6q4 12 10 18l4 6q12 27 22 42h-6h-14h-6q-22 -4 -38 -2l-40 -2h-8h-36h-22
h-8h-8h-8h-8h-34h-6h-24q-12 3 -22 2h-14h-6h-6q-18 4 -32 2l-4 2h-6q-14 0 -24 2h-12l-6 2h-6q-19 1 -32 4h-6l-32 4l-12 2h-10l-12 2q-20 5 -34 6l-36 6l-6 2h-6l-8 2l-34 4l-6 2h-6l-14 2l-4 2h-6l-30 4l-8 2h-10h-6l-6 2q-22 1 -36 4h-6h-62q-225 -39 -244 -274z
M1292 -259q-10 -13 -108 -109q54 -78 117 -117q111 113 116 116l-2 3q-59 48 -83.5 76t-39.5 31z" />
  </g>

</svg>
