<?xml version="1.0" standalone="no"?>
<!DOCTYPE svg PUBLIC "-//W3C//DTD SVG 1.1//EN" "http://www.w3.org/Graphics/SVG/1.1/DTD/svg11.dtd" >
<svg viewBox="0 -541 2048 2048">
  <g transform="matrix(1 0 0 -1 0 1638)">
   <path fill="currentColor"
d="M1248 720l-2 -4q-1 -2 -2 -2l-1 -3l-4 -6l-4 -7q-4 -11 -10 -18l-2 -6l-2 -4l-3 -5q-3 -8 -7 -13l-2 -5l-2 -5l-3 -5l-2 -6l-1 -2l-2 -4l-3 -7l-1 -3l-7 -15l-1 -3l-1 -3l-1 -4l-2 -3l-9 -25q84 -128 88 -264l-5 -3l-6 -3l-3 -2l-10 -4l-2 -2l-3 -1l-2 -1q-5 -3 -9 -4
l-9 -5l-5 -2l-3 -1q-5 -3 -9 -4l-2 -2l-4 -1l-3 -2l-3 -1l-2 -1l-3 -1l-12 -6l-4 -1l-4 -2l-4 -2l-4 -1l-3 -2l-13 -5l-4 -1l-2 -2h-3l-15 -7h-3l-7 -3q-5 -3 -9 -3l-2 -2h-3q-2 -1 -3 -1q-7 -4 -12 -5l-22 -7l-22 -8q-10 -2 -17 -5h-3l-3 -2h-3l-7 -3h-3l-8 -2
q-7 -3 -12 -4l-4 -1l-4 -1l-4 -1l-4 -1l-3 -1l-3 -1h-4l-8 -2q-9 -4 -17 -4l-4 -2h-5l-4 -2h-5l-4 -2l-15 -2l-4 -1l-6 -1q-8 -3 -15 -3l-13 -3h-4l-2 -1h-3h-3q-10 -3 -17 -3l-14 -2l-4 -1h-5q-6 -1 -11 -1q-4 -2 -8 -1l-2 -1l-19 -1q-6 -2 -11 -1l-3 -1h-7h-3
q-11 -2 -19 -1l-4 -1h-5h-5h-3h-7l-6 -1h-13h-31q-8 0 -14 1h-3h-3q-10 0 -17 1q-8 -1 -15 1q-7 0 -12 1h-4h-3l-2 1l-18 1l-8 2h-8l-7 2q-11 0 -18 3h-3h-3l-3 1l-13 3h-3q-6 2 -10 2q-5 2 -9 2l-12 4h-3l-2 1q-9 2 -14 4l-4 1q-7 2 -12 4l-4 1l-4 2q-14 3 -24 9q-3 0 -4 1
l-10 4l-3 1l-5 2l-3 2l-3 1l-2 2l-22 10l-1 2q-8 3 -13 7l-3 1l-6 5l-7 4q-2 1 -2 2l-2 1q-17 9 -26 20l-3 2q-2 1 -2 2l-3 2l-2 1l-2 2l-2 2l-2 2l-2 2l-1 2q-2 1 -2 2l-12 11q-91 114 -63 246q0 6 2 11v4l1 4l1 4l1 4l1 2l2 12q2 6 3 10l1 4l2 4q0 3 1 4l1 3q1 4 3 7v3
l1 3l6 16q7 21 -6 24l-2 -2l-15 -13l-2 -4l-3 -3l-2 -4l-3 -3l-2 -4l-2 -2l-2 -3l-2 -3q-2 -4 -5 -7q-4 -10 -8 -15l-1 -5l-6 -11l-5 -14l-2 -4q-3 -8 -6 -13l-1 -5l-2 -5l-1 -3l-1 -4q-5 -10 -6 -17l-2 -4l-1 -6l-2 -5l-1 -4l-1 -4l-1 -3l-1 -3l-1 -4l-2 -7l-1 -2
q-1 -9 -4 -16q-1 -10 -3 -17l-1 -3v-4l-2 -10v-4q-2 -6 -2 -15l-1 -2l-1 -16v-3q-2 -6 -1 -11v-52q2 -7 1 -12q1 -4 1 -8q2 -8 2 -14q1 -2 1 -3l1 -7q3 -8 3 -14l2 -4l1 -8l6 -16l1 -4q2 -6 3 -10q4 -6 5 -11l1 -3l2 -2l1 -3l1 -2l1 -2l2 -6q5 -6 6 -11q2 -1 2 -2
q4 -6 6 -11q5 -5 7 -9l1 -3l2 -1l1 -3q10 -10 14 -18l3 -3q5 -4 8 -9l5 -4l3 -4l3 -2l3 -3l8 -8q2 -1 2 -2l2 -1l2 -1l2 -2l1 -2q9 -5 14 -11l5 -2l2 -3l4 -2q7 -4 10 -7l3 -1l2 -1l2 -2l3 -2l7 -4l2 -1l2 -1l2 -1q7 -3 12 -6l3 -1l2 -1q4 -1 7 -3q11 -3 18 -7l6 -1l4 -2
l3 -1l3 -1l4 -1l3 -2q3 0 4 -1q16 -4 25 -8l5 -1l6 -2l5 -1q8 -1 13 -3l14 -3l3 -1l11 -2l16 -4h3l21 -4q6 0 11 -2h4h3l2 -1q8 0 14 -2l7 -1h3h3l16 -2h7l6 -1h3l2 -1h12l6 -1h5h3h3q5 -1 8 -1h6h4h3h20h5h5h5h3h13h14h5h4h5q13 1 22 1l4 1h11l4 1h3l22 2l6 1q9 0 16 2h6
l6 1l5 1l6 1h4l6 1l5 1h3l6 1l4 1l6 1l4 1l14 2l8 2l2 1h3q9 3 16 3l4 2l16 3q8 3 13 3q6 3 10 3l4 1l2 1l8 2l8 3l17 4q8 4 14 5q6 3 11 3q9 5 17 6l3 2l3 1l10 3q11 6 20 8l10 5l2 1h3q6 4 12 6l2 1l22 9q7 5 12 7l12 5l4 3l4 1l4 3q5 3 9 4l2 2l4 1l2 2l3 1q6 5 12 7l4 3
l5 2q8 6 14 9l3 1q9 8 17 11l3 3l11 6q4 4 8 6l2 2l4 2l6 4q11 10 18 14q5 8 9 13l10 12l2 3l2 3l1 3l2 2l1 2l2 1q5 10 9 15l2 4l6 8l2 4l1 3q5 8 8 15l2 2l5 11l1 3q7 11 9 20l5 9l1 5l1 4q3 6 4 11l2 3l1 6l1 4l2 3v4l2 3v3l1 2l2 9v3q3 8 3 14l3 13v5l1 3v3l2 20v13v4v4
v4v17v3v12l-1 5v6q-1 3 -1 5l-1 6v5q-1 3 -1 5l-1 3v3l-1 2v3l-2 13q-1 2 -1 3l-5 23q-1 2 -1 3l-2 4v3l-1 4q-4 7 -5 13l-2 9q-8 16 -10 27l-3 5l-1 2l-4 12q-4 5 -5 11l-3 5l-2 5q-5 8 -7 15l-3 3l-4 9l-1 3q-5 6 -7 13q-5 6 -7 12l-1 1zM660 -315q-10 -13 -108 -109
q54 -78 117 -117q111 113 116 116l-2 3q-59 48 -83.5 76t-39.5 31z" />
  </g>

</svg>
