<?xml version="1.0" standalone="no"?>
<!DOCTYPE svg PUBLIC "-//W3C//DTD SVG 1.1//EN" "http://www.w3.org/Graphics/SVG/1.1/DTD/svg11.dtd" >
<svg viewBox="-95 -909 2048 2048">
  <g transform="matrix(1 0 0 -1 0 1638)">
   <path fill="currentColor"
d="M199 647q-1 -4 -3 -7q-4 -12 -8 -19l-2 -5l-3 -7l-2 -5l-3 -5l-2 -5l-2 -5l-2 -5l-2 -4l-2 -5l-2 -4l-1 -4l-1 -3l-1 -2q-3 -7 -4 -9l-5 -11q-6 -14 -7 -15l-1 -3l-1 -4l-10 -22l3 -4l2 -4l3 -3l2 -4l2 -2l13 -21l1 -3q9 -10 12 -19q7 -10 10 -18l2 -1l5 -11q1 -1 1 -2
q4 -5 7 -12l3 -7l2 -2q4 -8 5 -13l2 -2l1 -3l1 -3l1 -2l1 -3q4 -7 7 -16l1 -3q5 -14 5 -16l2 -3l1 -4l1 -4l5 -17l3 -17l1 -3v-3q1 -1 1 -3v-3q1 -1 1 -2l1 -5v-3l2 -15q-123 -89 -340 -86v-162l99 6h11h5q6 2 11 1l3 1h3l2 1h4l2 1h4l3 1h3q6 2 11 2l4 2l4 1l5 1l3 1l3 1
l17 6l6 2q5 4 9 4q106 60 155 158l2 2q5 14 10 22q2 7 5 12l1 4l1 4l2 3l1 2v3q4 9 5 16l1 3q1 3 3 11l1 4l3 10q1 13 4 22v4v3l1 3v3v5q2 13 1 22v6v4v4v17v3q-2 7 -1 12l-1 4l-2 16l-2 8l-1 4v3l-1 3v3q-1 1 -1 2q-4 13 -5 22q-3 5 -4 9v3q-3 7 -4 12l-2 3v3q-1 9 -5 13
l-1 2l-4 9l-1 4l-2 4q-4 9 -5 12q-8 11 -10 21l-3 4l-7 13l-2 5q-6 9 -9 16l-3 4l-2 3l-1 3l-3 4l-2 3l-1 3q-3 4 -5 8l-2 4q-2 1 -2 2q-4 4 -5 8l-2 2l-1 3l-2 3q-1 1 -1 2q-5 6 -8 10h-1h1h-1zM115 -683q-10 -13 -108 -109q54 -78 117 -117q111 113 116 116l-2 3
q-59 48 -83.5 76t-39.5 31z" />
  </g>

</svg>
