<?xml version="1.0" standalone="no"?>
<!DOCTYPE svg PUBLIC "-//W3C//DTD SVG 1.1//EN" "http://www.w3.org/Graphics/SVG/1.1/DTD/svg11.dtd" >
<svg viewBox="-1 -885 2048 2048">
  <g transform="matrix(1 0 0 -1 0 1638)">
   <path fill="currentColor"
d="M365 444l-4 -4l-8 -14q-4 -12 -10 -20q-88 -246 -344 -234v-172q164 18 272 138q-36 -326 152 -514l10 -12q16 -11 24 -20l6 -4l6 -4l4 -4q9 -6 14 -12l6 -2l4 -2l6 -4l2 -4l26 -14l4 -4l14 -6l4 -4l4 -2l22 -12q11 -6 20 -8l2 4q5 19 12 30l2 8q4 10 8 16l10 32l2 4
l8 18l2 6l2 4l14 36q-121 50 -158 162l4 6l4 6l2 6l4 6l2 6l8 14l2 4l12 22q6 11 12 18l2 8l6 8l4 8l6 8l4 6l6 8q7 13 14 20l4 8l12 14l2 6l6 6l4 4l4 6l10 10l16 22l4 2q10 13 20 20q2 4 4 4l10 12l6 4l2 4l12 8l2 4l6 2l2 4l6 4l4 4l6 2q14 14 28 20q14 4 24 4
q21 -8 34 -22q5 -10 8 -18l4 -6q10 -11 14 -20q10 -7 14 -16q111 -84 240 -70v4v4v4v4v4v4v4v4v4v4v4v6v-2v4v-2v4v-2v4v-2v4v-2v4v-2v4v-2v4v-2v4v-2v4v-2v4v-2v4v-2v4v-2v4v-2v4v-2v4v-2v4v-2v4v-2v4v-2v4v-2v4v-2v4v-2v4v-2v4v-2v4v-2v4v-2v4v-2v4v-2v4v-2v4v-2v4v-2v4
v-2v4v-2v4v-2v4v-2v4v-2v4v-2v4v-2v4v-2v4v-2v4v-2v4v-2v4v-2v4v-2v4v-2v4v-2v4v-2v4v-2v4v-2v4v-2v4v-2v4v-2v4v-2v4v-2v4v-2v4v-2v4v-2v4v-2v4v-2v4v-2v4v-2v2q-178 -8 -258 130l-4 2q-8 7 -16 10q-23 -1 -40 -6q-269 -147 -336 -422l-2 -6l-2 -6q-7 -24 -14 -40
q-136 288 -40 562q5 57 -18 60zM863 -659q-10 -13 -108 -109q54 -78 117 -117q111 113 116 116l-2 3q-59 48 -83.5 76t-39.5 31z" />
  </g>

</svg>
