<?xml version="1.0" standalone="no"?>
<!DOCTYPE svg PUBLIC "-//W3C//DTD SVG 1.1//EN" "http://www.w3.org/Graphics/SVG/1.1/DTD/svg11.dtd" >
<svg viewBox="0 -1071 2048 2048">
  <g transform="matrix(1 0 0 -1 0 1638)">
   <path fill="currentColor"
d="M932 1279l-4 -8l-4 -4l-4 -6l-2 -4l-4 -4q-10 -17 -18 -28l-2 -6l-2 -4l-4 -4l-2 -4l-2 -4q-7 -15 -14 -24q-7 -16 -14 -26l-2 -4q-8 -15 -16 -24l-2 -6l-4 -6l-10 -18l-6 -6l-4 -6l-4 -6l-4 -6l-4 -6l-6 -6q-5 -11 -12 -16l-4 -6q-6 -10 -12 -16l-6 -6l-10 -10
q-2 -3 -4 -4l-2 -4l-22 -24l-6 -4q-9 -7 -14 -14l-8 -4q-6 -8 -14 -12l-6 -4q-2 -3 -4 -4l-6 -6l-6 -4l-6 -2q-11 -10 -20 -16l-34 -18q-11 -8 -20 -12l-8 -2l-6 -4q-10 -6 -18 -8l-4 -4l-42 -22l-12 -6l-14 -6q-11 -7 -20 -10q-2 -3 -4 -4l-6 -2l-4 -4l-6 -2l-4 -2
q-2 -2 -4 -2l-12 -8l-12 -6l-12 -6l-8 -6l-10 -4l-10 -8l-8 -4l-10 -6l-6 -4l-8 -4l-8 -4l-8 -4l-6 -4l-10 -6l-20 -14l-14 -6q-2 -3 -4 -4l-4 -2q-27 -19 -46 -28l-4 -10l-8 -10l-4 -8l-4 -10l-4 -8l-4 -2q-8 -23 -20 -36l-2 -8l-4 -6l-8 -12l-2 -6l-4 -6l-2 -4l-14 -22
q7 -6 14 -6l44 -2l24 -4h6q22 -1 38 -4h6q22 -1 38 -4l40 -2l4 -2h6q22 -1 36 -4h16h6q27 -5 44 -4l14 -2l14 -2h14l14 -2h6l8 -2h6l44 -4h6l14 -2h12l10 -2l28 -2h8q20 -4 34 -4h8l8 -2h14l4 -2l32 -2q-419 -212 -568 -606l-4 -6q-4 -12 -8 -20l-2 -8l-4 -6q0 -5 -2 -8
l-2 -8l-4 -6q0 -5 -2 -8l-2 -8l-2 -6l-2 -8q-9 -19 -12 -34l-2 -8l-2 -4l-8 -32l-2 -10l-2 -4l-4 -18l-2 -14l-8 -46q0 -11 -2 -20v-102q3 -13 2 -24q5 -19 6 -32v-6l4 -14q2 -11 6 -20q1 -12 4 -20l2 -8q2 -3 2 -6l4 -6v-6l4 -6l4 -14q9 -14 12 -26l4 -6l2 -8l6 -6l8 -18
q8 -10 12 -20q7 -8 10 -16q3 -2 4 -4q7 -7 10 -14q16 -14 22 -28l8 -6l4 -6l6 -4l4 -6q9 -7 14 -14l6 -4l12 -14l6 -2q7 -8 14 -12l4 -4l24 -20q19 -10 30 -20q16 -7 26 -16l6 -2q14 -9 24 -12l12 -8l6 -2l4 -2l14 -6q11 -6 20 -8l4 -4l6 -2q18 -5 28 -10l6 -2l6 -2l32 -10
l22 -6l6 -2l8 -2l6 -2l8 -2h8l8 -2q12 -3 22 -4q12 -4 22 -4l4 -2h6l40 -4q388 -29 652 198l6 4l6 2q2 3 4 4l4 4l6 4q8 7 16 10q10 12 20 18q-1 12 -28 4q-3 -2 -6 -2l-4 -4q-21 -6 -34 -12l-8 -2h-6l-6 -4h-8l-14 -6l-16 -2q-22 -9 -40 -10q-15 -6 -26 -6l-8 -2
q-15 -5 -26 -6h-6l-8 -2l-16 -4h-10q-20 -7 -36 -6l-14 -4l-46 -4q-349 -46 -624 98l-6 4l-6 4l-16 12l-6 2l-6 4l-4 4l-4 4l-6 4l-12 8l-2 4l-6 4l-24 20q-7 8 -10 14q-25 20 -36 42q-17 17 -24 36q-8 8 -12 18l-2 6q-8 11 -10 22l-4 4v6q-2 2 -2 4q-2 2 -2 4l-2 4
q-13 35 -16 60q-2 2 -2 4l-6 32v6v8q-3 21 -2 34v22v20l2 6v6v8l2 4v8l4 34q85 335 342 510l4 6l6 4q13 8 20 14l22 12l6 6l26 14l6 6l8 4l6 4l8 2l6 4l8 4l8 4l4 4l22 12q15 6 24 12h6q2 2 4 2q14 11 28 14l20 10q15 5 24 10l24 8l6 4l22 6l14 6l4 2l26 8q12 7 24 8l8 2
l8 4l8 2q12 5 22 6l6 4h8l14 6h6q14 6 24 8q13 3 22 4l8 2q12 5 22 6l6 2l4 2h6l16 4l4 2h6q18 5 32 6l18 28l2 4l18 28l4 6q8 13 14 20l2 6l4 6l36 58h-34h-22h-8h-34h-6h-24h-12h-6h-6h-26l-12 2h-12h-12h-12h-14h-6h-6q-18 -1 -32 2h-28h-10q-19 -1 -32 2q-31 -1 -50 2
h-14h-8h-6h-6q-15 3 -24 2h-6h-6h-6l-6 2q-16 -1 -28 2h-14h-6h-6q-19 2 -32 2l-14 2h-14q-8 3 -16 2l-12 2h-12h-12l-14 2h-10l-8 2h-12q-16 3 -26 4h-12l-8 2h-6l-26 2q-12 3 -20 2l-6 2h-6l-6 2h-6h-6l-6 2h-6h-6q-10 2 -16 2l8 6l6 4l20 8q22 15 40 20q12 9 22 12l10 6
l24 14l8 4l8 4l4 4q12 5 20 12l8 2q5 4 10 6l8 6l10 6q16 13 28 18l6 4q10 10 18 14l4 2l12 8l2 4l6 2q13 14 26 20q9 12 20 18q2 3 4 4q21 25 38 38l2 6l4 2q16 25 28 38q5 13 12 22l4 6l4 8l4 8l2 10l4 6l4 6q2 11 8 20l2 8l4 8l2 6l20 44l2 4l4 4q12 18 24 28
q63 33 72 -44l10 -2q48 106 20 206l-20 16h-6h-24q-25 -10 -40 -26zM1155 113q-10 -13 -108 -109q54 -78 117 -117q111 113 116 116l-2 3q-59 48 -83.5 76t-39.5 31zM755 -277q-10 -13 -108 -109q54 -78 117 -117q111 113 116 116l-2 3q-59 48 -83.5 76t-39.5 31z" />
  </g>

</svg>
