<?xml version="1.0" standalone="no"?>
<!DOCTYPE svg PUBLIC "-//W3C//DTD SVG 1.1//EN" "http://www.w3.org/Graphics/SVG/1.1/DTD/svg11.dtd" >
<svg viewBox="0 -1052 2048 2048">
  <g transform="matrix(1 0 0 -1 0 1638)">
   <path fill="currentColor"
d="M391 454l-4 -6l-4 -6q-8 -8 -12 -14l-4 -4l-2 -4l-10 -10q-5 -11 -12 -16q-5 -12 -12 -20l-4 -6q-2 -3 -4 -4l-2 -6q-15 -23 -22 -40l-14 -6q-13 -14 -26 -20q-2 -4 -4 -4q-6 -9 -14 -12q-12 -18 -24 -28q-8 -14 -18 -22l-4 -6q-8 -17 -18 -28l-4 -6l-2 -8l-6 -6l-2 -8
l-4 -4q-8 -23 -18 -36q-2 -11 -6 -20l-10 -24q-4 -17 -10 -28l-2 -16l-2 -4q-12 -51 -8 -86v-40q3 -23 2 -40v-14l2 -6l6 -104q-1 -16 2 -28v-24q6 -31 4 -52q3 -8 2 -16l6 -66q2 -14 2 -24q5 -27 4 -44l2 -14l2 -28q2 -3 2 -6l4 -52q2 -3 2 -6v-10l2 -6v-14q2 -3 2 -6
l4 -40l2 -12v-16l2 -8l2 -14v-12q3 -8 2 -16l4 -22l2 -26l4 -32l2 -18v-8l6 -36v-8q2 -15 2 -26l2 -8l4 -34v-8l6 -50q2 -3 4 -4q6 13 14 20q4 10 8 16l4 4l2 6l2 6l4 4q4 12 8 20q3 10 6 16l2 6l2 6q4 26 10 42v6q1 16 4 28v6v6q2 19 2 32v8q0 12 -2 22v10v6q-2 2 -2 4
l-4 50q-2 7 -2 14l-2 6v14l-2 6v6v6l-4 26v8v6l-2 4q0 22 -4 36v6l-2 36q-3 12 -4 22v6l-4 40l-2 24v8v6q-5 22 -4 38v8q-2 2 -2 4l-2 32v12q-2 3 -2 6l-2 40l-2 10v16q-5 31 -4 50q-3 20 -2 34l-2 4v26q-4 19 -2 32q-4 20 -2 34q-2 5 -2 10v10v8q-3 18 -2 34v10q-2 3 -2 6
v8v14q-3 21 -2 36q29 16 58 14l4 -2l24 -6l26 -12q10 -6 16 -8l14 -8l4 -2l18 -12l34 -14l4 -2l14 -6l40 -8l4 8l20 28l4 10l4 8l4 6l10 16l2 8l4 8l24 50v26q-13 26 -24 42l-6 4l-6 4l-4 4l-18 16q-15 6 -24 14l-8 4l-8 4l-8 4l-8 4l-8 2l-16 8q-13 3 -22 8l-4 2
q-22 4 -36 14l2 4l18 16l4 6l6 6l14 12l10 12l6 2l10 10q19 21 36 30q2 4 4 4q2 4 4 4l4 2q9 11 20 16q8 8 14 12l6 4l6 4l6 4l16 12l20 12q18 13 32 18q2 4 4 4l6 4l6 2q8 6 16 8q2 4 4 4q17 10 30 14q25 17 48 22q11 8 22 10q3 2 6 2l4 4l6 2l6 2l6 2l4 2l4 2q27 13 48 16
q11 6 20 8h6l4 2h6l24 4h6h24q35 -9 56 -32q5 -12 10 -20v-6q7 -24 8 -42q0 -11 -2 -20q1 -20 -2 -34l-2 -10q-1 -21 -4 -34q-1 -16 10 -24l6 4q2 4 4 4l2 6l4 6l12 14q7 19 18 32q117 318 -124 302q-292 -74 -480 -266zM761 -315q-10 -13 -108 -109q54 -78 117 -117
q111 113 116 116l-2 3q-59 48 -83.5 76t-39.5 31z" />
  </g>

</svg>
