<?xml version="1.0" standalone="no"?>
<!DOCTYPE svg PUBLIC "-//W3C//DTD SVG 1.1//EN" "http://www.w3.org/Graphics/SVG/1.1/DTD/svg11.dtd" >
<svg viewBox="0 -1327 2048 2048">
  <g transform="matrix(1 0 0 -1 0 1638)">
   <path fill="currentColor"
d="M779 459h-4l-4 -1h-4l-4 -1h-4l-5 -1h-3q-6 -2 -11 -2l-5 -1l-14 -3l-5 -1l-4 -1l-7 -1l-6 -2l-16 -4l-3 -1q-6 -2 -10 -3l-7 -2q-8 -4 -15 -5l-5 -3l-11 -3l-2 -2q-4 -1 -7 -3l-5 -1l-4 -2q-4 -2 -8 -3q-4 -3 -9 -4l-2 -2l-3 -1l-3 -2l-3 -1l-7 -3q-5 -4 -10 -5l-5 -3
l-3 -2l-3 -2l-5 -2l-4 -3l-3 -2l-4 -1q-1 -2 -3 -2l-3 -3l-3 -1l-2 -2l-4 -1l-1 -2l-3 -1q-9 -7 -16 -10q-1 -2 -3 -2q-1 -2 -3 -2q-1 -2 -3 -2l-1 -2l-4 -2l-2 -2l-3 -1l-1 -2l-16 -11l-9 -8l-3 -1l-1 -2l-11 -8q-5 -5 -10 -8l-3 -3l-6 -5l-2 -2l-2 -1q-5 -6 -11 -10
q-2 -2 -4 -3l-4 -5l-17 -15l-3 -4l-4 -3q-5 -7 -10 -10l-3 -4l-3 -3l-3 -2q-3 -5 -6 -7l-9 -10l-3 -2q-4 -7 -9 -10l-4 -6l-2 -1l-12 -15l-2 -2l-3 -3l-6 -7l-6 -8l-2 -1l-2 -3l-1 -2q-5 -5 -8 -10l-9 -8l-3 -3l-3 -4l-3 -3l-3 -3l-3 -2q-6 -8 -10 -12l-2 -2l-2 -3l-2 -2
l-2 -2l-1 -2l-2 -2l-2 -2q-7 -10 -13 -16q-4 -9 -10 -14q-3 -8 -8 -12q-2 -6 -5 -9l-1 -3q-4 -4 -5 -8l-6 -8q-3 -8 -7 -13l-1 -4q-4 -7 -7 -11q-3 -10 -8 -17q-3 -10 -7 -15l-6 -17l-2 -5l-2 -5l-1 -3l-5 -11l-1 -5q-3 -6 -4 -11l-1 -3l-1 -3l-1 -3l-1 -3l-1 -4l-2 -3
l-1 -7l-1 -2l-1 -2l-2 -6q-1 -9 -4 -15q-1 -7 -3 -13l-1 -7q-2 -8 -3 -14q-2 -6 -2 -10l-1 -3l-3 -14l-3 -22q-2 -8 -2 -13q-1 -5 -1 -8l-2 -16v-4l-2 -11v-11l-1 -6l-1 -20v-37q0 -11 2 -18q0 -5 1 -8v-5l1 -3v-10q1 -1 1 -3v-5l1 -3v-5l1 -2v-3q0 -11 3 -26v-7l1 -3v-8
q2 -8 2 -15v-3q1 -2 1 -3v-3l4 -41q1 -1 1 -2l2 -23l1 -4v-7l1 -2v-4l1 -7l2 -18q0 -5 1 -8l2 -27q2 -8 2 -14q1 -6 1 -10v-3q2 -10 2 -18l1 -5v-5q1 -4 1 -7l1 -3l1 -9q0 -6 1 -11v-5l1 -2v-10q1 -4 1 -8l2 -11q0 -5 1 -8v-10q3 -9 2 -17q2 -8 2 -14q0 -5 1 -8q0 -5 1 -8
q0 -5 1 -8v-8l1 -6v-4l1 -6v-4q1 -1 1 -3l1 -10l2 -20l1 -8l1 -5v-10q1 -3 1 -5v-4q1 -1 1 -2l1 -17q1 -1 1 -3v-5l1 -3l1 -9l1 -9v-7q2 -10 2 -18l1 -3q0 -11 2 -19v-6q2 -10 2 -16l1 -4q0 -6 1 -11v-7q1 -1 1 -3v-3l2 -16v-6q1 -1 1 -3v-5l1 -3v-5l1 -2v-3q0 -11 2 -18v-7
q1 -1 1 -3l2 -20l3 -32q2 -8 2 -19q1 -3 1 -6l1 -4l5 -53l1 -4v-8l1 -4v-4q2 -4 1 -8l1 -3v-7q3 -16 3 -25q1 -2 2 -2l2 5l6 6l1 3l3 3q3 8 7 12l1 3l2 3q4 8 8 13q2 5 4 9l2 4q1 5 3 8l2 3v3l9 22l1 5l1 2q1 5 3 9q0 3 1 4v3l2 8l1 3l3 13l1 3l1 7q1 11 3 18v4v4l1 4v7l1 6
v3v3q2 9 1 16v5q2 8 1 13v14l-1 4v4v5v13l-1 4v3v4l-2 25q-2 10 -2 17l-1 3l-1 14l-1 3v5l-1 3l-2 19v3l-1 8l-2 20q-2 8 -2 14l-1 3v3v4l-1 8q-2 11 -2 20q-1 3 -1 5v3q-2 8 -2 14v4q-2 6 -2 11l-2 23l-1 7l-2 16l-1 6v7q-2 4 -1 8l-1 2l-1 9v6v3q-3 9 -2 16q-2 8 -2 13v5
q-1 6 -1 11q-1 2 -1 3q-1 10 -2 17v8q-1 4 -1 7q-1 6 -1 10l-1 4v5q-3 18 -3 29l-1 7l-1 7v4q-2 6 -1 11q-1 2 -1 3v6l-1 3v8q-2 8 -2 15l-2 20v4q-3 18 -3 30q-1 1 -1 3v3v4q-1 1 -1 3q0 12 -2 20v7l-1 7q0 11 -2 19v8q-2 6 -1 11l-1 5v5l-1 5v4v4q-1 1 -1 3v3v5
q-2 13 -2 22q-1 9 -1 16q-2 8 -1 13l-1 6q0 6 -1 10v9l-1 4v5v4v4l-1 4v8v5q-1 10 -1 17v3l-1 12v11v11q-1 10 -1 17v3l1 8v3v3v3v3l1 7l1 11l4 6q112 26 209 -7q8 -2 14 -1q55 65 57 141q-1 1 -1 2q-4 18 -9 29q-31 78 -109 104q141 145 315 189l11 1q1 1 3 1h3q1 1 3 1h3
q12 3 21 2q13 2 22 1l3 -1h7l3 -1q5 0 8 -1h3l4 -1l8 -2l15 -5q27 -14 42 -36l5 -15l3 -5l2 -5l2 -5l1 -2q2 -8 5 -12l2 -5l5 -13q1 -1 1 -2l7 -15l2 -3l2 -5l2 -3l1 -4q4 -6 6 -11l1 -3l2 -2l4 -7l1 -3l1 -3q5 -6 7 -12q2 -1 2 -3l3 -3l2 -3l5 -9l3 -3l1 -3q2 -1 2 -3l2 -1
l2 -3q5 -6 7 -10q5 -4 7 -8l4 -4q2 -1 2 -2l3 -2l2 -3l3 -2l2 -3l2 -1l5 -6l5 -4q7 -4 11 -9l3 -1l9 -7l3 -1l2 -2l22 -12l3 -1l8 -4l4 -1l3 -2h3l3 -2l17 -5q10 -3 15 -6h3q8 -2 14 -2q6 -2 11 -2l10 -2v8v7v7v3v3v31v7v6v7v6v5v6v4v18v11v4v4v4v4v17v3v12q-5 1 -8 1l-11 2
l-3 1l-3 1h-3l-4 1q-5 2 -8 3l-3 1l-2 1l-16 7l-3 2l-2 2l-3 1l-2 2l-3 1q-4 4 -8 6l-2 3l-2 1q-2 1 -2 2q-4 2 -6 5l-12 11l-1 3l-5 5l-1 2l-2 1q-4 5 -5 8l-2 1l-1 3q-8 8 -11 17q-3 3 -5 6l-2 4l-2 3l-5 12q-9 13 -12 25l-2 3l-1 2q-5 9 -6 16l-2 3l-4 10l-1 5l-2 3l-2 6
l-1 3l-3 14l-1 3v3q-4 8 -5 15l-2 2l-2 6l-2 2l-1 3q-5 6 -8 11q-7 5 -11 11q-49 29 -108 22zM850 -387q-10 -13 -108 -109q54 -78 117 -117q111 113 116 116l-2 3q-59 48 -83.5 76t-39.5 31z" />
  </g>

</svg>
