<?xml version="1.0" standalone="no"?>
<!DOCTYPE svg PUBLIC "-//W3C//DTD SVG 1.1//EN" "http://www.w3.org/Graphics/SVG/1.1/DTD/svg11.dtd" >
<svg viewBox="-64 -410 2048 2048">
  <g transform="matrix(1 0 0 -1 0 1638)">
   <path fill="currentColor"
d="M394 532q0 -1 -5 -13l-2 -5l-2 -5l-1 -5l-2 -4l-2 -5l-5 -16l-2 -8q-2 -6 -3 -10l-1 -4l-1 -2l-1 -7l-4 -14v-3l-5 -26q0 -2 -1 -12l-1 -10v-5q-1 -4 -1 -8q-2 -19 -1 -31l-2 -1l-3 -1l-2 -2l-3 -1q-9 -5 -16 -8l-3 -3l-29 -17l-6 -4l-1 -2l-23 -15l-1 -2l-2 -1l-2 -1
l-2 -2l-13 -10l-4 -3l-3 -2l-6 -4l-1 -2l-16 -11l-3 -3q-5 -3 -8 -6l-2 -1q-8 -6 -14 -9l-2 -2l-2 -2l-3 -1q-1 -1 -2 -1l-1 -2q-9 -5 -15 -9l-7 -3q-1 -1 -2 -1q-7 -6 -11 -7l-7 -2l-6 -4h-3l-2 -2l-2 -1l-16 -5q-11 -5 -19 -7h-4q-2 -1 -10 -3l-4 -1l-4 -1l-4 -1h-5
q-7 -2 -13 -3h-4l-3 -1h-3h-4q-1 -1 -3 -1h-8q-42 0 -84 -1v-168q175 6 241 72l3 2l3 2l3 3l2 2l6 5l2 2l2 1l1 2l6 4l1 2l2 1q4 5 7 8l4 2l3 3q4 6 9 8l3 3l11 11l3 2l3 3l2 2l2 2l6 4q5 6 10 10l3 1q6 7 13 10l2 3l4 3l9 5q5 5 7 6l2 1l3 2l2 1l4 2l2 2l2 1l7 3q6 5 11 6
l2 2l3 -1l2 -2l1 -3q5 -5 8 -10l3 -3l3 -3l2 -4l4 -3l2 -4q4 -3 10 -10l9 -10l3 -3l3 -4l4 -3l3 -4q9 -7 14 -14q9 -5 14 -12l5 -4q7 -4 11 -9l4 -2l4 -3l3 -2l3 -2l4 -2l6 -5l7 -4q6 -2 10 -6q5 -2 9 -4l3 -1q4 -2 9 -4l3 -1l8 -4l2 -1l5 -1l3 -1l4 -1l25 -6q1 2 2 2
q10 13 18 20q52 68 57 144q16 131 -125 170h-3l-3 1l-13 1q-4 1 -8 1h-3h-18q-1 -1 -2 -1q-28 -3 -48 -17q-18 24 -19 50q111 193 296 269h3q12 6 21 7l3 2h4l3 1l10 3h3l8 2l16 3h12q1 1 2 1h3h3l16 -1l8 -1l16 -4q27 -13 32 -39q6 -5 13 -3l3 3l1 2l11 12q3 7 7 10l5 9
l2 1q4 8 7 12q1 2 2 2l1 3q1 2 2 2l1 3l7 12q4 10 7 15l3 8l2 2v3l2 3l1 4l4 13l4 16v17q-5 70 -94 60q-323 -74 -451 -338zM878 170q-10 -13 -108 -109q54 -78 117 -117q111 113 116 116l-2 3q-59 48 -83.5 76t-39.5 31z" />
  </g>

</svg>
