<?xml version="1.0" standalone="no"?>
<!DOCTYPE svg PUBLIC "-//W3C//DTD SVG 1.1//EN" "http://www.w3.org/Graphics/SVG/1.1/DTD/svg11.dtd" >
<svg viewBox="0 -629 2048 2048">
  <g transform="matrix(1 0 0 -1 0 1638)">
   <path fill="currentColor"
d="M751 599l-2 -1q-9 -3 -15 -4q-3 -2 -6 -2q-2 -1 -3 -1l-3 -2q-13 -3 -21 -7l-4 -1q-7 -3 -12 -4q-1 -1 -3 -1l-3 -2l-4 -1l-3 -2l-4 -1l-3 -1q-6 -4 -12 -5l-7 -3q-3 -2 -5 -2q-7 -5 -14 -7l-4 -2l-5 -2l-4 -3l-2 -1l-6 -2q-8 -6 -15 -8q-1 -2 -3 -2q-6 -4 -10 -6l-4 -3
l-9 -4q-7 -6 -14 -9q-6 -6 -12 -8q-126 -86 -173 -213l-4 -1l-2 -2l-3 -2l-4 -1l-2 -2l-3 -1l-2 -2l-25 -13q-155 -102 -321 -92v-173h10h11h11h4q8 2 13 1q1 1 3 1h4l4 1l11 1l4 1l7 1q10 3 18 4q8 4 14 4q6 3 12 4l2 2h3q11 6 20 8l4 3q14 5 22 11l3 1l7 4q8 5 14 7
q7 6 12 8l5 3l2 1l14 9l4 2l4 4l5 3q7 5 12 7q1 2 3 2q5 5 9 7l3 2l3 1l1 2l2 1l3 2l14 9l2 -4l1 -4l2 -5q1 -5 3 -8l1 -3l1 -2l1 -3l7 -16l2 -2l1 -2l2 -6q6 -8 8 -15q4 -4 5 -8l2 -2l2 -3l1 -3q1 -1 1 -2q9 -10 13 -19q2 -1 2 -2l2 -2q5 -6 7 -10q6 -5 9 -11q5 -3 7 -6
l2 -3l8 -9q2 -1 2 -2l5 -5l3 -2l2 -3q2 -1 2 -2l15 -13l1 -2q5 -3 8 -6l3 -2l2 -3l4 -2l3 -2l2 -3l3 -2q5 -3 8 -6l3 -2q2 -1 2 -2l3 -1l1 -2l3 -1l1 -2l2 -1q2 -1 2 -2l15 -8l1 2l3 2q3 5 6 8l17 21l1 2l2 4l2 2l2 2l1 3l2 3l2 1q4 7 7 11l3 5l3 4l3 5l3 5l1 4l3 3q2 6 5 9
l7 16l2 4l2 3l1 3q4 6 5 11q3 5 4 9l7 13v3v3q-1 6 -1 10v3q-1 1 -1 3v3l-1 2v3l-2 15l-1 4l-1 4v4q-1 1 -1 3l-1 2v4q-3 10 -4 17l-1 2v3q-3 5 -3 10l-1 4l-2 3l-1 4l-3 10l-2 3v3q-5 7 -6 14q-3 4 -4 8l-2 2l-4 10q-6 6 -8 13l-3 3l-2 2l-4 6l-2 2l-2 3l-1 2q-2 1 -2 2
q-10 8 -15 15l-3 1l-12 10l-2 1l-3 2l-7 4q-6 2 -10 4q-5 3 -9 4q91 181 275 175l3 -1q8 -1 14 -3q10 -3 16 -6q30 -20 39 -50q2 -11 5 -19v-3q3 -12 3 -20q3 -6 3 -11l2 -8q5 -11 6 -21q2 -3 2 -6q8 -18 10 -30l2 -4l1 -4q2 -3 2 -5l2 -4l1 -4q6 -10 8 -19q1 -1 1 -2l2 -2
v-3q6 -9 8 -17q5 -7 7 -12l2 -4l6 -11q3 -5 5 -9l2 -4l3 -3l6 -11q5 -5 7 -9l1 -3l2 -1l1 -3l2 -1l1 -3q8 -7 11 -14l3 -2l2 -3l3 -3l2 -2l4 -6l3 -2l2 -3q5 -3 7 -7l3 -2l5 -6q7 -5 11 -10q7 -4 10 -7l8 -6q4 -3 7 -6l5 -2l4 -3l4 -2l4 -3q5 -3 8 -5l11 -5l16 -9h3l2 -2h3
l2 -2l3 -1l3 -1l3 -1l3 -1l3 -1l16 -5l3 -1l4 -1l3 -1l4 -1l3 -1l3 -1h4l5 -1l4 -1l19 -4h5l3 -1h5l3 -1h5q7 -1 12 -1q6 0 10 -1v3v20v7v7v4v5v13v4v17v3v12v4v4v3v18v13v4v17v3v12q-155 0 -219 125q-4 4 -5 7l-1 4q-1 1 -1 2l-4 6v3q-6 10 -8 19l-2 2v3q-4 7 -5 13
q-1 1 -1 2q-6 14 -7 24l-2 3q-2 6 -2 11q-3 6 -4 11v4q-5 13 -5 22l-1 4l-1 4l-1 4l-1 4l-1 5q0 6 -2 11v4l-1 4v5q-1 1 -1 3l-1 3v5l-2 10q0 5 -1 8l-1 20q-1 2 -1 3l-2 7v3q-3 4 -3 8q-2 3 -3 6q-4 5 -5 9q-42 45 -117 36q-5 -2 -9 -1zM785 -403q-10 -13 -108 -109
q54 -78 117 -117q111 113 116 116l-2 3q-59 48 -83.5 76t-39.5 31z" />
  </g>

</svg>
