<?xml version="1.0" standalone="no"?>
<!DOCTYPE svg PUBLIC "-//W3C//DTD SVG 1.1//EN" "http://www.w3.org/Graphics/SVG/1.1/DTD/svg11.dtd" >
<svg viewBox="0 -527 2048 2048">
  <g transform="matrix(1 0 0 -1 0 1638)">
   <path fill="currentColor"
d="M1392 555l-6 -4l-2 -3l-2 -2l-2 -2l-3 -1q-1 -2 -2 -2l-1 -2l-13 -15q-307 -253 -365 15l-3 1l-3 -7l-3 -7l-3 -7l-1 -2l-2 -6l-12 -24l-1 -2q-3 -9 -6 -15l-3 -6l-2 -5l-6 -13l-10 -22l-2 -4q-2 -6 -5 -10q-1 -6 -4 -9l-1 -2l-1 -3l-1 -2q-5 -14 -10 -22l1 -4l2 -4l2 -3
l6 -13v-3l2 -2l45 -169q18 -125 18 -133q-164 -141 -357 -160q-245 -21 -384 142l-3 2l-2 4q-2 1 -2 3l-3 2l-2 3l-1 3l-2 2l-1 2l-2 2q-5 9 -9 14l-1 4l-2 2l-6 11l-1 4q-3 4 -4 9l-2 2l-1 3l-1 4q-1 2 -1 3l-2 2v3q-1 1 -1 2l-1 3q-4 7 -5 12q-32 127 11 236l5 17l2 4l2 3
v3l2 3l1 4l1 3l2 3l1 3l1 3l2 2l1 2q5 16 12 25v3l1 3l5 11q4 14 8 22q11 35 -2 35l-6 -4q-8 -10 -15 -15l-2 -4l-2 -2q-7 -7 -10 -12l-2 -2l-3 -3q-2 -3 -4 -5q-5 -10 -12 -16q-2 -5 -4 -9l-6 -8l-2 -6l-2 -1l-2 -6l-4 -5q-2 -6 -4 -10l-4 -5l-10 -22l-1 -2l-2 -4l-2 -4
l-5 -12l-2 -3l-1 -3l-1 -3q-3 -5 -4 -9q-2 -5 -4 -8l-1 -6q-5 -9 -6 -16l-2 -2v-3l-7 -18l-1 -3v-3l-4 -12l-1 -3l-1 -3v-3l-2 -7l-1 -3l-4 -16l-1 -3l-1 -7l-5 -28l-1 -8q-2 -6 -2 -11l-1 -4v-9l-1 -4v-8q-2 -19 -1 -31q2 -226 174 -338l4 -2l3 -3l4 -2l11 -6q7 -4 11 -7
q5 -1 8 -3l2 -2q14 -4 22 -10l5 -1l11 -5l13 -4l4 -2l5 -1l10 -4q3 0 4 -1h3l4 -1l2 -1l6 -2q13 -2 21 -5h3l2 -1h3l26 -5q5 0 8 -1h3l7 -1h6l3 -1h4l17 -2h4h18h3h18h4h3h3h13l22 1l14 1q6 1 10 1l20 3q248 32 367 251v1v-1v1l1 3q4 6 6 10l2 5l2 4l3 3l1 4l6 11l2 4l2 4
l1 2l5 12l2 2v3l2 2q4 14 9 23l2 9l1 3l1 2l1 4l6 17v3l1 2q2 9 4 14l1 4v4l1 3l4 18l1 6v4l1 3v4l1 4v4l2 10v4l1 7q0 13 1 22h3h10h8l5 1h4l7 1q2 1 3 1l2 1h3q8 2 13 3l3 2h3l7 3l4 1q2 1 3 1l3 2l4 1l2 2l2 1l6 2l6 4l3 1l2 2l3 1q6 5 12 7q1 2 2 2l2 2q5 3 9 5l1 2l2 2
l6 4l2 1q5 5 10 8l2 3l3 2l3 2q9 11 18 17q1 2 2 2q1 2 2 2q5 8 11 12q5 7 10 11l2 4l3 3l3 3l9 11l2 3l3 4l3 2l2 4l6 7l1 2l2 2l2 3l2 2l11 16q8 11 19 13q3 -9 2 -16q-2 -10 -2 -17l-2 -6v-50l1 -3v-8q0 -9 1 -16l2 -31l1 -5l1 -6v-6q1 -1 1 -2l2 -16l1 -7q4 -14 5 -23
l1 -4q3 -8 4 -14l6 -17l7 -21q4 -6 6 -11q5 -9 7 -15q5 -5 6 -10l2 -1l1 -2l9 -14l3 -2l4 -6l2 -1l1 -2q5 -4 8 -7l1 -3l3 -2q2 -1 2 -2l9 -7l19 -14l2 -1q6 -2 10 -5l2 -1q12 -5 19 -9q9 -2 16 -5h3l3 -1l10 -3l11 -2l2 -1h4q5 -1 8 -1q9 -2 16 -2v7v3v20v6v6v3v4v3v5v3v4
v3v20v4v4v3v18v13v4v17v3v12q-38 7 -65 29l-2 2l-6 7l-3 2l-2 2l-1 3q-2 1 -2 2l-3 2l-12 17l-2 4l-2 3l-1 3l-2 3l-2 3l-1 4l-1 3l-2 2l-1 3l-7 16l-1 5l-1 4q-3 6 -4 11l-1 3l-1 4l-2 7l-5 18v4q-3 12 -4 19v3l-1 4l-1 2v4l-3 17l-1 17q-2 8 -2 14v4q0 5 -1 8l-1 20v4
l-1 17v13v4v4v4v17v3v12q-1 23 -13 37h-12q-3 -2 -6 -3zM1200 -301q-10 -13 -108 -109q54 -78 117 -117q111 113 116 116l-2 3q-59 48 -83.5 76t-39.5 31zM600 1073q-10 -13 -108 -109q54 -78 117 -117q111 113 116 116l-2 3q-59 48 -83.5 76t-39.5 31z" />
  </g>

</svg>
