<?xml version="1.0" standalone="no"?>
<!DOCTYPE svg PUBLIC "-//W3C//DTD SVG 1.1//EN" "http://www.w3.org/Graphics/SVG/1.1/DTD/svg11.dtd" >
<svg viewBox="-397 -410 2048 2048">
  <g transform="matrix(1 0 0 -1 0 1638)">
   <path fill="currentColor"
d="M739 454l-6 -5q-5 -8 -10 -13l-1 -3l-1 -2l-1 -2l-1 -2l-2 -2l-1 -2l-1 -2q-3 -7 -7 -12l-4 -7q-6 -14 -14 -22q-47 -81 -126 -106q-22 -4 -38 0q-5 0 -8 1l-25 8q-78 48 -102 130q-3 4 -4 8v3q-4 7 -4 13l-3 7l-3 -6l-1 -3l-2 -2l-1 -3l-1 -3l-1 -2l-1 -3q-5 -9 -8 -16
l-3 -7l-3 -4l-2 -5l-1 -3l-1 -2q-3 -5 -4 -9l-2 -4l-5 -10l-4 -7q-2 -6 -5 -10l-1 -3q-2 -6 -5 -10l-7 -17l-6 -10l1 -6v-3l3 -8v-3q2 -4 2 -7q3 -6 4 -11l5 -17v-4q3 -6 3 -10l1 -4l1 -3q2 -6 2 -11q5 -12 5 -22l1 -4l1 -4l1 -4l1 -4v-3q2 -6 2 -11l1 -4l2 -11v-3
q3 -11 3 -20l1 -4l1 -11l1 -4v-7q2 -11 2 -19v-5l1 -3v-15q1 -12 1 -20l-2 -2q-3 -8 -5 -12l-2 -1q-4 -11 -10 -17q-3 -8 -8 -12l-1 -3l-1 -2l-2 -2q-8 -12 -15 -18q-7 -12 -17 -19q-5 -8 -11 -13q-5 -3 -9 -8q-6 -5 -11 -8l-7 -7l-4 -3l-4 -2l-3 -3l-4 -2l-3 -2
q-1 -2 -2 -2l-3 -2l-2 -2q-5 -2 -9 -5l-3 -1l-1 -2l-2 -1q-7 -3 -12 -7l-12 -5l-2 -2l-22 -9l-4 -2q-8 -4 -14 -5l-3 -2l-4 -1l-3 -1l-4 -1l-2 -1l-6 -1l-17 -6h-4l-4 -1q-1 -1 -2 -1h-3q-9 -4 -17 -4q-6 -2 -11 -2q-8 -2 -14 -2l-3 -1h-4l-23 -3q-8 0 -13 -1h-14h-3h-3
q-4 -1 -8 -1h-3h-13l-14 1h-10h-3h-3l-3 1q-8 0 -14 1h-8l-7 1h-4l-5 1h-3l-5 1l-3 1l-12 1q-17 2 -26 5h-4l-4 1l-4 1q-7 1 -13 3h-4l-5 1l-2 1l-12 3l-5 1q-9 2 -14 4q-6 1 -11 3h-3l-2 1l-6 2q-16 4 -25 8l-5 1l-4 1q-5 2 -8 3l-3 1l-3 1q-5 2 -8 3l-2 1q-11 3 -18 7
l-2 1h-3q-7 4 -12 5l-3 1l-2 1l-9 4q-7 3 -11 5l-6 2l-2 1l-1 2q-4 1 -7 3q-12 9 -25 12q1 -6 3 -10l3 -4l4 -4l2 -2l8 -10l3 -3l1 -2q6 -4 8 -9q5 -4 8 -8q2 -1 2 -2q5 -3 7 -6l6 -7q2 -1 2 -2q5 -3 7 -6l2 -1l1 -2q7 -5 10 -10l3 -2l2 -2q7 -5 11 -11q7 -4 11 -8l2 -3
q9 -6 14 -12l3 -1q7 -7 12 -10l2 -2l2 -1l2 -2q8 -6 13 -10l4 -2l3 -3l4 -3l4 -2l3 -3l4 -2l4 -2q6 -5 11 -7l3 -3q7 -3 11 -7l5 -2l4 -2l14 -9l3 -1l2 -1l3 -2q13 -4 21 -10q3 0 4 -1l3 -1l15 -7q7 -2 11 -4l6 -1l4 -2l4 -1l5 -1l5 -2q6 -1 11 -3q6 0 10 -2l8 -2q7 0 12 -2
h3h3l3 -1l17 -1h3h3h20h3h3q9 0 16 1h5l17 3l15 2q8 3 14 4l3 1l6 1q8 4 14 5l3 2h3l3 2l14 5l9 5l3 1l3 2l3 1l3 1q4 3 8 4l2 2l2 1q7 4 11 7l4 1q6 5 11 8l6 4l2 1q9 7 16 11q4 5 9 7q5 6 9 8l2 2l2 2l3 1q2 3 6 5q6 8 12 11q5 6 9 10l3 3l7 5l1 2l2 1q7 10 15 16l4 4l1 3
l3 2q1 2 2 2q4 7 9 10q4 7 9 11l3 4l2 3l3 3l4 5l3 5l3 3l3 4q4 5 6 7l2 4l3 2l1 3l3 2q7 13 14 21l1 3l1 3q3 4 5 8l7 12l1 4l2 4l2 3l1 3l1 2l3 7l1 3l7 15l1 5l2 4l1 5l2 3l3 11l2 3l1 3q0 3 1 4l1 2v3l1 2l1 2q2 9 5 16l1 6q2 6 4 11v4q2 6 3 11l1 3l1 4l1 3l1 3l1 7
l1 3l4 19h3l6 -3h3l7 -2l7 -3h3l3 -1l3 -1h4q5 -1 8 -1l3 -1h3l3 -1h4h3h4h18q1 1 3 1h3l3 1h3q6 2 11 2q2 1 3 1l4 1q1 1 3 1q6 4 12 5l7 3l3 3l3 1l2 1q10 7 17 11l2 3l8 6l2 3l3 2l2 3l7 6q6 9 12 14l1 3l2 2l2 2l1 2q6 9 10 14q2 6 6 10l2 3l1 4l2 3l2 3l2 4l2 3l1 3
q3 7 5 11l2 4l1 4q3 5 4 8l5 12l5 15q5 10 12 16q11 -2 13 -12q15 -300 301 -302v7v3v3v31l1 7v6v7v6v5v6v4v18v11v4v4v4v4v17v3v12q-208 -12 -237 212l-2 5v4l-1 3v4l-1 3l-1 8l-1 4v3l-1 4v3l-4 16q-7 27 -29 27z" />
  </g>

</svg>
