<?xml version="1.0" standalone="no"?>
<!DOCTYPE svg PUBLIC "-//W3C//DTD SVG 1.1//EN" "http://www.w3.org/Graphics/SVG/1.1/DTD/svg11.dtd" >
<svg viewBox="0 -617 2048 2048">
  <g transform="matrix(1 0 0 -1 0 1638)">
   <path fill="currentColor"
d="M1318 446h-4q-10 -4 -16 -4h-4l-12 -4h-4l-2 -2l-10 -2q-6 -4 -12 -4q-2 -2 -4 -2q-6 -4 -12 -4l-6 -2q-2 -2 -4 -2l-6 -2l-4 -2h-6q-8 -4 -14 -6h-2l-2 -2q-6 -2 -8 -2l-8 -4l-10 -4l-10 -4h-4q-6 -4 -10 -6l-4 -2h-4q-12 -8 -22 -10l-2 -2l-14 -6l-2 -2l-4 -2l-12 -6
l-2 -2h-4q0 -2 -2 -2l-2 -2h-2l-6 -2q-6 -6 -14 -8v-2l-8 -4q-10 -6 -18 -12l-4 -2l-2 -2h-4l-6 -6l-2 -2h-4v-2l-2 -2q-8 -6 -14 -8q-6 -6 -10 -8q-8 -6 -12 -8l-2 -2l-4 -2l-2 -4l-20 -16l-4 -4l-2 -2l-10 -8l-4 -2l-2 -2l-2 -2l-2 -2q-4 -6 -10 -10l-4 -4l-2 -2l-4 -4
l-2 -2l-2 -2l-2 -2l-2 -2l-2 -2l-2 -2l-10 -10l-2 -4l-2 -2v-2q-4 -8 -8 -10q0 -6 -2 -8l-2 -4l-2 -2q-2 -6 -4 -8l-8 -16v-2q-6 -14 -8 -24q-16 -60 6 -110l2 -2l12 -12q4 -2 8 -6h2l8 -8q8 -4 12 -8l4 -2l2 -2q8 -2 12 -6q6 -2 10 -4q12 -4 18 -8q10 -2 16 -6h6l6 -2l4 -2
l4 -2h4l10 -2q4 -2 8 -2q10 -2 18 -4h2l16 -4h2l8 -2q8 -2 14 -2l4 -2l4 -2h2h4l8 -4q10 -2 18 -6q4 0 8 -2l-2 -2l-4 -2q-6 -2 -10 -4l-2 -2h-2l-6 -2l-2 -2h-2q-8 -6 -16 -8l-4 -2l-4 -2l-4 -2q-6 -2 -10 -4h-2l-4 -2l-4 -2l-2 -2q-8 -2 -14 -6l-14 -4q-2 -2 -4 -2l-2 -2
q-10 -2 -18 -6l-16 -6h-2q-2 -2 -4 -2q-8 -4 -16 -6h-2q-4 -4 -8 -4l-10 -4h-4l-2 -2h-4h-2q-10 -4 -16 -6h-4q-18 -8 -30 -10h-4l-4 -2l-12 -4t-10 -2q-10 -4 -16 -4l-6 -2h-6h-2q-16 -6 -26 -6l-6 -2h-6l-16 -4h-4h-4q-14 -4 -22 -4h-4q-10 -2 -16 -2l-6 -2h-4h-4h-6
l-2 -2h-4l-20 -2h-2h-14q-8 -2 -12 0h-4h-4h-18h-2h-12h-14h-6h-4h-4h-2l-2 2h-20l-2 2h-4h-2h-8l-8 2l-14 2q-10 2 -16 4h-4h-4l-4 2l-8 2h-2h-2q-8 4 -16 4l-8 4h-4l-2 2h-4l-8 4h-2l-4 2l-14 6h-2l-4 2l-2 2l-4 2l-6 2q-14 6 -22 14q-4 0 -8 2l-2 2l-20 14l-2 2l-4 2
l-2 2l-2 2l-8 6l-2 4q-2 0 -2 2l-6 4l-2 4l-4 2v2l-4 2q-6 8 -10 12l-2 2l-2 2l-4 6l-2 4q-4 4 -6 8l-6 8l-2 4q-6 6 -8 12l-2 4l-2 2v2l-2 2l-2 6l-2 2q-2 8 -6 14v4l-2 6q-6 12 -6 20l-2 4l-2 2v4q-2 6 -2 10l-2 4v4q-2 8 -2 16l-2 6v8l-2 2v6v10v4q-2 2 -2 4v4v2v4v4v2
q-2 16 0 26v4v12v4l2 4v6v2v8l2 20l2 4v4v2v4l4 14v4v2l2 4v2v4v2l2 4q0 8 2 12l2 4v4v4l6 16q2 14 6 22v4l6 18l2 4v6q4 6 4 12l2 4l2 4l2 4l4 12l2 4l4 12v2l2 4l2 2q2 10 6 18q6 28 -14 28l-14 -10l-2 -2l-2 -2l-2 -2l-2 -2q-8 -14 -14 -22q-2 -6 -4 -10l-2 -4l-4 -8
l-6 -14q-4 -10 -6 -18l-4 -6l-6 -16l-2 -6l-2 -4v-4l-2 -4l-2 -2v-4q-4 -8 -6 -14l-2 -4v-2l-2 -6l-6 -18q0 -4 -2 -4l-2 -12l-2 -2l-4 -14l-2 -4v-6l-2 -6l-2 -6l-2 -4v-6q-2 -10 -4 -14v-4l-2 -6l-2 -12l-2 -2l-2 -8v-4l-2 -8v-8q-4 -10 -4 -16l-2 -16l-2 -10v-4l-2 -12
v-16l-2 -6v-10v-6v-74v-8q2 -8 2 -16l2 -16q2 -8 2 -14q2 -8 2 -14l2 -12l2 -2l2 -16q6 -8 8 -14v-2l4 -12q2 0 2 -2q4 -6 6 -10l2 -6q6 -8 8 -16q4 -4 6 -8q6 -6 8 -12l2 -4l8 -8v-2q4 -4 6 -8l4 -2v-4l12 -10v-4l4 -2l6 -6l2 -2l2 -2l2 -2q6 -8 12 -12l2 -2l2 -2
q12 -8 18 -16l4 -2l4 -2l8 -6l6 -4l12 -8l4 -2l4 -2l2 -2l18 -10q12 -4 18 -8h2q4 -4 8 -4q6 -2 10 -6h4h2l2 -2q10 -2 16 -6h4l4 -2l4 -2h6l4 -2l16 -4l4 -2h6l16 -4q8 -2 14 -2l4 -2h6h6l4 -2q14 0 24 -2h6l18 -2h6h4h4h18h2h12h14h10l20 2h4l16 2q16 2 26 2l10 2l18 2
q2 2 4 2q10 2 16 2l6 2q8 2 16 2l4 2h2q6 2 12 2q8 4 16 4q4 4 8 4q6 0 12 2l4 2h2q12 2 18 6h4l6 2h4q0 2 2 2h2q8 4 14 4q14 6 24 8l6 4h2l12 4h2l2 2h4l16 8l14 4l6 4l6 2l6 2l6 2q4 2 6 2l4 4h4l4 2l4 2l2 2h2q10 6 18 8q2 2 4 2l6 2q10 6 18 8l4 2q6 4 10 6q6 4 10 4
q4 4 8 4l2 2l18 10l12 6l4 2q4 2 6 4q4 4 10 4l4 2q0 2 2 2l2 2l2 2l4 2h2l12 8l4 2l12 6q10 6 18 10l4 2l2 2l12 6q0 2 2 2l6 4l2 2l4 2l2 2l16 12l2 4l2 2l6 4l2 2l8 6q2 6 6 8q8 10 14 14l2 4l4 6l6 8l2 2q0 2 2 2v2l2 2q2 6 4 10l2 2q4 12 8 18q6 32 -2 60l-2 2l-4 10
l-4 6q-2 0 -2 2l-4 2l-2 2l-12 16h-4l-2 4h-2l-4 2l-2 2l-2 2l-6 4l-2 2l-2 2q-10 4 -16 10h-4q-16 8 -26 12l-10 4l-20 8h-6l-6 2l-4 2l-6 2h-6l-4 2l-8 2q-8 2 -12 2q-8 2 -14 4h-2q-12 2 -20 6h-4h-2l-14 4l-4 2h-2h-2q-10 2 -14 4l-8 2l-4 2l-2 2h-4q-6 2 -10 4h-2l-2 2
q-14 6 -22 10l2 4l4 2l4 2l4 2l4 2l2 4l12 6l2 2q6 4 10 6l4 2l12 8l4 2l2 2h2q10 8 18 10q0 2 2 2l2 2q2 2 4 2l8 4l12 8h4l4 4l12 6l4 2q6 4 10 6q6 2 10 4l4 2l2 2h4l4 2l26 12l16 6l2 2h4l2 2h4l6 2l4 2q6 2 10 2q8 4 14 6h4q6 4 12 4h2l4 2l8 2l8 2q6 2 12 2q8 2 16 2
h22l16 -4q34 -18 54 -46l2 -6q6 -4 8 -10l4 -4v-4l4 -6l2 -2l4 -6q2 -6 6 -10q2 -6 4 -10l4 -6l2 -2v-2l2 -2v-2l6 -10q86 -162 256 -144v6v14v12v10v10v10v10v8v10v8v8v8v6v8v6v8v6v6v6v6v8h-4l-4 2h-2q-18 2 -30 6q-106 46 -158 138l-4 6l-2 4v4l-2 4v2l-2 4v2l-2 4l-2 6
l-2 4l-2 4l-2 4l-2 4l-2 4v4q-2 0 -2 2v2q-2 0 -2 2v0l-2 2v2l-2 2l-2 2l-2 4q-2 0 -2 2l-2 2v2l-2 2l-4 4v2h-2l-2 2l-4 4l-4 4l-2 2h-2l-6 4l-2 2l-6 4l-10 4l-16 6q-8 0 -14 2h-2h-6h-2h-4h-4h-20h-2zM1362 -391q-10 -13 -108 -109q54 -78 117 -117q111 113 116 116l-2 3
q-59 48 -83.5 76t-39.5 31z" />
  </g>

</svg>
