<?xml version="1.0" standalone="no"?>
<!DOCTYPE svg PUBLIC "-//W3C//DTD SVG 1.1//EN" "http://www.w3.org/Graphics/SVG/1.1/DTD/svg11.dtd" >
<svg viewBox="0 -513 2048 2048">
  <g transform="matrix(1 0 0 -1 0 1638)">
   <path fill="currentColor"
d="M654 963l-2 -6l-2 -2q-5 -14 -10 -22l-3 -6l-2 -5l-3 -6q-2 -8 -7 -14l-1 -5l-3 -4l-2 -6l-2 -3l-1 -4q-3 -5 -4 -8l-5 -11l-7 -13q-1 -4 -3 -7l-3 -7l-1 -3q-3 -7 -5 -12l5 -5l4 -6l2 -2l2 -3l2 -2l1 -2q8 -8 11 -15q6 -5 9 -10l4 -8l2 -1q4 -7 7 -10l1 -3q1 -1 1 -2
q5 -6 8 -10l12 -21l2 -3l4 -6q2 -6 5 -9l1 -4q4 -4 5 -9l2 -2l4 -10l2 -2l1 -2l9 -21l2 -4l1 -3q5 -9 7 -16l2 -5q4 -8 5 -14l1 -4q4 -6 5 -11l1 -3l1 -4l8 -25q0 -8 -3 -13l-2 -1q-4 -6 -8 -10q-9 -5 -14 -10l-4 -1l-3 -3l-4 -1l-4 -3l-3 -1l-2 -1q-5 -3 -9 -4l-5 -2l-4 -2
q-6 -3 -11 -4l-3 -2l-11 -3l-22 -9h-3q-2 -1 -3 -1l-16 -6l-5 -1l-4 -1q-1 -1 -2 -1l-2 -1q-9 -3 -15 -4q-7 -4 -13 -4q-6 -3 -11 -4l-14 -5h-3l-3 -2l-3 -1l-10 -2q-7 -4 -14 -5l-5 -1q-4 -3 -8 -3l-16 -6l-5 -1l-4 -1q-5 -3 -9 -4h-3l-3 -2h-3q-2 -1 -3 -1q-1 -1 -2 -1
l-16 -6q-8 -3 -13 -4q-1 -1 -2 -1q-7 -4 -13 -5l-5 -2l-2 -1l-12 -5l-16 -6l-13 -6l-4 -1l-9 -5l-4 -1l-3 -1l-3 -2l-4 -1l-2 -2l-10 -4q-11 -8 -20 -10q-8 -6 -14 -8l-5 -3l-3 -2l-7 -4l-2 -1q-4 -4 -8 -5l-7 -4q-1 -2 -2 -2l-3 -2l-2 -2l-6 -4l-18 -12l-2 -3l-3 -1l-2 -3
l-13 -10q-4 -5 -8 -8l-3 -3l-2 -3l-6 -5q-3 -5 -6 -8t-5 -6l-2 -3l-5 -5q-4 -7 -8 -11l-8 -16q-3 -4 -5 -8l-1 -3l-1 -3l-8 -18v-3l-2 -8l-1 -3q-3 -11 -3 -18l-1 -3l-1 -3l-1 -7v-5l-1 -3l-1 -6v-7q-2 -14 -1 -22q-4 -49 24 -82h4l5 -2l3 -1l3 -1h4l3 -1q8 -2 14 -4h3
l28 -6h6q6 -2 11 -2q5 -1 8 -1l2 -1q6 0 10 -1l9 -1l6 -1h4l4 -1h4l17 -2h6q4 -1 8 -1l20 -2h7h8q6 -2 11 -1q5 0 8 -1h9h8h10l3 -1h8h3h13h17h3h12h4h3h20h4h3h18h13h4h17h8h7h7l6 1h7h3h8q9 0 16 1h17h7l4 1h4h7h5h3q6 0 10 1h3h5h3h4h3q12 2 20 1l10 1h12h3h3q12 2 20 1
q12 2 20 1l6 1h17l6 1h5h6h5l4 1h3h4h3l11 1h3h4h3l20 1h4q5 1 10 1h4h7h3q11 2 19 1q6 2 11 1h3l33 2h7h7l7 1h7h7h7l7 1h7h7h7q4 1 7 1q12 0 20 1h7h7h11q6 1 11 1h10h3h3l20 1h11h3l20 1h7h3h4h3h5h3h4h3h20l4 1h4h5h4h5h13h4h17h8h7h20l7 -1h6h7h6h5h13h4h4h5
q8 -2 14 -1l47 -1q2 4 5 7q3 7 6 11l2 3q6 8 9 14l4 5l5 8l1 2l4 5l3 5q1 2 2 2l1 3l2 3l1 2l2 3l2 2q1 2 2 2q4 9 9 14l1 3q3 4 5 7q4 7 7 10l1 3l3 4l2 3l1 2l2 3l2 1q5 11 11 17v2v-2v2h-7l-3 1h-4h-3h-4h-18l-6 1h-3h-20h-8h-7h-4h-18h-7h-4h-5h-13h-4h-17h-3h-12h-5h-5
h-4h-20l-4 -1h-4h-4h-17h-3h-12q-12 -2 -20 -1h-4h-3h-3h-3l-4 -1q-15 1 -25 -1h-20l-7 -1h-20l-5 -1h-6q-8 0 -13 -1h-4h-18l-4 -1h-4h-5h-5h-3l-3 -1h-5h-3h-4h-3q-12 -2 -20 -1l-6 -1h-5h-6h-5l-4 -1h-3h-4h-3l-11 -1h-10l-20 -1h-3l-3 -1h-5h-3h-4h-3q-12 -2 -20 -1
l-6 -1h-6h-3h-4h-3q-1 -1 -3 -1h-7l-18 -1h-4h-5l-5 -1h-3h-13q-15 -2 -25 -1l-6 -1h-5h-3h-4h-5l-5 -1h-3h-13l-7 -1h-18l-6 -1h-3h-5h-4h-4h-7q-11 -1 -18 -1h-20l-3 -1h-4h-17h-3h-12h-6h-4h-3q-4 -2 -8 -1h-10h-4h-4h-3h-4h-18h-3h-20h-3h-3h-13h-3h-4q-16 2 -25 1h-17
l-6 1h-7h-4h-5l-17 1h-11l-5 1h-4h-3h-3l-3 1h-4h-7l-18 1l-3 1h-3q-12 0 -20 2h-6l-19 2l-6 1q-9 0 -16 2l-14 1l-6 1l-3 1h-3l-4 1l-17 2l-4 1h-3l-10 2l-8 2h-3l-11 2l-16 3q-12 3 -18 9q8 15 20 22l1 2l2 1l7 3q6 5 13 8l13 7l5 3l5 2l3 1l12 6l4 2q5 2 8 4l4 1l4 1l2 2
l4 1l3 1q2 1 3 1l2 2h3l15 7l7 2l5 1l5 3l5 1l4 2h3q7 4 13 5l22 7l5 1l5 2l4 1l5 2h3l4 2h3q9 5 17 5l6 3h4l4 2h3q5 3 10 3q2 1 3 1q1 1 3 1q6 3 11 3l10 4l10 2l10 4q6 1 10 3l7 2l10 3l2 1l9 2l4 2l2 1h3l6 3l4 1l3 1q11 6 19 7l2 2h3l3 2l4 1l2 2h3q9 6 17 8l3 2l5 2
l3 2l3 2l10 4q1 2 2 2l2 1l7 4q8 6 14 8l3 3q5 4 9 7l3 1q1 1 2 1q8 8 15 12l2 3l3 3l2 2l3 2l8 8q7 8 12 12q2 3 4 5q4 7 8 11l2 3q1 2 2 2l1 3l3 4l2 3q3 5 5 8l1 2q5 9 9 14q2 6 5 10l1 4l2 2v3q6 11 8 20l2 4q3 12 6 19v3q3 10 3 17q2 5 2 9l1 17q2 8 1 14v3v3v3v4v7
l-1 18q-1 1 -1 3v4l-1 5v4l-1 4l-1 3v4l-1 5l-1 3l-1 3v3l-1 3l-7 29q-3 6 -4 11l-3 10q-1 1 -1 3q-1 2 -1 3q-1 1 -1 2q-2 3 -2 6q-4 6 -5 12l-2 3l-1 4l-1 3l-2 2v3q-5 8 -7 15q-7 9 -9 18q-5 7 -7 12l-1 4l-2 2q-4 6 -5 11q-2 1 -2 2l-4 6l-1 2l-2 3l-1 2q-3 7 -7 12
l-7 13q-5 6 -7 11l-3 4l-2 3l-6 8l-1 3l-3 3l-1 3l-3 3l-1 3l-3 3l-1 3l-3 2l-1 2l-1 3q-2 1 -2 2l-2 2q-5 8 -10 13zM735 -287q-10 -13 -108 -109q54 -78 117 -117q111 113 116 116l-2 3q-59 48 -83.5 76t-39.5 31z" />
  </g>

</svg>
