<?xml version="1.0" standalone="no"?>
<!DOCTYPE svg PUBLIC "-//W3C//DTD SVG 1.1//EN" "http://www.w3.org/Graphics/SVG/1.1/DTD/svg11.dtd" >
<svg viewBox="0 -893 2048 2048">
  <g transform="matrix(1 0 0 -1 0 1638)">
   <path fill="currentColor"
d="M873 378l-22 -34l-6 -14l-4 -4q-7 -15 -14 -24q-2 -3 -4 -4l-4 -6l-2 -6l-6 -6l-20 -24l-4 -4l-2 -4l-4 -4l-4 -2l-2 -4l-4 -2q-7 -10 -14 -16l-6 -2l-4 -6l-6 -4l-6 -6l-4 -4l-4 -4l-44 -32l-26 -14q-16 -12 -28 -18l-10 -6l-12 -4l-10 -6l-14 -6q-11 -7 -20 -10l-8 -6
l-10 -4l-10 -4l-12 -4q-12 -9 -22 -12l-8 -4l-8 -2l-14 -6q-11 -6 -20 -8l-4 -4l-6 -2l-8 -2l-4 -4l-44 -18q-2 -2 -4 -2q-13 -9 -24 -14l-4 -2l-12 -4q-16 -12 -30 -16l-2 -4q-16 -7 -26 -16l-6 -4l-6 -4l-6 -4q-8 -7 -16 -10l-4 -6l-16 -12q-5 -7 -12 -10l-2 -4
q-14 -16 -24 -24l-4 -6q-2 -4 -4 -4q-4 -8 -8 -12l-2 -6l-2 -4l-4 -2q-7 -16 -14 -26l-12 -34l-2 -6l-2 -4l-10 -32l-2 -8l-2 -6l-2 -8q-13 -48 -16 -78q-2 -33 28 -42h14h10h6h8h14l36 -2h6h8q31 -4 50 -2l10 -2h12h14h26h62h28h6h10h6h8h6h40h8h10h8h12h8h22h8l6 2h6h6h8
h14l36 2h12l10 2h28q6 2 12 2h8l46 4h26q3 2 6 2h8h6h6q8 3 16 2h8q18 3 34 2q5 2 10 2l32 2h6h10l4 2h16l40 2l10 2h40l12 2h6h26h10h10h10l8 2h8h8h34h6h24l6 -2h8h6h6h6h8h34h16l14 -2l6 10l8 12l4 2q5 12 12 20l10 18l4 6l12 16q2 3 4 4l2 6l4 6l2 4l4 6l4 4q2 3 4 4
q8 17 18 28l-10 6h-14h-10l-12 2l-34 2q-16 -1 -28 2h-6h-10h-10h-6h-24h-6h-6q-23 -1 -40 2q-27 -4 -44 -2h-22h-20h-24l-6 -2h-6h-40q-24 -4 -40 -2q-16 -3 -28 -2q-11 -2 -20 -2q-16 0 -28 -2h-6h-8h-6h-6q-3 -2 -6 -2q-16 1 -28 -2l-34 -2h-10h-6l-4 -2h-28
q-15 -3 -26 -2l-10 -2h-10l-46 -2l-6 -2h-8h-6h-6l-14 -2l-44 -2h-28q-5 -2 -10 -2h-12h-10h-6h-6l-40 -2h-14h-12h-6h-26h-12h-10h-8h-6l-40 2h-10h-8q-12 0 -22 2q-20 -1 -34 2h-20l-6 2h-16q-19 0 -32 2q8 16 20 26q7 4 12 10l6 2l2 4l4 4l14 8l12 10l6 4l6 2
q17 13 34 18q24 17 46 22q2 2 4 2q21 12 38 16l4 4h6q16 10 30 12q10 7 20 8q9 6 18 8l6 4l8 2l6 2l4 4l8 2l6 4h6q18 12 34 16q168 83 242 234q28 28 62 26q19 -9 28 -22q12 -23 14 -42q107 -169 288 -152v8v8v6v40v6v36v6v62q-206 14 -248 206q-28 25 -62 20
q-17 -9 -28 -18zM1015 -893q-10 14 -108 121q54 87 117 130q111 -126 116 -129l-2 -3q-59 -53 -83.5 -84.5t-39.5 -34.5z" />
  </g>

</svg>
