<?xml version="1.0" standalone="no"?>
<!DOCTYPE svg PUBLIC "-//W3C//DTD SVG 1.1//EN" "http://www.w3.org/Graphics/SVG/1.1/DTD/svg11.dtd" >
<svg viewBox="0 -822 2048 2048">
  <g transform="matrix(1 0 0 -1 0 1638)">
   <path fill="currentColor"
d="M927 858l-2 -7l-4 -7q-2 -8 -6 -14q-3 -11 -7 -17l-2 -5l-2 -6l-2 -5l-3 -4l-1 -5l-2 -5l-3 -6l-5 -12l-5 -10l-1 -4l-1 -2q-3 -5 -4 -9l-1 -3l-1 -2q-3 -5 -4 -9q-3 -7 -6 -12q-2 -7 -4 -11l4 -6q4 -4 7 -8l2 -4l2 -4l3 -3l2 -3l8 -12l2 -4q4 -4 5 -8l4 -6q7 -8 10 -16
q5 -5 7 -9l10 -18q4 -4 5 -8l2 -1l12 -21l1 -3l2 -1l1 -2l7 -12l2 -4l1 -3q2 -1 2 -2l12 -21l10 -17l1 -3l1 -3q1 -1 1 -2q1 -1 1 -2l2 -1l1 -2l1 -3l6 -12l3 -4l2 -6q3 -4 4 -8l2 -4l2 -4q7 -9 9 -18q5 -8 7 -15l2 -4l3 -4v-3q4 -5 5 -10l1 -2q7 -13 9 -22q6 -10 8 -19
q1 -2 1 -3l2 -2l1 -4l1 -2q3 -8 4 -13q5 -8 6 -15q-6 -3 -11 -4l-2 -2l-4 -1l-6 -2q-4 -3 -8 -3q-9 -5 -16 -6q-11 -5 -19 -7q-9 -3 -15 -4q-5 -3 -8 -3l-3 -1h-3q-6 -3 -12 -3l-6 -2l-11 -2h-3q-1 -1 -3 -1q-10 -2 -17 -2q-1 -1 -2 -1l-20 -1q-3 -6 -4 -11q-5 -9 -7 -16
l-2 -4l-1 -2l-4 -12l-2 -4l-2 -5l-8 -22l-1 -5l-2 -4q-2 -6 -3 -11q-3 -7 -4 -12l-1 -3q-3 -8 -4 -14l-1 -2l-2 -6l-7 -31q8 -1 13 -3h3l11 -2l5 -1h3l3 -1h3h3l4 -1h3h4l18 -2h3h4h5q9 0 16 -1q15 1 25 -1q111 2 182 -65l-3 -1l-3 -3l-9 -4q-6 -5 -10 -7q-10 -6 -17 -9
l-3 -3l-5 -2l-3 -2l-4 -3l-4 -2l-11 -6l-3 -2l-4 -1l-2 -2q-6 -4 -11 -5q-1 -1 -2 -1l-1 -2l-3 -1l-7 -3q-5 -4 -10 -5q-1 -2 -2 -2l-3 -1q-1 -1 -2 -1l-2 -2l-3 -1q-13 -7 -22 -10q-7 -5 -12 -7l-4 -1q-1 -1 -3 -1l-3 -2l-3 -1l-2 -2l-4 -1l-3 -1l-2 -2l-23 -9l-2 -2h-3
l-7 -3l-2 -2q-11 -3 -18 -7l-4 -1l-3 -1l-3 -2l-11 -3q-11 -6 -22 -8q-1 -1 -2 -1l-16 -6l-3 -1l-18 -5l-4 -2h-3q-1 -1 -2 -1l-3 -1q-14 -5 -23 -6l-4 -2q-6 -2 -11 -2l-8 -2q-12 -4 -21 -5l-5 -1q-3 -1 -5 -1l-4 -1l-4 -1l-3 -1h-4q-16 -4 -25 -5h-5l-4 -1h-3l-4 -1h-3
q-2 -1 -3 -1h-3l-2 -1h-3h-3l-12 -2h-5l-5 -1l-22 -1h-4l-11 -1h-4h-11h-3h-4h-4h-4h-3h-7h-3q-11 2 -19 1l-4 1h-3h-4q-10 2 -17 2l-3 1h-3h-3l-3 1h-3q-8 2 -13 2l-3 1l-7 2q-13 1 -22 5l-5 1l-4 1h-3l-3 1l-3 1q-9 4 -16 5l-8 4h-3q-8 5 -15 6l-3 2l-3 2q-5 1 -9 3l-3 2
l-3 1l-3 2l-3 2l-2 1l-14 7l-3 2l-4 3l-3 1l-2 2l-2 1l-3 2l-2 2l-3 2l-2 1l-2 2l-14 10l-2 2l-1 2q-6 4 -10 8t-7 6l-2 3l-3 2l-2 3l-2 3q-5 3 -7 7l-1 2q-7 6 -11 13l-2 2l-6 8l-1 2l-1 3l-2 1l-1 2l-1 3q-5 6 -8 11l-1 2l-2 6q-5 6 -7 11q-1 5 -4 9l-1 4l-2 3l-1 4l-4 10
l-1 4l-2 4v3q-3 4 -3 8l-1 4l-1 3l-1 3v3q-1 2 -1 3l-1 3l-1 3v4q-3 9 -3 17l-2 6v3v4l-1 4v5l-1 4v8l-1 4v3v3q0 12 -1 20q2 6 1 10v10v3l1 7q0 13 2 22v4l1 4v4l1 4v4l1 4l1 4v3q1 5 1 8l1 3l4 19l1 4q1 7 3 11v3l1 3l2 8l1 3l4 12q1 8 3 14v4l1 4l1 3l3 14l3 22
q6 29 -9 24l-11 -13l-3 -4l-2 -3q-3 -6 -6 -10l-6 -11q-3 -4 -5 -8l-2 -4l-2 -2l-1 -2l-1 -3l-1 -2q-5 -8 -8 -15l-2 -1q-4 -10 -7 -15q-81 -146 -73 -296l1 -4v-7q1 -3 1 -6q1 -5 1 -10l3 -13v-5q1 -2 1 -3l1 -7q4 -12 5 -21q1 -2 2 -7q3 -4 3 -8q4 -11 6 -18l2 -4l5 -13
q3 -5 4 -9q4 -6 5 -11q9 -12 12 -22l3 -3l1 -3l3 -3l8 -14l3 -2l2 -3l1 -3l3 -3l2 -3q4 -4 5 -7l3 -2l2 -2l1 -3l3 -2l2 -2q8 -10 15 -16l2 -3q6 -5 10 -9l9 -8q6 -4 10 -9l4 -2l3 -3l5 -3l3 -3l3 -2l4 -2l4 -3l3 -2l2 -2q7 -3 11 -7q6 -2 10 -6l4 -1l3 -2l3 -1l5 -4
q13 -4 21 -10l5 -1l13 -6l3 -1l4 -1q6 -3 11 -4l14 -5l3 -1q12 -3 19 -6h3l3 -1l3 -1h3q12 -3 20 -4l4 -1l6 -1q6 -2 11 -2l3 -1l13 -1l3 -1h3l5 -1h8l16 -2h13h4h18h4h4h4h17h8h7q10 2 17 2h5l3 1h3h3h3l3 1q14 1 23 3h6l4 1h3q8 3 14 3h3q6 2 11 2q14 5 24 5l5 2h3l4 1
l8 2l7 2l18 5l3 1h3q11 5 20 6l4 2l2 1l9 2q6 3 10 3q8 4 14 5l5 3h3q5 3 10 4l5 2l5 2q9 5 16 6q1 1 2 1q7 4 13 6l3 1q13 7 23 10l3 2l4 2l4 1l3 2l5 3l4 1l4 2l2 2l2 1l6 2q1 1 2 1l2 2l11 6l7 4l6 2q9 6 16 9q3 2 5 3l5 3l2 2l2 1l3 1q1 1 2 1q7 7 15 9q4 4 7 6l4 1
q1 2 2 2l3 2l2 1q1 1 2 1l3 2q1 1 2 1q6 5 10 8l3 2l3 1q1 1 2 1l1 2l17 11l4 3l2 2l3 2q8 6 14 9q8 8 15 12l3 3l3 1l3 3l2 2l7 4q4 5 9 7q7 8 14 11l3 4l6 5l10 12l3 2q10 13 18 20l2 4l2 1q3 5 6 8l2 3l3 4l9 10l2 4l6 8l2 4l2 2l2 3l12 18q3 8 6 12l1 3l5 11l3 7l2 8
q5 11 5 21q3 44 -14 79l-3 2l-3 6q-10 8 -15 15q-9 5 -15 11l-4 2l-3 2l-3 1l-3 2l-3 1l-4 2l-3 2l-3 2l-4 1l-7 4q-9 2 -16 6l-3 1l-4 1l-3 1l-31 8h-3l-2 1l-2 1h-4q-10 3 -17 3q47 50 56 109v3v3v4l1 3v20l-1 13v4q-1 4 -1 8q-2 9 -3 16q-3 8 -3 15q-3 6 -3 10l-3 8
q-2 6 -2 10q-6 11 -8 20l-2 4l-11 25l-1 5l-3 5l-2 6l-3 5l-2 5l-1 4l-3 4l-1 3l-5 11l-2 3l-1 2q-3 8 -5 12l-1 3l-2 3l-1 3l-2 2l-1 3l-2 3l-1 3l-3 7q-4 5 -5 10q-3 4 -4 8l-2 2l-9 18l-1 3q-2 1 -2 2l-3 7q-1 1 -1 2q-7 9 -9 16l-4 6l-1 3l-2 2l-1 3q-5 6 -7 12l-4 7
l-2 2l-2 3l-1 2q-3 7 -7 12l-3 6l-2 2l-1 2l-7 12l-4 6l-1 3q-5 6 -7 12l-4 4l-2 5l-3 3l-1 3q-5 6 -7 12l-3 3l-2 4l-2 4l-3 3l-2 4l-3 3l-1 4q-2 1 -2 2l-2 2l-2 3l-1 2l-14 23l-3 1q-1 -4 -3 -7zM1136 -596q-10 -13 -108 -109q54 -78 117 -117q111 113 116 116l-2 3
q-59 48 -83.5 76t-39.5 31z" />
  </g>

</svg>
