<?xml version="1.0" standalone="no"?>
<!DOCTYPE svg PUBLIC "-//W3C//DTD SVG 1.1//EN" "http://www.w3.org/Graphics/SVG/1.1/DTD/svg11.dtd" >
<svg viewBox="-16 -410 2048 2048">
  <g transform="matrix(1 0 0 -1 0 1638)">
   <path fill="currentColor"
d="M360 783l-2 -3l-1 -3q-4 -5 -7 -11l-2 -4l-2 -2q-6 -13 -12 -21q-1 -4 -7 -13l-3 -5l-3 -4l-1 -2l-1 -3l-4 -6q-5 -12 -11 -19l-1 -3l-3 -4l-1 -3l-2 -4q-1 -2 -5 -8l-2 -3l-1 -3l-10 -15l-1 -4v-9l-1 -4l-2 -17l-1 -5v-3q-1 -2 -2 -10l-1 -6l-3 -10q-1 -5 -2 -12l-2 -10
l-1 -2l-3 -12l-1 -3l-1 -7l-6 -17v-4l-2 -7l-1 -2l-1 -4l-1 -3q-3 -10 -4 -14l-1 -3l-3 -7l-3 -11l-2 -6l-6 -17l-3 -10l-2 -3l-2 -8l-2 -3l-1 -5l-3 -7q-3 -10 -6 -16l-1 -6l-2 -5l-2 -5l-1 -3l-2 -4q-4 -16 -9 -25l-1 -4l-1 -4l-2 -3l-1 -6q-4 -8 -5 -14l-5 -13l-5 -14
l-2 -6l-4 -14l-2 -4l-1 -5l-1 -5l-2 -5l-4 -14l-2 -4l-1 -6l-3 -10l-1 -3l-1 -3v-3l-2 -8q-2 -6 -3 -10l-3 -1h-3l-7 -3h-4q-1 -1 -3 -1l-3 -1l-3 -1l-3 -1h-3q-2 -1 -11 -2l-7 -1l-8 -2q-5 0 -8 -1l-93 -3v-163l76 3h3h3q6 0 10 1h3h3h3l16 2q6 0 10 1h3l3 1h4l4 1l3 1l3 1
h3l16 5q23 -270 250 -331l5 -2h3l3 -1l2 -1q9 -2 16 -4q108 3 141 97q48 122 -3 230l1 2h3l20 -1h4q6 -1 10 -1h3l7 -1h3h3l16 -1v7v14v3v5v3v4v3v20v13v7v14v3v18v13v4v17v3v12h-4h-4l-4 -1h-13h-3l-20 1h-11h-7l-3 1q-11 -1 -19 1h-5h-5l-4 1q-11 0 -18 2q-8 0 -13 1l-5 1
h-6l-5 1l-6 1h-3l-4 1h-3q-4 1 -8 1l-4 1l-38 7l1 2q5 6 8 10l2 2l2 3l13 15q3 7 7 10q3 8 8 12l1 4l6 8l1 3l1 3l2 4l12 25l1 4l1 4q1 4 4 10l1 7l3 10v3l1 4v3l1 4l3 19q4 118 -49 207l-4 10l-2 4l-2 2l-1 3q-1 1 -1 2l-2 2l-1 2l-2 6l-2 1q-3 8 -7 13l-6 13l-3 4l-2 5
l-1 3l-2 3l-3 7q-2 1 -2 3q-4 6 -5 8l-1 4l-2 4l-1 3l-2 2l-1 2l-2 6l-6 11v3l-2 2v3l-2 2l-7 21q-3 4 -3 8q-3 6 -3 10l-1 3l-3 10q-2 7 -2 11q-1 1 -1 2v3q-4 14 -4 25h-1h1h-1zM305 525l3 -4l5 -14q3 -4 4 -8l2 -1l1 -4q6 -9 9 -16q2 -1 2 -3l2 -1q3 -7 7 -11l1 -3
q1 -1 1 -2q9 -10 13 -19q53 -70 62 -147v-12l-2 -2l-2 -1l-2 -2l-11 -6q-5 -5 -9 -7l-11 -6l-3 -2q-4 -4 -9 -5l-2 -2q-6 -4 -10 -5l-2 -2l-18 -9l-3 -2l-10 -4q-2 -1 -3 -1l-6 -4l-10 -3q-11 -6 -20 -8l-3 -2l-3 -1h-3l-2 -2l-4 -1l-3 -1h-3q-9 -4 -16 -5l-2 -1
q-6 -2 -11 -2q-12 -5 -22 -5v4l1 4v3q2 6 2 11v3l1 3v3l1 4l1 7l1 2l2 16q2 6 2 11l1 3v3l2 7l2 9l2 7v3l3 15l2 5l1 5v3l2 8l5 15l1 6l2 6l4 17l2 7q2 6 3 10l1 3l4 12l2 5l1 6l3 6q1 9 5 16v3q3 6 4 11l1 4l2 5l1 4l2 6l2 4l2 5l1 4l1 2q1 5 3 9l3 10l2 3v3l1 3l1 2l6 15
q2 -3 2 -5zM516 -147l2 -2l1 -2l1 -3l6 -12q-107 0 -185 53q-70 58 -94 135q191 -34 269 -169z" />
  </g>

</svg>
