<?xml version="1.0" standalone="no"?>
<!DOCTYPE svg PUBLIC "-//W3C//DTD SVG 1.1//EN" "http://www.w3.org/Graphics/SVG/1.1/DTD/svg11.dtd" >
<svg viewBox="-73 -410 2048 2048">
  <g transform="matrix(1 0 0 -1 0 1638)">
   <path fill="currentColor"
d="M353 711l-2 -7l-2 -6l-6 -17l-2 -5l-6 -17l-2 -6l-2 -6l-2 -6l-2 -4l-3 -10l-5 -13l-1 -5l-4 -8l-1 -6l-1 -3l-8 -22l2 -2l2 -4l1 -4l10 -22q-4 -3 -7 -5q-3 -5 -6 -7l-7 -5l-1 -2l-2 -2l-2 -1l-1 -2l-2 -1q-5 -7 -7 -8l-4 -3q-5 -6 -9 -10l-3 -2q-1 -2 -2 -2
q-3 -4 -6 -7q-3 -5 -7 -7q-6 -10 -13 -15l-2 -4l-3 -3l-3 -3l-3 -4q-4 -5 -5 -6l-1 -3l-10 -13l-2 -4l-3 -4l-2 -3l-2 -2l-1 -3q-5 -6 -5 -7l-2 -4l-14 -23l-2 -4l-2 -5l-2 -3q-2 -9 -7 -16q0 -1 -1 -4l-1 -3l-1 -3l-5 -12v-3q-3 -7 -4 -13l-4 -11v-3l-5 -25l-1 -8l-1 -9
v-32q0 -8 1 -14v-3q3 -16 2 -27h-3q-9 -5 -18 -5l-7 -2l-5 -1h-5q-1 -1 -2 -1h-4l-25 -3h-5h-5l-4 -1h-6h-4h-6l-3 -1h-11h-4h-17h-3l-85 -3v-162l77 3h5l4 1h4q6 1 10 1l2 1h7q2 1 3 1h3l2 1q9 0 16 2h4h3q10 3 17 3l9 2h3l2 1q8 1 13 2l7 1q8 3 14 3l5 1l4 1l3 1l8 2l16 4
l4 2l4 1l4 1q10 4 17 6q8 5 15 6l2 2q8 3 12 6q11 5 18 11q6 -1 10 -3q5 -3 9 -4l9 -5l17 -6q8 -5 15 -6l10 -5h3q9 -5 16 -6l11 -5l3 -1q11 -3 19 -6l5 -1l3 -1l3 -1l3 -1l10 -3l3 -1l8 -2q6 -2 11 -3l4 -2l7 -1l6 -2l4 -1l14 -3l5 -1q8 -3 14 -3l5 -1l4 -1l6 -1l4 -1
q4 -1 8 -1l4 -1l3 -1h3q5 -1 8 -1l10 -2h6l17 -1h4h4h3h4h18q6 3 11 3q13 8 22 11l1 2l2 1l3 1q7 7 14 10l1 2l2 1l1 2l2 1q5 5 10 8q1 2 2 2l9 11l2 2l3 2q1 2 2 2l1 3l2 2l2 3l2 2l5 5q2 5 6 8l2 3q4 9 9 14l2 3l2 4l1 3l2 2l1 3l2 2l10 22q25 55 20 108l1 2v3v3v3v3v4v3
v3v10l-1 9l-1 4l-1 4l-7 25q-5 7 -6 14l-2 2l-1 3q-2 7 -6 12q-2 3 -3 5l-3 4l-2 3l-3 4l-2 3l-2 3l-4 8l-2 1l-7 10l-4 6q-5 4 -7 9q-7 5 -10 12l-3 2l-6 7l-3 3l-3 3l-2 4l-3 3q-7 5 -10 11l-2 1l-1 2q-7 5 -10 10l-3 2l-3 3l-2 3l-3 2l-2 3l-3 2l-2 3l-2 1l-2 3l-2 1
l-2 2l-1 2q-12 8 -18 17q-13 10 -20 19q-9 6 -14 13l-3 3l-4 2l-9 10l-3 2l-4 3l-2 3q-5 3 -7 7l-2 1l-2 3l-3 1l-2 3l-5 5l-2 1l-1 2q-7 5 -10 10q-6 5 -10 9q-3 2 -7 6l-2 2l-1 2q-2 1 -2 2l-12 11l-2 2l-2 2q-7 10 -14 15l-4 4l-1 2l-9 10q-1 1 -1 2q-7 5 -10 10l-2 2
l-1 2l-5 6l-5 5l-3 4l-3 3l-3 4l-2 3l-2 2l-1 3q-2 1 -2 3l-2 2l-4 6l-3 2q-4 8 -9 12zM454 300l-3 -2l-3 -2q-5 -5 -9 -7l-2 -1q-1 -1 -2 -1q-5 -5 -10 -8q-1 -1 -2 -1q-1 -2 -2 -2l-2 -2l-2 -2l-9 -5q-9 -9 -17 -12l-1 -2l-3 -1q-1 -1 -2 -1q-7 -6 -14 -9q-6 -5 -11 -6
q-3 -2 -6 -3q-10 -7 -21 -9q-1 -1 -3 -1l-2 -2h-3q-1 -1 -2 -1l-8 -2l-7 -2q-66 31 -85 92q-6 21 -3 40q57 60 128 73q92 -3 106 -121zM531 337q2 -1 2 -2l3 -1l6 -7q6 -3 9 -8l2 -1l1 -2q9 -6 14 -13q5 -3 7 -6q2 -1 2 -2l3 -2l2 -3q2 -1 2 -2q2 -1 2 -2q5 -5 8 -9
q9 -6 13 -14q2 -1 2 -2q2 -1 2 -2q17 -17 24 -30q4 -3 6 -7l6 -8l3 -5l2 -3l1 -3l2 -2l4 -7l9 -18l2 -7l1 -2q7 -22 7 -38h-3l-8 -2q-10 0 -17 -1h-8h-3h-4h-3h-20q-6 0 -10 1q-6 0 -10 1h-3h-4l-2 1l-9 1h-4l-13 3h-3l-3 1h-3l-14 3l-4 1l-2 1l-9 2q-14 3 -23 7q-6 1 -11 3
l-4 1l-3 2q-5 1 -10 3l-7 2l-2 1l-7 3l-22 9q84 70 98 168z" />
  </g>

</svg>
