<?xml version="1.0" standalone="no"?>
<!DOCTYPE svg PUBLIC "-//W3C//DTD SVG 1.1//EN" "http://www.w3.org/Graphics/SVG/1.1/DTD/svg11.dtd" >
<svg viewBox="-3 -629 2048 2048">
  <g transform="matrix(1 0 0 -1 0 1638)">
   <path fill="currentColor"
d="M1045 1162l-6 -2l-6 -2l-4 -2l-12 -4l-32 -14q-3 -3 -6 -4l-6 -6l-8 -2l-6 -6l-6 -4l-4 -2q-3 -3 -6 -4q-19 -21 -34 -30q-9 -14 -20 -22q-11 -17 -22 -26l-8 -12l-8 -10q-8 -17 -18 -26l-4 -8l-2 -4q-9 -18 -18 -28l-2 -8l-4 -6l-2 -6l-4 -8l-4 -6l-2 -6l-2 -4l-4 -4
q-10 -28 -20 -44l2 -6l12 6q180 277 502 84q22 -8 34 -18h-10l-44 -8l-34 -6l-8 -2l-6 -2l-32 -6q-12 -5 -22 -6q-19 -7 -34 -8l-12 -4l-10 -4l-28 -6l-10 -4l-10 -2l-10 -4l-10 -2l-10 -4l-26 -8l-8 -2l-8 -2l-12 -4q-15 -7 -28 -10l-8 -2q-8 -5 -16 -6q-3 -2 -6 -2
q-2 -2 -4 -2l-12 -4q-3 -2 -6 -2l-4 -4q-22 -6 -36 -14l-12 2q-53 39 -112 38q-2 -2 -4 -2q-16 -1 -28 -6l-14 -4q-15 -9 -26 -12q-11 -11 -20 -14q-8 -10 -18 -14l-6 -8l-6 -4l-8 -10l-14 -12l-4 -8l-6 -4l-2 -4l-4 -4q-12 -18 -22 -28l-6 -8q-5 -12 -12 -20l-10 -18l-4 -6
l-4 -4l-4 -10l-4 -6l-4 -4l-2 -6l-2 -4l-4 -8l-4 -4l-2 -6l-4 -4l-2 -6l-2 -6q-9 -13 -14 -24l-2 -6l-2 -4l-14 -30q-300 -61 -418 -346q-38 -58 -24 -116l10 -10l4 -4l6 -4l2 -4q16 -7 26 -14l6 -2l4 -2l6 -2l6 -2h6l16 -4q11 -4 20 -6l34 -4q14 -5 26 -4l32 -6l32 -2l8 -2
h10l6 -2h6h8q31 -5 50 -4l14 -2h8l32 -2h14l12 -2h14h12h34h12h10h12h8h36h22h8h8h8h8h34h6h24l8 2h8h28h6h8q27 4 46 2l6 2h34l6 2h8h22h8l50 4l76 4h14l12 2h6h16q23 3 40 2l14 2h14l14 2h28h10q3 2 6 2h6h8h6l40 2h14l12 2h10h12h10h8h10l8 2h10h8h34h10l6 2h8h6h8h36
q6 14 12 22q7 23 18 38l2 8l4 6l4 8l2 4q4 10 8 16q4 12 8 20l4 4q8 23 18 36l-10 2h-62l-8 -2h-8h-28h-6h-8l-6 -2h-40l-14 -2h-28q-19 -3 -32 -2q-20 -3 -34 -2h-10q-3 -2 -6 -2h-14l-24 -2h-20l-10 -2l-44 -2l-40 -2l-22 -2h-6h-6l-14 -2h-8l-36 -2h-6h-14l-12 -2h-10
l-32 -2h-10h-10l-10 -2h-34h-8h-6q-22 -4 -38 -2h-8h-6l-16 -2h-6h-62h-6h-8h-6h-10h-6h-8h-6h-40h-6h-6h-34h-6q-11 4 -24 2h-12h-10l-10 2q-15 -1 -26 2h-8h-6h-8q-31 5 -50 4l-8 2h-8l-6 2h-6l-10 2h-6h-8l-8 2q-23 2 -38 6h-8l-8 2l-8 2q-20 1 -34 6h-8l-8 4h-8l-6 2
l-6 2h-6l-6 2h-6l-16 4q-11 5 -24 6v6l18 18l2 4l4 4q15 17 28 24l2 4l4 4l4 4l6 2q26 25 50 34q2 4 4 4l6 2q16 12 30 16q2 2 4 2q9 7 18 8q12 9 24 10l4 4l10 2q3 2 6 2q19 10 36 12q7 3 14 4l12 4q15 6 26 6q3 2 6 2l6 2l6 2h6l4 2h6l14 4h8q12 5 22 4q69 18 132 2h6h8h6
l8 -2q22 -1 36 -4h34l8 -2h10h26h8h34h6h24q3 2 6 2h24q6 2 12 2l6 2h8l22 2l8 2l6 2h6l52 12l36 14q115 76 150 192v6q0 10 2 16q-4 19 -4 32l-4 6l-2 6l-12 22l-4 2q-26 27 -56 36l-4 6h6q31 11 52 14q23 10 42 12l8 2q12 6 22 6q3 2 6 2l6 2l6 2l16 4l16 4q11 6 24 6
q3 2 6 2l6 2l38 10l22 4l4 2h6q23 8 40 8l46 10h8l28 4h6l8 2q16 3 28 2l6 2h10h6q8 3 16 2h8l34 2h16h14l18 32l8 8l2 6l6 10q8 13 16 22l4 8l2 6l12 16l2 6l10 12q7 15 16 24v6l-6 -2h-6h-6h-8h-20l-28 2h-6l-14 2l-40 6l-6 2l-14 4l-44 10l-14 4l-14 6l-14 4l-14 4l-12 4
q-10 5 -16 6l-6 4q-25 6 -42 16l-10 4q-11 2 -20 6q-10 5 -18 8l-8 4l-10 4l-6 2l-26 10l-12 4l-26 12l-8 2l-6 2l-16 8h-6l-6 2l-14 6l-4 2q-19 4 -32 10h-6l-14 4q-11 5 -24 6q-31 9 -54 8h-6h-26q-19 -6 -32 -8zM787 556l2 -8q-126 -8 -228 38q33 61 96 74
q116 1 130 -104zM879 638l6 -2h8h6l14 -2l6 -2h6l6 -2h6l4 -2h6l16 -4l14 -4q69 -24 108 -72l-24 -6h-6l-24 -6h-6l-6 -2h-6h-6l-6 -2h-6q-21 -3 -34 -2h-6h-8q-11 -3 -20 -2q-8 2 -16 2h-6h-22l-6 2q-23 0 -40 4h-14q0 5 2 8l20 34l2 6l4 6l6 16l14 32h8zM1361 -191
q-10 -13 -108 -109q54 -78 117 -117l114 119q-59 49 -83.5 76.5t-39.5 30.5zM1128 -191q-10 -13 -108 -109q54 -78 117 -117l116 116l-2 3q-59 48 -83.5 76t-39.5 31zM1247 -403q-10 -13 -108 -109q54 -78 117 -117q111 113 116 116l-2 3q-59 48 -83.5 76t-39.5 31z" />
  </g>

</svg>
