<?xml version="1.0" standalone="no"?>
<!DOCTYPE svg PUBLIC "-//W3C//DTD SVG 1.1//EN" "http://www.w3.org/Graphics/SVG/1.1/DTD/svg11.dtd" >
<svg viewBox="-359 -582 2048 2048">
  <g transform="matrix(1 0 0 -1 0 1638)">
   <path fill="currentColor"
d="M654 244h-3l-3 -1h-4l-8 -2l-20 -5q-4 -3 -8 -3q-9 -4 -16 -6l-3 -2l-3 -1l-3 -2l-3 -1l-2 -1l-6 -2l-3 -1q-9 -5 -17 -7l-4 -2l-3 -2q-7 -4 -11 -5q-4 -3 -8 -4l-2 -2l-3 -2l-3 -1l-3 -1l-1 -2l-21 -11l-4 -4l-4 -2l-4 -3l-3 -2l-3 -1l-1 -2l-6 -4l-9 -5q-2 -3 -4 -4
l-5 -3l-4 -4l-4 -2l-3 -3l-3 -3q-7 -5 -11 -9l-3 -2q-5 -5 -9 -7q-9 -11 -18 -16q-1 -2 -2 -2q-10 -13 -19 -19l-3 -4l-4 -3l-3 -4l-2 -1l-1 -2l-2 -1q-5 -7 -10 -10l-3 -3l-3 -4l-6 -8l-2 -2l-3 -2l-3 -3l-2 -4l-3 -2l-5 -6q-3 -4 -6 -7q-5 -7 -10 -11l-2 -3q-1 -2 -2 -2
l-2 -4l-3 -2l-1 -2l-13 -16l-2 -2l-2 -3l-16 -21l-3 -2l-4 -6l-16 -21l-2 -2l-2 -3l-10 -13q-2 -4 -5 -6l-4 -6l-4 -6l-2 -3l-2 -1l-14 -19l-12 -17q-4 -3 -5 -6l-2 -2l-1 -2l-5 -5q-2 -5 -6 -8l-3 -6l-5 -5l-4 -5l-1 -2q-6 -9 -11 -14q-1 -2 -2 -2l-1 -2l-1 -2l-2 -2l-1 -2
l-2 -3l-14 -16l-2 -4l-9 -11l-3 -3l-2 -3q-3 -6 -7 -9l-2 -3l-3 -2q-4 -7 -7 -10l-2 -1l-1 -2l-1 -2l-2 -2l-10 -13l-10 -10q-38 -50 -90 -72q-6 -4 -11 -6h-3q-1 -1 -2 -1l-6 -3h-3q-1 -1 -2 -1l-8 -2q-17 -7 -32 -6h-3q-7 -1 -12 -1l-7 1l-12 1l-8 2h-3l-3 2q-18 4 -30 11
l-2 2l-11 6l-2 3l-3 1l-3 2l-2 3l-3 1l-2 3l-3 2l-2 3l-3 2l-2 2l-2 2l-1 2l-3 2l-1 2l-9 10l-10 15q-4 7 -6 12q-2 1 -2 2l-1 3l-2 2l-4 10l-2 2l-1 4l-1 3q-1 1 -1 3l-2 2l-4 10l-1 4q-6 14 -7 24q-3 7 -4 13l-1 2v4q-3 10 -4 18l-1 2l-2 20q-3 9 -2 17q-1 1 -1 2v4l-2 25
v4v3v3v3v4v3v7v3v3q0 9 1 16v11v3l2 16q0 8 1 13v5l1 3v4l1 3v4l1 2v3v3q3 10 3 17l3 9v5l1 5l1 4l1 3v3l3 17v3l2 12q3 22 -7 25l-5 -6l-2 -3l-2 -3l-1 -2l-1 -2l-1 -2l-1 -2q-3 -7 -6 -12q-90 -236 -36 -451l2 -4l1 -2l2 -9l2 -3l2 -8q5 -9 7 -16l2 -3l2 -4l1 -2l2 -6
l2 -2l1 -3l1 -2q6 -10 9 -17q2 -1 2 -2l2 -2l6 -11l3 -2l1 -3q2 -1 2 -3l3 -3q4 -4 6 -8l3 -2l2 -2q11 -12 19 -18l1 -2q6 -4 10 -8l3 -2q5 -3 8 -6l4 -1q4 -3 8 -5l3 -2l2 -1q7 -3 12 -6l7 -2l2 -1q5 -1 9 -3h3l8 -3l10 -1l3 -1h4l3 -1h4h3h5h3h4h3h20l4 1l4 1l15 2l4 1
q6 3 11 3q1 1 3 1l7 3l8 2q5 3 10 4l4 2l4 2l4 2q5 3 9 4q6 5 11 6q1 2 2 2l3 2l3 1l2 2l3 1q12 11 22 15l2 3l3 1q5 5 10 8l1 2q5 3 7 6l3 2l3 3l3 2l3 3l7 7l2 2l9 8l1 2q12 11 18 19l2 1l13 15l3 4l3 3l3 3l1 3l3 3q1 2 2 2l2 4l5 5l2 3l1 2l2 3l10 13l9 13l4 5l7 12l3 4
l2 3l3 4l2 3q3 6 7 10q2 4 4 6l1 2l4 7l1 2l8 11l4 7l1 2q4 5 5 8l3 3l2 4l3 3l1 3l2 3l6 8l2 3l1 3l2 2l4 5q5 11 12 18q3 7 7 10q5 11 12 17l1 3l3 3q2 4 4 6l1 3l2 2l1 2l2 2l10 13l2 4l3 4l6 7q8 12 15 19l2 4l2 2l2 3l1 2l2 1l10 14l5 4l3 4q8 13 17 20l2 4l5 4l1 3
l2 1l7 9l4 4l5 4l3 4l4 5l3 2l4 4q1 2 2 2q3 5 6 7l2 2l2 2l2 2l2 2l2 1q1 2 2 2l11 12l11 9l10 9l2 1l7 7l3 2q9 8 16 11l2 3l3 1q1 2 2 2l8 6l2 1l3 1l1 2l2 1l3 1q6 5 11 8l7 3l6 4q8 4 13 5l2 2l14 5q1 1 2 1l16 6h4q12 5 22 5l2 1l9 1q103 2 169 -86q8 -3 16 -1l11 13
q2 5 4 8v3l2 3v3l1 3l2 3v4l1 3l1 2l1 2q0 8 3 15v4l1 3l1 7l1 11v4l1 4v4v4q2 6 1 10v5v11v4v3v3v3v4v3v7l-1 12l-1 10l-1 1l-4 3l-2 3l-5 4l-6 7l-4 2l-2 2l-2 3q-10 5 -16 12q-64 39 -130 33z" />
  </g>

</svg>
