<?xml version="1.0" standalone="no"?>
<!DOCTYPE svg PUBLIC "-//W3C//DTD SVG 1.1//EN" "http://www.w3.org/Graphics/SVG/1.1/DTD/svg11.dtd" >
<svg viewBox="0 -410 2048 2048">
  <g transform="matrix(1 0 0 -1 0 1638)">
   <path fill="currentColor"
d="M792 957l-4 -6q-1 -5 -3 -8q-4 -6 -6 -11l-3 -6l-2 -2l-11 -22l-2 -2q-3 -8 -5 -12l-3 -5l-2 -4l-3 -4l-5 -11l-2 -4l-10 -17l-1 -3l-1 -2l-3 -5l-1 -3l-12 -21v-4q2 -10 2 -17l1 -4l2 -17q2 -9 2 -15l3 -25l1 -4l1 -10l1 -9q2 -4 1 -8l1 -7l1 -8l1 -6l2 -16l1 -3v-8
q1 -1 1 -3l1 -5l2 -23q1 -4 1 -8q3 -12 3 -21q1 -5 1 -9l2 -8v-8q2 -8 2 -14l1 -3v-5l1 -3l1 -14q2 -8 2 -13l1 -8l1 -6l1 -7l1 -11q2 -8 2 -13v-4q1 -2 1 -7q2 -4 1 -8l1 -4v-4q1 -3 1 -5l1 -3v-7l1 -3l1 -7v-4l1 -2q0 -9 2 -16q-2 -8 -1 -14l-1 -3v-3l-2 -17l-1 -2v-4
q-2 -5 -2 -9l-2 -3l-1 -8l-4 -8v-3l-2 -3q-3 -10 -6 -16l-2 -2q-6 -13 -13 -21l-2 -3l-2 -3l-2 -3l-3 -3l-1 -3l-8 -9q-5 -9 -11 -14q-4 -8 -10 -12l-1 -3l-8 -8q-1 -2 -2 -2q-4 -6 -9 -9q-9 -13 -20 -20q-147 -141 -325 -92l-3 2q-20 6 -32 15l-3 1l-3 1l-2 2l-4 2l-2 2
l-3 2l-3 1q-9 7 -15 11l-3 3l-2 3l-3 1l-2 3l-3 2l-2 3q-2 1 -2 2q-2 1 -2 2l-3 2l-5 6l-2 3q-7 7 -11 12q-78 124 -36 265l1 7l1 18q-7 19 -21 1l-1 -3l-2 -2l-11 -22l-1 -5l-2 -4l-4 -10q-4 -13 -8 -21l-1 -5l-1 -5l-2 -3l-3 -14l-1 -3l-3 -8v-4l-4 -12q0 -6 -2 -11
q-47 -242 106 -386l4 -2l2 -2q2 -1 2 -2l3 -1l2 -2l2 -2l3 -1l2 -2q2 -1 2 -2l3 -1q9 -6 16 -9l3 -2l2 -2q6 -2 10 -4l9 -4l4 -2q16 -4 26 -8h3l11 -2l10 -2l17 -1h3h3h31l4 1h4l4 1h3l8 2l4 1h3l5 1q1 1 2 1l8 2l8 2q6 3 12 4q3 2 5 2l3 2l3 1q6 3 10 4l3 1l2 2l3 1l7 3
q5 4 10 5q1 2 3 2l4 3l4 2l3 1q3 3 6 5l21 13q2 2 4 3q6 6 11 9l4 3l4 4l4 2q4 5 9 8l2 3l3 3l4 3l4 4l3 2q1 2 2 2q3 5 6 7l3 2q3 5 7 7l2 3l16 16l1 3l2 2l2 2l2 2l1 2q4 3 5 6l2 1l8 11l3 4l9 10l1 3l3 2l1 3l7 9q8 13 14 19q4 8 8 13q5 9 9 13l3 5l3 6l9 14l3 6
q5 9 9 14q3 9 8 15q4 8 7 13l2 4q3 8 7 13l7 16l2 2q3 8 5 12l2 3l2 4l1 3l2 2v3l2 2q5 14 10 22q106 -314 394 -299v8v3v3v31v17v3v12v4v3v20v4v3v18v13v4v17v3v12q-90 8 -155 56l-2 2l-2 2q-2 1 -2 2l-2 1l-1 2q-17 11 -26 25l-2 1l-2 2l-5 6l-2 2l-4 6q-6 6 -9 12l-3 2
l-1 2q-6 8 -8 13q-2 1 -2 2l-9 13l-1 2l-2 3l-1 2l-6 12q-5 7 -7 12l-2 5l-3 4l-2 5l-1 3l-6 11l-1 4l-2 2l-1 4l-3 7q-5 8 -6 15l-2 3q-4 8 -5 14l-2 4l-1 4q-5 9 -7 18q-3 4 -3 8l-1 3q-1 1 -1 2l-6 16v3q-1 1 -1 3l-3 7l-1 2v3q-4 7 -5 13l-1 3v3l-2 8l-2 7v4l-1 5
q-2 6 -2 11q-1 1 -1 2l-1 8l-2 8l-2 12l-2 7l-1 7l-1 4v3l-6 29v3l-2 8l-2 12l-2 7l-3 20l-1 7l-2 7l-1 7v3q-3 9 -3 17l-1 6l-1 3v3q-3 9 -3 17l-1 3v4q-1 1 -1 3v3q-1 1 -1 2v3q-3 12 -3 20l-2 7l-3 19l-1 6l-1 6v3q-1 5 -1 10q-1 1 -1 3v3l-1 3v3l-1 2l-2 18l-1 5l-2 17
l-1 5v3l-1 3v3l-2 15v3l-2 8q0 9 -3 16z" />
  </g>

</svg>
