<?xml version="1.0" standalone="no"?>
<!DOCTYPE svg PUBLIC "-//W3C//DTD SVG 1.1//EN" "http://www.w3.org/Graphics/SVG/1.1/DTD/svg11.dtd" >
<svg viewBox="0 -410 2048 2048">
  <g transform="matrix(1 0 0 -1 0 1638)">
   <path fill="currentColor"
d="M389 722l-1 -3l-1 -2l-7 -15l-8 -19l-3 -6l-1 -2q-3 -7 -6 -12l-2 -5l-2 -4l-1 -4l-2 -2v-3l-9 -18l-1 -3l-1 -3l-1 -2q-3 -5 -4 -9l-1 -3l-2 -2l-1 -4l-1 -3l-2 -2l-1 -3l-1 -4l-2 -2q-3 -10 -6 -15q2 -1 2 -2l2 -1l1 -2q10 -7 15 -13l9 -10l3 -2l2 -3l3 -1l2 -3l2 -1
l2 -3q8 -6 11 -12q5 -3 7 -7q2 -1 2 -2l12 -11l3 -3l2 -4l3 -2l2 -3l3 -2l2 -2l1 -3q2 -1 2 -2q9 -8 14 -16q8 -6 12 -14q5 -4 8 -9l3 -3l3 -3l1 -3q6 -5 8 -10q5 -5 7 -9l3 -3l2 -3l2 -4q2 -1 2 -2q6 -6 8 -12q9 -9 13 -19q2 -1 2 -2l2 -2l6 -11l2 -2l1 -3l2 -2l1 -2l1 -3
q1 -1 1 -2q6 -7 9 -15q4 -5 5 -10l2 -2l4 -10q6 -8 7 -15q4 -4 5 -9l1 -3l1 -3q2 -4 3 -8l3 -7q5 -11 6 -19l-4 -2l-4 -2l-4 -2l-2 -1l-12 -4l-2 -2q-5 -1 -8 -3q-9 -4 -16 -6l-3 -2l-4 -1q-6 -3 -11 -4q-6 -3 -11 -4q-9 -5 -17 -6q-8 -4 -14 -6l-7 -1l-6 -3h-3l-7 -3h-3
q-6 -3 -11 -3q-3 -2 -6 -2q-7 -3 -12 -3l-17 -5h-3l-16 -4h-3l-5 -1q-6 -2 -11 -2l-14 -3h-4l-2 -1q-9 -1 -16 -2h-5q-6 -1 -11 -1l-4 -1h-3h-4l-3 -1h-4h-7q-11 -1 -18 -1h-13h-14q-6 0 -11 1q-9 0 -16 1q-12 0 -20 2l-4 -6l-1 -3l-2 -2l-2 -5l-2 -2l-1 -3q-6 -10 -9 -17
l-2 -1q-2 -6 -5 -10l-1 -3l-3 -8l-2 -2l-1 -3l-1 -3l-1 -3l-1 -2q-4 -7 -5 -12l-1 -3l-2 -3q-3 -10 -6 -17l-1 -3l-1 -4l-3 -11l-1 -4l-1 -3l-1 -3l-2 -11q-4 -14 -4 -23h3h4h4h4h4h17h8h7h4h4h17h8h7h7q3 1 6 1h12l6 1h8h3q4 2 8 1h4q2 1 3 1h5l3 1h11q9 3 16 2l3 1h4l4 1
l10 1q5 1 9 1q10 3 17 3q13 4 22 4q7 3 13 3l29 7q6 3 11 3l8 3h3q10 5 18 6l4 1q16 8 27 10q1 1 2 1l12 6h3q11 7 20 9l4 3l4 1q1 1 2 1l9 6q9 4 15 8l3 1l4 2q3 3 6 5l4 1q1 2 3 2q1 2 3 2l3 2l2 2l3 2l2 1l2 1q1 1 2 1q6 7 12 10l1 3l2 2l2 3l1 3l2 2l1 2q5 9 9 14l1 4
l2 2l9 18l1 3l2 2l1 3q8 17 11 29l3 5l1 7l3 6l1 5v3l1 3l1 2l2 9l1 8l3 16v4l1 3v3v3v3v13v4v10v3v3v3l-1 7l-2 22q-1 1 -1 3l-1 3l-1 8q-5 9 -6 16q-3 5 -4 11q-8 13 -10 23q-5 7 -6 13q-1 1 -1 2q-5 7 -7 12l-1 2l-2 6q-6 8 -8 15q-2 1 -2 3l-3 4l-2 5l-3 4l-2 3l-1 4
q-2 1 -2 3l-3 3l-17 29l-3 3l-6 11q-2 1 -2 3q-2 1 -2 2l-2 3l-2 2l-1 2l-2 2l-1 2l-1 2q-8 9 -11 16l-3 4l-3 4l-3 4l-3 4l-3 3l-2 2l-1 3q-2 1 -2 2l-1 2q-9 10 -14 17q-7 7 -10 13q-2 1 -2 2l-2 2l-2 2l-1 2q-1 1 -1 2q-8 6 -11 13q-9 8 -14 15l-4 5l-3 3l-8 9l-3 4l-4 3
l-3 4q-5 5 -8 9l-3 2l-2 2q-6 8 -11 12l-1 2q-2 1 -2 2q-2 1 -2 2l-12 11z" />
  </g>

</svg>
