<?xml version="1.0" standalone="no"?>
<!DOCTYPE svg PUBLIC "-//W3C//DTD SVG 1.1//EN" "http://www.w3.org/Graphics/SVG/1.1/DTD/svg11.dtd" >
<svg viewBox="0 -410 2048 2048">
  <g transform="matrix(1 0 0 -1 0 1638)">
   <path fill="currentColor"
d="M1053 832l-2 -1h-3q-1 -1 -3 -1l-3 -2h-3q-4 -3 -8 -5l-12 -7q-1 -2 -2 -2q-5 -7 -11 -11l-2 -3l-5 -5q-3 -7 -8 -11l-2 -3l-1 -4l-3 -3q-2 -7 -6 -11l-1 -4l-1 -2q-3 -5 -4 -9l-1 -2l-1 -2l-1 -3l-1 -2q-3 -8 -6 -14v-3q-3 -6 -4 -11l-1 -5l-2 -4l-1 -5l-1 -4l-1 -4
l-2 -5l-1 -4q-1 -8 -3 -13l-1 -4l-1 -5l-1 -4l-1 -6l-1 -2l-1 -7l-1 -4v-5q-2 -6 -2 -11l-2 -10v-17q1 -8 1 -13q1 -1 1 -2q5 -23 16 -39l2 -1q15 -15 33 -21h3l8 -2l3 -1q6 0 11 -1h3h20l3 1h3h4l28 5l15 4h3q13 6 23 7l4 2l2 1h3l6 3l13 4l3 2l4 1q2 1 3 1l2 2h3l7 3
q11 6 20 8q78 -127 66 -267l-4 -1q-1 -1 -2 -1l-16 -7l-4 -1l-2 -1l-9 -3l-16 -5q-8 -4 -14 -5l-4 -1q-14 -6 -24 -8q-9 -4 -16 -5l-6 -2l-8 -2q-4 -2 -7 -2q-8 -4 -14 -4l-4 -2l-7 -1l-14 -5h-4l-4 -2q-6 -2 -11 -2q-1 -1 -3 -1q-8 -3 -13 -3q-1 -1 -3 -1q-18 -6 -29 -7
l-4 -1l-10 -3l-7 -1l-6 -1l-4 -1q-6 -2 -11 -2l-8 -2l-6 -1q-8 -3 -15 -3q-2 -1 -3 -1l-3 -1l-6 -1l-5 -1h-4q-9 -3 -16 -3q-1 -1 -3 -1h-3q-1 -1 -3 -1l-3 -1h-4l-3 -1h-3l-3 -1h-3q-12 -3 -20 -3l-5 -1l-5 -1l-22 -3h-3q-6 -2 -11 -2h-3l-3 -1h-4l-8 -1q-12 -2 -20 -2
l-4 -1h-4l-4 -1h-4h-3q-2 -1 -3 -1q-11 0 -19 -2h-4h-3q-10 -1 -17 -1q-8 -2 -15 -1l-4 -1h-5l-17 -1h-3h-12h-3q-12 -2 -20 -1h-17h-5h-5h-5h-5h-5h-3h-13l-5 1h-13l-17 1h-4l-6 1h-11l-4 1h-3l-8 1h-3h-3q-4 1 -8 1l-7 1l-5 1h-3l-2 1q-6 0 -10 1l-9 1l-4 1l-16 3l-6 1
l-3 1l-5 1l-2 1h-3l-3 1h-3l-8 2q-6 2 -12 3q-6 3 -11 4l-4 1q-7 1 -11 4q-3 0 -4 1l-4 1l-5 2l-4 2l-4 1l-3 1l-3 2q-6 2 -10 4l-25 12l-6 4l-2 1q-5 3 -8 5l-2 2l-6 3l-2 2q-8 5 -12 10l-2 1l-2 1l-1 2q-10 7 -16 15q-11 9 -17 20l-5 5q-30 50 -34 101v17v3v3v3v3v3v3v3
l2 13v3v4l1 3v3l1 2q1 13 4 22q0 6 2 10v3q2 6 3 11l1 4l1 3q1 5 3 8l2 7q2 8 5 14l1 5l1 3l1 4l1 2q2 5 3 8l1 3l7 18q7 26 -3 24q-4 -6 -9 -9l-1 -3l-2 -2l-10 -13l-2 -5l-6 -7l-1 -4l-2 -2l-14 -24l-6 -15l-10 -19l-1 -3l-1 -4q-5 -9 -7 -16l-5 -10q-1 -7 -4 -11l-1 -5
l-5 -11l-1 -5l-1 -4l-2 -4l-1 -4l-4 -13q-1 -7 -3 -11l-1 -4l-1 -5l-4 -19l-1 -3q-1 -11 -3 -18q-1 -10 -1 -13q-1 -9 -1 -16v-52l1 -4l2 -17l1 -4l1 -5l4 -13l1 -4l1 -6q1 -2 1 -3q1 -1 1 -3q6 -11 8 -20q3 -4 5 -8l1 -2l2 -6l2 -3l2 -3l1 -2q5 -6 7 -11q5 -6 7 -10l3 -3
l2 -2q4 -8 10 -12l1 -3q5 -4 8 -8l3 -2l3 -3l2 -2l2 -3l2 -1l3 -2q3 -4 7 -6l10 -9q2 -1 2 -2l3 -1l8 -6q5 -3 8 -6q12 -5 18 -11l5 -2l3 -2l4 -1q4 -3 7 -5q5 -1 8 -3l2 -1l2 -1q7 -3 12 -6q6 -2 10 -4l2 -1q7 -2 12 -4l3 -1l3 -1q5 -2 8 -3q10 -3 16 -6l5 -1l5 -1l4 -2
l5 -1l5 -1l5 -1l2 -1l12 -3l5 -1l6 -1l5 -1l4 -1l6 -1l4 -1l17 -3l5 -1h3l4 -1l25 -4h5l7 -1l6 -1h4l17 -1q4 -1 8 -1l7 -1q11 1 19 -1h4h4h4h4h4h4h4h3h4h18h4h11h3h3h4h3h7h3h3h3h7l6 1h5l13 1h4h7q3 1 6 1h4l23 2l6 1h6q2 1 3 1q8 0 14 2h6l14 2l16 2l5 1h3q6 2 11 2l4 1
l4 1q6 0 11 2h5l2 1h4q1 1 2 1h3l8 2l12 2l3 1h3q6 2 11 3h3q1 1 3 1l3 1h3q6 3 11 3l10 3h3l8 2l8 2q6 2 11 3l4 1l4 1l12 4l4 1h3q5 3 10 3l4 2l4 1l2 1l16 4l3 2h3q2 1 3 1l7 3l2 1l16 5l5 2l6 2l18 7l5 2l5 2l6 2q6 3 11 4l2 2l2 1q7 2 12 5l6 2l5 3l6 2l13 7l3 1l10 4
q4 3 8 5l2 1l6 2q7 6 15 8q1 2 2 2l3 1q6 5 11 6q5 5 10 6l3 3l13 7l2 2l3 1l1 2l7 4l13 9l1 2q4 9 7 14q4 6 6 11l7 11l1 3l1 2l1 3l10 21l1 3l9 19q2 6 4 11l1 4l1 4l2 3l5 17l4 12v3l1 2l4 14v4l1 3l1 3v3l2 8q3 13 3 21q2 12 3 19v5v3q2 6 1 11v17v5v4v3v3v17v3
q-2 7 -1 12q-1 1 -1 3v3l-2 16l-3 14l-2 13l-1 4l-2 4v4q-7 18 -9 30q-1 1 -1 2l-4 9l-1 3l-2 5v3l-3 7q-1 1 -1 3q-3 4 -4 9q-7 10 -9 19l-2 2l-4 9q-4 5 -5 9q-5 6 -6 11q-6 6 -8 13l-3 3l-2 3l-1 3l-2 1l-4 6l-5 9l-3 2l-2 4l-2 2l-1 3q-10 10 -15 19l-4 3l-3 4l-2 2
l-1 2q-4 4 -6 7l-3 3l-3 4q-8 6 -13 14l-3 2l-2 3l-4 3l-1 2q-2 1 -2 2q-5 3 -7 6l-1 2q-8 5 -12 11l-3 1l-2 2l-3 1q-8 5 -14 8l-11 6q-11 4 -18 7h-1h1h-1l-3 1h-3l-4 1q-3 0 -4 1h-4h-8h-8h-8q-1 -1 -3 -1zM1076 1442q-10 -13 -108 -109q54 -78 117 -117q111 113 116 116
l-2 3q-59 48 -83.5 76t-39.5 31z" />
  </g>

</svg>
