<?xml version="1.0" standalone="no"?>
<!DOCTYPE svg PUBLIC "-//W3C//DTD SVG 1.1//EN" "http://www.w3.org/Graphics/SVG/1.1/DTD/svg11.dtd" >
<svg viewBox="0 -410 2048 2048">
  <g transform="matrix(1 0 0 -1 0 1638)">
   <path fill="currentColor"
d="M1235 670q-8 -3 -14 -4l-2 -2l-4 -1l-3 -1q-6 -5 -11 -6q-4 -5 -9 -6l-2 -3l-3 -1l-4 -3l-2 -3l-3 -2l-3 -2q-3 -5 -7 -7q-8 -10 -14 -15q-127 -180 -79 -381l-12 -3l-3 -2l-5 -1q-1 -1 -3 -1l-4 -1q-2 -1 -3 -1q-1 -1 -3 -1q-2 -1 -3 -1l-16 -6h-4q-11 -5 -20 -6l-8 -3
h-3l-3 -1l-3 -1l-14 -3l-3 -1l-18 -5h-3q-6 -2 -11 -2q-1 -1 -3 -1q-15 -4 -25 -5q-9 -3 -16 -4h-4l-3 -1l-4 -1h-4q-13 -4 -22 -4l-2 -1h-3h-3q-10 -3 -17 -3l-4 -1h-6q-1 -1 -3 -1l-14 -2h-4q-10 -2 -18 -2l-4 -1h-5q-4 -2 -8 -1l-25 -3h-5l-20 -1l-6 -1h-5q-5 0 -8 -1h-5
h-3h-4h-7q-11 -1 -18 -1h-17h-4h-3h-20h-4h-4h-3q-12 1 -20 1h-5l-5 1h-3h-8q-6 1 -11 1l-4 1l-19 1l-4 1h-4l-17 3q-9 0 -15 2l-4 1h-4l-4 1l-3 1h-3l-17 3q-5 2 -9 2q-6 2 -11 3l-3 1l-2 1l-21 5l-14 5l-4 1l-4 2l-5 2l-5 1l-5 2l-2 2h-3l-2 2l-4 1l-3 2l-3 1l-22 10l-2 2
l-3 1l-2 2l-7 4q-11 5 -18 12q-20 11 -32 26q-7 4 -10 10l-3 2l-11 12l-3 6l-2 1l-1 2q-7 9 -10 16l-2 1q-2 6 -5 9l-1 2q-3 8 -6 12l-1 4l-2 3l-1 4l-1 4l-2 2v3q-3 4 -3 8l-1 4q-2 4 -2 7l-5 18v3l-1 4v3l-3 20v12q-1 4 -1 7v13q-1 11 1 19v8v3q1 6 1 10l2 10v3q0 6 2 10
v3v3l3 11q1 13 5 23q1 10 4 17q2 11 7 20q2 10 5 17l2 8l2 7q3 10 -5 12q-1 -2 -2 -2l-2 -2l-2 -1q-6 -10 -12 -15l-1 -3l-2 -2l-2 -4l-2 -2l-2 -3q-6 -11 -12 -18l-1 -3q-3 -5 -4 -8l-7 -13q-2 -5 -4 -9l-2 -3q-2 -6 -4 -10l-2 -3q0 -3 -1 -4l-1 -3l-2 -3l-1 -3l-10 -26
l-2 -3l-5 -16l-2 -3l-4 -13l-1 -4l-3 -10l-2 -4q-1 -6 -3 -11l-1 -4l-1 -6l-1 -3l-1 -3v-3l-2 -8l-1 -3l-1 -3v-3q-2 -8 -2 -13q-32 -194 109 -300l2 -3l4 -2l2 -1l1 -2q8 -4 13 -8l4 -3l5 -2l2 -1q5 -3 8 -5l4 -3l4 -1l10 -6q6 -2 10 -5l4 -1l4 -2l7 -3l3 -1l15 -7l5 -1
l3 -1l12 -4l13 -5l23 -6l4 -1l4 -1l4 -1l5 -1l3 -1l5 -1l3 -1l3 -1l8 -1l16 -4h6q6 -2 11 -2l11 -2q8 0 13 -2h5l3 -1q5 0 8 -1q12 0 20 -2h6h3l16 -1h3l3 -1h17h8h7h13h5h6h4h4h17h4h4h7l12 1h10h3l3 1h3h7q13 2 22 2l3 1q6 0 11 1l23 2q8 2 14 2q1 1 3 1h3l8 1q1 1 3 1h3
l8 2q6 1 10 2q6 0 11 2h4l4 1l12 2q8 2 13 3l4 1l7 1l6 2l7 1l6 2l5 1l4 1l3 1l6 1q1 1 3 1l3 1l2 1h3q1 1 2 1q14 5 23 6q3 2 5 2l13 4l5 2l3 1l2 1h3q7 4 13 5l3 1l4 1l6 3l4 1l4 1q2 1 3 1q4 3 8 3l3 2l7 3l22 9l13 5l4 2l7 3q4 3 8 4l16 9l4 1l5 3l5 2l4 3l4 2l3 2l2 1
l3 2l2 1l4 2q5 3 8 5l2 1l14 9l3 -4l3 -3l3 -2l2 -3q7 -4 11 -9l3 -3q2 -1 2 -2q2 -1 2 -2l3 -1l2 -2l3 -2l2 -2l5 -5q5 -2 8 -6l4 -2l3 -3l4 -2q2 -1 2 -2l13 -7l3 -2l3 -2l2 -2l3 -1l2 -1l4 -2l2 -1l2 -2l2 -1l3 -1l16 -9q7 -2 12 -5l4 -1l4 -2l5 -2l3 -2h3l3 -2l4 -1
l3 -1l3 -1l3 -1l2 -1q11 -3 18 -6l10 -2l8 -3h4l12 -4q6 0 11 -2l13 -2l4 -1h3q7 -2 13 -2l7 -1q8 -2 14 -2l4 -1h5l5 -1h6l5 -1h6l16 -1h4h4h4h4l3 -1h4h17h8h7v20v6v17v3v12v13v4v17v3v12v11v5v13v4v17v3v12h-4h-4h-4h-4h-5h-3h-5h-3l-3 1h-8h-3l-7 1h-6l-3 1l-20 2l-3 1
l-7 1l-7 2l-17 3l-4 1l-18 5l-3 1l-3 1l-8 2q-10 3 -16 6l-3 1q-13 4 -21 8q-8 2 -14 6q-5 1 -8 3l-16 7q103 125 104 271l-1 4v3q-1 2 -1 3v3l-2 8l-3 16q-3 8 -3 13l-2 3v4l-2 4l-1 4q-3 8 -4 13q-5 8 -6 15q-4 6 -6 11q-4 7 -5 11l-2 1l-2 3l-8 14l-2 1l-12 15l-3 1l-5 6
l-2 1q-9 6 -14 10h-1h1h-1l-2 1l-2 1l-2 1l-3 1l-2 1l-3 1l-3 1l-3 1l-4 1l-5 1h-9h-10h-9zM1228 494q51 -39 67 -99q3 -6 4 -11l1 -4q1 -2 1 -3q1 -1 1 -3q1 -2 1 -3l6 -17l-2 -6l-3 -1q-1 -2 -2 -2l-2 -2l-2 -1l-2 -2l-7 -4q-6 -4 -10 -6q-4 -3 -8 -5l-3 -2l-3 -2l-4 -2
q-7 -4 -11 -5l-3 -2q-7 -4 -11 -5q-2 -1 -3 -1l-2 -2l-3 -1l-4 -1l-3 -2l-22 -8l-2 2l-1 2q-9 7 -13 15q-5 4 -7 9l-4 6l-5 5l-1 2l-3 7l-2 1l-4 10q-6 8 -7 15l-5 10v3q-1 1 -1 2l-1 2l-1 3l-5 18l-1 3l-1 10l-1 3v3q-1 1 -1 3v4q-1 2 -1 3v4l-1 2v10l-1 3v3v4v3v20l2 1
l2 1l2 1l2 1q26 15 51 17q22 -1 39 -9zM1178 1327q-10 -13 -108 -109q54 -78 117 -117q111 113 116 116l-2 3q-59 48 -83.5 76t-39.5 31z" />
  </g>

</svg>
