<?xml version="1.0" standalone="no"?>
<!DOCTYPE svg PUBLIC "-//W3C//DTD SVG 1.1//EN" "http://www.w3.org/Graphics/SVG/1.1/DTD/svg11.dtd" >
<svg viewBox="-96 -410 2048 2048">
  <g transform="matrix(1 0 0 -1 0 1638)">
   <path fill="currentColor"
d="M158 821q-11 -6 -19 -9l-2 -2l-2 -2l-9 -5l-1 -2l-6 -4l-1 -2l-2 -1q-5 -7 -10 -10q-1 -2 -2 -2l-1 -3l-6 -6l-1 -2q-5 -6 -8 -9q-3 -8 -8 -12l-1 -3l-2 -3l-1 -2l-5 -8l-2 -3l-2 -4l-1 -3l-2 -3l-5 -8l-1 -4l-6 -11q-2 -6 -5 -10l-8 -22l-5 -9q-1 -7 -3 -11
q-4 -8 -5 -14l-2 -2v-3q-3 -7 -3 -12l-1 -2l-4 -14v-3l-4 -19v-3q-1 -4 -1 -8l-1 -3v-6l-1 -3l1 -41l1 -3l3 -13l1 -3l7 -16l2 -1q6 -10 15 -18l6 -5l2 -1q13 -7 21 -11h3l2 -1q10 -2 17 -3q5 -2 9 -2h3h3h5h3h4h3h20l4 1l12 1q8 2 13 2l5 1l2 1h3l2 1h3l16 3l4 2h5l4 2h4
q1 1 2 1q3 1 15 4l4 1q13 6 23 7q4 3 8 3q13 5 21 7l13 -39q1 -1 1 -2l2 -8q1 -1 1 -2q-1 -11 5 -17q1 -1 1 -3l1 -3q5 -15 6 -25l2 -7v-3q3 -10 3 -13l3 -55l-1 -7v-9q-2 -8 -2 -15q-118 -84 -213 -87q-1 -1 -2 -1l-16 -2h-3l-3 -1h-3l-20 -3l-5 1h-14l-4 1h-4h-3h-5h-3h-4
h-3l-116 2v-175q430 7 514 327v4l1 3v3l1 3l1 7v4l1 2l1 16q21 253 -142 415l-4 2l-2 3l-3 1l-2 2l-8 6l-3 2l-8 6l-2 1l-2 1l-3 1l-5 4q-6 2 -11 5l-7 2l-2 1l-12 3h-4l-3 1h-3h-3h-20q-9 -3 -16 -4zM135 1287q-10 -13 -108 -109q54 -78 117 -117q111 113 116 116l-2 3
q-59 48 -83.5 76t-39.5 31z" />
  </g>

</svg>
