<?xml version="1.0" standalone="no"?>
<!DOCTYPE svg PUBLIC "-//W3C//DTD SVG 1.1//EN" "http://www.w3.org/Graphics/SVG/1.1/DTD/svg11.dtd" >
<svg viewBox="-71 -410 2048 2048">
  <g transform="matrix(1 0 0 -1 0 1638)">
   <path fill="currentColor"
d="M318 638q-6 -3 -11 -3l-3 -2l-2 -1l-15 -6q-7 -6 -14 -9l-2 -3l-3 -2l-18 -15q-101 -123 -115 -264v-17q0 -10 1 -17q0 -3 1 -14l1 -11q1 -2 1 -3v-3q4 -9 4 -17q3 -5 4 -11l1 -4l2 -3l3 -10l2 -2l1 -2l2 -6q6 -8 8 -15q-8 -4 -14 -6q-7 -2 -12 -2l-4 -2h-5l-19 -4
l-16 -2l-5 -1l-16 -1q-5 -1 -10 -1l-4 -1q-6 0 -11 -1h-4h-6l-3 -1h-5h-3h-4h-3q-40 -2 -91 -2q0 -12 -1 -20v-66l-1 -6v-82h74h5h3h4h3h20l8 2h4h3q4 1 7 1q8 2 15 2q2 1 3 1l3 1l9 1l10 2l5 1l3 1l3 1h3l4 1l25 7l13 4q12 4 14 4l4 2q5 3 17 6l4 2q4 2 8 3q4 3 9 4l2 2
l3 1l3 2l3 1l7 3q5 4 10 5l1 2l18 10l2 2l3 1l2 2l3 1l1 2q7 5 12 9l3 -1l12 -6q160 -91 325 -82v20v3v3v31v7v6v7v6v5v6v4v18v11v4v4v4v4v17v3v12q-85 -5 -151 30l-3 1q-5 2 -8 3l-3 2l-3 1l-2 2q-10 4 -15 7l2 7l2 2l1 3q2 6 8 18l1 2v3q4 7 5 12l2 3l1 3l1 3v3q3 6 4 11
l4 10l1 4l1 4l1 4l1 4l1 3l1 3l5 22v3l5 23v4v3l1 7l1 3v4l1 3v4v3v3q2 16 1 25q-2 6 -3 11v4l-1 5l-1 3l-1 2v4q-3 6 -3 10l-1 3l-5 19l-2 3l-2 9q-6 9 -7 18l-2 4l-2 4l-1 2l-1 2l-2 6l-2 2l-5 12q-4 5 -5 10l-3 3l-1 4q-5 6 -8 11q-3 7 -5 9l-2 2l-13 20l-2 1l-5 6l-3 1
l-6 4l-12 8l-21 7h-3l-3 1h-4h-3h-4h-18zM344 443q5 -9 10 -14l1 -3q5 -6 8 -11l4 -10q1 -1 1 -2q1 -1 1 -2q1 -1 1 -2q7 -10 9 -20q3 -4 3 -8l2 -2v-3q4 -7 5 -12v-3q4 -9 5 -17l2 -3l1 -4l1 -5v-3q3 -6 3 -11l1 -6q2 -6 3 -11q-5 -5 -9 -7l-6 -4l-1 -2l-3 -1
q-17 -13 -32 -17q-11 -6 -20 -7q-71 39 -102 104q-42 106 21 128q58 0 91 -42zM297 1427q-10 -13 -108 -109q54 -78 117 -117q111 113 116 116l-2 3q-59 48 -83.5 76t-39.5 31z" />
  </g>

</svg>
