<?xml version="1.0" standalone="no"?>
<!DOCTYPE svg PUBLIC "-//W3C//DTD SVG 1.1//EN" "http://www.w3.org/Graphics/SVG/1.1/DTD/svg11.dtd" >
<svg viewBox="0 -410 2048 2048">
  <g transform="matrix(1 0 0 -1 0 1638)">
   <path fill="currentColor"
d="M592 1143l-4 -4q-18 -9 -28 -16l-6 -6l-14 -18l-6 -4l-2 -4l-2 -6l-4 -4l-4 -4l-2 -4q-8 -15 -16 -24l-2 -8l-4 -8l-18 -32l-4 -8q-6 -20 -12 -32l-6 -14l-2 -6l-14 -30v-14q-6 -34 2 -60q9 -31 28 -50l4 -2l14 -8h6q14 -6 24 -8h16h6h26l10 2h8q5 2 10 2l12 2l10 4h8
q16 7 28 8q12 5 20 6l4 2l20 6q16 9 30 10l18 -38q32 -62 32 -124l-6 -4l-4 -6l-6 -4l-4 -4l-6 -6l-6 -2l-4 -6l-4 -2l-6 -4l-4 -4q-13 -8 -20 -14l-18 -10q-10 -7 -18 -10q-18 -11 -34 -16l-6 -4q-8 -5 -16 -6l-4 -4l-4 -2q-15 -4 -24 -10l-10 -2l-6 -2q-8 -5 -16 -6
l-14 -6q-22 -9 -38 -12q-5 -3 -10 -4q-15 -8 -28 -10l-10 -4l-10 -2q-15 -8 -28 -10l-8 -4l-4 -2l-18 -4q-17 -10 -32 -12q-12 -8 -24 -10l-4 -4l-8 -2l-6 -4l-8 -2l-14 -6q-9 -7 -18 -10l-6 -2q-7 -7 -14 -8q-14 -13 -28 -18q-132 -100 -132 -248q-2 -60 34 -100
q11 -1 20 -6l6 -2h6l16 -4l4 -2l32 -6l10 -2q12 -1 22 -4h6h8q28 -5 46 -4l6 -2q16 1 28 -2h12h26h14h28h6h36h26h8h34h16h14h8l6 2h8h6h8h6h16q23 3 40 2h10q6 2 12 2h10h12l8 2h8h10l26 2h20l6 2h6l40 2h10l10 2h28q12 3 22 2h10q3 2 6 2h16q23 3 40 2q6 2 12 2h6
q10 0 16 2l40 2h6l32 2h8l22 2h8h6h6l6 2h8h14l36 2h12q6 2 12 2h12l38 2h16q11 0 20 2h8h6h40h8q27 4 46 2h28h8h6h8h8h10h6h6h8h6h14h8h6h6q15 -3 24 -2l6 8l4 8l16 22l10 18l4 6l12 16l4 6l2 6l4 4l8 10q11 23 24 36v2v-2v2v4h-8l-44 6h-12l-10 2h-12l-26 2h-14l-12 2h-8
h-34l-8 2h-22h-8h-6h-10h-6h-8h-6h-40l-32 -2h-6h-8h-36q-27 -4 -44 -2h-8q-12 -3 -22 -2h-6h-6l-14 -2h-8l-36 -2h-14l-6 -2h-8h-14q-21 -3 -36 -2h-6q-2 -2 -4 -2h-6h-6l-40 -2l-6 -2h-6h-6l-36 -2l-12 -2h-8h-10q-19 -3 -32 -2q-31 -4 -50 -4l-40 -2l-12 -2h-12h-10
q-18 -3 -34 -2h-6q-11 -4 -24 -2h-6l-6 -2h-6h-6q-19 1 -32 -2h-12h-10h-12h-6l-22 -2h-10h-62h-28h-6h-10h-6h-8h-6h-40q-13 0 -22 2q-22 -1 -36 2h-16h-6l-26 4h-6h-6q-10 2 -16 2l-8 2q-39 4 -62 10q-19 3 -32 8q36 58 90 86l4 2l12 4l4 4l36 16l14 6l22 6q10 5 18 8h6
q14 7 26 10l8 2l4 2l6 2h6q18 9 32 10l8 4l10 2l8 4h6q6 3 12 4q15 8 30 10l78 28l6 4l6 4h6q6 4 12 6l6 4l6 4l6 2l20 12l6 2q8 7 16 10l12 8l12 8q8 10 18 14l4 6l6 4l4 6l12 10q15 19 26 30l2 6l6 6l6 14l20 34l2 8l18 38q1 11 6 22l2 6l2 4l2 14l6 22q0 12 2 20v6
q0 12 2 20q0 20 -2 34v16q-2 7 -2 14q-4 11 -4 20l-2 8l-2 8l-16 50q-7 9 -8 18l-8 12q-6 15 -12 22l-4 12q-8 8 -12 16l-2 6l-6 6l-2 6l-6 6l-4 6l-4 6l-4 6l-4 6q-3 2 -4 4l-4 4l-8 12q-12 11 -20 20l-4 6l-4 6l-6 4l-4 6q-3 2 -4 4l-8 6l-4 6l-30 26q-31 11 -56 8
q-3 -2 -6 -2zM640 945l8 -10h-16l-4 -2q-53 -3 -90 6q-21 14 -22 36v2v-2v2q17 17 36 24q61 -6 88 -56zM597 1670q-10 -13 -108 -109q54 -78 117 -117q111 113 116 116l-2 3q-59 48 -83.5 76t-39.5 31z" />
  </g>

</svg>
