<?xml version="1.0" standalone="no"?>
<!DOCTYPE svg PUBLIC "-//W3C//DTD SVG 1.1//EN" "http://www.w3.org/Graphics/SVG/1.1/DTD/svg11.dtd" >
<svg viewBox="0 -453 2048 2048">
  <g transform="matrix(1 0 0 -1 0 1638)">
   <path fill="currentColor"
d="M901 884q-13 -3 -22 -7q-1 -1 -2 -1q-9 -8 -16 -11l-2 -3l-2 -2l-9 -8l-1 -2l-2 -2l-14 -19l-1 -4l-2 -3l-2 -2q-3 -8 -6 -12q-2 -7 -5 -11q-3 -9 -6 -14q-2 -9 -6 -16q-1 -6 -3 -11l-2 -5v-4l-2 -6l-2 -4l-1 -8l-3 -8v-3l-2 -8l-1 -2l-1 -7l-3 -11l-1 -7l-2 -11v-3
l-3 -13v-3q-2 -8 -3 -13v-7q-2 -12 -1 -19q4 -25 17 -43l2 -1l5 -5q2 -1 2 -2l3 -1l2 -2l3 -1l3 -1l12 -6l9 -2l13 -1l3 -1h3h4h18h4q10 2 18 2q2 1 3 1l3 1h3h3q14 4 23 5l5 2q8 2 14 4l14 3q8 4 14 5l4 1q2 1 3 1l4 2l3 1l4 1l2 2l5 1l3 1q2 1 3 1q6 4 12 5l3 1q9 5 16 7
q81 -132 74 -280q-85 -76 -186 -90q-2 -1 -3 -1h-3q-1 -1 -2 -1h-3l-2 -1h-3q-9 -2 -15 -2q-8 -1 -13 -1q-4 -2 -8 -1h-4q-9 -2 -17 -1l-1 -3l-7 -16l-2 -5q-3 -10 -7 -16l-1 -5l-3 -6l-2 -4q-1 -5 -3 -10l-5 -12l-1 -3l-5 -11l-1 -4l-2 -3l-1 -5l-2 -3l-1 -4l-1 -3l-2 -2
q-1 -5 -3 -10l-1 -2l-7 -18l4 -1l3 -2q7 -2 12 -4l10 -3l4 -1l6 -1l4 -1l2 -1l3 -1h3l8 -2l7 -2h4l16 -3h3q6 -2 11 -2h3l4 -1l3 -1h7l3 -1q11 0 19 -2q9 0 16 -2q8 0 14 -1h5q6 -1 11 -1l3 -1h3h5l3 -1q5 0 8 -1q12 0 20 -2h4h4l10 -2h8l3 -1q13 -1 22 -3h3l4 -1h3l4 -1
l8 -1l3 -1l12 -2q9 -2 15 -4q64 -11 97 -54l-7 -3q-5 -5 -9 -7l-7 -3q-1 -2 -2 -2l-2 -1l-2 -2q-9 -5 -14 -9l-7 -3l-1 -2l-3 -2l-7 -3l-2 -2l-3 -1q-6 -5 -12 -8l-3 -1q-6 -5 -11 -8l-3 -1q-6 -5 -12 -7l-4 -3l-5 -2l-1 -2l-2 -1l-3 -2l-14 -7q-5 -4 -10 -6l-2 -1
q-6 -5 -12 -7l-3 -2l-3 -1l-2 -2l-7 -3q-9 -8 -18 -10l-1 -2q-8 -3 -13 -7l-5 -2l-12 -7l-13 -6q-6 -5 -11 -6l-4 -2l-3 -2l-3 -2l-4 -1l-3 -2l-3 -2l-3 -2l-10 -4l-2 -2l-3 -1l-7 -4l-10 -4q-5 -4 -9 -4l-5 -3l-5 -2l-4 -3l-5 -2l-6 -2q-4 -3 -8 -4l-4 -3l-5 -1l-4 -3
l-4 -1l-3 -2l-4 -2l-3 -1l-3 -1l-4 -2l-3 -2h-3q-7 -5 -13 -6l-19 -9h-3l-7 -3h-3q-4 -2 -8 -3l-4 -1q-12 -4 -21 -5l-4 -1l-4 -2l-5 -1l-4 -1l-5 -1l-4 -1l-13 -2l-4 -1l-4 -1l-4 -1h-3q-1 -1 -2 -1l-16 -3h-4l-3 -1h-4q-4 -2 -8 -1q-9 -3 -16 -2q-147 -19 -268 32
q-142 63 -186 197l-2 3l-1 6l-2 3v3l-1 2v3q-4 9 -5 16q-20 119 19 218q0 6 2 10v3l1 2l3 16q5 48 -27 35q-1 -2 -2 -2q-3 -5 -6 -7l-3 -2l-2 -3q-1 -2 -2 -2l-2 -4q-1 -2 -2 -2l-1 -3l-2 -2l-12 -22q-83 -212 -24 -406q1 -1 1 -2q1 -1 1 -3l3 -7q2 -4 3 -8l3 -7q4 -6 5 -11
l2 -3l2 -5q4 -6 6 -11l1 -3l3 -3l1 -3l2 -2l1 -4l2 -1l1 -3q7 -9 10 -16l3 -2l1 -3q2 -1 2 -3l3 -2l1 -3q2 -1 2 -3l3 -2l1 -3l3 -3l3 -3l2 -3l3 -3l2 -3l4 -3l5 -6l2 -1l1 -2q7 -5 11 -11l11 -8l2 -2l2 -2l2 -2l2 -1l2 -2q8 -6 13 -10q7 -4 10 -7l12 -7l4 -2l2 -2l3 -1
l11 -7l5 -2l3 -2l3 -1l3 -1l2 -2l3 -1q7 -3 12 -6q9 -2 15 -6q3 0 4 -1l4 -1l18 -6l4 -2l6 -1l5 -1l4 -2l17 -3l4 -2h5l13 -3h4l3 -1l7 -1h4l2 -1q9 0 16 -2h3h7q14 -2 22 -1h4h17h4h11h4h5h4h4h7q11 1 18 1q3 1 6 1h4q2 1 3 1h4l3 1h3l17 2q8 2 15 2q1 1 3 1l3 1h3l4 1h3
l8 2l2 1h3q9 3 16 3q2 1 3 1l4 1q9 3 16 4l8 2l16 5l7 2l10 3q9 3 15 4q7 4 12 5l4 1l4 1l3 2l17 5q11 6 20 8q4 3 8 3q1 1 2 1q1 1 2 1q12 6 20 8l15 8h3q7 5 13 6q5 4 10 5q3 2 6 3l7 3q5 4 10 5l4 3l15 7l4 2l4 3l5 2l3 2l5 2q1 2 3 2l2 2l4 1l3 2q6 5 11 6l3 2l2 2
l18 10l4 3l4 1q6 6 13 8l1 2l3 1q1 1 2 1q8 6 14 9l2 2l2 1l2 1q10 7 17 11q7 6 14 9l4 4l5 2l4 4l4 3l3 1l2 2l4 2l6 4q1 2 2 2q1 1 2 1l1 2l3 1q5 5 10 8l2 1l2 2l3 1q5 5 10 8l2 2l2 2l2 1l2 1l2 2l13 10l5 4l3 2l5 3q5 6 10 9l4 2l3 3l3 2l2 3l4 3l3 2l2 2l2 2l6 4
q5 7 11 10l2 4l3 2l3 3q3 5 6 7q1 2 2 2l1 3l2 2l2 2l1 2l2 2q8 12 14 19l1 4q6 7 8 13l6 10l2 4l1 4l9 18l3 11l4 8v3q3 7 4 13l4 11v3v4q2 10 1 17q1 40 -17 71q-2 1 -2 2l-2 2l-2 2l-4 6q-2 1 -2 2l-2 1l-8 9q-5 2 -8 6l-3 1l-8 6q-12 4 -18 9l-22 8q-8 2 -13 4l-21 5
l-4 1h-3l-8 2h-3q-10 3 -17 3l-3 1h-4q-10 2 -17 2l-15 2q178 372 -57 628l-1 1q-2 1 -3 3q-2 1 -3 3q-2 1 -3 3q-2 1 -3 3q-2 1 -3 3q-2 1 -3 3q-2 1 -3 3q-2 1 -3 3q-2 1 -3 3l-2 1q-3 2 -4 4q-2 1 -3 3q-2 1 -3 3l-2 1l-3 3q-2 1 -3 3l-3 1l-3 2l-3 2q-2 1 -2 2l-2 1
l-3 1q-2 1 -2 2l-3 1l-3 2l-3 1l-3 2l-3 1l-3 1l-2 1l-2 1l-3 1l-3 1l-3 1l-3 1l-3 1l-4 1l-6 1l-6 1h-9h-9h-8q-1 -1 -2 -1zM904 1442q-10 -13 -108 -109q54 -78 117 -117q111 113 116 116l-2 3q-59 48 -83.5 76t-39.5 31z" />
  </g>

</svg>
