<?xml version="1.0" standalone="no"?>
<!DOCTYPE svg PUBLIC "-//W3C//DTD SVG 1.1//EN" "http://www.w3.org/Graphics/SVG/1.1/DTD/svg11.dtd" >
<svg viewBox="0 -410 2048 2048">
  <g transform="matrix(1 0 0 -1 0 1638)">
   <path fill="currentColor"
d="M1898 2038l-28 -16l-28 -16q-693 -398 -724 -412l-4 -24l-4 -8v-16l-4 -8l-4 -28l-12 -56l20 12q10 9 20 12l16 16l8 4l12 4q21 21 44 28q31 25 56 36l600 332l4 12v12l4 12l12 28v12l4 12q12 27 16 48zM2022 1834l-28 -12l-20 -16l-24 -12l-12 -4l-64 -36l-16 -4
q-4 -7 -8 -8l-12 -4q-4 -5 -284.5 -153t-295.5 -155l-8 -8l-28 -12q-46 -35 -80 -48l-4 -20q-10 -20 -16 -36l-8 -16l-12 -28l-4 -12l-28 -60l4 -36l12 -152q5 -4 4 -8l4 -68l4 -20v-32q5 -4 4 -8l8 -112l4 -8v-36q6 -27 4 -48q4 -6 4 -12v-24q10 -55 8 -88q6 -24 4 -44
l4 -8v-112l-4 -8q0 -50 -16 -88q-381 -228 -772 -152q-329 85 -212 400v36l-20 -20q-14 -33 -28 -52q-161 -490 248 -544q408 -42 724 132q31 39 56 60l4 12l8 12l8 8l4 12l8 8l16 28q9 25 24 40q78 -259 332 -260v16v12v20v12v16v12v80q-130 11 -204 100l-4 12
q-30 49 -40 88v16q-13 41 -16 72l-4 24v32l-4 32q-1 20 -4 32v28l-4 28v16l-4 12v24v12l-4 16v12v16q-5 4 -4 8l-8 92l-4 68l-4 24v16l-4 8v12q-2 43 -8 72v16v16q-5 22 -4 44l-4 16v12v16q-10 62 -8 100l20 12l8 4l56 32q703 370 740 392l12 48q26 57 28 104z" />
  </g>

</svg>
