<?xml version="1.0" standalone="no"?>
<!DOCTYPE svg PUBLIC "-//W3C//DTD SVG 1.1//EN" "http://www.w3.org/Graphics/SVG/1.1/DTD/svg11.dtd" >
<svg viewBox="0 -410 2048 2048">
  <g transform="matrix(1 0 0 -1 0 1638)">
   <path fill="currentColor"
d="M1864 1984l-28 -16l-8 -8l-12 -4q-19 -14 -32 -20l-12 -8l-8 -4l-48 -24l-8 -8l-72 -36l-24 -12l-24 -16l-24 -12l-20 -12l-24 -12q-31 -21 -56 -28q-32 -24 -56 -36l-16 -8l-16 -8l-20 -8q-28 -24 -56 -32l-8 -8l-12 -4l-12 -8l-8 -8l-12 -8l-12 -4l-12 -8l-12 -4
q-15 -14 -32 -20l-12 -8q-32 -25 -56 -36l-4 -24l-4 -16l-4 -24l-16 -76l16 12l20 8l16 12l24 16q4 5 8 4q30 26 56 36q20 16 40 24q22 21 44 32l16 4q25 23 52 32l8 8l8 4l68 36l16 12l20 12l24 8q24 20 48 28l16 8l12 8l84 44l8 8l40 16q73 46 124 64l4 8l8 8v12l4 12
l4 16l4 8l4 12l20 72h-8h8h-8zM2040 1812q-42 -33 -80 -44q-4 -5 -8 -4q-23 -19 -44 -24l-24 -16l-28 -16l-28 -12l-28 -12q-4 -7 -8 -8q-26 -16 -44 -20l-8 -8l-84 -44l-12 -4q-34 -20 -60 -28l-20 -16l-24 -8l-20 -12l-12 -4q-40 -30 -76 -40q-30 -25 -60 -32
q-42 -33 -80 -44q-5 -6 -12 -8q-4 -5 -8 -4q-36 -30 -68 -40q-4 -5 -8 -4q-29 -27 -60 -36q-4 -21 -16 -40v-12l-8 -16l-4 -12l-8 -8q-16 -53 -36 -84v-20q5 -4 4 -8v-28q8 -47 8 -80l4 -56q4 -14 4 -28l12 -136q10 -54 8 -88l4 -12v-28q10 -54 8 -88l4 -12v-20q5 -22 4 -44
l4 -12v-12q7 -95 4 -152l-4 -12q-1 -45 -16 -80q-371 -222 -752 -156q-347 76 -232 404q6 26 -8 36l-4 -12l-20 -24q-8 -33 -24 -56q-157 -582 452 -532q657 23 720 476v12q5 41 0 72l-4 28v12v24q-6 16 -4 32l-8 80v12l-4 8v16v12l-8 80l-4 24l-4 76l-4 24l-12 152l-4 12
v16v12l-4 12l-4 68v16q-7 24 -8 44l20 12l8 4l56 32q23 19 44 24l24 16q12 9 24 12q14 15 28 16l20 16l28 16l12 4l64 36l20 8q10 9 20 12l8 8l12 4l60 32l56 28l44 24l12 4q38 27 72 36l16 8l16 8q24 18 44 24l12 4l12 8q23 11 40 16q4 5 8 4q27 18 48 28l4 8v12l4 12l4 12
l4 12l8 32q16 35 20 64h-4h4h-4z" />
  </g>

</svg>
