<?xml version="1.0" standalone="no"?>
<!DOCTYPE svg PUBLIC "-//W3C//DTD SVG 1.1//EN" "http://www.w3.org/Graphics/SVG/1.1/DTD/svg11.dtd" >
<svg viewBox="-99 -410 2048 2048">
  <g transform="matrix(1 0 0 -1 0 1638)">
   <path fill="currentColor"
d="M1038 1660h-6q-14 -8 -26 -10q-3 -2 -6 -2q-18 -10 -853 -434l-8 -4l-6 -4q-16 -11 -20 -12l-6 -2q-14 -10 -20 -12l-6 -2q-8 -7 -16 -10l-34 -18l-2 -8l-4 -4q-6 -16 -14 -28l-10 -22q-7 -11 -10 -20l-4 -6l-10 -22l-4 -6l-2 -8l-4 -6q-9 -23 -18 -36l-2 -10l-4 -6
l-8 -24l-8 -16v-6q-2 -4 -6 -16l-2 -6l-2 -4q-3 -19 -8 -32v-20l4 -6l2 -4l8 -24l4 -6l8 -20l4 -8l4 -6l2 -4l4 -6l2 -4q7 -9 10 -16q14 -14 20 -28l8 -6l4 -4l8 -12l8 -6l4 -6q29 -22 44 -38q246 -149 286 -408l-6 -4l-20 -8l-6 -2l-4 -2l-32 -12l-6 -2l-14 -4h-6l-4 -2
l-6 -2h-6q-12 -4 -22 -4q-11 -5 -20 -4q-20 -6 -36 -6l-8 -2h-8l-22 -4h-8h-6l-8 -2h-20l-8 -2h-6l-157 1q-4 -20 -2 -34v-136q433 -22 509 269q148 -265 420 -270v34v8v34v22v8v34v6v24q-160 15 -252 126l-4 2l-4 4l-10 12q-17 18 -24 32q-17 16 -24 32l-6 6q-6 6 -10 16
q-3 3 -4 6l-6 6l-4 8q-8 8 -12 14l-2 6q-11 11 -14 20q-10 11 -14 20l-8 12q-10 8 -14 18q-19 19 -28 34q-7 5 -10 12q-7 5 -10 12q-19 15 -28 30l-10 8q-6 7 -12 10q-9 11 -16 16l-6 6l-14 12l-4 4q-27 19 -42 36l-4 2l-6 4q-3 2 -4 4l-6 2l-4 4l-4 4q-18 11 -28 22
q-148 90 -188 238q10 7 18 10q15 13 30 18q13 12 26 16q5 4 10 6l4 4l4 2l22 14l6 2l6 2l6 6l8 2l6 6q11 5 433.5 225.5t443.5 224.5l6 12l2 10l10 28l4 8l2 10l2 8l2 6l2 6l2 6q5 10 6 16l6 14q4 22 12 36q-1 5 -6 6zM935 1905l-7 -3l-6 -4l-7 -3l-6 -4l-3 -1l-2 -2l-2 -1
l-3 -1l-2 -1l-3 -1q-1 -2 -2 -2q-9 -5 -14 -8q-9 -4 -15 -8l-6 -2l-4 -3l-5 -3l-4 -1q-754 -405 -759 -406q-1 -2 -3 -2q-4 -4 -8 -6l-3 -1l-2 -2l-3 -2l-3 -1l-2 -2l-3 -1l-2 -2l-3 -1q-6 -5 -12 -7l-1 -4l-2 -5l-1 -6l-1 -5l-1 -7l-1 -3l-1 -3v-3l-2 -8l-4 -21l-1 -4
l-1 -6l-1 -4l-1 -3l-1 -3v-3q-3 -12 -4 -20l-1 -3l-1 -3l-1 -3l-1 -6v-3q-3 -12 -4 -20l2 1l14 9l5 3l3 1q8 8 17 11l3 3l5 3l10 6l3 1q1 2 3 2l3 2l4 2q1 2 3 2q7 6 756 407q7 4 13 6q4 3 8 4l2 2l3 1q6 4 12 5q9 7 18 9l3 7l2 6l1 6l1 3l10 32l8 25l2 5l1 5l2 6l1 3l2 4
l1 3l3 13l2 3l1 3q2 13 6 21q2 4 -2 6z" />
  </g>

</svg>
