<?xml version="1.0" standalone="no"?>
<!DOCTYPE svg PUBLIC "-//W3C//DTD SVG 1.1//EN" "http://www.w3.org/Graphics/SVG/1.1/DTD/svg11.dtd" >
<svg viewBox="0 -470 2048 2048">
  <g transform="matrix(1 0 0 -1 0 1638)">
   <path fill="currentColor"
d="M784 995l-4 -5l-5 -4l-4 -5l-5 -4q-5 -7 -10 -10l-11 -12l-3 -3l-4 -4l-7 -6l-3 -4l-3 -3l-2 -2l-4 -3l-2 -3l-3 -2l-1 -2l-3 -2l-5 -5l-1 -2l-2 -1q-5 -7 -10 -10q5 -9 11 -14l2 -1l1 -2q7 -5 10 -10q2 -1 2 -2q5 -3 7 -6l3 -4l4 -3l5 -6q5 -4 8 -8q2 -1 2 -2q5 -3 7 -6
l2 -2l2 -2l2 -2l2 -2l1 -2q2 -1 2 -2l12 -11l2 -2l1 -2l2 -1l1 -2q5 -4 8 -7l14 15l4 4l5 4l3 4l4 4l10 9q1 2 2 2q7 9 14 14l2 3l6 5q4 5 8 8l1 2l3 2l1 2l3 2l5 5l1 2l2 1q5 7 10 10v3l-5 4l-1 2q-7 5 -11 11l-2 1l-1 2q-7 5 -10 10l-2 1l-2 2l-1 2l-2 1l-1 2q-5 4 -8 7
l-3 3l-3 3l-8 9l-4 3l-6 7l-5 5q-5 3 -7 6q-9 11 -18 16zM798 485h-3q-8 -2 -13 -2l-8 -2l-7 -2l-7 -1l-6 -2l-4 -1l-2 -1l-12 -3l-2 -1l-9 -2q-8 -4 -14 -5q-5 -3 -11 -4l-3 -2l-4 -1q-1 -1 -2 -1l-7 -3l-3 -1q-9 -5 -16 -7q-1 -1 -2 -1q-7 -5 -13 -7l-5 -2l-5 -3l-4 -3
q-13 -6 -21 -12l-2 -1l-3 -1l-2 -2l-3 -1q-6 -5 -12 -7q-1 -2 -2 -2q-6 -4 -10 -6l-3 -3l-7 -4l-2 -2l-2 -2l-23 -15l-5 -4l-2 -3l-3 -2q-4 -3 -8 -5l-1 -2l-2 -2q-10 -7 -16 -13l-4 -2l-3 -4l-10 -8l-3 -3l-8 -8l-4 -2q-3 -5 -7 -7q-4 -6 -10 -9q-1 -2 -2 -2
q-10 -13 -19 -19l-3 -5l-3 -2q-1 -2 -2 -2l-1 -2l-6 -5q-6 -9 -13 -14l-3 -5l-4 -4l-4 -4l-4 -4l-3 -5l-3 -4l-4 -4l-3 -3l-3 -5l-3 -3l-3 -3q-4 -8 -10 -12l-2 -4q-5 -6 -8 -9l-2 -3q-3 -5 -6 -8l-1 -3l-3 -3l-2 -3l-1 -2l-2 -2q-5 -9 -11 -14q-4 -9 -9 -14l-3 -5l-2 -2
l-1 -3l-2 -2l-2 -4l-2 -3q-6 -8 -9 -14l-3 -3q-4 -10 -10 -16q-2 -6 -5 -9l-6 -12l-2 -1q-4 -10 -9 -16l-2 -4l-2 -4l-2 -4l-6 -11l-2 -4l-2 -3l-4 -7q-5 -14 -11 -22q-1 -5 -3 -8q-5 -9 -7 -15l-3 -5l-2 -5l-1 -2q-3 -8 -6 -12l-6 -17l-2 -4l-2 -5l-6 -13l-1 -3l-1 -4
l-2 -4l-1 -4l-4 -8v-3l-2 -2q-2 -10 -6 -17l-1 -5l-2 -5l-2 -4l-1 -5q-3 -8 -4 -14l-2 -5l-1 -3l-1 -3l-1 -3l-1 -3l-1 -4l-1 -2l-1 -5l-2 -6q-2 -8 -4 -12l-1 -8l-1 -4l-1 -3l-3 -11l-3 -10l-1 -6l-1 -5l-1 -6l-1 -4l-1 -5l-1 -2l-1 -4l-1 -7l-1 -2q-1 -10 -3 -16l-1 -5
l-1 -7l-2 -9l-1 -7v-4l-3 -18v-4q-2 -8 -2 -14l-1 -7l-1 -13q-2 -8 -2 -14l-2 -13q-2 -25 4 -27l9 18l5 17l1 3l5 12l3 15l2 3v4l2 8l1 3l1 2l4 16l2 3l2 10l4 10q0 3 1 4l1 4q2 5 3 8l1 4l1 4l1 3l2 4q4 16 9 25l3 11l2 3l4 13l2 3q1 5 3 8l1 3l5 13l1 2l2 4l3 7l1 3l1 3
l6 12q2 6 5 10v3l5 10l1 2l1 3l9 16q3 8 6 13q3 8 7 13l1 4l3 4q2 7 6 11l2 4q2 6 5 9l1 4l3 3l1 4l2 2l2 3l1 3q5 9 9 14q4 11 11 18q1 4 3 7l2 3l2 2l2 3l2 3l1 3l2 2l1 3l2 2l2 3q6 11 12 17l13 21l3 2l2 3l1 3l3 3q1 2 2 2l1 3l4 6l5 5l4 5q4 9 10 13q4 6 7 10l3 3l8 11
l3 2l2 3l2 3l3 2l14 18l15 15l13 15l10 9l3 3l1 2l2 2l2 1l1 2l2 1q4 5 7 8l5 3l3 4l10 9l3 3q8 6 12 11l5 3q4 5 9 7l3 3l3 3l2 2l4 3l2 2l6 4l2 2l7 4l1 2q10 6 15 11l2 1l14 9l4 2l3 3l3 1l2 2l3 1q6 5 12 8l4 2q6 4 11 6l2 2l4 1l4 2q9 7 18 9l3 2l4 1l2 2q8 2 14 6h3
q9 5 16 6l3 2h3l3 1l4 1l3 2h4q1 1 2 1l20 5h3q1 1 2 1h3q1 1 2 1h4q9 3 17 2q1 1 2 1h4l12 1h10q11 -44 32 -30l1 2l1 3q7 13 10 22v3l2 8l1 3l1 3q1 8 3 14l1 6q1 7 2 13v3q3 9 3 16l3 11v5l1 3v3l2 7v3l1 2v3q4 16 3 27l-4 13q-18 18 -42 13q-6 -2 -11 -3z" />
  </g>

</svg>
