<?xml version="1.0" standalone="no"?>
<!DOCTYPE svg PUBLIC "-//W3C//DTD SVG 1.1//EN" "http://www.w3.org/Graphics/SVG/1.1/DTD/svg11.dtd" >
<svg viewBox="0 -954 2048 2048">
  <g transform="matrix(1 0 0 -1 0 1638)">
   <path fill="currentColor"
d="M145 490q164 146 364 88h8l10 -2l6 -2h6l8 -2l14 -4q21 -2 36 -8h6q10 -2 16 -2q27 -7 48 -6l-8 -6l-8 -4l-8 -4l-6 -4l-4 -2l-6 -2l-4 -4l-6 -2q-12 -10 -24 -14l-6 -6l-10 -4l-6 -6l-22 -12l-4 -6l-4 -2l-16 -10l-4 -4l-12 -8q-12 -13 -24 -18l-20 -20l-8 -6l-6 -6
l-8 -4l-6 -6l-6 -6l-4 -6l-4 -4l-8 -8l-6 -4l-6 -6q-10 -14 -22 -22q-2 -4 -4 -4q-13 -20 -28 -32q-273 -358 -240 -762l2 -8l2 -6l2 -20q2 -3 2 -6l4 -16l6 -24q8 -28 16 -44l10 -30l4 -8l4 -6q6 -10 8 -18l4 -8l4 -4l4 -6l2 -6l8 -14l4 -2l2 -4l18 -28l6 -4l2 -4l18 -20
q10 -9 14 -18l6 -6l6 -2l4 -6l8 -6l6 -6q9 -7 12 -12l6 -2l4 -6l4 -2q18 -11 28 -22l8 -4l6 -4l8 -4l6 -4l8 -4l6 -4l6 -4l6 -4l6 -2l6 -4l6 -4l6 -2l6 -2l4 -2q24 -10 38 -18q5 0 8 -2l24 -8l8 -4q5 0 8 -2l10 -2l8 -2l6 -2l16 -6h8l8 -4l8 -2q15 -1 26 -4l8 -2h6l4 -2
q22 -2 36 -6q313 -24 558 120l8 4l8 4l8 4l8 6l10 4l8 6q13 10 24 14q10 10 18 14q13 8 20 14l8 4l6 4l6 6l6 2q20 20 38 30l10 14q-509 -201 -928 0q-11 8 -20 12l-28 18l-16 12l-6 4q-9 7 -14 12l-22 16l-4 6q-9 7 -14 14q-9 7 -14 12l-4 4l-6 6l-2 6q-24 21 -34 44
q-8 8 -12 14l-2 6l-2 6q-4 2 -4 4q-6 10 -8 18l-4 4q-5 12 -10 20l-2 6l-4 16l-4 4v6q-2 3 -2 6q-2 2 -2 4l-2 6l-2 4l-8 32q-1 10 -2 16v6q-5 22 -4 38q-2 2 -2 4v40v20l2 6v8v8l2 6v6l6 44l2 8l6 22l2 8l2 6v6q5 10 6 16l2 6l6 22q9 18 12 32q182 404 568 526
q-95 -501 476 -472v8v8v6v40v6v36v6v62h-22h-24l-12 -2h-8l-8 2h-36h-14l-12 2h-8q-13 3 -22 2l-16 4h-8l-32 6q-240 64 -186 306l20 6l8 2h6q20 6 34 6q12 4 22 4l6 2h8q8 3 16 2q18 5 32 4l16 2l40 2l4 10l6 10q14 21 20 36q12 16 16 28l4 6l16 28l2 4l4 4l2 4l2 6l4 4
l2 6l18 32h-6h-6h-26h-6q-3 -2 -6 -2h-40h-8q-15 0 -24 -2h-6h-36h-6h-62l-6 2h-6h-40h-6l-14 2h-12h-10l-10 2h-16l-32 2l-6 2q-22 1 -36 4h-12l-12 2l-12 2l-32 4l-28 4q-15 4 -26 4l-12 2l-12 2l-34 6l-10 2h-6q-16 4 -28 4l-6 2q-14 1 -24 4h-6h-6l-4 2q-21 0 -36 4
q-16 0 -28 2h-6h-8h-6h-40q-224 -39 -240 -270z" />
  </g>

</svg>
