<?xml version="1.0" standalone="no"?>
<!DOCTYPE svg PUBLIC "-//W3C//DTD SVG 1.1//EN" "http://www.w3.org/Graphics/SVG/1.1/DTD/svg11.dtd" >
<svg viewBox="-88 -410 2048 2048">
  <g transform="matrix(1 0 0 -1 0 1638)">
   <path fill="currentColor"
d="M41 311l2 -9q11 7 17 18q3 8 6 13l2 2l1 4l2 2l1 4l4 6l7 17q56 68 136 77h3h3h3h3h3l7 -1q13 -1 22 -3q6 0 10 -2l12 -2l3 -1l2 -1l21 -5l4 -2l10 -3l2 -1l13 -4l3 -1q11 -6 20 -8l3 -2l3 -1l2 -1l6 -2l2 -2l18 -7l6 -3l19 -9l2 -2q10 -3 15 -7l18 -8l4 -3l6 -3l5 -3
l6 -2l5 -3l3 -1l2 -2l3 -1l3 -1q7 -4 12 -6l2 -2q7 -2 12 -5q7 -3 11 -6l5 -2l5 -2l5 -2l11 -6l4 -1l2 -1q6 -3 9 -4l3 -1l2 -1q13 -7 19 -8l-5 -3q-9 -4 -15 -5q-3 -2 -5 -2l-5 -3l-5 -2l-6 -2l-5 -2l-5 -1l-16 -7l-5 -2l-6 -1l-10 -5l-3 -1l-8 -2l-2 -2h-3q-13 -1 -19 -7
q-1 -1 -3 -1q-1 -1 -2 -1q-4 -2 -8 -3l-7 -3l-13 -4l-4 -2l-22 -8l-5 -1l-4 -2l-5 -1q-8 -3 -14 -4l-4 -2q-5 -3 -15 -4l-23 -8l-5 -1l-5 -1l-4 -1l-4 -1l-4 -2h-4l-4 -2q-4 -2 -11 -2q-3 -2 -10 -3l-14 -3l-3 -1h-3q-6 -3 -10 -3h-3q-1 -1 -2 -1l-17 -3l-6 -1q-8 -3 -15 -3
l-5 -1l-4 -1l-6 -1h-5l-5 -1q-10 -2 -16 -2q-6 -2 -11 -2h-3l-2 -1h-3h-3l-12 -2l-19 -1l-5 -1h-6l-3 -1h-3h-3h-3l-4 -1q-10 0 -17 -1h-4h-3h-4l-16 -1h-3h-18q-6 -1 -11 -1h-3l-108 2v-164l92 -1h3h5h3h4h3h20q8 2 13 1l3 1h5l2 1h3q11 0 18 2h5q6 2 11 2l4 1h3l4 1h3
q13 4 22 4l4 1l4 1l17 4l8 1l7 2l6 1l6 2l6 1l6 2h3q2 1 19 5l4 1l3 2h4q2 1 11 4l3 1l5 1l4 1l25 7q1 1 3 1l8 3h3q9 5 18 6l3 1q11 4 13 4l11 4l5 2h3q11 2 18 6q2 1 3 1l4 2l2 1q5 1 9 3h3q1 1 3 1q4 3 8 3l16 6l6 1l4 2l4 1q11 5 18 6l3 2l4 1l5 1q18 8 30 10q3 2 5 2
l4 2h3l2 2h3l16 6l6 1q1 1 3 1q2 1 3 1q1 1 3 1q2 1 3 1q1 1 3 1l7 3l2 1l3 1h3q9 4 16 5l3 2h3q9 4 16 5l3 2h3q6 3 19 6l4 1l8 2q1 1 2 1l13 4l3 1h3q3 2 6 2l9 3h3q1 1 2 1l16 4q19 5 21 5q10 4 18 4l4 1l4 1q8 2 13 3l3 1h3l22 4q11 2 13 2l6 1l4 1h3l4 1h5l5 1
q9 1 16 2h3l22 2h10h3h13h4h3h4h18q6 -1 10 -1h4q6 -1 11 -1l4 -1h3l4 -1h3l7 -2h3l18 -4q1 2 2 2q4 11 10 18l3 6l3 6l4 5l3 5l3 7l2 2l6 11l1 2q1 2 5 8l2 4l3 4q4 8 8 13l1 4l3 3l1 3l10 17l2 3l1 3l2 3l5 8q1 2 2 2q3 9 8 14v1v-1v2v-1v1l-16 1h-3h-20q-11 2 -19 1
q-12 2 -21 2l-11 2q-7 0 -11 1q-8 0 -13 2h-4l-4 1h-4l-13 3h-4l-13 3h-4l-4 1q-8 2 -10 2q-7 3 -13 3l-3 1l-3 1q-18 3 -29 8h-4l-5 2q-8 2 -13 4l-5 1l-5 2q-8 2 -14 5q-10 2 -17 5l-4 1l-4 2q-6 2 -10 4q-7 2 -12 4l-3 1l-3 1l-2 1l-3 1l-15 7l-15 5l-9 5q-3 0 -4 1l-3 2
l-3 1q-6 2 -10 4q-25 10 -38 18l-5 2q-13 4 -21 10l-4 1l-2 1l-15 8l-11 4l-3 2l-7 4q-7 2 -11 5q-12 4 -20 10q-8 2 -17 7l-2 1l-3 1q-7 4 -12 6l-5 2l-2 2l-22 9l-2 1l-12 5l-2 2h-3l-3 2l-10 4l-2 1q-12 4 -18 8q-10 2 -17 6l-6 2q-6 2 -10 4l-4 1l-4 1l-3 2q-3 0 -4 1
q-16 4 -25 8h-4h-11h-5h-3h-4h-3h-20q-243 -23 -271 -276z" />
  </g>

</svg>
