<?xml version="1.0" standalone="no"?>
<!DOCTYPE svg PUBLIC "-//W3C//DTD SVG 1.1//EN" "http://www.w3.org/Graphics/SVG/1.1/DTD/svg11.dtd" >
<svg viewBox="0 -922 2048 2048">
  <g transform="matrix(1 0 0 -1 0 1638)">
   <path fill="currentColor"
d="M129 510q148 137 332 94q15 -1 24 -4h6l6 -2l16 -2l32 -8h10q16 -5 28 -6l6 -2l4 -2h8q10 -2 16 -2q19 -5 32 -4l-8 -6l-12 -4q-17 -13 -32 -18l-8 -6q-10 -7 -18 -10l-6 -6l-8 -4l-16 -12l-6 -2q-11 -10 -20 -14q-8 -8 -18 -12q-16 -17 -28 -24q-10 -9 -18 -14
q-3 -3 -6 -4l-4 -6q-10 -10 -18 -14l-4 -6q-11 -9 -16 -16l-4 -4l-12 -10q-14 -18 -28 -28q-283 -340 -266 -740q3 -12 4 -22l2 -28q2 -5 2 -10l2 -4q3 -27 10 -44v-8l4 -6l2 -14q2 -2 2 -4l2 -4l2 -8q9 -19 12 -34l6 -8q3 -11 8 -20l8 -14l18 -36q16 -17 22 -32q4 -3 6 -8
l6 -4l4 -6l10 -12l4 -4l4 -6q2 -2 2 -4q3 -2 4 -4q20 -16 30 -30l6 -2l4 -6q3 -2 4 -4l8 -4l8 -6l4 -6l6 -2l6 -6q11 -7 18 -14q18 -8 28 -18l8 -2l6 -6l8 -2l18 -10l10 -4l4 -2l36 -18q5 0 8 -2l6 -2l44 -16l10 -2l10 -2l10 -2l8 -4l12 -2l34 -6l6 -2h6l6 -2q11 0 16 -2
q19 -1 32 -4h26h8h8h8h34h6h24h6h6l6 2h6h6h6l20 2h8l4 2h16q16 5 30 4l6 2h6l8 2l32 6l8 2l8 2l8 2h8l8 2q7 3 14 4q12 4 20 6l4 2l18 4q3 2 6 2q22 10 38 14l4 2l32 12l6 2q9 7 18 8l6 4l10 4l4 4l6 2q13 8 22 10l12 8q20 13 34 18q14 13 28 18l10 8l8 6l6 4l8 4l6 6l8 4
l6 6l8 4l2 4q13 9 20 16l6 2l2 4l4 4l6 2l2 4l4 2l20 18q-390 -158 -758 -72l-6 4h-6l-34 10q-10 5 -16 6l-6 2l-4 2l-4 2q-22 6 -36 16q-347 161 -310 518l4 20l12 62l6 16v6l4 14q5 10 6 16l2 6l2 6q5 10 6 16l2 4l2 6q6 15 12 24v6q292 499 822 530l6 12l4 8l6 8
q5 13 12 20l4 8l4 10l4 6l4 6l14 26l4 6l4 6l2 6l4 6q2 3 4 4q12 27 22 42h2h-2l2 2v-2v2h-6h-6h-26l-44 -2h-8h-8h-10h-6h-16q-23 -3 -40 -2h-8h-36h-10h-6q-12 3 -22 2h-28l-76 4l-14 2h-8l-6 2h-8h-8l-6 2h-6h-8l-6 2h-6l-32 4h-6l-16 4h-8l-32 6h-10q-19 5 -32 6l-8 2
h-8l-10 2l-8 2h-6l-8 2h-6l-16 4h-8l-32 6h-6h-6q-10 2 -16 2l-8 2h-10h-6q-8 2 -16 2l-8 2h-34h-6h-24q-224 -38 -240 -270z" />
  </g>

</svg>
