<?xml version="1.0" standalone="no"?>
<!DOCTYPE svg PUBLIC "-//W3C//DTD SVG 1.1//EN" "http://www.w3.org/Graphics/SVG/1.1/DTD/svg11.dtd" >
<svg viewBox="-98 -410 2048 2048">
  <g transform="matrix(1 0 0 -1 0 1638)">
   <path fill="currentColor"
d="M284 625l-8 -1l-2 -1h-3h-3q-9 -4 -17 -4q-1 -1 -2 -1l-25 -8l-3 -2l-16 -7q-7 -2 -11 -6q-1 -1 -2 -1q-8 -6 -14 -9q-5 -5 -10 -7q-4 -5 -9 -7q-100 -95 -112 -221l2 -9q13 7 17 18q2 6 5 9l1 4l2 4l2 2q2 6 4 10l2 2l1 3l1 3l6 12q56 66 134 74h3h4q6 0 11 -1h4h3l7 -1
l4 -1h4l4 -1l3 -1h3l3 -1h3l8 -2l12 -3l2 -1l8 -2l7 -2l4 -2l13 -4l3 -1q9 -4 16 -6l3 -2l3 -1l4 -1l2 -1l2 -2h3q4 -2 15 -7l7 -3l3 -1l2 -2q6 -2 10 -4l3 -1l2 -2q10 -3 15 -7l6 -3l4 -1l4 -2l2 -2l22 -10l5 -3l5 -2l4 -3l5 -2l5 -3l6 -3l5 -2l2 -2q7 -2 12 -5l5 -2l2 -2
q4 -1 8 -3l21 -11l3 -1l4 -1l22 -10q12 -5 15 -8l-4 -1q-9 -5 -17 -6q-8 -5 -15 -6q-11 -6 -19 -8l-16 -7l-4 -1q-1 -1 -2 -1q-13 -7 -22 -9q-10 -6 -19 -8l-2 -2l-10 -3l-2 -2l-10 -3q-7 -5 -14 -6l-4 -3l-12 -4q-3 -2 -5 -2l-22 -10l-10 -4l-3 -1l-3 -2h-3l-2 -2h-3l-2 -2
h-3q-8 -5 -15 -6q-5 -3 -10 -4l-16 -7h-3l-2 -2h-3q-4 -3 -8 -3q-9 -5 -17 -6l-2 -2h-3l-3 -2h-3q-1 -1 -3 -1l-7 -3q-11 -3 -18 -6l-3 -1h-3l-2 -1q-15 -2 -23 -6q-1 -1 -3 -1l-4 -1l-4 -1q-6 -3 -11 -3l-3 -1q-6 -2 -11 -2q-6 -3 -12 -3q-6 -2 -11 -2q-1 -1 -2 -1l-7 -1
l-2 -1h-3q-8 -2 -13 -2q-12 -3 -21 -3l-4 -1q-4 -1 -11 -1q-4 -1 -8 -1q-12 -3 -21 -2l-4 -1h-4h-5l-3 -1h-4h-4h-4h-4q-1 -1 -3 -1h-4h-17h-3l-110 2v-162l102 -2h3h20l8 1h3h7l6 1l4 1h4h6q4 1 7 1q3 1 5 1l3 1h7q3 1 5 1l5 1l5 1l3 1l5 1h4l2 1h4q13 5 23 5l5 2l4 1l3 1
h3q9 3 16 4q11 4 19 5q8 3 14 5q8 2 13 4h3q1 1 3 1q1 1 3 1l4 1q18 8 30 10q3 2 6 2l2 1l8 3l7 3l6 1q9 5 17 6q7 4 14 6l17 6l2 1l9 3l3 1q2 1 3 1l3 2l4 1l23 9l7 3l5 1q3 2 5 2q9 5 17 7q6 3 11 4q6 4 11 5l2 1l6 2l29 11l5 3l6 1l5 3l5 2l15 5q3 2 5 2l5 3l5 1
q9 5 16 6q1 1 5 2l3 1q1 1 3 1q4 3 8 3q3 2 12 5l6 2l5 2l5 2l17 6q14 3 16 5l2 1l9 4l6 1l4 2l5 1l4 2h3q2 1 3 1q1 1 3 1q5 3 9 4l4 1h3q11 5 20 6q5 3 10 3q68 -226 308 -216h8h20v7v3v3v31v7v6v7v6v5v6v4v18v11v4v4v4v4v17v3v12h-4h-4h-3q-4 -2 -8 -1h-4h-3h-4h-3h-7h-3
h-3q-9 0 -16 1q-120 -7 -187 75q10 2 17 2l7 2l14 1l4 1h5q1 1 2 1h3q5 0 8 1q9 0 16 1h3h13h3h8l20 -1q8 0 10 -1h4h3l5 -1h3l4 -1l2 -1q14 -1 23 -4l2 5l2 2q5 11 8 14l1 3l11 18l8 15l2 3l2 3l8 14l17 30l6 8q2 6 5 9l2 4l4 7l10 18l-10 1h-4h-4h-4h-5l-38 2l-4 1h-4
l-16 1l-5 1l-17 2l-4 1h-4l-5 1l-2 1l-7 1h-3l-19 4l-5 1l-13 2l-3 1l-14 3l-6 2l-14 3l-3 1q-6 2 -11 3l-3 1l-4 1q-9 4 -16 5l-6 2l-13 5l-5 1l-5 2l-3 1l-4 1l-4 2l-13 4l-7 3l-4 1l-3 2q-5 1 -8 3l-12 4l-13 6l-4 2q-9 2 -13 5l-3 2l-3 1l-3 1l-12 5l-2 1q-3 0 -12 5
t-15 7l-2 2l-3 1q-8 3 -10 4l-3 2l-3 1l-3 1l-4 2l-2 2l-2 1q-13 4 -21 10l-3 1l-22 10l-4 3l-4 1l-7 4l-15 6l-4 3l-5 2l-2 1l-12 6l-6 2l-3 1l-2 2q-11 4 -18 8l-6 2l-5 2l-4 2l-2 1l-12 5l-13 6l-4 2l-5 1l-3 1q-12 6 -20 8l-5 2l-10 4l-4 1l-10 3l-3 1l-2 1l-3 1
q-11 3 -18 6l-13 1l-4 1h-4l-4 1h-11h-4h-17h-3h-12q-2 -1 -5 -1z" />
  </g>

</svg>
