<?xml version="1.0" standalone="no"?>
<!DOCTYPE svg PUBLIC "-//W3C//DTD SVG 1.1//EN" "http://www.w3.org/Graphics/SVG/1.1/DTD/svg11.dtd" >
<svg viewBox="-96 -410 2048 2048">
  <g transform="matrix(1 0 0 -1 0 1638)">
   <path fill="currentColor"
d="M427 734h-4q-10 -4 -17 -4q-14 -6 -23 -9q-6 -5 -11 -6q-8 -8 -16 -11l-2 -3l-8 -6q-3 -3 -6 -5q-1 -2 -2 -2q-8 -6 -11 -12q-1 -2 -2 -2l-1 -3l-3 -2q-5 -10 -12 -16l-2 -4l-2 -3l-2 -4l-3 -3l-2 -5l-2 -3l-2 -3l-4 -9l-3 -3l-1 -4l-1 -2l-4 -6l-1 -3l-1 -3l-4 -7
q-1 -7 -4 -11l-1 -7l-2 -8l-2 -12q2 -7 4 -11q7 0 12 3q39 34 84 39l17 1h8q5 0 16 -1l22 -2l4 -1l3 -1q2 0 13 -3l4 -1l3 -1h3l4 -1l3 -1l3 -1l16 -5l5 -3q1 0 4 -1l22 -8l6 -3l4 -1q1 -1 16 -7l7 -3l3 -2l2 -1l12 -6l17 -7l10 -6l4 -1q5 -3 9 -4l2 -2l16 -7l4 -2l2 -1
q7 -4 9 -4l4 -2l2 -2l2 -1q13 -4 21 -10l3 -1l7 -3l4 -2l2 -1l6 -2l8 -4l2 -1l2 -1l12 -6h-3q-6 -3 -12 -4q-3 -2 -6 -2l-3 -1l-16 -6l-6 -2l-6 -1l-17 -6l-5 -2h-3l-3 -2l-2 -1h-3q-1 -1 -3 -1q-7 -4 -12 -5l-5 -1l-4 -2l-22 -8l-4 -2l-5 -2l-3 -1l-5 -1l-3 -2l-4 -1l-3 -2
l-4 -1q-4 -3 -8 -3q-11 -7 -20 -9l-3 -2l-3 -2l-2 -1l-6 -2q-6 -5 -11 -6l-2 -2q-9 -4 -14 -8q-215 9 -330 -160q-9 -4 -15 -8l-2 -1l-6 -2q-6 -2 -7 -3t-2 -1q-1 -1 -2 -1q-1 -1 -2 -1l-2 -2l-10 -3q-7 -4 -13 -5q-8 -5 -15 -5q-7 -4 -13 -5h-4l-8 -2l-3 -1l-2 -1l-11 -1
l-8 -2h-3l-7 -1q-73 -10 -114 -3v-166l99 2h3l3 1h3l11 2l8 2l8 2q6 3 12 4l2 2l15 6l2 2l3 1l2 2l4 1q12 10 21 14l5 4q1 2 2 2q7 7 13 10q5 6 10 9l5 6l16 13l1 2q9 10 16 14q6 8 12 11q8 10 18 15l1 -2q5 -5 8 -10l3 -2l3 -3l3 -3l1 -3q5 -3 7 -7q2 -1 2 -2q2 -1 2 -2
q13 -10 19 -19l3 -3q6 -3 9 -8q5 -3 9 -7l4 -3l7 -6l11 -8l3 -3l2 -1q4 -2 8 -6q12 -5 18 -11q8 -2 15 -7l3 -2l4 -1l2 -2h3l2 -1l2 -1l3 -1l11 -5h3l3 -1l12 -3l6 -2h4q23 -3 25 -1q1 1 3 1l3 2h3l3 2l2 1l6 2l3 1l2 2l3 1l2 2l18 10q122 105 83 261l5 1q4 3 8 3l7 3
q14 1 19 6q1 1 3 1q4 3 8 3q12 5 16 6l6 1l3 2l7 2h3q5 3 11 4l4 1l6 1q2 1 5 2l5 1q1 0 3 1l4 1l3 1l8 2l2 1h3q1 1 3 1q7 3 12 4l17 3q10 4 18 4l4 1l3 1l3 1h3l16 4h4l19 4l4 1h5l4 1l8 1q2 1 3 1h4q1 1 2 1h3l7 2l18 2l14 2q7 1 13 1q2 1 3 1h5l3 1h5l3 1h3h5q1 1 3 1h8
q1 1 2 1h3h3l6 1h6l5 1h4l22 2h4h5h3h4q14 2 23 1q10 2 17 1h6h17q5 1 9 1h7h4h4h3h3h10l16 -1h14h3h14l7 -1h6l4 7l2 1q4 10 10 16l3 6l3 5l4 5q4 10 10 16l2 5l3 3l9 16l2 1q2 6 6 10l2 4l2 3l3 6q5 6 7 11l2 2l2 4l3 3l1 3l2 3l2 3q6 11 12 18v1v-1v2v-1v1h-6h-5h-3h-5
h-4h-3h-5h-5h-3h-12h-3q-14 -1 -23 1h-3h-3q-9 0 -16 1q-8 0 -14 1h-4h-4q-7 1 -12 1q-6 1 -10 1l-4 1h-4l-8 1l-16 2l-3 1h-3l-3 1q-11 0 -18 3h-4l-4 1l-4 1h-4q-8 3 -14 3l-13 3l-8 2h-3l-3 1l-4 1l-12 3l-6 2l-7 2q-8 1 -14 4q-10 2 -17 5q-5 1 -10 3q-4 1 -11 3l-3 1
l-4 1q-5 2 -8 3l-3 1l-7 3q-6 2 -10 4l-5 1l-13 5l-4 2q-3 1 -13 5l-7 3q-6 2 -10 4l-4 1l-3 2l-2 1l-15 6l-3 2l-2 1q-18 6 -28 13q-2 0 -4 1l-4 2l-4 2l-12 5l-10 5l-3 2q-6 2 -10 4q-5 2 -10 5l-2 1l-3 1l-16 9l-7 2l-14 8q-8 2 -13 6l-4 1l-5 3l-6 2l-6 3l-10 5l-4 2
q-6 2 -10 4l-4 1l-2 1q-7 4 -9 4l-4 2q-12 4 -19 8q-3 0 -4 1q-7 2 -11 4l-5 1l-3 2l-7 2l-6 1l-3 1l-3 1l-3 1l-3 1l-12 3l-6 2l-7 1l-22 4h-4h-17h-3h-12q-2 -1 -3 -1zM429 213q22 -29 18 -63l-3 1q-8 1 -14 3q-59 14 -97 54l2 2h3l2 2h3q4 3 8 3l8 3h3q6 3 12 3l7 2
q28 2 48 -10z" />
  </g>

</svg>
