<?xml version="1.0" standalone="no"?>
<!DOCTYPE svg PUBLIC "-//W3C//DTD SVG 1.1//EN" "http://www.w3.org/Graphics/SVG/1.1/DTD/svg11.dtd" >
<svg viewBox="0 -410 2048 2048">
  <g transform="matrix(1 0 0 -1 0 1638)">
   <path fill="currentColor"
d="M132 369l-2 -3l-2 -2l-1 -4l-5 -8l-3 -8l-2 -2l-1 -3l-1 -2l-1 -3l-1 -2q-4 -7 -5 -13q-68 -182 105 -281q-7 -5 -12 -7q-1 -2 -3 -2q-5 -5 -9 -7l-2 -1l-2 -2l-3 -1q-9 -10 -18 -14l-3 -3l-3 -2l-2 -3l-4 -2l-2 -3l-3 -2l-3 -2l-3 -4l-2 -2q-4 -4 -8 -6q-7 -9 -14 -14
l-2 -4l-13 -13q-4 -6 -9 -10l-3 -5l-2 -1q-3 -5 -6 -8l-3 -4l-2 -3l-2 -2l-2 -4l-3 -2l-2 -3l-1 -3l-2 -1q-3 -6 -6 -10l-1 -2l-2 -3l-13 -19l-1 -3l-2 -3q-5 -8 -8 -14l-2 -3l-2 -2l-1 -4l-2 -3l-5 -10l-2 -1l-1 -2q-3 -8 -5 -12q0 -8 2 -13q18 2 31 13l1 2l3 2l16 14l4 3
l3 3l3 3l4 2l3 3l3 3l2 2l3 1l2 3l2 1l2 2l2 2l3 1q11 12 21 17q2 3 4 4l4 3l3 3l4 2q4 5 9 7l3 3l2 2l4 2q1 2 3 2q3 3 6 5q1 1 2 1l1 2l2 1l6 4q6 7 12 9l3 3l4 2l3 3l3 3l4 3l3 2q6 4 10 6q1 2 3 2l2 3l2 1q5 3 8 6l3 1q1 2 2 2l2 2l21 13l3 3q9 7 16 10q7 7 14 9
q3 3 6 5l3 2l3 1q6 6 16 10l3 3l4 2l4 2q1 2 3 2l3 3l4 1q1 2 2 2l2 2l3 1l2 2l2 1l7 3q6 6 13 8l4 3l5 2l4 3q8 5 14 7l2 2q6 3 10 6l3 1l3 1q10 7 19 10l4 3l2 1l7 3q7 5 14 7q7 5 13 6l3 2l3 2l5 2l3 2l4 1l11 6l4 1l3 2l4 1q2 1 3 1l2 2l23 9l1 2q4 7 8 11l3 4q5 8 9 13
l4 6l2 2l1 3l2 2l4 5q4 8 8 13q2 4 5 7l1 3l2 3q1 2 2 2q2 7 6 11l3 6l1 2l2 1q3 10 9 16l1 4l2 2l1 3l2 3l1 3l4 6l1 3l9 16q-1 1 -3 1q-13 -6 -23 -8l-4 -2l-6 -2q-3 -2 -5 -2l-4 -2l-3 -2l-3 -1l-2 -1l-6 -2l-3 -1q-2 -1 -3 -1q-5 -4 -9 -4q-10 -7 -19 -9l-5 -3l-5 -2
l-5 -3l-6 -2q-4 -3 -8 -4q-3 -2 -7 -3l-2 -2l-22 -11l-2 -1l-3 -1q-6 -5 -11 -7l-5 -2l-2 -2l-2 -1l-7 -3q-1 -1 -2 -1q-1 -1 -2 -1q-4 -4 -9 -6l-5 -3l-13 -6q-1 -2 -2 -2l-7 -4l-2 -1q-5 -3 -8 -5l-3 -2l-3 -1l-3 -2l-29 -18q-9 3 -16 7l-2 1l-5 4l-3 2q-6 2 -10 5
q-9 5 -15 10l-3 1l-2 2l-3 1l-3 2l-5 4q-9 4 -14 10q-10 5 -15 11q-9 5 -14 11q-12 7 -19 16l-3 2l-3 2l-2 3q-5 3 -8 6l-3 3l-6 7q-14 12 -21 22l-2 2q-3 4 -5 7l-5 5l-2 2l-4 7q-10 10 -14 20l5 2q4 3 8 4q9 8 18 10l1 2l3 1l7 3q5 4 10 5q95 51 190 47l3 -1h4l2 -1
q13 -1 21 -3q6 -2 11 -3l2 -1q13 -4 21 -8q38 121 -74 153h-4l-3 1q-6 0 -10 1h-3h-5h-3h-4h-3h-20q-155 -29 -204 -166z" />
  </g>

</svg>
