<?xml version="1.0" standalone="no"?>
<!DOCTYPE svg PUBLIC "-//W3C//DTD SVG 1.1//EN" "http://www.w3.org/Graphics/SVG/1.1/DTD/svg11.dtd" >
<svg viewBox="0 -410 2048 2048">
  <g transform="matrix(1 0 0 -1 0 1638)">
   <path fill="currentColor"
d="M515 995l-3 -4l-2 -2l-4 -6l-2 -2q-3 -6 -7 -9l-3 -6l-2 -1l-1 -3q-5 -6 -7 -11l-2 -1q-4 -8 -8 -13q-4 -9 -9 -14l-2 -5l-3 -3l-3 -5q-3 -7 -6 -11l-8 -14l-3 -5l-2 -4l-2 -3l-2 -3l-1 -3l-2 -4l-1 -2l-2 -2q-5 -13 -11 -21v-5l3 -7v-3q1 -1 1 -3l5 -17l1 -5l1 -4l4 -17
v-4q2 -6 3 -11l1 -6l3 -20l1 -6l1 -6l1 -7l1 -6q1 -10 2 -16v-4q2 -10 2 -18l2 -10v-10q1 -1 1 -2v-3l2 -18l-22 -7q-9 -4 -16 -5q-1 -1 -2 -1q-4 -2 -8 -3l-7 -3l-10 -3q-1 -1 -2 -1l-3 -1q-7 -4 -12 -5l-4 -1l-3 -2q-5 -1 -8 -3l-3 -1l-2 -1l-3 -1l-16 -7q-12 -7 -21 -9
l-5 -3l-13 -7l-4 -2l-4 -2l-3 -1q-9 -6 -16 -8l-3 -3l-4 -1q-5 -5 -10 -6l-3 -3l-3 -1l-3 -2l-2 -2l-3 -2l-3 -1q-1 -1 -2 -1q-10 -9 -19 -13l-3 -3l-4 -3q-5 -5 -9 -7l-3 -2l-2 -3l-4 -3l-2 -2l-3 -2l-19 -18l-2 -4l-3 -2l-2 -3l-2 -3l-8 -8l-1 -3l-3 -2l-2 -3l-1 -3l-2 -3
l-2 -2l-2 -3l-1 -3l-2 -1q-3 -9 -8 -14l-1 -2l-1 -2q0 -3 -1 -4l-2 -4l-8 -19v-3l-3 -7l-2 -8l-1 -2l-2 -12l-1 -2q0 -9 -2 -15v-5q-2 -14 -1 -22q10 -34 33 -55q5 -2 7 -5l3 -2l3 -1l2 -2l3 -1l2 -1l3 -1l3 -2l3 -1l3 -1l4 -1l17 -6l17 -2l3 -1h4l3 -1h4q8 0 12 -1h3h3h20
h5q10 2 17 1l4 1h6l4 1h4h3q8 2 14 2l2 1h7q3 1 6 1l6 2l17 2l7 2l6 1l6 1q6 2 11 2q9 3 16 4q8 2 13 3l13 4h4l4 2q9 2 16 4l14 3q1 1 2 1l8 2l8 2q7 3 12 4q21 -109 84 -184l3 -2l5 -6q7 -5 11 -10l6 -4l3 -3l3 -2l2 -2q2 -1 2 -2q7 -3 10 -7q6 -2 9 -6l4 -1l3 -3l4 -1
l4 -2l5 -4q16 -5 25 -11h3l3 -1q13 -6 22 -8q5 -1 9 -3l17 -3q6 -2 10 -2l3 -1l4 -1h3q8 -2 13 -2q9 -2 16 -2l5 -1l8 -1l25 -2h13h4h4h4h17h3h12v3v5v3v4v3v20v4v5v13v4v17v3v12v4v4v3v18v13v4v17v3v12q-169 -7 -253 112l-1 3l-1 3q-2 1 -2 2l-1 3l-2 2l-1 4l-2 2l-1 4
q-3 4 -3 8l-2 2v3q-3 4 -3 8q-1 1 -1 2l-1 3l-1 2l-4 16v4l-1 4l-1 3v3l-1 3q0 5 -1 8q0 9 -2 16v3l-2 22v4l-1 6v3q-2 4 -1 8l-1 4v3v4l-3 25v3l-1 4v3v4l-3 25q0 5 -1 8v3l-2 17v3v3q-2 9 -2 15q-1 8 -1 14q-2 10 -2 16l-1 4v4v5q-2 6 -1 10l-1 3v4v3q-1 1 -1 3
q0 11 -2 19v8q-1 1 -1 2v3v3l-1 2v8l-1 7v4q-1 3 -1 5v4q-1 1 -1 3v3q-1 8 -1 14q-1 1 -1 3q0 11 -2 18v7l-1 7v3l-1 3v3v4q-3 9 -2 17v3q-2 7 -2 12v7q-1 4 -1 8l-1 8l-1 7l-1 6v8l-1 7v3l-1 3v7q-2 10 -2 18l-1 4v3v4l-3 25v6q-3 9 -2 17l-1 4v3l-1 10v4q-2 10 -2 18l-1 2
q0 15 -4 27zM448 501l1 -38l1 -5l1 -16q1 -8 1 -14l1 -3l1 -14q2 -8 2 -13h-4q-8 -3 -14 -3q-13 -4 -23 -4l-6 -2h-5q-4 -2 -8 -1q-9 -3 -16 -2l-2 -1l-17 -1l-11 -1h-4h-17h-3h-12h-3q-11 1 -18 2q-6 0 -10 1h-3l-3 1h-3l-3 1l-4 1l-2 1h-4l-17 5l-17 7l-21 12q3 5 7 8l3 2
q5 3 9 5l2 3l4 1q1 2 3 2q1 2 3 2q4 4 9 5q1 2 3 2q1 1 2 1q4 3 8 4l16 9l4 1l3 2q5 1 10 4q13 4 21 8l16 4q3 2 5 2l5 2l6 2h4q4 2 7 2q8 3 15 4l5 1l4 1l4 2l4 1h4l4 1q6 2 10 2l3 1l12 2l3 1l19 4q5 0 5 -4z" />
  </g>

</svg>
