<?xml version="1.0" standalone="no"?>
<!DOCTYPE svg PUBLIC "-//W3C//DTD SVG 1.1//EN" "http://www.w3.org/Graphics/SVG/1.1/DTD/svg11.dtd" >
<svg viewBox="-92 -410 2048 2048">
  <g transform="matrix(1 0 0 -1 0 1638)">
   <path fill="currentColor"
d="M801 1141l-4 -6l-3 -6l-3 -6l-4 -7l-3 -6l-3 -6l-3 -7l-3 -5l-3 -5l-2 -5l-3 -5l-2 -5l-2 -3l-2 -3q-6 -13 -11 -21l-1 -4l-2 -4l-3 -3q-3 -10 -7 -15l-6 -11l-2 -3q-1 -5 -3 -8q-7 -11 -10 -19q-4 -4 -7 -5l-11 -12l-3 -1l-2 -3l-3 -2l-1 -2l-2 -1l-1 -2l-2 -1
q-6 -9 -13 -14l-2 -4l-9 -9l-3 -4l-2 -3l-1 -2l-2 -2l-10 -14l-3 -4l-2 -4l-6 -7q-6 -14 -13 -22l-2 -5l-2 -4l-2 -3l-2 -4l-2 -4q-1 -5 -4 -9v-3l-2 -3l-3 -8l-1 -3l-7 -18l-1 -4q0 -2 -1 -4l-1 -4l-1 -6l-3 -9l-2 -9l-1 -4v-4l-4 -22v-8l-2 -14v-10q0 -12 -1 -20
q1 -3 1 -5v-21q2 -6 1 -11v-3q1 -4 1 -8q3 -16 3 -25l-3 -2l-3 -2l-3 -2l-4 -1q-2 -2 -8 -6l-3 -2l-3 -1q-1 -1 -2 -1q-10 -9 -19 -13l-4 -3l-4 -3l-4 -3l-2 -2l-3 -1q-6 -7 -13 -10l-7 -7l-4 -3l-3 -3l-8 -6l-4 -3l-2 -3q-4 -4 -8 -6l-5 -5l-1 -2l-2 -1q-5 -7 -10 -10
q-5 -8 -10 -12l-2 -3l-3 -2q-2 -4 -7 -9l-3 -3l-2 -4l-3 -4l-3 -2q-4 -9 -10 -14q-2 -6 -6 -9q-2 -6 -5 -9l-1 -3l-2 -1q-6 -14 -12 -22l-1 -4l-2 -2l-1 -3l-1 -2l-1 -3l-1 -2q-4 -9 -5 -13q-8 -17 -11 -30l-10 -9l-2 -3l-9 -8q-10 -13 -20 -19q-6 -9 -14 -13
q-137 -136 -393 -119v-176q248 -1 344 94l3 2l3 4l10 9l3 4l3 3l3 3l3 3l2 2q3 4 6 7l3 3l2 4l3 2q5 8 10 12l2 4q4 4 6 8l2 1l1 2q1 2 2 2l1 3q7 7 10 13q6 -6 9 -11q5 -4 8 -9l4 -4q2 -2 2 -3l3 -3l3 -2q5 -5 7 -9q2 -1 2 -2l2 -1l2 -2l1 -2l2 -1l1 -2q7 -6 8 -7l2 -3
l2 -1q6 -7 12 -11l13 -13q6 -5 10 -9q4 -3 7 -6l11 -8l2 -2l2 -3q12 -7 19 -15l3 -1l2 -2l14 -10l3 -2l3 -3l3 -1q6 -6 11 -8l3 -2l8 -6l4 -2l2 -2l3 -2l2 -1l2 -2l4 -2l11 -6q3 5 6 7l8 11l2 1l1 2q6 8 11 13l2 4l6 7q5 9 11 15l2 5l3 3l3 4l1 4l6 8l1 3l2 3l2 3l2 3l1 3
l2 3l1 4l2 3l1 3l2 3l1 2l6 12l1 5q1 2 4 11l1 3q2 5 3 8l1 3l2 8l2 8l2 7q-21 158 -152 222l2 1l2 1q8 9 16 13l5 5l11 7l2 2l3 1l1 2l3 2l3 1l1 2l3 1l2 2l3 1q6 5 12 7q1 2 2 2l3 1q7 6 13 8l9 5l4 1l3 2q8 6 18 8l3 2l22 9h3q4 3 8 3l3 1l3 1l8 3h3l7 3q6 1 11 3l9 -2
l11 -5l2 -1l15 -6l2 -1q2 -1 12 -5l5 -2l4 -2l4 -1l4 -2q7 -3 11 -5q8 -2 13 -5q1 0 4 -1l13 -4l3 -1l3 -1l3 -1l7 -3l11 -3l3 -1q2 -1 11 -4l3 -1l5 -1l22 -7h3l3 -1l3 -1l3 -1l14 -3l8 -2l7 -2h4q6 -2 10 -3l4 -1h4q11 -3 19 -3l4 -1l4 -1l17 -2l4 -1h6h3q4 -1 8 -1
q9 -1 16 -1l5 -1h3h4h4h4h4h17h8h7q3 1 5 1h3l11 1h3q3 1 5 1h3q6 2 10 2h3q14 4 23 5q3 4 6 6l1 3l2 2l6 6q3 5 6 7q4 4 6 8q1 2 2 2l1 3l2 2l2 2q5 9 11 14q2 4 6 10l2 3l2 3l2 2l4 6q5 9 10 15l2 5l2 3q4 8 8 13l1 4l2 4l2 3l2 4l1 2l2 6l2 2q4 14 9 22v1v-1v1l1 3v-1v1
l1 3v-1v1l1 2v2l1 3v-1v1l1 2q2 78 -33 143l-3 3l-5 11l-3 4l-2 2l-1 3q-6 7 -9 14q-5 4 -6 8l-3 3q-4 4 -7 10l-3 2l-2 3l-2 3l-2 2l-2 2l-1 3l-6 5l-4 6q-6 5 -9 10l-5 5q-7 5 -11 11q-7 5 -10 10q-2 1 -2 2l-3 2l-2 2l-4 3l-1 2q-2 1 -2 2q-6 3 -7 6l-1 2q-8 5 -12 11
l-3 1l-1 2q-2 1 -2 2q-9 6 -14 12l-3 2l-4 3l-4 3l-2 3l-2 1l-10 9l-2 2l-4 2l-2 2l-2 2l-2 2l-3 2q-10 8 -16 14q-9 6 -10 7l-3 3l-12 10l-3 2l-3 3l-4 3l-7 6q-21 18 -23 20l-4 2l-3 3l-3 2l-2 2l-3 3l-3 3l-3 2l-2 3l-3 1l-2 2q-5 5 -7 6q-5 6 -10 9l-1 2q-7 5 -10 10
l-4 2l-3 4l-4 3l-3 3l-3 4l-3 3l-3 3l-8 8l-3 2q-6 8 -11 12q-3 5 -8 9l-1 3l-3 2l-2 2q-2 4 -5 6q-4 8 -10 12zM867 800q21 -40 21 -79l-2 -2l-4 -1q-1 -2 -2 -2l-3 -1l-2 -2l-3 -1l-2 -2l-4 -1l-2 -2l-10 -4q-5 -4 -11 -5q-12 -7 -23 -9l-2 -2l-3 -1h-3l-3 -1l-2 -1
l-16 -5q-111 12 -143 99q49 59 118 70q67 2 101 -48zM971 766q2 -1 2 -2l3 -2q8 -6 12 -10q12 -8 19 -16q5 -3 8 -6l3 -2l2 -3q4 -3 7 -6q5 -3 7 -7q18 -14 27 -27q2 -1 2 -2q2 -1 2 -2q2 -1 2 -2q4 -3 6 -7q2 -1 2 -2q3 -3 5 -6q2 -1 2 -2q1 -1 1 -2l2 -1l2 -2q4 -7 9 -12
q7 -9 10 -16q2 -1 2 -2l2 -2l2 -5q5 -5 6 -10l2 -1l9 -18h-4h-4l-12 2h-3q-9 0 -16 2h-7l-6 1l-7 1l-6 1q-9 0 -14 2h-5l-19 4h-5l-5 1l-3 1l-3 1q-9 1 -16 3q-7 0 -13 3h-5l-4 1l-5 2h-4l-4 2h-3l-2 1l-9 2l-11 3l-3 1l-3 1l-4 1l-25 7l1 4l3 4l2 3q4 7 7 10l1 3l2 2
q3 6 7 10l1 3l2 3l1 3l10 15l1 4l13 25l2 3l1 3l1 4l2 2q1 5 3 8l1 2l8 23z" />
  </g>

</svg>
