<?xml version="1.0" standalone="no"?>
<!DOCTYPE svg PUBLIC "-//W3C//DTD SVG 1.1//EN" "http://www.w3.org/Graphics/SVG/1.1/DTD/svg11.dtd" >
<svg viewBox="0 -688 2048 2048">
  <g transform="matrix(1 0 0 -1 0 1638)">
   <path fill="currentColor"
d="M385 813h6q53 43 114 54l22 2h6l4 2h6h8h36l10 -2l14 -2l22 -2l16 -4l24 -4l14 -4l10 -2l10 -4l12 -2l46 -12l8 -2q11 -4 20 -6l6 -2l6 -2l4 -2l32 -8l8 -2l14 -4l12 -4q19 -6 32 -8q-9 -7 -18 -10l-6 -2l-4 -2l-32 -12l-6 -4l-32 -12l-6 -4l-34 -14q-8 -6 -16 -8l-14 -6
q-11 -7 -20 -10q-13 -9 -22 -12l-8 -2q-2 -2 -4 -2q-9 -8 -18 -12l-8 -2l-6 -4l-4 -2l-14 -8q-18 -9 -28 -16l-8 -4l-6 -2q-19 -14 -36 -20l-10 -8l-10 -4q-5 -4 -10 -6l-8 -6q-12 -10 -26 -16l-8 -8l-22 -12l-8 -8l-8 -4l-6 -4l-6 -6l-8 -6l-6 -4l-20 -14l-4 -4l-6 -2
q-22 -24 -42 -34l-6 -8l-8 -4l-6 -6l-6 -8l-8 -6l-6 -6l-18 -16l-4 -6l-4 -4l-8 -6l-6 -6l-4 -6l-6 -4l-4 -6l-6 -4q-22 -30 -40 -46l-4 -8q-9 -12 -16 -18l-4 -6l-10 -18l-6 -6l-4 -6l-4 -8l-4 -6l-4 -4l-2 -6l-12 -16l-2 -6l-8 -14l-18 -36q-15 -68 10 -124q15 -12 24 -22
l6 -2l4 -2l6 -2l24 -4l6 -2l38 -8h10q10 -2 16 -2l32 -4l14 -2q27 1 44 -2h10h12h8h36h22h8h8h8h8h34h6h24h28q15 3 26 2h28l14 2h10h8h10l8 2h10h26l8 2q20 -1 34 2h6h24l10 2h10h20q3 2 6 2h6l40 2q16 0 28 2h8h12l10 2h6h8h6l44 2q16 2 28 2h6h8q21 3 34 2h6l22 2h28h6
l8 2q38 -2 62 2h8h34h16h14h16q19 -1 32 2h16l4 -2h16h40h10h6h26l10 -2h10h28l8 -2h6l40 -2h10l8 -2q13 0 22 -2h6h6l4 -2h6h6l6 -2q22 -1 36 -4l6 8l4 8l6 8l4 6l6 8l4 6q6 12 12 20l4 4l2 6q7 9 10 16l4 4l8 10q11 23 24 36v2v-2v2v4h-12l-4 2l-6 2h-6l-32 4l-10 2l-34 4
l-12 2h-16q-12 3 -22 2l-6 2h-6l-32 2q-16 -1 -28 2h-6h-6h-16q-19 -1 -32 2h-8h-6h-36h-26h-8h-34h-6h-24l-8 -2h-8h-12h-8h-8h-8h-6l-44 -2h-8l-36 -2h-28l-8 -2h-6h-10h-8h-10l-8 -2h-6h-8h-6h-6h-6h-6l-6 -2h-6l-40 -2h-22l-4 -2q-26 1 -42 -2h-14q-12 0 -22 -2h-8h-6
h-14h-6q-22 -4 -38 -2q-3 -2 -6 -2h-14l-44 -2h-14q-11 -3 -22 -2h-6l-40 -2h-12h-14h-6h-14l-12 -2h-28h-26h-8h-36h-8h-8h-8h-34h-6h-24h-8l-6 2h-6h-16l-40 2l-14 2q-13 0 -22 2h-6h-8l-20 4l-16 2h-6l-6 2l-16 2l-32 8q-10 5 -16 10l8 12l4 4l4 4q13 16 24 24
q8 13 16 20l4 4l6 6l6 4l4 6l6 4q12 15 24 22l10 12l12 8q15 20 34 30q7 9 14 14l6 4l16 14l12 8q12 13 24 18q16 15 30 22l6 6l8 4l6 6l6 2q11 10 22 14q23 20 44 28q14 13 30 18q18 15 36 20l12 8q22 13 38 18l8 4l8 6l4 2l44 18l8 4l10 6q14 6 24 8q15 9 26 12l8 4l22 6
q12 7 22 8l6 4q10 3 16 6h6q3 2 6 2q22 10 38 14l6 2l10 2q15 6 26 8l4 2l18 6l10 2h6q2 2 4 2q24 8 42 10l16 4q7 3 14 4l4 2l6 2h6q12 4 22 4l8 2q5 2 10 2q3 2 6 2l4 2l32 6h8l8 2l8 2l8 2h8l8 2l8 2l6 2h8l6 2h6l6 2h6q24 6 40 6l4 8l4 4q7 11 14 18l4 8l4 8l6 8
q8 11 14 16l4 8q6 10 12 16q7 14 14 20l14 24l-8 -2h-8h-10h-10h-6l-6 -2h-10h-6h-10h-6q-22 4 -38 2l-6 2h-6h-6l-26 4h-8l-46 8l-34 6l-10 2l-14 2l-6 2l-6 2l-14 2l-4 2l-18 4l-28 6l-6 2l-6 2l-6 2l-14 4h-6l-38 10l-4 2l-8 2l-6 2l-6 2h-6l-4 2l-28 8l-14 4l-36 10
l-28 6l-4 2l-12 4h-6l-8 2l-6 2l-10 2l-6 2l-6 2l-16 2l-6 2q-15 3 -26 6h-8l-4 2q-19 1 -32 4h-10l-6 2h-8h-6h-10h-6h-8h-6h-40q-165 -32 -192 -202zM1005 -250q-10 -13 -108 -109q54 -78 117 -117l114 119q-59 49 -83.5 76.5t-39.5 30.5zM772 -250q-10 -13 -108 -109
q54 -78 117 -117l116 116l-2 3q-59 48 -83.5 76t-39.5 31zM891 -462q-10 -13 -108 -109q54 -78 117 -117q111 113 116 116l-2 3q-59 48 -83.5 76t-39.5 31z" />
  </g>

</svg>
