<?xml version="1.0" standalone="no"?>
<!DOCTYPE svg PUBLIC "-//W3C//DTD SVG 1.1//EN" "http://www.w3.org/Graphics/SVG/1.1/DTD/svg11.dtd" >
<svg viewBox="0 -410 2048 2048">
  <g transform="matrix(1 0 0 -1 0 1638)">
   <path fill="currentColor"
d="M1476 1080l-4 -14l-4 -10l-4 -8l-12 -34l-2 -6l-2 -8l-4 -8l-8 -26q-5 -11 -8 -22l-2 -6q-5 -10 -6 -16l-8 -24q-234 -153 -186 -408l-6 -2l-30 -16q-28 -10 -44 -20h-6q-15 -9 -26 -14l-4 -2l-12 -4l-6 -4l-8 -2l-2 -4l-14 -6q-11 -7 -20 -10q-11 -10 -22 -14
q-10 -10 -18 -14l-4 -4l-6 -2q-3 -3 -6 -4q-2 -4 -4 -4l-6 -4q-19 -19 -32 -28l-2 -6l-10 -10l-4 -4l-4 -6l-4 -4q-2 -4 -4 -4q-8 -18 -18 -28l-4 -8l-2 -6l-4 -6l-4 -6l-2 -4v-6l-20 -44q6 -28 24 -46l8 -4l38 -18l12 -4l10 -2l10 -2l22 -4h6q20 -6 34 -6l18 -4h6l8 -2
l20 -2l8 -2l16 -2q15 -5 26 -6q22 -9 38 -12q33 -20 0 -38l-12 -4q-8 -6 -16 -8q-12 -9 -22 -12q-13 -8 -22 -10q-19 -13 -36 -18l-14 -8l-4 -2l-44 -18l-6 -4l-6 -2l-6 -4l-8 -4l-8 -2q-8 -5 -16 -6q-17 -11 -34 -14q-10 -7 -20 -8q-14 -8 -26 -10l-4 -4h-6l-4 -4h-6
q-18 -10 -32 -12q-15 -7 -26 -8l-14 -6l-6 -2l-6 -2l-4 -2q-14 -3 -24 -6h-8h-6q-3 -2 -6 -2h-6l-6 -2h-8q-8 -3 -16 -2q-24 -5 -42 -4q-146 -19 -266 32q-54 20 -86 58q-9 7 -14 12l-4 6l-4 4l-4 6l-2 4l-4 6l-8 12l-2 6l-4 4l-2 6l-12 24v6l-6 14l-2 6l-2 6l-2 8l-2 6
l-8 38v6v6l-2 6v16q-5 23 -2 40l-2 6v8l2 8v8v6v6v8v6l4 40q0 13 2 22q3 27 8 46q1 15 4 24q1 15 4 24v6l4 16l2 6v6q7 19 8 32l8 20v6l4 8l10 24l8 14q9 24 18 38q4 12 -2 20q-13 -13 -20 -24l-4 -6l-4 -2q-10 -19 -22 -30l-2 -4l-20 -36l-2 -4l-2 -6l-4 -4l-2 -6
q-4 -12 -10 -20v-6q-12 -21 -16 -38l-2 -4l-10 -24l-6 -16q-6 -19 -12 -32l-4 -14l-4 -16l-6 -14l-2 -14l-4 -12l-2 -6l-8 -38q-3 -12 -4 -20l-2 -10l-2 -4l-2 -20q-4 -16 -4 -28l-4 -26v-60q5 -314 286 -380l6 -2h8l4 -2q21 -1 34 -4h22h8h6h10h6h8h6h40q5 2 10 2h10
q5 2 10 2h6l16 4l20 2l6 2h6l6 2l14 2l4 2h6q18 8 34 8l6 4h8l8 4l8 2l6 2l36 10q3 2 6 2q12 7 24 8q11 7 22 8q2 2 4 2l6 4h6q21 12 38 16l14 6q14 9 28 12l8 6l8 2l14 6q11 7 20 10l10 6l10 4l10 6l14 6l4 4l14 8l36 18q6 4 12 6q5 4 10 6l8 6l26 14q5 4 10 6q2 2 4 2
q10 10 18 14l8 2l8 6l8 4q12 12 24 16l6 4l6 6l8 4q11 8 20 12l2 4l4 2l6 2q15 14 28 20l2 6q7 6 10 12l4 4q2 4 4 4l4 6l4 8l22 38l8 14q3 13 8 22q28 68 -16 114l-4 2l-6 2l-24 14l-14 4q-16 3 -28 8q-11 1 -20 4h-6l-20 4l-16 2l-18 4h-6l-38 8q-49 5 -82 24l10 4
q5 3 10 4l12 6l10 4l10 2l8 4l8 2l8 4l8 2q20 8 34 12l32 12l50 22q2 4 4 4l6 2l4 4l6 2q8 8 14 12q18 11 30 22h6q10 -5 16 -6q19 -6 32 -12q12 -1 20 -4l6 -2l14 -4l24 -6l12 -4l6 -2l16 -2l32 -8h10l6 -2l32 -6h8l10 -2l26 -4h10l8 -2h6h6q19 -2 32 -2q16 -3 28 -2h6h10
h6q22 -4 38 -2q3 2 6 2q20 9 34 12q13 10 28 16q88 71 124 166v6q5 30 4 50q3 88 -34 156q-3 3 -4 6l-6 6l-2 6l-6 4l-2 6q-17 15 -24 28l-4 2l-2 4q-18 11 -28 24l-8 4l-12 12l-6 2l-4 6q-7 4 -12 8q-19 10 -30 20l-4 2q-10 6 -16 12q-23 10 -36 22l-6 4l-14 8l-4 2l-4 4
q-23 11 -36 24l-6 2l-6 4l-38 28l-4 2l-6 4l-4 4q-19 15 -30 26q-16 11 -24 22q-20 16 -30 30h-2h2h-2zM1526 688l-6 -4q-2 -4 -4 -4l-2 -6l-6 -4l-22 -24l-4 -4q-11 -11 -20 -16l-4 -6l-12 -8l-4 -4l-4 -4l-6 -2q-20 -17 -34 -26q-80 29 -88 108q-4 11 -2 24l4 2l2 4
q17 12 28 18l2 4l22 12l4 4l6 2l4 2l14 8h6q14 7 26 10q89 0 100 -86zM1620 740l6 -2l6 -4l6 -4q23 -12 36 -24q16 -6 26 -16q12 -5 18 -12q12 -5 18 -12q58 -35 90 -82l2 -6q8 -13 10 -22l6 -14l8 -32h-8q-12 -3 -22 -2q-3 -2 -6 -2h-22q-27 -4 -46 -2h-6q-19 -1 -32 2h-28
q-15 3 -26 2l-6 2h-6l-32 4l-22 4h-8l-28 6h-6l-10 2l-6 2l-38 8l10 16l4 6q2 3 4 4l2 8l4 2l22 42l4 6l2 6l4 6l4 4q8 23 16 36l2 8l2 4q7 14 10 24l6 14l10 32q12 -6 20 -14z" />
  </g>

</svg>
