<?xml version="1.0" standalone="no"?>
<!DOCTYPE svg PUBLIC "-//W3C//DTD SVG 1.1//EN" "http://www.w3.org/Graphics/SVG/1.1/DTD/svg11.dtd" >
<svg viewBox="-176 -680 2143 2048">
  <g transform="matrix(1 0 0 -1 0 1638)">
   <path fill="currentColor"
d="M1041 317q10 5 16 12q49 121 166 140h6q19 1 32 -2q11 0 16 -2l40 -8l6 -2l6 -2l6 -2l4 -2l32 -10l12 -6l12 -4l4 -4q21 -7 34 -14l12 -6l6 -2l4 -4l6 -2l6 -2q14 -9 24 -12l8 -4l10 -6q14 -6 22 -12l8 -4l8 -2l10 -4l20 -12q10 -3 16 -6l6 -2l4 -2q18 -8 30 -16h-6
q-17 -10 -32 -12l-6 -4l-10 -2l-6 -4l-8 -2q-3 -2 -6 -2q-8 -5 -16 -6q-11 -7 -22 -8q-10 -6 -20 -8l-6 -4q-13 -3 -22 -8h-6q-19 -10 -36 -12l-6 -4l-6 -2h-6q-18 -9 -32 -10l-14 -6h-6q-8 -5 -16 -6l-10 -2l-8 -2l-8 -2l-8 -2q-12 -4 -22 -6l-10 -2l-10 -2h-6l-8 -2
q-12 -4 -22 -4l-8 -2h-6q-18 -5 -32 -6h-8q-20 -5 -36 -4q-16 -3 -28 -2l-6 -2h-8h-34h-6h-24l-4 2h-6l-4 2l-32 8q-93 50 -138 130q-8 8 -12 16l-2 6q-4 2 -4 4l-2 6q-4 2 -4 4l-2 6q-12 16 -16 30q-11 13 -14 26q-13 11 -26 14l-14 -6l-8 -6l-10 -10q-2 -2 -4 -2
q-5 -7 -12 -10q-16 -17 -30 -26l-6 -4l-8 -8l-8 -6q-12 -10 -20 -14l-6 -6l-4 -4l-8 -4q-2 -3 -4 -4l-4 -4l-12 -8l-2 -4l-6 -2l-2 -4l-6 -2q-9 -11 -20 -16l-12 -10l-4 -4q-21 -13 -32 -24l-6 -2q-18 -17 -32 -24l-12 -8l-8 -8l-6 -4l-14 -8q-2 -3 -4 -4l-4 -4l-4 -2l-4 -4
l-4 -2l-4 -2l-6 -4l-4 -4q-13 -8 -20 -14l-12 -6q-5 -7 -12 -10l-8 -4l-4 -4l-14 -8q-15 -13 -26 -20l-10 -6l-10 -8l-6 -4l-6 -2q-2 -2 -4 -2q-21 -18 -38 -26l-12 -8q-8 -8 -14 -12l-4 -2l-4 -2q-20 -15 -34 -22q-2 -2 -4 -2l-2 -4l-18 -10l-2 -4l-8 -4l-4 -4l-6 -4l-4 -2
l-4 -4q-17 -9 -28 -18q-11 -8 -20 -12q-11 -11 -22 -16l-6 -6l-8 -4l-6 -6l-6 -2l-4 -6q-29 -17 -44 -32l-6 -2q-2 -2 -4 -2q-7 -9 -16 -12q-4 -5 -8 -8l-4 -4l-12 -8l-8 -4l-4 -6l-8 -6l-28 -18l-4 -6l-14 -8l-2 -4l-6 -2l-2 -4l-22 -16v-26l-2 -6v-16q-2 -19 -2 -32v-6
q-3 -12 -2 -22l-2 -16v-20q-3 -24 -2 -40l10 8l10 6l6 8l8 6l10 8l8 6l10 8l8 6l10 8l10 6q10 11 18 16l8 4q3 3 6 4q9 11 18 16l4 4l14 8l6 4q3 3 6 4q2 3 4 4l4 4l26 20l8 6l10 6l8 4l8 6l8 8l10 6l8 4q8 8 16 12l6 4q11 11 22 16l4 4l6 2l4 4l6 2l4 6l6 2l6 4q2 2 4 2
q11 10 20 16l10 4l8 8l10 4l8 8l46 28q2 3 4 4l6 4l6 4l6 6l6 2l4 4l6 2l28 22l6 2q2 2 4 2q21 18 38 26l8 8l10 4q4 5 8 8l10 6q18 15 32 22l8 8l12 6l10 10l10 8l6 2l6 6l8 4q15 17 32 24q18 20 36 28l10 8l6 6l8 6l6 6l12 8q15 17 30 24l4 6l6 2l4 6l4 4l6 4l4 4l6 4l4 4
l4 4l6 2q2 3 4 4q13 15 24 22q80 -193 262 -234l18 -2h34l8 2h6h6l8 2h16l8 2h6q19 5 32 6l12 2l10 2l12 2l8 2l12 2l8 4h8l10 2q12 6 22 6l8 2q3 2 6 2l8 2l16 4q18 9 34 10l8 4l8 2l10 2q3 2 6 2l8 4l8 2l8 2l6 2q12 5 20 6l14 4q16 9 30 10q5 3 10 4l10 4l10 2l6 4h6
q3 2 6 2l14 6l4 2h6q14 7 26 10l10 2q6 3 12 4q15 8 28 10l10 4l8 2l10 4h6l8 4l8 2l8 2l4 2h6q15 7 26 10q12 1 20 4q10 4 18 4l8 4l8 2h6q3 2 6 2l6 2l8 2l34 8h8q12 5 22 6l14 2l14 2l22 2l14 2h6q22 4 38 2h8l6 2h6q24 -4 40 -2q8 -3 16 -2l4 -2q22 -1 36 -6l4 8l6 8
q7 16 16 26l2 8l6 6q6 14 12 22q7 15 14 24l2 4q9 18 18 28q6 17 16 28l-4 6h-8h-28h-6h-8l-46 4l-10 2h-6l-6 2h-6l-8 2l-8 2q-15 1 -26 4q-15 3 -24 4q-12 5 -22 6l-6 2l-4 2l-42 10l-8 4l-8 2l-24 8l-8 4l-8 2l-6 2l-16 8q-5 0 -8 2l-8 2l-6 4l-8 2l-26 12l-16 6l-6 4
q-32 12 -50 24q-22 7 -34 14l-8 4l-22 10l-16 10q-26 8 -42 20h-6l-4 4q-23 7 -36 16l-10 2l-8 4l-22 10l-6 2l-8 2l-6 4l-4 2q-22 4 -36 12h-6l-14 6h-8l-6 2h-8h-8h-34h-6h-24q-226 -49 -246 -308zM1250 -454q-10 -13 -108 -109q54 -78 117 -117q111 113 116 116l-2 3
q-59 48 -83.5 76t-39.5 31z" />
  </g>

</svg>
