<?xml version="1.0" standalone="no"?>
<!DOCTYPE svg PUBLIC "-//W3C//DTD SVG 1.1//EN" "http://www.w3.org/Graphics/SVG/1.1/DTD/svg11.dtd" >
<svg viewBox="-205 -448 2048 2048">
  <g transform="matrix(1 0 0 -1 0 1638)">
   <path fill="currentColor"
d="M749 423q-9 -3 -14 -8l-9 -8l-4 -4l-3 -2l-3 -3l-3 -1l-1 -2l-2 -2l-3 -2l-2 -1l-1 -2l-3 -1l-1 -2l-15 -12l-3 -3l-4 -2q-1 -2 -2 -2l-6 -4l-1 -2l-2 -2l-17 -12l-5 -4l-2 -3l-3 -1q-3 -4 -7 -6l-14 -12l-3 -1q-6 -7 -13 -10q-6 -6 -11 -9l-5 -5l-6 -4l-6 -4l-5 -5
l-3 -2l-4 -3l-10 -7l-3 -2q-1 -2 -2 -2l-2 -2l-7 -4q-1 -2 -2 -2l-3 -2q-11 -10 -18 -14l-2 -2q-10 -6 -16 -12l-5 -2l-3 -3l-3 -2l-3 -3l-4 -2l-3 -3l-4 -2l-3 -3l-3 -2q-5 -4 -9 -7q-9 -5 -14 -10l-7 -4l-3 -2l-2 -2l-2 -2l-2 -1l-2 -1q-1 -1 -2 -1l-1 -2l-3 -2l-14 -9
l-2 -2l-3 -1l-1 -2l-3 -2l-3 -1l-1 -2l-2 -1q-8 -6 -13 -8l-5 -5l-3 -2l-3 -1q-6 -5 -11 -8l-4 -2q-1 -2 -3 -2l-3 -3q-8 -6 -14 -9q-6 -6 -12 -8q-8 -7 -15 -10q-12 -11 -22 -15q-4 -5 -9 -6l-5 -4l-3 -2q-1 -1 -2 -1q-6 -5 -10 -8l-12 -7l-6 -5l-21 -13q-6 -6 -12 -8
q-8 -7 -15 -10l-6 -4q-9 -9 -19 -13q-8 -7 -15 -11l-2 -2q-11 -6 -17 -11l-6 -4q-8 -6 -14 -9q-8 -7 -15 -10q-2 -3 -4 -4l-2 -1l-2 -2l-2 -1l-11 -8l-5 -2q-5 -6 -11 -8l-3 -3l-4 -2q-5 -5 -10 -7q-4 -5 -9 -6l-2 -3l-2 -1l-8 -5l-2 -2l-7 -4q-8 -8 -17 -12q-3 -3 -6 -5
l-5 -4l-3 -2l-2 -2l-10 -7l-3 -2l-3 -2l-3 -3l-4 -3l-2 -1l-8 -5q-1 -2 -2 -2l-4 -3l-2 -2l-2 -1l-3 -2l-7 -6q-7 -3 -11 -8l-6 -4l-5 -3l-4 -4l-3 -1l-1 -2q-7 -5 -12 -9l-3 -2l-6 -4l-2 -2l-2 -2l-3 -1q-5 -5 -10 -8q-6 -6 -11 -9l-4 -2l-2 -3l-4 -2q-1 -2 -3 -2l-2 -3
l-3 -1q-4 -5 -8 -6q-6 -7 -12 -10l-1 -3q0 -12 -1 -20v-8l-1 -6v-8q-1 -9 -1 -16l-1 -6v-8l-1 -5v-13l-1 -5l-1 -22v-3q-1 -6 -1 -11l-1 -6v-7q0 -15 -2 -25v-16l2 1q8 8 15 12q1 2 2 2l2 1q2 3 6 5q1 2 2 2l2 2l2 2l9 7l4 2l3 4l3 2l3 2q6 5 11 8l2 3l3 2l2 2l3 2l2 2
q10 6 16 12l14 11l10 7l12 10l3 1l1 2l16 11l6 4l5 5l5 4l4 2l4 3l3 2q5 5 10 7l1 2l3 1l1 2l3 1q5 5 10 8l5 4l5 3l3 2l3 3l4 2l2 2l2 2q9 5 14 10l2 1q5 3 8 6l3 2l3 1q1 2 3 2q1 2 2 2l2 2q9 5 14 10l5 3l12 8l4 2l1 2q7 4 10 7l4 2l3 2q4 4 8 6q5 3 9 5q1 2 2 2l2 2l3 1
q9 8 15 11l2 1l2 1l2 2l3 1q7 7 14 10l4 3l5 3q7 6 14 9l4 3q4 4 8 5l3 3l7 4l3 2l6 4l3 2q1 1 2 1q6 5 10 8l11 6l1 2l11 7l2 1q1 1 2 1q6 5 10 8l9 5l2 2l2 1q4 4 8 5l6 4q8 7 15 10l6 4q4 4 8 7l5 3l3 1l3 3l4 2l3 3q5 3 9 5q7 7 12 10l3 1l3 3l2 1l2 2l3 1l6 4
q8 8 15 11q9 7 16 11l5 4l2 1l1 2l2 1l11 8l5 4l6 3l5 5l3 2l3 2l3 2l3 3l22 15l5 5l6 3l5 5l2 1l6 4q4 5 9 7q5 5 9 8l4 2q8 9 17 13q5 6 11 9q3 3 6 5l6 5l7 6l11 8q1 2 2 2l2 2l2 2l9 7l5 3l4 4l4 4l4 3l2 2l3 1q7 9 16 13q5 6 10 9l3 3l4 3l3 2l3 3l9 8l2 2l6 4l2 3l3 2
l3 3l2 1q1 1 2 1q5 6 10 10q95 -233 323 -240v8v3v3v31v17v3v12v4v3v20v4v3v18v13v4v17v3v12h-3h-3h-3q-11 0 -18 2h-3l-3 1l-23 6l-14 7l-3 1l-4 2l-29 18l-5 4l-2 2q-2 1 -2 2l-6 4l-2 3l-3 2q-5 3 -7 6l-1 2l-9 7l-2 2l-4 6q-13 11 -19 21q-8 8 -12 15l-3 3l-3 3l-3 4
l-2 3l-1 3q-2 1 -2 3l-3 2l-1 2l-1 2l-2 2l-5 9l-2 1l-4 7l-1 3q-5 5 -7 11q-6 6 -8 11l-2 4l-2 3q-3 6 -6 10l-1 4q-2 1 -2 2l-3 7l-2 2l-1 3l-2 2l-2 6q-8 10 -11 19q-12 11 -27 10z" />
  </g>

</svg>
