<?xml version="1.0" standalone="no"?>
<!DOCTYPE svg PUBLIC "-//W3C//DTD SVG 1.1//EN" "http://www.w3.org/Graphics/SVG/1.1/DTD/svg11.dtd" >
<svg viewBox="0 -421 2048 2048">
  <g transform="matrix(1 0 0 -1 0 1638)">
   <path fill="currentColor"
d="M1214 1058l-4 -10l-2 -4l-4 -12l-2 -4l-22 -42l-2 -6q-6 -16 -10 -24q-12 -28 -22 -44l4 -14l2 -4l2 -4q5 -14 10 -22v-6q14 -31 16 -56l2 -12q6 -18 4 -34q-103 -48 -194 -4q-75 39 -92 114l-10 4q-13 -22 -24 -34q-9 -15 -18 -24l-2 -6l-6 -4l-8 -14l-12 -16
q-7 -9 -12 -14l-2 -6l-6 -4q-7 -9 -14 -14l-4 -6q-11 -9 -16 -16q-17 -11 -26 -22l-6 -4l-6 -2l-4 -6l-6 -2q-8 -8 -16 -12l-4 -4l-14 -8l-4 -4l-22 -14l-8 -4l-4 -4l-4 -2l-24 -14q-23 -11 -36 -20l-12 -6l-14 -6q-11 -7 -20 -10l-10 -8q-19 -7 -30 -16l-12 -4
q-8 -6 -16 -8l-10 -6l-8 -6l-12 -4q-8 -6 -16 -8q-14 -12 -28 -16l-8 -6l-6 -4l-8 -2q-17 -15 -32 -20l-12 -10l-28 -16q-3 -3 -6 -4l-4 -6q-17 -10 -26 -20l-6 -4l-6 -4l-6 -4l-4 -6l-6 -6l-6 -2q-2 -4 -4 -4q-2 -4 -4 -4l-4 -6l-14 -12q-11 -18 -24 -28q-64 -84 -70 -174
q-3 -69 38 -114l6 -2q19 -5 30 -10l8 -2h6q12 -3 22 -4l8 -2l8 -2h6l4 -2l14 -2l22 -2h6q8 -3 16 -2h8l8 -2l34 -2h8h16l4 -2h6h40h6h36h6h62h6h16q23 3 40 2h14h12q7 2 14 2h14h14l6 2h14l44 2h10l6 2h6q19 -1 32 2h6h20l18 2h6h6l8 2q21 -1 34 2h6l44 2q-93 -182 -62 -364
q2 -3 2 -6l4 -4v-6q12 -18 18 -32q23 -22 46 -30q22 -4 38 -2q101 51 100 178q-8 7 -14 6q-96 -81 -136 28v6l-4 16v6v6v6v6v6v6q0 12 2 20q0 10 2 16v6l2 6q3 30 10 50v6l2 6l2 8l4 8l4 14q6 23 12 36h8q3 2 6 2h6h6l40 2l38 4h14h12l6 2h8h10h12q11 3 22 2h14h6q22 4 38 2
q6 2 12 2l44 2h6l40 2h22q12 0 22 2h8h34h16h14h8h6q24 -1 40 2l8 -2h22h8h34h16h14l4 8l6 8l4 6q6 12 12 20l18 26l2 6l12 14l2 6l2 4l4 6l4 4q2 3 4 4q8 17 18 28l-8 6h-10l-6 2h-6h-6l-26 4h-8q-11 0 -16 2q-19 -1 -32 2h-8h-6l-40 2h-10h-10h-10h-10h-12h-8h-36h-22h-8
h-8h-10h-10h-6h-6h-6l-4 -2h-6h-6h-26h-12l-10 -2h-6h-6h-6l-44 -2h-10l-6 -2h-6q-19 1 -32 -2h-6h-8h-6h-6q-13 -3 -24 -2h-14q-6 -2 -12 -2h-8h-10q-3 -2 -6 -2h-6h-6l-14 -2l-44 -2h-6q-19 -3 -32 -2l-12 -2h-12h-8q-8 -3 -16 -2l-32 -2h-12l-32 -4h-14h-10h-6l-4 -2h-28
q-15 -3 -26 -2h-10q-6 -2 -12 -2h-16l-34 -2h-8h-6l-40 -2h-34q-12 -3 -20 -2h-26h-8h-8h-8h-34h-6h-24q-11 0 -20 2h-6h-6h-16h-8l-34 4q-19 0 -32 2h-6h-6l-6 2h-6l-30 4l-6 2l-14 2h-6l-4 2q-31 2 -52 12q12 22 28 34q27 35 60 52q7 8 14 12q9 5 14 10l8 2l2 4l14 6
q13 12 26 16l6 2l2 4l6 2q20 13 34 18l8 6l8 4l24 10l8 6l8 2l10 8l38 18l26 14l6 2q2 2 4 2q18 12 32 18l8 4l8 4q3 3 6 4l8 6l26 14q8 7 16 10l6 6l18 10q11 11 20 14q12 13 24 18l6 6l6 6l6 4l6 4l6 6q7 9 12 14l6 2l6 6q2 4 4 4l2 6l12 10q13 21 26 32q27 40 32 80
q32 -98 118 -130q108 -38 194 20q2 4 4 4l4 6q20 20 30 34q108 212 28 408h-2h2h-2z" />
  </g>

</svg>
