<?xml version="1.0" standalone="no"?>
<!DOCTYPE svg PUBLIC "-//W3C//DTD SVG 1.1//EN" "http://www.w3.org/Graphics/SVG/1.1/DTD/svg11.dtd" >
<svg viewBox="-64 -523 2048 2048">
  <g transform="matrix(1 0 0 -1 0 1638)">
   <path fill="currentColor"
d="M377 431q-1 -2 -2 -2q-9 -12 -16 -18q-5 -10 -12 -16l-2 -3l-2 -3l-2 -3l-3 -3l-1 -3l-2 -1q-2 -3 -4 -5q-5 -6 -8 -11q-1 -2 -2 -2q-6 -9 -7 -10l-2 -2l-9 -9q-90 -109 -209 -150l-22 -5l-3 -1h-3q-13 -4 -23 -4l-3 -1h-5l-3 -1h-4h-3h-3q-33 -2 -86 -1v-176h71h4h11
l3 1q10 0 17 2l15 2q6 3 11 3q1 1 3 1l3 1l4 1l7 3l2 1q7 3 16 6l4 2q8 5 10 6l3 1q9 7 16 10q7 7 14 10l2 3l3 1q5 7 12 10q4 6 9 9q1 2 2 2q10 13 19 19q5 8 10 13q5 7 9 10l3 4q4 8 6 10l3 3l2 4l3 4l2 3l1 2l2 3l2 1q5 11 11 17q-74 -204 -14 -388l1 -4l1 -2l2 -9l2 -2
l1 -3l3 -7v-3q6 -10 8 -19q100 -196 295 -255l3 7l2 7l2 7l3 7l1 3l5 13l1 4l2 3l1 2v3l2 2q1 7 4 13l2 4l1 4l2 4l2 5l5 16l2 4l1 4l2 3v3l3 7l5 14l1 2l3 7q3 11 7 18q0 4 -1 7q-128 40 -135 191l-1 4q0 6 -1 10v3v4v3v3q-2 15 -1 25q82 92 206 98l4 1q4 1 13 1l14 2h11
l3 1h4h7h3q11 2 19 1q13 2 22 1l4 1h4h3h4q10 1 17 1h4h3q12 2 20 1v1v-1v2v-1v1v2v2v2v2v2v2v2v2v2v2v2v2v2v2v2v2v2v2v2v2v2v2v2v2v2v2v2v2v2v2v2v2v2v2v2v2v2v2v2v2v2v2v2v2v2v2v2v2v2v2v2v2v2v2v2v2v2v2v2v2v2v2v2v2v2v2v2v2v2v2v2v2v2v2v2v2v2v2v2v2v2v2v2v2v2v2v2v-2
v2q-315 -17 -429 -271l-1 -5l-1 -4q-5 -10 -6 -18l-1 -3l-1 -2l-1 -3l-1 -4l-6 -25q-3 -11 -3 -12l-9 14l-1 3l-2 2l-1 2l-2 6q-5 6 -6 11q-2 10 -7 15q-1 1 -1 2q-5 9 -6 16q-6 14 -9 23v4l-2 3v4l-2 3v4l-1 4q-2 4 -3 11l-1 7l-2 6l-2 14v3q-2 4 -1 8l-1 4v6q-1 1 -1 3v3
l-2 20v5v5v5v4v17v17l1 3v14q2 8 1 13l1 4v4l1 5v4l1 6v3l1 4v3l1 4v3l4 22l1 4l1 6l3 14l2 11l1 3l1 3l3 14l2 8l2 7l5 19l2 6l1 3l1 3l1 2q2 9 5 16l1 6q3 7 4 12l3 5q2 9 5 16l1 4l2 3l3 11l2 3l1 3l1 4l1 3l1 2q1 2 3 8l4 12q13 55 -10 53q-8 -6 -13 -9z" />
  </g>

</svg>
