<?xml version="1.0" standalone="no"?>
<!DOCTYPE svg PUBLIC "-//W3C//DTD SVG 1.1//EN" "http://www.w3.org/Graphics/SVG/1.1/DTD/svg11.dtd" >
<svg viewBox="-166 -410 2048 2048">
  <g transform="matrix(1 0 0 -1 0 1638)">
   <path fill="currentColor"
d="M852 1428l-10 -4l-8 -4l-7 -3q-5 -4 -10 -5l-3 -2q-5 -3 -13 -6q-5 -4 -11 -5q-6 -4 -8 -5l-3 -1l-2 -1q-7 -4 -9 -4q-3 -2 -6 -3q-9 -2 -13 -6q-1 -1 -2 -1l-2 -2l-3 -1l-15 -8l-2 -1l-6 -2l-3 -2l-3 -1l-7 -3q-5 -4 -10 -5l-4 -3l-5 -2q-6 -4 -12 -5q-9 -7 -18 -9
l-3 -2l-3 -2l-4 -1q-6 -4 -10 -6h-3l-2 -2l-2 -1l-6 -2q-5 -4 -10 -5q-3 -2 -6 -3l-7 -4l-22 -11l-10 -4l-4 -2q-5 -4 -11 -5q-7 -5 -11 -6l-3 -1l-2 -2l-12 -5q-6 -4 -14 -7l-5 -2q-4 -3 -8 -4l-6 -4l-3 -1l-3 -1l-2 -2l-3 -1l-22 -11l-4 -1l-2 -2q-8 -3 -12 -6l-3 -1
l-16 -7l-2 -2l-4 -1q-10 -7 -19 -9q-8 -2 -12 -6q-1 -1 -2 -1l-2 -2l-2 -1l-6 -2l-2 -2l-21 -9l-4 -2l-4 -3q-10 -4 -16 -8l-10 -4l-7 -4l-3 -1l-15 -8l-2 -1l-2 -1l-6 -2l-11 -6l-3 -1l-2 -1q-7 -3 -9 -4q-10 -7 -19 -9l-6 -4l-4 -1q-7 -5 -11 -6l-3 -1l-3 -2l-3 -1
q-1 -1 -2 -1l-2 -2q-11 -4 -17 -8l-3 -1l-7 -3q-5 -4 -10 -5q-3 -2 -7 -3l-2 -2l-2 -1l-6 -2q-4 -3 -8 -4l-16 -9l-7 -2l-6 -4l-6 -3l-16 -7q-5 -2 -6 -3t-2 -1q-8 -5 -15 -7l-4 -2l-4 -2l-4 -3l-6 -3l-4 -1q-4 -3 -9 -4q-9 -7 -18 -9q-5 -3 -8 -5l-22 -10l-3 -1l-2 -2
l-2 -1l-6 -2q-1 -1 -2 -1q-7 -5 -14 -7q-8 -9 -15 -13q-3 -5 -7 -9l-2 -1q-3 -5 -6 -8q-5 -6 -8 -9q-4 -7 -8 -11q-4 -9 -6 -11l-2 -2l-1 -3l-2 -2l-2 -3l-4 -7q-5 -11 -10 -18q-2 -6 -5 -10l-1 -4l-2 -5l-2 -4l-1 -2l-1 -3l-1 -2l-9 -19l-2 -7l-1 -3q-2 -5 -3 -8l-1 -3
l-1 -2q-1 -2 -3 -8l-3 -7q-1 -6 -3 -11l-1 -4l-1 -3l-1 -3l-1 -3l-1 -4l-1 -3l-8 -22v-3l8 -18q3 -5 7 -12l2 -4l7 -12l2 -2q3 -6 6 -10l1 -3l7 -9q3 -6 7 -10l1 -3q3 -3 5 -6l4 -6l2 -1l1 -3q7 -7 10 -13l4 -3l2 -2l1 -2l6 -7l1 -2l2 -1l1 -2l10 -10l3 -3l2 -3l4 -3l3 -4
q5 -3 7 -7l3 -2l6 -7q2 -1 2 -2q5 -3 7 -6q8 -6 13 -13l3 -2l3 -2l3 -3l4 -3l2 -3l3 -3l3 -1l8 -8l3 -2l2 -2l2 -2q3 -3 6 -5l2 -3q8 -5 12 -11q151 -125 196 -294l-3 -2l-3 -2l-18 -9l-7 -3q-6 -1 -10 -4l-8 -2l-2 -2h-3q-1 -1 -3 -1q-2 -1 -3 -1q-1 -1 -3 -1l-3 -2l-4 -1
l-22 -7h-4l-16 -5h-4l-3 -1l-2 -1q-7 -1 -12 -2h-3l-2 -1l-17 -2q-8 -2 -14 -2l-5 -1h-4h-5l-4 -1h-10q-8 -2 -14 -1h-10l-114 3v-165l97 -4h4h3q4 1 8 1q11 4 20 3q6 2 13 3l8 1q8 3 14 3l3 1h3l4 1l4 2h4l4 1l4 2l14 3q4 3 8 3q13 5 21 7q5 4 11 5l4 1l2 2l3 1l3 1l3 2
l2 1l6 2q1 2 2 2l3 1l2 2l2 1l17 9l2 2l2 2q9 5 14 10l4 2q1 2 2 2q0 1 2 2l6 5l3 2l5 5l1 2l2 1q5 7 10 10l1 3l1 2q5 9 8 15l2 2l9 18l2 3l2 3l1 3l2 3l2 4l2 4q0 2 1 4l1 2l6 15l4 8v3l2 3q2 13 6 21v3l3 13v3l1 3q0 10 2 17v13l1 9v5l-1 3v4v12v4l-1 3v8l-2 12v4l-3 25
q-1 2 -1 3l-2 2q-5 16 -8 22l-2 4l-1 4l-2 4l-1 3l-8 18l-1 4l-3 5l-2 4l-1 4l-2 4q-4 6 -7 12l-6 13q-4 5 -5 10q-2 1 -2 2q-4 6 -6 11l-4 6q-7 10 -8 13q-2 1 -2 3l-3 2l-5 9l-3 3l-2 2l-1 2l-2 2l-2 3q-5 6 -7 10q-5 4 -7 8l-3 2q-4 4 -5 7q-2 1 -2 2q-2 1 -2 2l-2 1
l-2 3l-5 5l-2 1l-1 2q-7 5 -10 10q-7 4 -10 9l-3 1l-3 4l-4 3l-4 3l-2 2l-2 1q-3 4 -7 6l-8 8l-4 2l-2 3l-4 2l-2 2l-7 7l-3 1l-1 2q-2 1 -2 2l-10 7l-3 3l-3 4l-4 2l-3 4l-4 2l-6 7l-4 3l-3 3l-3 3l-2 2l-3 3l-2 3l-3 2l-6 7l-3 2q-5 7 -10 11l-1 3q-7 6 -10 12l-3 2l-2 4
l-8 9l-2 3l-1 3l-2 1l-1 3l-2 1l-1 2q-6 8 -9 14l-7 9l-2 4l-6 11l-2 3l-2 4q-6 7 -8 14l-2 2l-4 7l-9 18l3 1l3 2l3 1l2 2l3 1l3 2l3 1l7 3q5 4 10 5l4 2q8 5 10 6l6 2l3 2l2 1q5 3 12 7l4 2l7 3l18 9l3 2q12 5 19 10l2 1l6 2l4 3l6 2l8 4l4 2l3 2q5 3 13 6q4 3 8 4l3 2
l2 2l10 4q13 3 20 10q1 1 2 1l2 2l3 1l15 8l4 2l4 2l3 2l7 3l18 9l5 3l5 2q9 5 15 7l2 2l2 1l6 2q1 2 3 2q4 3 8 4l2 2l3 1l15 8l4 2l4 1l4 2l6 4q12 5 19 10l2 1l6 2l4 2q8 5 10 6l5 2l4 2l4 2q9 4 11 5q5 1 8 4q1 1 2 1l1 2l2 1l3 1l12 6l7 4l4 1l2 2l10 4q11 8 20 10l6 4
l7 4l12 5q5 4 10 5l2 2l3 1l15 8l2 1l18 9l3 2l4 1l3 2l3 2l4 1l2 2l10 4q11 8 20 10q3 4 7 4l6 4l3 1l4 2l3 1q1 1 2 1l2 2l2 1l3 1l12 6l7 3l2 2l18 9l3 1q9 7 18 9l6 4l12 5l3 2l11 6l3 1l2 2l3 1l3 2l3 1l7 3q5 4 10 5q4 3 8 4l16 9q10 4 15 8l4 1l4 3l4 1l4 3l2 1l6 2
l3 2l12 6q7 3 9 4q7 5 13 7v3q3 6 6 16l1 3l1 3l1 3q3 7 3 8l1 4q5 10 6 17l1 2l1 3q2 5 3 8q3 7 4 12l2 3l3 11l2 4l1 3l1 3l1 3l6 17q2 5 3 8l3 7q-1 2 -2 3z" />
  </g>

</svg>
