<?xml version="1.0" standalone="no"?>
<!DOCTYPE svg PUBLIC "-//W3C//DTD SVG 1.1//EN" "http://www.w3.org/Graphics/SVG/1.1/DTD/svg11.dtd" >
<svg viewBox="0 -410 2048 2048">
  <g transform="matrix(1 0 0 -1 0 1638)">
   <path fill="currentColor"
d="M1311 1431l-13 -19l-4 -6l-4 -6l-3 -4l-4 -5l-3 -6l-4 -4l-3 -5l-4 -6l-3 -5l-3 -4l-3 -5l-3 -4l-4 -5l-2 -4l-2 -1q-6 -11 -11 -17l-8 -11q-3 -5 -6 -8l-1 -2l-5 -8l-6 -8q-4 -8 -9 -12v-9q2 -6 1 -10q1 -1 1 -3v-5l1 -3l2 -30q1 -2 1 -3v-6l2 -13v-4l2 -17v-3l2 -18
l1 -9q0 -8 1 -13v-5l1 -2l2 -29q1 -4 1 -12q2 -10 2 -18l1 -2q0 -7 1 -12v-7l1 -2l2 -29l1 -8l1 -8v-5l1 -2l2 -27l1 -4v-7q2 -12 2 -20l1 -3v-10q1 -2 1 -3v-7q1 -2 1 -3v-6l2 -13v-8l1 -3v-7l1 -3v-6l1 -3l1 -20q1 -2 1 -3l1 -15l1 -4v-3q1 -9 2 -16l2 -31q1 -2 1 -3v-6
q2 -14 2 -22q3 -9 2 -17l1 -5l1 -15l1 -6l6 -70q1 -2 1 -3q0 -11 2 -19l1 -18l1 -2l2 -29l1 -3v-8q1 -4 1 -8q2 -9 1 -17l1 -13l1 -5l1 -15q1 -3 1 -5l1 -11q1 -3 1 -5l1 -5l1 -14q1 -2 1 -3v-5q3 -10 2 -18q1 -2 1 -3l1 -7l1 -35q0 -10 -1 -17q0 -6 -1 -11v-3l-2 -8l-2 -12
l-6 -4q-5 -6 -12 -9l-2 -3l-2 -1l-8 -5l-9 -7l-7 -4q-6 -4 -10 -6l-10 -7l-4 -1q-6 -6 -13 -8q-10 -6 -17 -9l-4 -2l-2 -2l-2 -1l-6 -2q-5 -4 -10 -5q-3 -2 -6 -3q-8 -5 -14 -7l-4 -2q-8 -3 -13 -6l-3 -1l-2 -1l-16 -6l-3 -2l-4 -1l-3 -1l-4 -2l-10 -4l-2 -1l-10 -3
q-3 -2 -6 -2q-5 -3 -8 -4l-13 -4q-8 -3 -13 -4q-7 -3 -13 -4q-7 -4 -13 -5l-5 -1q-8 -3 -14 -4l-4 -2l-5 -1l-3 -1h-3q-9 -4 -16 -5l-4 -1l-3 -1l-29 -7q-8 -2 -14 -3l-4 -1q-8 -3 -14 -3l-3 -1l-14 -3h-3q-6 -2 -10 -3h-5l-8 -2h-4q-9 -3 -17 -3q-1 -1 -3 -1l-3 -1h-6
l-4 -1l-10 -2h-5l-2 -1h-4l-3 -1h-3q-6 -1 -11 -1q-9 -3 -16 -2q-6 -2 -10 -2h-3h-3l-6 -1h-6q-11 -2 -18 -2h-4l-19 -2h-4h-4h-4l-4 -1h-5h-7q-10 0 -17 -1h-5h-3h-4h-4h-4h-4h-17h-3h-12l-17 1h-4h-3l-20 1l-4 1h-4h-3h-3l-3 1q-8 0 -14 1h-4l-4 1h-4l-5 1h-3l-3 1l-17 2
q-5 1 -8 1l-7 1l-4 1l-5 1l-2 1l-14 2l-3 1l-4 1l-3 1h-4l-3 1l-8 2l-2 1h-3l-8 2l-7 2l-4 2l-4 1q-7 1 -11 4q-3 0 -4 1l-2 1l-16 5l-4 2l-2 1q-10 3 -15 6l-3 1l-4 2l-9 4l-2 1l-21 11l-2 2q-4 2 -7 5l-2 1q-8 3 -12 8q-10 5 -16 12l-3 1l-2 3q-8 4 -12 10q-2 1 -2 2
q-5 3 -7 6l-2 2q-4 4 -6 8q-9 8 -14 15l-5 9l-2 1l-1 2l-1 2l-1 2q-1 1 -1 2q-1 1 -1 2l-2 1l-3 7l-4 6l-1 2l-2 6l-4 6l-1 3l-1 3q-5 11 -6 18q-4 9 -5 16q-3 8 -3 15q-3 12 -4 19v4v4l-1 3v3v3l-1 7v4v18v7l1 6v10l1 3v8q2 8 2 15l1 3l1 4l5 14l1 3l1 4l8 23l1 4q1 6 3 11
v3l1 3l2 8l1 3l4 12v3l1 2v3l1 2q1 7 2 12q1 9 0 15l-4 1q-3 -5 -7 -7l-2 -3l-1 -3l-2 -2l-1 -3l-2 -2l-1 -3l-2 -1q-4 -12 -10 -19l-1 -4l-1 -2l-1 -3q-5 -9 -8 -16l-2 -6l-2 -4l-2 -3l-1 -3l-1 -4l-2 -2q-3 -13 -8 -21l-3 -12l-3 -7v-3l-2 -8l-2 -7l-3 -7q0 -6 -2 -10v-3
q-2 -6 -3 -12l-3 -10l-2 -9l-1 -6l-1 -3l-1 -7v-3q-3 -11 -3 -19l-1 -4l-1 -6v-3l-3 -16v-8l-2 -11v-11q-1 -5 -1 -8v-63l1 -3v-11q3 -9 2 -16q1 -4 1 -7l2 -8l3 -16l1 -5q3 -8 4 -15q1 -1 1 -3l3 -8l7 -21q3 -4 4 -9l2 -3l1 -3q3 -4 4 -8l2 -2l1 -3l1 -3q5 -6 7 -12l4 -4
l2 -3l4 -8l3 -3q6 -8 10 -12l1 -2l4 -6q7 -5 10 -11l2 -1l2 -2l1 -2q7 -5 11 -10l3 -2l7 -7l3 -2l3 -3l3 -2l2 -1l2 -1l1 -2l11 -7l3 -2l6 -5l3 -2q13 -6 21 -11q3 0 4 -1l3 -1l12 -5l8 -2l7 -3h3l3 -1l7 -2l2 -1q9 -2 16 -4q7 -1 13 -2q7 -1 12 -3q8 0 13 -2h5l3 -1h4
q4 -1 8 -1q9 -2 16 -2l5 -1l5 -1l16 -1l14 -1l5 -1h14l4 -1h6h3q8 0 13 -1h4h4h4h17h8h7h3h14h3h5h3h4h3h20h10l17 1h4h4h5l8 1h3h4h3h3q1 1 3 1q8 0 14 1h11l5 1h6h3l6 1l16 1l3 1h3h4l25 3h3q10 2 18 2q8 2 13 2h4q2 1 3 1h4q4 1 8 1q1 1 3 1l17 3q7 0 13 2h4l17 3h4
q6 2 11 3h5l4 1l6 1q6 2 11 2q9 3 16 3q11 4 20 4l4 2l5 1l5 1h4l4 2h3l4 1l23 6l5 1q8 2 14 3q3 2 6 2l5 1q3 2 6 2l3 1l5 2l14 3q2 1 3 1l4 1l4 2l4 1l8 2q1 1 3 1q7 4 12 5h3q3 2 6 2q5 3 8 4h3q5 3 11 4q3 2 5 2q9 5 16 6q6 4 11 5l3 1l2 1l3 1l12 6l4 1q8 5 15 7l11 6
l2 1q6 2 9 5l3 1q9 5 16 8q5 5 10 6l3 3q11 5 17 11l3 1l3 3l7 4l1 2l7 4q6 7 12 10l3 4l3 3l2 1q5 7 10 10l2 3l3 4l3 3l10 12l2 3q6 8 10 12l2 5l3 3l6 11l2 3l2 1q2 7 5 11l7 11q1 5 3 8l2 2q5 14 10 22q2 9 6 15q1 5 3 10l5 17l1 3l4 12l5 22l1 4l1 4l3 13v3l3 12v6l1 2
l2 20l1 4v3l1 7q0 8 1 12q0 6 1 10v6v5v6v3v13v4v4v5v4v3v3v17v3q-2 7 -1 12l-1 5q0 8 -1 14v5l-1 2v4l-2 25l-1 2q0 7 -1 12v3v5l-1 4v4v4q-2 10 -2 18v3q-3 13 -2 22q-1 1 -1 2v8l-1 7l-1 5v7l-1 6v4v4q-3 11 -2 19l-1 5l-1 16l-1 2q0 7 -1 12v3v5q-2 14 -2 22q-2 4 -1 8
v4l-1 4q0 5 -1 8v3l-2 22l-1 8q0 5 -1 8l-2 25q0 5 -1 8v8l-1 8l-1 8q0 5 -1 8v8l-1 8l-1 8q0 5 -1 8v8l-1 8l-1 8q0 5 -1 8v8q-2 4 -1 8l-1 8l-3 38q-2 4 -1 8l-1 3v4v4l-1 7v3l-1 12l-3 25v6q-1 8 -1 14l-1 4v5l-1 3v3v6q-1 2 -1 3v8q-1 1 -1 2l-1 13l-1 7v10q-1 1 -1 3v3
v3q-2 14 -2 22q-2 4 -1 8v4q-3 11 -2 19l-1 8l-1 10v4l-3 23v7l-1 5v3v4l-3 25v6l-1 6v6l-1 4v4l-1 5q0 6 -1 11q0 6 -1 11v3v4l-1 4v3l-2 22h-1h1h-1zM841 1088l-7 -3q-6 -4 -10 -5l-3 -3l-4 -1q-6 -5 -11 -8l-2 -1q-4 -4 -8 -5l-2 -2l-6 -4q-6 -7 -12 -9q-5 -6 -10 -10
l-3 -3l-4 -2l-2 -3l-4 -4l-3 -2l-3 -4l-3 -2l-1 -3l-7 -6q-3 -5 -7 -8q-3 -7 -8 -10l-1 -3l-2 -3l-3 -2q-4 -9 -10 -14l-1 -3l-1 -2l-2 -1q-3 -8 -8 -13l-2 -3l-1 -4l-2 -2l-2 -4l-1 -2l-2 -2q-5 -13 -11 -21l-2 -5l-1 -2q-3 -8 -6 -12l-2 -6l-2 -4l-1 -4l-2 -4l-2 -5l-2 -3
l-3 -11l-3 -5l-1 -4l-1 -4l-2 -3v-3l-2 -3l-1 -3l-1 -6l-2 -5l-1 -3l-1 -4l-6 -17q-1 -25 8 -44l2 -1q7 -10 15 -16l5 -2l8 -5l3 -1l3 -1l14 -5l3 -1l2 -1l3 -1l13 -5q13 -7 20 -13q2 -11 0 -19l-2 -2q-4 -11 -10 -17l-6 -5l-6 -6l-3 -1q-11 -11 -22 -15q-7 -6 -14 -8
q-7 -6 -15 -8q-11 -8 -21 -10l-12 -7q148 0 198 114q50 128 -58 166l-22 10q-9 6 -13 14l1 2l2 1l2 1l2 1l2 1q6 4 10 5q1 1 2 1q1 1 2 1l2 2h3q8 5 14 7h3l2 2l3 1l3 1h4q1 1 2 1l8 3h4l8 2l2 1h3l16 2q38 76 30 150l-6 1z" />
  </g>

</svg>
