<?xml version="1.0" standalone="no"?>
<!DOCTYPE svg PUBLIC "-//W3C//DTD SVG 1.1//EN" "http://www.w3.org/Graphics/SVG/1.1/DTD/svg11.dtd" >
<svg viewBox="0 -410 2048 2048">
  <g transform="matrix(1 0 0 -1 0 1638)">
   <path fill="currentColor"
d="M1615 2015l-12 -8q-16 -5 -26 -12l-8 -2q-10 -6 -18 -8l-6 -4l-20 -8l-6 -2q-2 -2 -4 -2l-4 -4q-23 -9 -36 -16l-8 -2l-4 -4l-44 -18l-4 -4l-6 -2l-12 -4q-11 -8 -22 -10q-6 -4 -12 -6l-14 -6l-6 -4q-8 -5 -16 -6l-4 -4l-36 -16l-8 -2q-2 -2 -4 -2l-30 -16l-58 -24
l-14 -8l-12 -4q-18 -12 -34 -16l-14 -8l-36 -16l-8 -2l-4 -4l-20 -8l-4 -2l-14 -6q-12 -8 -22 -10l-14 -6l-12 -8q-8 -3 -14 -6l-14 -6l-14 -6l-12 -6l-12 -6l-14 -4q-2 -2 -4 -2q-15 -9 -26 -14l-14 -4l-8 -6l-8 -4l-10 -2l-8 -6l-14 -4q-18 -12 -34 -16l-8 -4
q-12 -8 -22 -10q-9 -6 -18 -8q-9 -7 -18 -8q-21 -13 -38 -18l-8 -10l-6 -10l-18 -34l-4 -6l-12 -16l-4 -10l-6 -8l-4 -6l-4 -8l-4 -6l-6 -10l-2 -6l-4 -2q-3 -8 -6 -14l-2 -4q-10 -12 -14 -22l-4 -6l-10 -16q-2 -3 -4 -4q-7 -17 -16 -28q6 -12 8 -22q2 -3 2 -6l4 -4l2 -6
l2 -8l4 -4l2 -8q5 -8 6 -16q7 -11 10 -20q4 -6 6 -12l4 -6q8 -13 10 -22q12 -16 16 -30q10 -13 14 -26q9 -12 12 -22l4 -4l2 -4l4 -12q10 -11 12 -22q7 -9 10 -18l2 -6q11 -13 14 -26l4 -4l8 -20q14 -22 18 -40q7 -8 10 -16q3 -11 8 -20l2 -4v-6q4 -6 6 -12l4 -6l6 -22
q2 -3 2 -6l4 -6l2 -6l2 -8l2 -4l4 -18l2 -8q8 -20 10 -34v-8q2 -2 2 -4l6 -32v-14q4 -31 2 -50q0 -18 -4 -46q-2 -10 -2 -16q-5 -12 -6 -22l-6 -4l-2 -4l-6 -6l-4 -4q-16 -12 -24 -20l-8 -6l-8 -4l-4 -4l-6 -4l-4 -2l-46 -28l-10 -4l-6 -4l-10 -4l-6 -4l-8 -4l-4 -4l-8 -4
l-4 -2l-20 -8q-2 -2 -4 -2q-13 -9 -24 -14h-6q-22 -15 -40 -20q-2 -2 -4 -2l-8 -4l-4 -4l-4 -2l-12 -4q-2 -2 -4 -2l-4 -4l-22 -12q-246 -119 -324 -350q-27 -62 -12 -120l6 -4l8 -12l4 -2q17 -10 28 -20l6 -2l32 -8l22 -6l26 -4l22 -4h8q16 -4 28 -4h8l6 -2h6l14 -2h6h6
l32 -2h40h14h34h16h14h12h28h10h6h26h6l44 2h10l34 2h8h14q5 2 10 2h6h6h10l8 2q20 -1 34 2h18q13 0 22 2h6h8l32 2h10l6 2h26l6 2h6l58 4h14h6h6l6 2h6h8l32 2h14q8 3 16 2l32 2h12l8 2h6l40 2h12h12q18 4 34 2l12 2h14h14h6q19 4 32 2l32 2h12h10h12h10l32 2h28h8h8h36h8
h8h8h6h6h8h6q23 -3 38 -2l4 8l4 6q7 13 14 20l10 18l4 6l12 16l4 6l2 6l4 4l8 10q11 23 24 36q1 7 -4 10h-10l-6 2h-16q-8 2 -16 2q-14 3 -24 2l-10 2h-6l-76 4h-28h-6h-36h-26h-8h-34h-6h-24h-10l-10 -2h-10h-12h-10l-40 -2h-12l-6 -2h-22h-8h-6l-4 -2h-28q-15 -3 -26 -2
h-12q-3 -2 -6 -2h-6h-6l-40 -2q-19 -4 -34 -2q-5 -2 -10 -2h-10l-12 -2h-8h-12q-19 -3 -32 -2l-8 -2h-8h-8h-10q-3 -2 -6 -2h-6h-6l-14 -2l-44 -2h-8l-8 -2q-20 1 -34 -2h-6h-24q-5 -2 -10 -2l-34 -2h-26l-6 -2h-26h-8l-32 -2h-10h-26h-10q-16 -3 -28 -2h-10h-8h-8h-8h-10
h-8h-22q-11 0 -20 2h-8h-16h-6h-14h-6q-10 2 -16 2h-6h-14q-11 3 -20 2h-6l-24 4q-10 0 -16 2q-11 0 -16 2h-6l-4 2q-49 3 -82 18q8 10 16 16q17 29 34 44l2 6l6 4q2 3 4 4q10 14 22 22q5 7 12 10q8 10 16 16l6 2q2 3 4 4q2 2 4 2l2 4l4 2q2 2 4 2q20 17 34 26l26 14
q3 3 6 4q3 3 6 4l6 6l24 12l6 4q2 2 4 2l4 4q18 9 28 16l22 12l6 4l6 2l4 4l50 26l8 6l8 4l8 4q11 10 24 16l8 4l8 6l8 6l22 12l6 6q10 7 18 10l6 6l8 4q11 13 24 18l2 4l12 8q14 17 28 24q2 3 4 4q7 9 14 14l4 6l4 4l4 4l20 24q15 19 22 32l12 18q3 10 6 16l2 6l2 6l4 4
l2 4l2 6v6l2 6l10 26q0 5 2 8l4 22l2 6v6l2 10l2 16l4 32v16q1 19 -2 32v22l-2 8v6v6q-4 11 -4 20q-6 27 -8 44q-2 3 -2 6q-7 16 -8 30l-4 6v6l-2 6l-2 8l-4 6v6l-4 4v6q-2 2 -2 4l-2 6q-7 14 -10 24l-4 8l-2 6l-2 8q-2 2 -2 4l-16 32l-2 4l-12 30q-9 13 -14 24l-2 8
q-2 2 -2 4q-2 2 -2 4l-4 4l-2 4l-2 6l-12 24q-10 17 -14 30l-6 6l-2 8l-4 8l-4 8l-4 8l-4 8q-2 2 -2 4l-12 18l-4 12q-9 13 -12 22l-2 6l-2 6l-4 6l-2 6l-4 6l-2 4l-2 6l-2 6q-2 2 -2 4q-2 2 -2 4l-2 6q-10 18 -14 32q8 5 16 6l14 8l14 6l14 8h6l12 8q16 6 26 12l44 18l14 8
l10 4q3 2 6 2l6 4l14 6l36 18l14 6q8 5 16 6l4 4l8 2l4 4h6q18 12 34 16l12 8l14 6l8 2l4 4l4 2q15 5 24 10l24 12l14 4l12 8l44 18q6 4 12 6l14 8l12 4q7 4 14 6l4 4l8 2l6 4l8 2q2 2 4 2l12 8q16 5 26 12l14 6l14 6l6 4l6 2l4 2l12 4l6 4l6 2l14 8l36 16l12 4q8 6 16 8
l10 6l12 4q5 3 10 4l8 6l8 2l4 4h6l4 4l36 16l6 4l10 4l4 2l12 4l4 4h6q21 14 38 18l2 8l4 6l2 8l6 8l2 10l4 8q6 10 8 18l4 6l4 8l6 16l2 4q6 10 8 18l14 26q1 6 -4 6q-2 -2 -4 -2z" />
  </g>

</svg>
