<?xml version="1.0" standalone="no"?>
<!DOCTYPE svg PUBLIC "-//W3C//DTD SVG 1.1//EN" "http://www.w3.org/Graphics/SVG/1.1/DTD/svg11.dtd" >
<svg viewBox="0 -410 2048 2048">
  <g transform="matrix(1 0 0 -1 0 1638)">
   <path fill="currentColor"
d="M1302 1404q-2 -4 -5 -6q-2 -4 -4 -6q-7 -12 -12 -19l-4 -6l-4 -5q-1 -2 -2 -2l-2 -3l-4 -7q-6 -8 -9 -13l-4 -4l-2 -4l-3 -4l-3 -5l-3 -4l-2 -3l-13 -19l-3 -5l-2 -3l-3 -3q-1 -2 -2 -2l-1 -3l-2 -2l-1 -3l-5 -5q-6 -11 -12 -18l1 -13q1 -1 1 -2l1 -15l3 -33l1 -3v-7
l3 -25v-8q1 -3 1 -5v-5q1 -2 1 -3l1 -9v-8l1 -2l2 -28l1 -3v-7l1 -3v-6l1 -3l1 -20q1 -2 1 -3v-8q1 -4 1 -8q2 -12 2 -20l2 -21l1 -3l2 -29q2 -4 1 -8q1 -6 1 -11l1 -4v-8l1 -2l2 -28q2 -4 1 -12q3 -9 2 -17v-3q2 -7 2 -12v-8q2 -4 1 -8l3 -34l1 -4l1 -8v-7l1 -2l3 -40
q1 -2 1 -3l3 -38q2 -6 1 -11q1 -2 1 -3q0 -11 2 -19v-7q2 -10 2 -17l1 -9v-5l1 -2l2 -27q1 -6 1 -11l2 -17v-4l1 -2v-8l1 -3q0 -12 2 -20l2 -101l-1 -4v-19q-1 -6 -1 -10l-1 -9v-8l-1 -5l-1 -4l-1 -13q-2 -8 -2 -14l-1 -4l-2 -11l-1 -6q-3 -9 -4 -16q-5 -7 -12 -10l-6 -4
q-1 -2 -2 -2l-2 -2l-7 -4q-7 -6 -13 -10l-12 -7l-4 -2l-3 -3l-5 -2l-4 -2l-3 -3q-5 -3 -9 -4q-6 -5 -13 -7l-3 -3l-4 -1l-4 -3l-4 -1q-6 -4 -11 -6q-10 -6 -18 -8l-2 -2l-4 -1l-3 -2l-4 -1l-2 -2h-3q-9 -6 -17 -8l-5 -2l-4 -2l-3 -1l-4 -2l-5 -1l-3 -2l-5 -1l-5 -3h-3l-2 -2
h-3q-4 -3 -8 -3l-4 -2l-25 -9h-3q-2 -1 -3 -1q-1 -1 -3 -1l-16 -6l-17 -4q-1 -1 -3 -1q-1 -1 -2 -1l-16 -5l-18 -4q-7 -3 -12 -3l-6 -2l-8 -2h-3q-5 -3 -8 -3h-3l-25 -6l-15 -2q-2 -1 -3 -1l-5 -1l-3 -1h-3l-4 -1l-16 -3h-4q-1 -1 -2 -1h-3l-2 -1h-3h-3q-10 -3 -17 -3h-3
q-7 -2 -13 -2l-5 -1l-8 -1l-16 -2h-4l-18 -2h-4l-4 -1h-3l-18 -1l-4 -1h-17q-9 -2 -16 -1l-22 -1h-4h-4h-17h-3h-12h-3q-4 1 -8 1h-12h-5q-10 2 -17 1l-6 1h-3h-4q-10 2 -17 2h-3q-4 1 -8 1q-9 2 -16 2l-2 1q-7 0 -12 2h-6l-5 1l-6 1l-4 1l-5 1l-3 1h-4l-3 1l-3 1l-5 1l-3 1
l-11 2q-9 3 -16 4l-3 2q-5 1 -10 3q-10 2 -17 5l-4 2h-3q-8 5 -15 6l-3 2l-17 7l-11 5l-3 2l-3 1q-9 7 -16 9l-2 2q-2 1 -2 2q-4 1 -7 3q-5 4 -7 6q-10 5 -15 11q-7 3 -10 8q-12 8 -18 17l-2 1l-1 2l-6 5q-5 8 -10 12l-2 4l-2 2l-1 3l-3 2l-1 3q-4 5 -6 10q-4 4 -6 8l-1 3
q-3 5 -4 9q-5 8 -7 14l-1 4l-1 4l-2 3l-1 4l-1 3l-2 5v3l-1 4l-5 17q-15 82 11 150v3l1 3l1 3l1 3q3 11 6 18l1 4q1 6 2 10l1 3l1 3q2 11 5 20q7 36 -9 20l-1 -3l-2 -2l-4 -7l-1 -2q-3 -5 -5 -8l-7 -13q-2 -5 -4 -8l-6 -14l-2 -3q-1 -5 -3 -8l-2 -3q-4 -15 -10 -25
q-2 -10 -5 -17l-1 -3l-1 -2l-4 -14l-1 -3l-1 -5q-3 -11 -4 -18l-4 -12q0 -6 -2 -10l-1 -9l-2 -8l-1 -3l-1 -6v-3l-2 -8v-3l-3 -14v-4l-3 -18v-6q-2 -15 -2 -25l-1 -3v-68l1 -4v-7q1 -4 1 -8l1 -2v-3l2 -16q1 -2 1 -3l1 -7q4 -12 5 -21q3 -6 3 -10q1 -1 1 -3l5 -12l3 -11
q5 -8 7 -14q3 -6 4 -10q2 -1 2 -3l2 -4l2 -3l2 -3q3 -5 5 -9l3 -3l6 -11q2 -1 2 -2l2 -3q3 -3 5 -6q1 -1 1 -2q8 -6 12 -14q5 -3 7 -6l2 -2l6 -7l3 -2l3 -2l3 -3l8 -8l16 -11l9 -8l3 -2l3 -1l2 -2l2 -1l2 -1l18 -10h3l3 -2l8 -3l3 -1l18 -7h4l10 -4h4l3 -2h4l4 -1l5 -2l8 -1
l16 -4q8 -1 14 -2l5 -1l12 -2q9 0 14 -2h3l12 -2h6l4 -1l20 -1q6 -2 11 -1l3 -1q10 0 17 -1h5h3h4q15 -1 25 -1h3h7h14h3h18h13h4h17h3h12q5 0 8 1h3h13l4 1h13l4 1h11h3q2 1 3 1h3l20 2h4h4l4 1h4l4 1h4h4l4 1h5l4 1q5 0 8 1h4l3 1h3h4q4 2 8 1q4 2 8 1l7 2h7q3 1 6 1l4 1
h3l4 1h3q13 4 22 4q6 2 11 2l5 1l4 1h3l23 5l17 4l8 1l7 2l6 1l4 1q9 4 17 4q3 2 6 2l3 1l8 2l2 1l9 2l4 1q6 3 11 3q6 3 10 3l4 1q18 8 30 10q1 1 2 1l12 5l4 1l2 1l9 3q8 4 14 5q3 2 5 2l4 2q6 4 11 5q6 3 10 4q2 1 3 1q1 1 2 1q1 1 2 1l2 2l2 1l21 9l4 3l3 1q10 7 18 10
q5 4 10 6l3 3l4 2l3 2l3 2l3 1q11 11 21 15l3 3q5 7 11 11q9 12 16 18l4 5q4 7 9 11l2 4l3 3l3 4l2 4l14 19l3 7q4 4 6 9l3 5l3 5l2 4l2 2l2 4l10 17q3 8 7 13l1 4l6 11l4 7q1 5 3 8l8 15l1 -2l1 -3l1 -6l2 -8l2 -6q2 -5 3 -9q89 -255 340 -253q5 0 5 4v20v6v17v3v12v13v4
v17v3v12v11v5v13v4v17v3v12q-183 12 -245 167l-2 3l-1 4l-1 2l-1 3l-3 8q-3 8 -4 12l-1 2q-1 5 -3 9l-1 7l-2 6l-1 3l-1 4l-2 8l-1 4l-1 3v3q-2 6 -2 11q-3 9 -4 16l-1 6v4l-1 5v3l-2 8v3l-1 3q-1 15 -3 25v8l-1 4l-1 12v4l-1 7v3l-1 12l-1 4v6l-1 5v4v3l-1 3l-1 17v3
q-2 7 -2 12v7v3q-1 1 -1 2v8l-1 7l-1 6v6v3l-1 4v3v4q-1 1 -1 2l-2 23v6l-1 6q-1 10 -2 17v3v6q-2 4 -1 8l-2 20l-1 7v3v3l-1 6v6l-1 8l-1 8q0 5 -1 8v8l-1 8v3l-2 13v8l-1 3v3v5l-1 4v4v4l-1 2l-1 16v4l-1 3v8q-2 6 -1 10l-1 3v8q-2 9 -2 16l-1 16l-3 25q0 5 -1 8v8v3
q-1 1 -1 2l-1 20q-1 3 -1 5v3q-2 8 -1 13q-2 8 -2 14v3v4l-1 2v3q-1 11 -2 18v3q0 11 -2 19v7q-2 14 -2 22l-1 5v3l-1 7l-2 22v3v4l-1 2v4l-1 7v3v3l-1 6v6l-3 25v3v3l-2 16v6l-1 6v3l-1 7l-2 22v4v4q-3 11 -2 19l-2 17v7q-1 3 -1 6v4q-2 6 -1 11q-1 1 -1 2v4v3q-2 12 -2 20
h-1h1h-1zM844 1150l-18 -9l-4 -2l-3 -3l-2 -1q-5 -3 -9 -5q-5 -5 -10 -7q-6 -7 -12 -9l-3 -3l-7 -7l-8 -6l-2 -3l-3 -2l-3 -3l-2 -3l-3 -2q-3 -5 -7 -7q-5 -7 -10 -11l-2 -4l-3 -3l-3 -3l-2 -3l-1 -2l-2 -2q-6 -9 -11 -14l-4 -7l-4 -5q-3 -8 -8 -13l-1 -4l-6 -9l-1 -3l-2 -2
q-3 -9 -7 -14l-5 -11l-2 -3l-1 -3l-1 -3l-1 -2q-6 -11 -8 -19l-2 -5l-3 -5l-1 -4l-5 -14l-2 -3v-3l-2 -3q-2 -7 -4 -12q-3 -16 -8 -26v-19q3 -10 4 -17l2 -3q6 -11 12 -17l3 -1q7 -6 13 -9l3 -1l3 -2q13 -4 21 -8q23 -6 37 -19q1 -11 -1 -19l-1 -2q-6 -11 -12 -17l-2 -2
l-2 -1q-5 -6 -11 -10l-4 -2q-5 -5 -9 -7l-3 -1q-1 -2 -2 -2l-3 -1q-1 -2 -2 -2l-2 -1l-2 -1l-2 -2l-3 -1l-12 -7l-5 -2l-3 -1l-3 -2l-3 -1l-2 -2l-7 -2l-13 -7q139 -2 192 106q53 130 -55 169l-22 10q-10 6 -12 15l2 1l2 1q1 1 2 1q1 1 2 1q7 5 13 7q9 5 15 7l2 1l6 2l14 5
h3q9 4 17 4q8 2 13 2l7 1q37 74 30 147l-5 2z" />
  </g>

</svg>
