<?xml version="1.0" standalone="no"?>
<!DOCTYPE svg PUBLIC "-//W3C//DTD SVG 1.1//EN" "http://www.w3.org/Graphics/SVG/1.1/DTD/svg11.dtd" >
<svg viewBox="-306 -536 2048 2048">
  <g transform="matrix(1 0 0 -1 0 1638)">
   <path fill="currentColor"
d="M1498 1596l-22 -14l-8 -6q-14 -10 -24 -14l-6 -4q-8 -7 -818 -536q-12 -11 -24 -16q-4 -16 -10 -26l-4 -8q-4 -16 -10 -26q-9 -28 -18 -44l-6 -14q-2 -10 -6 -16l-2 -8l-4 -6q-5 -17 -12 -28l2 -10l4 -6l2 -10l4 -6l2 -8l2 -6l4 -6l2 -10q10 -16 14 -28l4 -14
q11 -17 14 -32l4 -8l4 -4l2 -8l4 -6q7 -19 14 -30l4 -14q12 -18 16 -32q7 -13 10 -22q6 -10 8 -18q8 -13 10 -22q14 -27 20 -46q12 -21 16 -38l4 -8l4 -8l4 -12l4 -12q11 -19 14 -36q8 -14 10 -26l4 -6v-6l4 -4v-6q11 -22 14 -40l4 -8l2 -10l2 -8l4 -8l2 -8l2 -8q2 -2 2 -4
l2 -4l2 -8l2 -4l4 -18q5 -12 6 -22q10 -23 12 -44q10 -21 10 -40q-90 -74 -190 -28q-116 56 -156 168q-32 4 -56 -26l-4 -4l-6 -2q-21 -25 -670 -562l-2 -4v-6l-2 -12l-22 -108q-6 -22 -6 -36l14 -4l612 512l6 6l48 44l4 4q8 8 16 12l2 4l4 2q7 10 14 16l6 -2
q59 -144 194 -184q126 -24 200 72q10 19 20 30l6 14l8 12l2 6q4 11 8 16q0 5 2 8l10 34l2 4l4 18l2 6v8l6 34v8v14v6q2 10 2 16v8v10l-2 10v20v8q-3 8 -2 16q-6 24 -6 40l-4 10l-2 10l-4 10l-4 10l-4 10v6l-6 14l-4 10l-12 34l-2 8l-2 6l-4 6v6q-2 3 -2 6q-7 12 -8 22l-6 12
l-2 4l-2 6q-11 27 -16 46l-6 12l-4 12q-2 3 -2 6q-10 17 -14 32l-6 12l-2 6q-5 14 -10 22l-2 4l-16 44q-10 16 -14 28l-4 8l-4 12q-4 6 -6 12l-8 14l-2 6q-7 14 -10 24l-4 8q-13 19 -18 36l-4 4l-2 8q-2 2 -2 4q-2 2 -2 4l-4 4l-2 4l-2 6l-12 24l12 8l18 10l6 6l770 502
l80 180l-14 6z" />
  </g>

</svg>
