<?xml version="1.0" standalone="no"?>
<!DOCTYPE svg PUBLIC "-//W3C//DTD SVG 1.1//EN" "http://www.w3.org/Graphics/SVG/1.1/DTD/svg11.dtd" >
<svg viewBox="-102 -410 2048 2048">
  <g transform="matrix(1 0 0 -1 0 1638)">
   <path fill="currentColor"
d="M219 1405l-5 -5q-4 -4 -6 -8q-1 -2 -2 -2l-1 -3l-2 -2l-1 -2l-2 -1l-1 -2q-1 -2 -2 -2l-1 -2l-10 -14l-4 -4l-2 -4l-2 -2l-6 -8q-3 -4 -6 -7l-3 -5l-9 -11l-2 -3l-3 -3l-1 -3l-2 -3l-3 -2l-1 -3l-2 -2l-2 -3l-6 -7l-4 -5q-4 -7 -8 -10v-6q1 -1 1 -2l2 -34l1 -4l1 -11v-7
l1 -3l1 -21q1 -4 2 -11l1 -11l1 -21l1 -4q1 -9 1 -16l1 -4v-7l2 -14v-7l1 -2v-3q1 -11 2 -18v-9l1 -4v-5q2 -6 1 -11q1 -4 1 -8v-3q2 -10 2 -18l3 -25v-7l1 -3v-7l3 -25v-7q2 -10 2 -18v-3q1 -3 2 -16l2 -20l1 -5v-6q1 -8 1 -14l1 -5l1 -9l2 -26l1 -4l2 -29q0 -1 1 -7l1 -8
q1 -8 1 -16q1 -1 1 -2v-8q2 -8 2 -15v-3q2 -14 2 -22l1 -8l1 -8v-3q2 -12 2 -20q1 -4 1 -12q1 -4 1 -8l1 -2l4 -49q2 -12 2 -20q0 -1 2 -17l1 -9v-5q2 -6 1 -10q2 -6 1 -10q2 -6 1 -11q1 -1 1 -3q0 -11 2 -19v-7q0 -1 1 -9l3 -32l1 -3v-6l2 -13v-7l3 -25v-8q1 -4 2 -16
l2 -21l1 -4v-3q1 -9 2 -16v-10q1 -1 1 -3v-7q1 -1 1 -2l2 -23q-102 -112 -319 -104v-175l105 1h8h20h3q1 1 2 1h3l17 3q6 3 12 3l4 2l3 1l8 2q6 0 10 4q1 1 2 1l2 2l3 1l9 4q10 7 18 10l6 4l1 2l11 7l3 3l3 2l2 2l3 2l2 1q8 9 15 13q5 7 10 10l1 2l9 10l3 2l2 3l1 2l3 3
q10 14 17 21q3 6 7 10l2 4q1 2 2 2l5 10l2 2l1 3l2 1q3 9 8 14l1 2q5 13 11 21q0 2 1 4l2 3l1 4l1 2q3 7 4 9l2 4q4 12 8 19l1 3q0 1 3 10l5 16l3 10l1 4l1 4l1 4l3 13l1 4l1 4v4l2 8q3 12 3 23q1 4 1 8l1 2l1 18v4v3v5v3v4v3v20l-2 25q-1 6 -1 10q-3 8 -2 15l-1 5v7l-1 7
q0 6 -1 10v9l-1 3v7q-1 8 -1 14l-1 3v4l-2 23v7q-2 12 -2 20l-1 7l-1 19l-1 5v4q0 5 -1 8v4v4l-1 4l-2 25v3l-2 22v5l-1 4v3v4v3l-1 3v3v4v3q-1 1 -1 2l-1 20l-1 8l-1 16l-1 5v4l-2 22v3l-1 11l-1 17l-1 2v3l-1 16v3q-2 13 -2 22l-1 4q0 6 -1 11v4q0 5 -1 8v3v4v3
q-2 12 -2 20q0 5 -1 8l-2 25v8l-1 2v4v3l-1 8v4l-2 17v3l-1 20q-2 4 -1 8v5q-2 6 -1 11l-1 2v4l-2 23v8q-1 2 -1 3l-1 20l-1 4v5v4q-1 3 -1 5v3l-1 8v4l-2 17l-1 22l-1 2v11q-1 1 -1 2v4v3v3q-1 1 -1 2v8l-1 7v7q-1 4 -1 8v4q-1 1 -1 2l-1 16v6q-1 2 -1 3v3l-2 20v4v4v3
q-1 1 -1 3v3v6q-1 1 -1 3v3l-2 20q0 8 -1 13v3l-1 11v3v4q-1 1 -1 2v8l-1 3q0 11 -2 18z" />
  </g>

</svg>
