<?xml version="1.0" standalone="no"?>
<!DOCTYPE svg PUBLIC "-//W3C//DTD SVG 1.1//EN" "http://www.w3.org/Graphics/SVG/1.1/DTD/svg11.dtd" >
<svg viewBox="0 -410 2048 2048">
  <g transform="matrix(1 0 0 -1 0 1638)">
   <path fill="currentColor"
d="M814 1557l-4 -6l-6 -6l-6 -6l-6 -8q-12 -16 -22 -24q-5 -11 -12 -16l-4 -6l-4 -6l-6 -4l-2 -4l-26 -30v-6q2 -3 2 -6v-8q6 -36 6 -58q3 -8 2 -16l2 -8l2 -14v-14q5 -20 4 -36q3 -8 2 -16l2 -4v-12l8 -76q2 -3 2 -6v-6l4 -32l2 -14q0 -12 2 -20l4 -40l2 -14q0 -10 2 -16
v-14q3 -8 2 -16q2 -7 2 -14l2 -16l2 -22q5 -20 4 -34l2 -8l2 -16v-14q5 -20 4 -36q5 -22 4 -38q5 -18 4 -32q4 -20 4 -34l2 -6v-10l2 -6l2 -18v-16l2 -6v-10l2 -6v-14q6 -26 4 -44l-10 -8q-28 -37 -66 -52l-2 -4l-4 -2l-12 -4l-22 -12l-22 -6l-6 -4l-8 -2l-6 -2l-10 -4
l-6 -2l-8 -2q-14 -6 -24 -6q-15 -7 -26 -10h-8l-28 -10h-8q-2 -2 -4 -2l-4 -2h-6q-15 -7 -30 -10l-8 -2l-8 -2l-8 -4l-8 -2q-16 -6 -28 -8q-12 -7 -22 -8l-6 -4l-6 -2l-6 -2l-6 -2l-6 -4l-6 -2l-14 -6q-11 -7 -20 -10l-6 -4l-6 -2l-6 -4l-20 -14l-22 -12q-2 -3 -4 -4
q-2 -2 -4 -2q-18 -20 -34 -28l-4 -6l-6 -4l-6 -6q-2 -3 -4 -4l-4 -6l-2 -4l-12 -10q-6 -11 -14 -18l-4 -6l-4 -8l-30 -46l-2 -6l-10 -22l-4 -6l-2 -6l-2 -6l-2 -6l-2 -6l-14 -30q-1 -11 -4 -20q-4 -19 -4 -32q3 -6 4 -12q11 -21 22 -34l4 -2q17 0 30 -4q16 -8 28 -10l6 -2
l4 -2l34 -10h8l8 -2l4 -2h6l4 -2l32 -4l10 -2h6l26 -2l6 -2h6l14 -2l44 -2h16h10h14h12h10h10h10h12h10h8h36h8h8h8h6h14h6q22 4 38 2l32 2h8h6q11 2 20 2h6h10l4 2h16l40 2l10 2h8h6h10h6q3 2 6 2h6h8q21 3 34 2l12 2h8l32 2h14q6 2 12 2h8q21 3 34 2l12 2h14l40 2
q23 3 40 2l6 2h8h14l36 2h8l44 2h10h6l22 2h8h6h40h6h36h6h62l6 10l2 4l20 26q6 14 12 22l4 6l4 6l12 16l2 6l4 6l4 6l4 4q2 3 4 4q8 17 18 28q-2 4 -4 4h-10h-6h-8l-14 2h-36h-28h-6h-10h-6h-8h-6h-40h-10h-8h-12h-6h-8h-6h-8q-2 -2 -4 -2h-6h-40h-14h-6q-24 -4 -40 -2h-14
q-12 -3 -22 -2h-28l-10 -2h-6h-26l-14 -2h-36q-6 -2 -12 -2q-20 1 -34 -2h-6h-24h-12q-22 -4 -38 -2l-14 -2h-16h-14l-40 -2h-14h-12l-6 -2h-8h-6h-14h-6h-6q-19 1 -32 -2h-10h-28h-10h-8h-36h-8h-8h-8h-34h-6h-24l-10 2h-6h-8h-6h-16l-40 2q-19 4 -32 2l-12 2l-28 2l-8 2
h-12q-19 4 -32 4l-10 2l-28 4l-6 2h-8l-6 2l-6 2h-6l-4 2q-22 -1 -36 2v6q80 84 176 112q30 15 56 18l14 6h6q6 3 12 4l18 6q459 91 398 504l-2 34v6l-2 6v6v8v6q-2 3 -2 6v6v6l-4 26v12q-2 16 -2 28l-2 12v6l-2 6l-2 34v6q-3 13 -2 24l-2 6v8v6l-2 6v6v8v6q-2 3 -2 6v6v6
l-4 26l-2 34v8q-6 36 -6 58l6 4q2 3 4 4l2 4l4 2l4 8l4 4l4 2q2 3 4 4l14 20l-4 12v6q-5 12 -6 22l-2 6v6q-5 12 -6 22l-2 12l-4 12l-6 28l-2 8l-6 28l-6 20v8q-5 12 -6 22q-8 36 -16 58z" />
  </g>

</svg>
