<?xml version="1.0" standalone="no"?>
<!DOCTYPE svg PUBLIC "-//W3C//DTD SVG 1.1//EN" "http://www.w3.org/Graphics/SVG/1.1/DTD/svg11.dtd" >
<svg viewBox="0 -410 2048 2048">
  <g transform="matrix(1 0 0 -1 0 1638)">
   <path fill="currentColor"
d="M824 1430q-2 -4 -5 -6q-2 -5 -4 -8q-6 -7 -9 -13l-2 -2q-1 -2 -2 -2q-5 -10 -11 -16l-3 -5l-3 -5l-4 -5l-2 -4l-5 -5q-6 -11 -12 -18l-2 -4l-8 -11l-2 -4l-3 -3l-2 -4l-2 -2l-2 -4q-6 -6 -8 -11l-2 -2l-4 -5q-5 -10 -11 -16v-8l1 -2l3 -37q1 -3 1 -6l1 -4v-8l1 -5v-6
q1 -1 1 -3v-5l1 -3v-5l1 -2v-3q0 -11 2 -18v-7q2 -10 2 -18q2 -6 1 -11q1 -2 1 -3v-5q2 -6 1 -11q1 -3 1 -5l1 -6q0 -11 2 -18q0 -5 1 -8l2 -25l1 -3v-8l1 -2l2 -28q1 -3 1 -5l1 -5l1 -17q2 -10 2 -18q3 -18 3 -29l1 -5q1 -8 1 -14l1 -4v-6q2 -9 2 -16l1 -4q0 -6 1 -11v-7
q1 -1 1 -3v-3l2 -16v-6q1 -4 1 -8l2 -11l4 -41q0 -5 1 -8l1 -8v-7l1 -3v-8q2 -8 2 -15l1 -12q1 -3 1 -9q2 -4 1 -11q1 -2 1 -3l1 -10l2 -20l1 -8q0 -5 1 -8l1 -16q3 -16 3 -25l1 -11l1 -8l2 -16l1 -8v-7q2 -10 2 -18q2 -4 1 -8l1 -3v-9q1 -2 1 -3v-6l1 -3v-7q2 -5 1 -9
q2 -8 2 -14l1 -8q0 -11 2 -18q0 -5 1 -8v-7l1 -4v-6l1 -3v-8q2 -8 2 -15l2 -20l4 -38l1 -2l1 -16q2 -12 2 -20l1 -3v-6l2 -13v-5q1 -6 1 -11q2 -4 1 -8l1 -2l1 -19q2 -7 2 -12v-3q1 -7 1 -12l1 -3l3 -36q2 -8 2 -14v-4q2 -10 2 -17l1 -10q2 -10 2 -17l1 -11l1 -11q1 -3 1 -5
l1 -5v-9q1 -1 1 -3v-5l1 -2l2 -28q-203 -217 -464 -130q-143 62 -192 193q-40 121 3 228v3l2 4l1 4l2 4l1 4l2 2v3l2 2l8 22q9 34 -6 29q-1 -2 -2 -2q-1 -2 -2 -2q-3 -4 -6 -7q-3 -5 -6 -8q-2 -6 -6 -10l-1 -3l-1 -2l-5 -11l-2 -2l-5 -15l-2 -2q-3 -10 -7 -15l-6 -15l-2 -4
l-1 -4l-2 -2l-1 -3l-1 -4l-1 -3l-3 -7l-3 -7l-3 -11l-5 -12l-1 -6l-1 -4l-1 -2l-2 -8l-2 -7l-3 -8q-1 -7 -3 -12v-4l-4 -16l-1 -7l-1 -3v-4l-2 -11l-2 -17q-1 -6 -1 -10l-1 -3q0 -8 -1 -14v-38q4 -201 146 -310l12 -10l4 -2l3 -1l2 -2l18 -11l4 -2l3 -1l11 -5l3 -2l4 -1
l2 -1l7 -3q8 -3 14 -6q3 0 4 -1l4 -1l3 -1l3 -1h3l2 -1l2 -1q7 -1 12 -3h4l3 -1l5 -1l2 -1h4l2 -1h3h3l3 -1q8 0 14 -2h5h14h13h4h4h4h11h10l3 1h8q8 2 15 2q6 2 11 2q14 4 23 5l8 2l4 2l10 2l16 6l3 1l9 2l3 2l10 3q7 5 14 6q1 1 2 1q8 5 15 7l4 2l4 2q6 3 10 6l4 1
q6 4 11 6q4 3 7 5l3 1l3 2l3 1q1 2 3 2l2 2l3 1q1 2 2 2l3 2l2 1l2 1l9 7l11 6q1 2 2 2l2 2l7 4q5 5 9 7l2 2l6 4q1 1 2 1q8 9 15 12l2 3l6 4q5 6 11 10q4 5 8 8l3 3l2 3l2 1l13 15l2 2l3 3l1 2l2 2l2 3l2 2l1 2l2 1l1 3q7 7 10 13l2 2q1 2 2 2q4 9 9 14q2 5 4 8l2 2l1 3
l8 12l1 3l6 12l5 10l2 4q4 6 5 11l6 11q1 5 3 8l2 3v3l1 2l1 2l1 3l5 11l1 4l2 4l1 5l1 4l2 3l1 4l1 4l1 3q2 5 3 8l1 5q2 6 3 11l2 3v4l2 3v4l1 4l1 2v3l3 13v5l1 4v4l1 2l1 16l1 4v3v4l2 25v5v3v13v31v14v3v5v3v3v3l-1 2v3v3v13l-1 4q0 6 -1 10q0 8 -1 14v3v4v3
q-2 12 -2 20l-1 7v3l-1 12l-1 4q0 9 -2 16l-1 17l-1 5v4l-1 2l-1 16l-1 2q0 11 -2 18v7l-1 4v5l-1 3l-1 13v4q-2 6 -1 11q-1 4 -1 8l-1 2l-1 19q-2 6 -1 11l-1 2v3l-1 7v3v3l-1 6v6q-2 10 -2 17l-1 13l-2 14v3v4l-1 2v3q0 11 -2 18v8q-2 6 -1 11q-1 1 -1 2v3l-1 7v3v3l-1 6
v6l-1 2v8l-1 7v3l-2 13l-1 17l-1 6l-1 16l-1 3v3v4l-3 25l-2 25l-1 8q-1 7 -1 13q-2 12 -2 20q-2 12 -2 20l-1 3v6v4q-2 6 -2 10v3v3v4q-1 1 -1 2v3l-2 18v8q-2 6 -1 10q-1 2 -1 3v4v3q-1 2 -1 3v3v3l-2 13v8l-1 3v4v3q-2 4 -1 8v3l-1 2v8l-1 7v4q-3 11 -2 19l-1 7v4l-3 25
v3v3l-1 2v8l-1 7l-1 7q0 5 -1 8v7l-1 2v3v3v3q-1 7 -1 12q-1 1 -1 2v4l-2 17v6q-2 14 -2 22q-3 11 -2 20l-1 6v4q-2 6 -1 11q-1 1 -1 3v6l-1 3v8q-1 1 -1 2l-1 13v5q-2 6 -1 11q-2 6 -1 10q-1 2 -1 3v7l-1 3v3v3l-2 13v4v4l-1 2l-1 16q-1 8 -1 14l-1 4v5l-1 2v4l-2 23h-1h1
h-1z" />
  </g>

</svg>
