<?xml version="1.0" standalone="no"?>
<!DOCTYPE svg PUBLIC "-//W3C//DTD SVG 1.1//EN" "http://www.w3.org/Graphics/SVG/1.1/DTD/svg11.dtd" >
<svg viewBox="-102 -410 2048 2048">
  <g transform="matrix(1 0 0 -1 0 1638)">
   <path fill="currentColor"
d="M514 1375l-6 -6l-4 -6q-7 -14 -16 -22l-2 -6l-32 -44v-8l6 -50l2 -12l2 -42q3 -13 4 -22l2 -26q2 -22 4 -32l2 -34l2 -8v-14q5 -20 4 -36l2 -14l2 -22q2 -6 2 -12l2 -10l2 -12v-6l6 -50l2 -8l2 -12l2 -8l2 -22q2 -4 2 -14q1 -2 2 -6l2 -12l2 -12l4 -16l4 -24l-6 -4l-4 -4
l-4 -4q-11 -6 -18 -14l-6 -2q-16 -18 -32 -26q-3 -3 -6 -4l-4 -6q-11 -7 -18 -14l-8 -4q-8 -8 -16 -12l-4 -4l-6 -4l-4 -4l-6 -2q-15 -14 -28 -20q-13 -11 -26 -16q-5 -6 -12 -10q-10 -5 -18 -8l-4 -4l-6 -4q-10 -5 -18 -8l-4 -4l-26 -10l-4 -4l-10 -2q-9 -6 -16 -8l-4 -2
h-6l-14 -6q-12 -2 -22 -6h-6q-40 -9 -70 -4l-4 -8q-7 -14 -14 -20q-4 -11 -6 -14l-8 -12l-6 -6q-5 -10 -14 -24l-4 -6l-2 -4l-4 -6q-12 -22 -24 -36l12 -8l14 -2l14 -6l16 -4l12 -4l14 -4q12 -3 16 -6l12 -2l12 -4l6 -2q24 -6 38 -12l14 -4h6q23 -9 38 -12l12 -4l6 -2l28 -8
l16 -4l6 -2l26 -10l28 -6l10 -4l10 -2l10 -4l4 -2h6q18 -8 32 -10q12 -5 22 -6q27 -11 46 -14q-15 -9 -28 -8l-10 -4h-10q-12 -5 -22 -6l-8 -2l-6 -2l-8 -2l-14 -2q-21 -7 -36 -8q-3 -2 -6 -2l-6 -2l-4 -2h-8q-27 -9 -46 -10q-11 -5 -20 -4q-11 -5 -20 -6h-8l-22 -4l-8 -2
l-26 -2l-8 -2q-15 -2 -26 -2l-8 -2h-12l-8 -2l-34 -2h-6h-6l-164 1v-162l110 -1h8h28l8 2h10l8 2h10h8l8 2h8q6 2 12 2l6 2h8q11 4 20 4q27 7 44 8q5 2 10 2l12 4l32 6l8 2q18 8 32 8q7 3 14 4q2 2 4 2q20 7 34 8l8 4l8 2l8 2l12 2q3 2 6 2l16 6h8q7 3 14 4q16 7 30 8
q18 8 32 8q18 7 32 10l16 2q3 2 6 2q12 4 22 4q18 7 34 8l32 6l18 2q16 5 28 6q12 0 20 2h8q11 3 20 2l6 2h8h6h6l6 2h8h6h8h36h8h26h6h8l16 -2q15 0 24 -2q22 -1 36 -4l6 10l4 6l4 6l6 10l6 6l4 6l2 6q8 13 14 20l8 12l2 6l4 4q11 21 22 34l-4 6h-6l-4 2h-8l-8 2l-38 8
l-14 4l-14 2l-12 4l-14 2l-16 4l-16 4q-23 4 -40 10l-14 2l-14 4h-6l-16 6q-14 2 -24 6l-14 2l-16 4l-16 4l-14 4l-16 4l-16 4l-8 2l-6 2l-6 2l-6 2l-14 4q-26 4 -44 12l-14 2l-16 4l-22 8l-14 2l-14 4l-10 4l-12 2q-17 6 -32 10l-8 2l-10 4l-8 2l-10 2l-10 4l-32 8l-8 4
l-6 2h-8l-4 2l-12 4l-6 2h-6l-4 2l-12 4l-24 6q12 10 24 14l8 6l20 14l6 2l6 6l8 4q3 3 6 4l4 6l6 2q7 9 16 12q11 14 24 20q5 7 12 10l12 10l20 16l18 16l6 2l2 4l6 2l2 4l4 2l14 8q23 18 46 24l2 -6q4 -2 4 -4l4 -4l2 -6l24 -28q50 -52 112 -62l2 4q69 56 98 128l4 10
q-66 127 -188 112l-2 16l-4 12v6l-2 6l-8 38v8l-2 4l-4 32l-2 6v6l-2 6v6l-2 4l-4 36l-2 6l-2 22l-2 6l-4 40q-2 6 -2 12l-2 6q-1 15 -4 26v12l-2 8v8q-2 3 -2 6v6l-2 6v6v6q-2 3 -2 6v6l-2 4v6l-4 30l4 4l4 2l2 4l4 2q12 18 26 28l-2 14q-3 6 -4 12q-3 4 -4 10l-2 8
q0 1 -4 10l-10 26v6l-4 6l-6 24q-2 3 -2 6q-8 19 -14 30q-6 -12 -12 -20z" />
  </g>

</svg>
