<?xml version="1.0" standalone="no"?>
<!DOCTYPE svg PUBLIC "-//W3C//DTD SVG 1.1//EN" "http://www.w3.org/Graphics/SVG/1.1/DTD/svg11.dtd" >
<svg viewBox="0 -410 2048 2048">
  <g transform="matrix(1 0 0 -1 0 1638)">
   <path fill="currentColor"
d="M1083 1420l-18 -28l-4 -10q-7 -10 -10 -16l-4 -8l-4 -4l-4 -6l-2 -6l-4 -6l-2 -6l-4 -6l-4 -4l-2 -4l-12 -22l-12 -18v-16l2 -8v-16l2 -8v-24l2 -8v-16l2 -8v-16l2 -4q0 -19 2 -32v-6q2 -23 2 -40l2 -8v-14q5 -31 4 -50l2 -6v-22l2 -6v-14q3 -21 2 -34q3 -8 2 -26l2 -6
v-22q2 -2 2 -4v-20l2 -12v-14q5 -27 4 -44l6 -88l2 -8q0 -11 2 -20v-24q6 -31 4 -52q2 -3 2 -6l2 -40l2 -10v-16l2 -10l2 -26v-22q3 -16 4 -26l2 -42l2 -10v-24l2 -8v-16l2 -4q0 -19 2 -32h-6l-4 -4h-6q-8 -5 -16 -6q-14 -6 -24 -8l-32 -4h-8h-6l-6 -2h-6h-16h-6l-6 2h-6h-6
h-14l-22 2l-4 -10l-4 -10l-2 -10l-4 -10l-2 -6l-2 -6q-11 -23 -16 -40l-2 -6l-2 -6q-5 -8 -6 -16l-2 -4l-14 -36l8 -12q14 -10 22 -18q20 -7 34 -16l10 -2l8 -2l6 -4l10 -2l8 -2l20 -4l6 -2l8 -2l50 -12l36 -8l6 -4h8q10 -5 16 -6l14 -6q23 -5 36 -10l2 -10l-4 -2
q-16 -13 -28 -18l-10 -2q-11 -8 -20 -12l-26 -10l-8 -4l-8 -4l-8 -2l-6 -4l-10 -2q-11 -7 -20 -10l-20 -8l-34 -12l-6 -2l-4 -2l-16 -4q-16 -9 -30 -10q-254 -99 -486 -28l-30 16q-181 101 -158 332q3 156 68 272q6 13 -2 20q-2 -4 -4 -4l-4 -6l-6 -4l-2 -6l-12 -14l-2 -4
l-20 -26q-137 -254 -102 -506q5 -12 6 -22l2 -8l4 -6l2 -8l18 -46q3 -2 4 -4l2 -4l4 -8q7 -9 10 -16l4 -4l2 -6q11 -9 16 -20l24 -22l2 -4q14 -10 22 -20q12 -5 20 -12l4 -4l6 -2l6 -4l4 -2l4 -4l6 -2l6 -2l6 -4q16 -6 26 -12q5 0 8 -2l22 -6l8 -2l16 -6h8l16 -4h6l6 -2
q16 -1 28 -4h10h6h8h10h10h6h6h6h6h14h8h6h6q13 3 24 2l10 2l8 2h6h8q3 2 6 2h6q11 4 22 6h8l6 2l28 6l6 2h6q19 8 36 10l8 2q3 2 6 2q3 2 6 2q8 5 16 6l24 8l8 2q3 2 6 2q11 7 22 8l4 4l8 2l46 18l4 4l24 8q11 7 20 10q15 11 30 14q12 10 24 14q13 8 22 10q12 10 22 12
q18 15 36 20q2 4 4 4l6 2l2 4l4 2q19 9 30 18l22 12l4 4l8 4l4 4l6 2l20 14l4 2q20 15 34 22l2 4l2 4q11 12 16 20l4 4q2 4 4 4q8 18 18 28l2 8l4 4l2 6l4 4l6 14l16 44q1 30 -6 50q-8 7 -12 14q-14 8 -22 16l-4 2q-16 5 -24 10l-8 2l-28 10h-6l-16 4l-10 4l-8 2l-6 2l-6 2
h-6l-6 2l-52 14q4 8 8 14l20 28l4 6l2 8q7 8 10 14l2 6l10 26l8 16q4 21 10 36v8l2 6v6l2 4v6q5 24 4 40l2 32v12v14q-1 27 2 44v22v10v6v8v6q-5 23 -2 40v6v8v6v6v20l-2 18v8v6v8l-2 32v8v6v6q-3 13 -2 24v6q-3 23 -2 40q-3 8 -2 16l-2 12v26l-2 8v6v8v6q-2 2 -2 4l-2 40
q-3 16 -2 28q-2 5 -2 10v10q-4 19 -4 32v10q-3 12 -2 22l-2 6v6v6q-4 24 -4 40l6 4l12 10q16 18 30 26v6l-4 12l-2 10q-5 8 -6 16l-2 4l-10 42l-4 8l-8 34l-4 10l-2 8l-10 32v6q-6 12 -6 22q-3 6 -4 12q-10 26 -12 44h-4h4h-4z" />
  </g>

</svg>
