<?xml version="1.0" standalone="no"?>
<!DOCTYPE svg PUBLIC "-//W3C//DTD SVG 1.1//EN" "http://www.w3.org/Graphics/SVG/1.1/DTD/svg11.dtd" >
<svg viewBox="0 -410 2048 2048">
  <g transform="matrix(1 0 0 -1 0 1638)">
   <path fill="currentColor"
d="M816 1308l-8 -12l-4 -12l-12 -8l-16 -28l-48 -68l8 -100l4 -12q0 -20 4 -32l4 -64l4 -16l4 -64l4 -12v-28l20 -192q9 -47 8 -80l4 -28l4 -20l4 -60l4 -52q8 -28 8 -48v-12q4 -28 4 -48q6 -24 4 -44q4 -14 4 -28l4 -16q-1 -23 4 -40v-28l4 -12v-32q9 -31 8 -60
q-114 -115 -256 -148q-222 -22 -348 132q-119 176 -24 356l-4 36q-18 -12 -28 -24q-194 -373 64 -624l8 -4l12 -4l8 -8l12 -4l8 -4q35 -19 60 -28q425 -44 568 372q108 -83 224 -88v16v12v20v12v16v12v80q-97 15 -152 80l-4 12q-17 22 -20 40q-21 35 -28 68q-6 25 -8 44
q-5 4 -4 8l-16 80v12v12q-6 24 -4 44q-7 23 -8 40v20l-4 16v24q-6 24 -4 44l-4 16v12l-4 12v12q-2 38 -8 64v12l-8 80v20l-8 52v16v20l-4 16v24q-4 6 -4 12v20l-4 16v12v16l-4 16l-4 48v16q-9 41 -8 72q-2 11 -12 12z" />
  </g>

</svg>
