<?xml version="1.0" standalone="no"?>
<!DOCTYPE svg PUBLIC "-//W3C//DTD SVG 1.1//EN" "http://www.w3.org/Graphics/SVG/1.1/DTD/svg11.dtd" >
<svg viewBox="-10 -410 2048 2048">
  <g transform="matrix(1 0 0 -1 0 1638)">
   <path fill="currentColor"
d="M871 1418l-2 -2q-5 -11 -11 -17l-1 -3l-2 -2l-4 -6q-5 -9 -10 -15l-2 -5l-2 -3l-10 -13l-1 -2l-1 -3l-10 -15l-3 -3q-2 -6 -5 -10l-3 -3l-1 -3l-2 -3l-2 -2q-1 -2 -2 -2l-1 -4l-3 -4l-2 -2l-1 -3l-2 -3l-2 -2q-1 -2 -2 -2q-4 -9 -9 -14l2 -19l1 -6l1 -12l1 -6l1 -5l3 -28
l1 -11l3 -25l1 -5v-4q1 -2 1 -3v-3q2 -4 1 -8l1 -3l2 -20l3 -16l1 -10v-4l4 -22v-4l1 -7v-3q3 -8 2 -15q2 -7 2 -13l1 -6l1 -5l1 -7l2 -20q1 -3 1 -8q1 -1 1 -2v-3q2 -11 2 -18q1 -3 1 -5l1 -3v-7q2 -4 1 -8l1 -2q0 -11 2 -18l1 -16q1 -2 1 -7l6 -65q0 -6 1 -10v-10
q0 -5 1 -8q0 -12 1 -20v-16q1 -12 1 -20l1 -73q-2 -11 -1 -19v-25q0 -6 -1 -11v-29l-2 -4q-1 -7 -3 -11l-3 -10l-2 -3q-1 -5 -3 -10l-3 -11q-4 -9 -6 -16l-2 -3q-3 -12 -8 -19q-4 -13 -8 -21q-3 -5 -4 -9l-1 -2l-8 -15l-10 -22l-2 -1q-2 -7 -5 -11l-2 -4l-1 -2l-7 -11l-2 -5
l-2 -1q-3 -8 -7 -13l-8 -12q-5 -9 -9 -14l-2 -4l-2 -3l-2 -2q-2 -4 -5 -6l-2 -5l-3 -2l-2 -4l-3 -3l-2 -4l-6 -8l-16 -21l-3 -2q-3 -5 -6 -7l-1 -3l-2 -2l-2 -2l-2 -3l-16 -16l-2 -3l-1 -2l-2 -1q-5 -7 -10 -10q-3 -5 -6 -7l-2 -3l-2 -1l-14 -14l-3 -3l-2 -2l-2 -2l-6 -4
q-5 -7 -10 -10l-9 -8l-3 -3l-2 -2l-3 -1q-4 -6 -10 -8q-9 -10 -19 -15l-2 -3l-4 -2l-9 -8l-12 -7q-5 -5 -10 -7l-1 -2l-11 -7q-6 -5 -12 -7q-5 -5 -9 -7l-10 -5l-3 -2l-3 -2l-3 -2l-3 -2l-11 -6l-3 -1l-2 -2q-5 -3 -9 -4l-1 -2l-12 -5q-6 -4 -10 -5l-2 -2l-6 -2l-2 -2l-3 -1
l-12 -6l-13 -6l-4 -2l-4 -2l-5 -1l-4 -2l-2 -1l-3 -1l-12 -6l-5 -1l-3 -1l-3 -2l-3 -1l-4 -1q-4 -3 -8 -3l-7 -3l-4 -1q-14 -6 -24 -8q-1 -1 -3 -1l-4 -2l-25 -8l-7 -1l-6 -2l-12 -4h-4l-4 -2l-8 -1q-9 -3 -16 -4l-10 -3h-3l-13 -3h-4q-2 -1 -3 -1l-2 -1h-3l-13 -3h-5
q-6 -2 -10 -2l-4 -1h-3l-4 -1h-3q-4 -2 -8 -1q-1 -1 -2 -1h-3l-2 -1l-16 -1q-3 -1 -5 -1l-4 -1h-7l-4 -1h-4l-4 -1q-6 0 -11 -1h-4h-4q-17 -2 -28 -2q-2 -1 -2 -3l4 -2l3 -1q5 -1 8 -3l12 -4l13 -6l16 -5l14 -5l3 -1l8 -2l3 -1q9 -4 17 -5q8 -3 14 -4l3 -1l5 -1l8 -3
q7 -1 12 -3q11 -1 19 -4h4l3 -1h3l4 -1h3l3 -1h3l4 -1l18 -3h6l14 -2h5l6 -1h5h4h18h4h4h4h17h3h12q1 1 3 1h9q1 1 3 1q8 0 14 2h3h3l17 3l13 3h4l4 2h4l4 2h3q6 3 11 3l4 1l4 1q6 3 11 4l10 4l3 1l4 1q15 7 25 10q6 4 11 6q11 6 19 9q1 2 2 2l17 10l11 6l3 3l3 1q7 6 13 9
l3 2q1 2 3 2q1 2 2 2l2 2l6 4q1 1 2 1q8 9 15 12l4 5l4 3l12 11l3 3l4 2l4 4l3 4l2 1q1 2 2 2q8 10 15 15l1 3l6 5l1 2q7 8 12 12l3 5l11 12q2 4 5 6q5 9 11 14q5 9 10 15l2 3l2 3l4 4l3 4l1 3l6 7l1 3l1 2l2 3l2 2q1 2 2 2q4 9 9 14l2 3l7 13l2 2l2 3l1 3l2 3q1 2 2 2
q5 13 12 21q3 8 6 13l2 4l3 4l1 3l2 3l3 7q3 5 5 8l5 11l9 16v3l2 2q3 8 5 12l5 10l2 6l2 2l9 22l1 2q3 7 6 12l6 17l3 5l1 4l3 8q4 9 6 16l2 4l2 5l1 4l2 4l1 3l5 13l2 5l5 16q3 6 4 11l1 3q2 5 3 8l4 12l2 -7q0 -12 1 -20l2 -37l1 -3v-7l1 -2l1 -16l1 -8l2 -16q1 -5 1 -10
q1 -4 1 -7q3 -11 3 -19l2 -5v-5q3 -9 3 -16l1 -3v-3q1 -1 1 -2v-3q3 -7 3 -13q2 -4 2 -7q3 -8 3 -14q1 -1 1 -3q1 -1 1 -2l2 -8l3 -8l4 -17l2 -4l1 -4q3 -7 4 -12q2 -3 2 -5l7 -16l1 -3l1 -2l1 -4l2 -4l1 -3q3 -4 4 -8l1 -3q7 -9 9 -18l3 -3l1 -3l6 -11l2 -4l3 -3l1 -3l3 -3
l1 -3l3 -3l1 -3q2 -1 2 -2q4 -4 5 -8q8 -8 12 -14q93 -103 221 -101v8v3v3v31v17v3v12v4v3v20v4v3v18v13v4v17v3v12h-17l-3 1h-7l-6 1l-4 1l-8 2h-3l-8 2l-3 1q-9 4 -16 6l-8 5l-2 1l-2 1l-3 1l-3 2l-6 4q-7 4 -12 8l-2 2l-14 11l-5 5l-5 6l-1 2q-9 8 -14 17q-2 1 -2 2
q-5 6 -7 11l-2 1l-1 3q-1 1 -1 2q-7 7 -9 15l-2 2l-5 10q-3 5 -4 9l-4 6v3q-6 8 -7 16q-6 11 -8 20l-2 3v3q-1 2 -1 3q-1 1 -1 3q-4 7 -5 12v3q-4 9 -5 17l-2 3v4l-2 3v4q-1 2 -1 3l-2 8q-3 7 -3 12l-1 3l-1 2v3l-2 8l-1 2v4q-4 12 -3 22q-1 1 -1 2v8q-2 8 -2 15l-1 7v3v3
l-1 6v6q-2 6 -1 11l-1 2v3l-1 7v3v3l-1 6v6l-1 4v3v4l-1 2v4l-1 7v3v3l-1 6v6l-1 3v4l-1 4v11l-1 4v3v3q-1 2 -1 3v3l-2 20l-1 13l-1 2q0 7 -1 12l-1 16v3q-2 6 -2 11v10q-1 1 -1 3v4v3q-1 1 -1 3v3v3l-2 13v8q-2 6 -1 11q-1 1 -1 2v3l-1 7v3v3l-1 6v6q-3 13 -2 22l-1 4
l-1 10v3v3l-1 3v3v3l-1 3l-1 20q-1 3 -1 6l-1 6v6l-1 6v7q-3 9 -2 17l-1 4l-1 17l-1 3v6v4q-1 3 -1 6v3l-1 7v4l-3 25q0 5 -1 8v3v3v3q-1 4 -1 8v3q-2 10 -2 18l-1 6l-1 16q-2 8 -2 14v3v4l-3 23l-1 16v3q-1 2 -1 3q0 11 -2 19v3l-2 22l-2 17v8q-1 4 -1 7l-1 8l-1 7v8l-1 3
v4v3q-2 4 -1 8v3l-1 2v8l-1 7v4q-2 6 -1 10q-2 8 -2 14v3v4q-1 1 -1 2v3l-2 18v7l-1 4v4l-1 5v4v4l-1 2v8l-1 7v4l-1 3v3v3q-2 12 -2 20h-3zM257 1308l-2 -3l-2 -3q0 -3 -1 -4l-2 -3q-4 -11 -8 -18q-2 -8 -5 -12l-2 -5v-3q-3 -6 -4 -11q-5 -11 -7 -20l-2 -5l-2 -5v-3
q-3 -6 -4 -11l-1 -3l-1 -3l-1 -7l-3 -10l-2 -9l-1 -8l-1 -3q-1 -8 -3 -13l1 -10l1 -25q1 -2 1 -3v-7q1 -2 1 -3l2 -20q2 -6 2 -12q2 -6 2 -11q4 -12 5 -21q40 -146 180 -128l2 -4q4 -7 6 -13l2 -4l3 -4l3 -5l1 -4l3 -5l4 -9l2 -4l2 -3q2 -6 5 -10l1 -4l2 -3l1 -3l1 -2
q4 -10 7 -15l1 -4l2 -3l1 -2v-3q5 -8 7 -15l2 -6l2 -5l2 -6q4 -7 6 -13l1 -5q2 -3 2 -5l1 -4q4 -6 4 -11l2 -3l1 -4q1 -5 3 -8v-3q1 -1 1 -2l6 -16l4 -17l2 -3v-3q4 -8 4 -15l2 -3v-4l2 -3v-3q4 -10 4 -17q1 -1 1 -3l1 -3l1 -4l1 -3l1 -3l1 -7l6 -25l2 -14l3 -13l1 -5l1 -10
q4 -14 4 -24l1 -2l1 -5l1 -12l2 -15l1 -3v-8q2 -8 2 -15l1 -5l1 -12l1 -19l1 -4v-5l1 -3v-8q0 -6 1 -11l1 -39l1 -2v-82q0 -9 -1 -16v-22q-1 -6 -1 -10q0 -8 -1 -14v-7l-2 -23l4 2l2 5l3 5l2 5q3 10 7 16q2 8 5 13l1 4l3 5q2 8 5 13q0 3 1 4l2 6l1 3l2 5l1 5l2 5q2 5 3 8
l1 3l1 3v3l1 3l5 13v3l1 3l4 16l1 5l2 5v4l1 2l1 3v3l2 8l2 7l1 5l1 5l1 5v5l1 4l1 2q1 10 2 16v3l1 7l1 5l1 5v6l1 3v4l1 3l1 7q0 13 2 22v7q0 8 1 12v10v5q2 9 1 16v5v6v13v5v4v5v6v14q-1 3 -1 5v4v12q-3 16 -2 26q-1 3 -1 5v5l-1 3q0 5 -1 8q0 9 -2 16v5l-2 16
q-2 8 -2 13l-2 7v4q-3 10 -3 17l-1 6l-2 5v5q-4 10 -4 18q-3 7 -3 13q-4 9 -4 16q-2 3 -2 6l-2 5v4q-5 13 -7 22l-2 6v3q-5 10 -6 18l-2 4l-1 4l-2 5l-2 8q-4 6 -5 11l-2 8q-7 13 -9 23l-2 3l-2 5l-1 4l-2 4l-2 6q-3 4 -4 8l-2 3l-1 4l-2 3l-4 10l-4 7l-1 3q-5 9 -7 16
q-2 1 -2 2l-1 3q-1 1 -1 2q-5 7 -7 12l-1 2l-2 6q-6 8 -8 15l-2 1l-4 7l-5 10l-1 3q-2 1 -2 3l-3 4l-2 4l-2 2l-2 3l-1 3q-10 14 -14 23q-2 1 -2 3q-2 1 -2 3q-2 1 -2 3q-2 1 -2 3q-2 1 -2 2l-2 2q-5 10 -11 16l-5 9q-5 5 -7 10q-2 1 -2 2l-2 2l-2 2l-1 3l-2 1l-11 16l-3 3
l-2 4l-4 3l-2 4l-2 1l-1 2l-2 2l-1 3q-6 5 -9 10q-1 1 -1 2q-2 1 -2 2l-2 1l-1 3q-6 4 -9 9l-3 4l-4 4l-2 2l-8 10l-4 3l-2 2q-4 6 -8 10l-5 4l-2 3l-3 2q-9 12 -17 18l-2 3l-4 3l-3 2l-2 2l-3 3l-2 3l-3 2l-2 2l-2 2q-4 4 -7 6q-5 6 -10 9z" />
  </g>

</svg>
