<?xml version="1.0" standalone="no"?>
<!DOCTYPE svg PUBLIC "-//W3C//DTD SVG 1.1//EN" "http://www.w3.org/Graphics/SVG/1.1/DTD/svg11.dtd" >
<svg viewBox="-130 -410 2048 2048">
  <g transform="matrix(1 0 0 -1 0 1638)">
   <path fill="currentColor"
d="M657 1493q-5 -12 -11 -19l-3 -6l-3 -6l-4 -5l-1 -2l-7 -14l-3 -5l-10 -15q-6 -14 -12 -22l-6 -11q-1 -3 -5 -8l-8 -14l-16 -26v-3l2 -7l2 -17q2 -8 2 -15q3 -10 3 -17l1 -6v-3l2 -7l1 -10q1 -5 1 -9l1 -4l4 -25l1 -3l1 -11l1 -8q2 -4 1 -8q1 -1 1 -3l1 -3l1 -14
q2 -7 2 -13q1 -3 1 -6l3 -17l1 -7l1 -11l1 -6l1 -6l2 -17q1 -8 1 -9q1 -1 1 -3l1 -5l2 -18l1 -6l2 -20l1 -4v-6q1 -4 1 -8l2 -11v-7q1 -2 1 -5l1 -8v-6q1 -4 1 -8l2 -11v-7l1 -3l5 -71q2 -8 1 -14l1 -5v-14q2 -6 1 -11v-7l1 -3l1 -32q-181 -168 -409 -180q-8 -2 -14 -2h-14
l-5 -1h-4h-3h-18h-13h-4h-17h-3h-12q-1 -5 -3 -8l-2 -3l-1 -3l-2 -2q-3 -10 -7 -15l-3 -6l-2 -3l-3 -7l-9 -18l-3 -5l-2 -6l-2 -4l-2 -4l-8 -14l-1 -4l-2 -4l-2 -4l-6 -11l-4 -7q-1 -5 -3 -8l-2 -3l-1 -2l-1 -2l-1 -2l-1 -3l-9 -16l1 -3h3l17 -6l2 -1l12 -4l3 -1l10 -3l3 -1
l7 -3l16 -5l22 -8l7 -3h3q11 -5 19 -7l6 -3l6 -2l8 -2l7 -2l22 -9l26 -8l7 -3l6 -2l7 -3l8 -2l7 -3l7 -2q5 -2 8 -3l12 -4l7 -3l10 -4l5 -2l5 -1l2 -1q10 -3 16 -6q10 -2 17 -6l5 -1l6 -2q7 -4 13 -5l9 -4l3 -1l4 -1l3 -1l7 -3l2 -1l16 -5l2 -1q7 -3 16 -6l3 -2l2 -1l7 -2
l13 -5l3 -1l2 -1l12 -5q14 -6 19 -10q-9 -3 -16 -3l-3 -1l-8 -2l-16 -3q-6 -2 -11 -3l-5 -1l-4 -1q-8 -2 -10 -2l-4 -1q-5 -3 -8 -3h-3l-7 -2q-17 0 -22 -5q-1 -1 -2 -1l-8 -2l-7 -2l-5 -2l-5 -1l-6 -1l-4 -2h-4q-1 -1 -2 -1l-20 -5l-4 -1l-8 -2q-1 -1 -3 -1l-3 -1
q-15 -5 -25 -6l-4 -2l-17 -4q-11 0 -14 -3q-1 -1 -3 -1l-5 -1q-18 -6 -30 -7q-6 -2 -10 -2l-3 -1l-3 -1h-3l-2 -1h-3q-13 -4 -22 -4q-1 -1 -3 -1l-8 -1l-3 -1l-17 -3h-4q-15 -3 -25 -3l-4 -1h-4l-4 -1h-4l-13 -1l-11 -1h-4h-11q-2 -1 -3 -1h-5h-3h-3h-3h-17h-8l-137 4v-76
q-1 -12 -1 -20v-74l141 -3h4h3h5h3h4h3h20h4l4 1h4h3q11 0 18 2h3h7q2 1 13 2l8 1l8 2q7 1 12 2h4l23 4q8 2 13 3l2 1l9 2l7 1l6 1l4 1q3 1 11 3l4 1l12 3l4 1l3 1h3l7 3l9 2l4 1l23 7l6 1l5 2l5 1l4 2l7 1q16 0 23 7q1 1 3 1l3 2l4 1h3l3 2h3l3 2l3 1l7 1q13 6 23 7
q9 5 17 6q7 2 12 3q3 2 6 2q1 1 3 1q2 1 3 1l2 1q11 0 15 4q1 1 2 1l13 4l13 4l3 1q11 -1 16 4q1 1 2 1q14 5 23 6l4 2h3q4 2 8 3l4 1l4 1l6 1q6 3 11 3l8 2l8 2q1 1 2 1q11 3 19 4q8 3 12 4l7 1l6 1q10 3 18 4q8 2 14 3q6 2 11 2l3 1h4l8 2h3l8 2q4 1 10 1q1 1 3 1l3 1h3
q6 1 10 1q8 3 15 2q9 2 16 3h3q8 1 14 1q2 1 3 1q11 0 18 2h4h3l20 2h4h4h4l4 1h3h18l4 1h3h20h5h3h13h7l18 -1h10l16 -1h3h3q5 -1 8 -1h7l6 -1h5l3 -1h3h3q1 0 8 -1l17 -2h4l4 -1h3l16 -3l4 7l3 7l4 7l1 3q5 9 8 16l9 16l2 5l1 2l6 12l2 5l2 4l8 14l1 4l2 4l2 4l6 11l4 7
q1 5 3 8l2 3l1 2l1 2l1 2l1 3l9 16q-2 4 -5 4l-11 2l-11 3l-3 1h-4l-2 1l-7 1l-14 3l-2 1l-7 1l-11 3h-4l-5 1l-3 1l-6 1l-3 1l-4 1l-3 1h-3l-3 1h-3l-2 1h-3l-8 2l-7 2l-6 1l-4 1l-6 1l-4 1h-4l-5 2h-4l-3 1l-14 3l-4 1l-4 1h-3l-4 1l-3 1q-6 0 -10 2l-9 2l-5 1l-17 3l-5 1
l-5 1q-3 1 -14 3l-6 1q-6 2 -11 3l-5 1l-4 1h-4l-4 1l-3 1l-4 1l-3 1l-7 1l-3 1h-3l-7 2l-9 2l-6 1l-3 1q-8 1 -14 3h-3l-3 1l-5 1l-3 1l-19 4l-5 2h-3q-14 3 -23 6h-3l-13 3l-3 1l-14 3l-5 2h-4l-3 1l-14 3l-5 2l-3 1l-10 2l-3 1l-3 1h-3l-4 1l-25 7l-5 1q-3 1 -11 3l-4 1
l-7 2q-6 2 -10 3l-15 5l-6 1l-17 6h-3l-3 1l-4 1l-7 3l-18 5l-4 1l-5 2l-6 2l-5 2l-5 1l-3 2l-5 1l-3 1l-3 1l-3 1l-13 5q-9 3 -10 4l-4 1l-17 6q6 6 17 11l2 1l6 2l4 3q6 4 14 7l5 4l5 2l5 3l8 4l2 2l2 1l2 2l2 1l17 9l6 4l3 3l5 2q7 6 13 9l4 3l4 3l4 3l9 5q5 5 10 7l1 2
l3 1l1 2l3 1q7 7 13 10l3 4l4 2l5 4l3 4l8 6l16 15l2 3l3 3l2 2l2 2l6 5q1 2 2 2q6 8 11 12l7 10l3 3l7 9l2 3l3 3l3 4l3 5q3 5 6 8l2 5l2 3l5 6l1 3l2 3l1 3q2 2 5 8l7 12l1 5l1 4l5 17v5q1 3 3 11l1 4l1 4v4l1 3v3l1 4l1 4q1 15 4 25v8l1 4v5q1 6 1 10l1 3v8l1 3v7l1 11v3
v4v3l1 20v3v20v13v14v10q-1 8 -1 14v3v4v3q-2 12 -1 20q-1 4 -1 7v4v4l-1 4v4v4q-1 1 -1 2l-1 22q-2 8 -2 15q-1 7 -1 13l-1 4v4l-1 8l-1 2v7l-2 11v5l-1 4l-3 22l-1 4v4q-1 5 -1 10q-1 2 -1 3v3l-1 2l-1 12l-2 6l1 4l2 3l2 4q3 5 5 10l2 4l1 4l2 4l6 10l3 7l1 2l1 3l9 16
l-1 4q-5 15 -7 25l-5 16l-1 2q-2 11 -5 18l-1 6l-2 7l-1 2l-2 8l-2 7l-1 5q-4 9 -5 17q-3 7 -4 14q-3 6 -3 11q-3 7 -4 13l-1 3l-1 4l-1 3l-1 3q-5 15 -6 23l-3 3q-3 -8 -7 -12z" />
  </g>

</svg>
