<?xml version="1.0" standalone="no"?>
<!DOCTYPE svg PUBLIC "-//W3C//DTD SVG 1.1//EN" "http://www.w3.org/Graphics/SVG/1.1/DTD/svg11.dtd" >
<svg viewBox="0 -1378 2048 2048">
  <g transform="matrix(1 0 0 -1 0 1638)">
   <path fill="currentColor"
d="M698 1356l-6 -6q-7 -13 -14 -20l-2 -6l-6 -4l-8 -14l-4 -6l-2 -4l-4 -4q-12 -18 -22 -28l2 -40q3 -11 2 -22l2 -8l16 -216q4 -27 4 -44l2 -8l6 -96l2 -8v-18l2 -8v-16q2 -3 2 -6v-16q5 -27 4 -44l2 -10l2 -44q3 -8 2 -16l2 -18v-16q2 -3 2 -6v-18q2 -3 2 -6l4 -46
q-11 -8 -20 -12l-4 -4l-4 -2q-10 -6 -18 -8l-4 -4l-6 -2l-4 -4l-44 -20l-8 -4l-10 -4l-8 -2l-6 -2l-6 -4l-6 -2l-4 -2l-12 -4l-40 -16l-8 -4h-6l-4 -4h-6q-22 -12 -40 -16q-17 -11 -32 -14q-2 -2 -4 -2q-13 -9 -24 -14l-8 -2l-8 -4q-11 -9 -22 -12q-13 -12 -26 -16
q-3 -3 -6 -4l-6 -6l-6 -4q-12 -8 -20 -12q-9 -11 -20 -16q-15 -18 -30 -26l-16 -34l-6 -8l-4 -12l-4 -8l-4 -4l-14 -32l-10 -16l-6 -14l-12 -22q-6 -11 -8 -20l32 -2h8l4 -2q17 1 30 -2h6l62 -4q8 -3 16 -2l12 -2h6h10l10 -2h6h8q21 -3 34 -2l4 -2h20q10 -3 18 -2l16 -2h14
l36 -4l34 -2h6q12 -3 22 -2l8 -2h10l14 -2h8h14l8 -2q26 0 42 -4h6h6h10l6 -2l40 -2q-428 -196 -580 -588v-6l-4 -22q-5 -14 -6 -26l-10 -50v-6l-2 -14l-2 -6l-4 -34v-8q-2 -8 -2 -16l-2 -6l-2 -36v-118q3 -12 2 -22l2 -6l4 -40q2 -5 2 -10q5 -12 6 -22v-6l4 -8q1 -12 4 -20
l2 -8l2 -8q6 -11 8 -22q8 -14 10 -26q11 -15 14 -30q3 -3 4 -6l4 -6q7 -10 10 -18q8 -9 12 -16q8 -12 12 -20l6 -6l4 -4l4 -4l2 -6q17 -13 26 -28l4 -2q20 -15 30 -28q13 -7 20 -14l8 -4l6 -6l8 -4l6 -6l6 -2l6 -4l6 -2l4 -4l4 -2l4 -2l6 -2l32 -18q5 0 8 -2l6 -2l10 -4
l8 -4l6 -2q11 -4 20 -6l6 -2l8 -4q24 -6 38 -12q20 -2 34 -8h8l6 -2h6l8 -2l32 -6h10l26 -4h8l4 -2q15 0 24 -2l34 -2h8h22h10h6h8h6h40l8 2h6l16 4h6l16 4l24 4l10 2q16 6 28 6q2 2 4 2q27 8 44 10l6 4h8l26 10h8l6 4h6q3 2 6 2l8 4l16 4q2 2 4 2l18 8l18 4l6 4l4 2l12 4
l32 14l10 2l8 6l10 2l12 8l26 10l6 4l10 4l6 4q13 8 22 10q8 6 16 8q2 4 4 4l6 2l4 4l6 2l4 4l42 22q2 4 4 4l6 6l6 2l2 4l6 2l4 6l4 4l4 2l14 14q-3 19 -34 10q-11 -6 -24 -6l-32 -12l-36 -8l-14 -6h-6q-16 -6 -26 -8h-6q-10 -5 -16 -6l-18 -2q-16 -6 -28 -8h-6l-6 -2
l-6 -2l-10 -2h-10q-12 -5 -22 -6h-6l-6 -2h-8l-4 -2q-15 -1 -26 -4l-40 -4q-3 -2 -6 -2l-34 -4h-8l-34 -4h-6h-26l-8 -2h-6h-26h-8h-36q-16 -1 -28 2h-6h-8h-6q-11 0 -16 2h-8l-32 2l-10 2h-6l-16 4h-8l-8 2h-8l-8 2l-34 8h-6q-11 5 -24 6l-34 12h-6l-10 4l-6 2l-6 2l-8 2
l-14 6l-6 2q-14 8 -24 10l-6 4l-18 8l-22 12l-4 2q-10 7 -16 10l-34 22l-2 4l-38 28l-4 4l-16 18q-4 2 -4 4q-4 2 -4 4q-8 6 -12 14q-4 2 -4 4q-4 2 -4 4l-12 14l-4 8l-4 4l-4 6l-4 4l-2 4l-8 14q-9 18 -16 28l-2 6l-2 6l-8 16v6l-6 14l-2 6l-10 32v6l-4 16l-6 32v8v6v6
l-2 4v6v8v36v8l4 26v6v8l2 10l2 8v8l2 6v6q6 16 6 28l2 6l2 4l8 32q90 209 252 330l4 6l6 4l6 4q12 13 26 18q2 4 4 4l4 4l6 2q19 19 38 26q17 16 36 22q3 3 6 4q9 7 18 10l4 4l6 4l8 2l4 4l6 2q15 11 28 14q19 14 38 18l6 4l6 4l10 2l4 4l8 2l14 6l6 4l14 4q22 12 40 16
l8 4l8 4l10 2l26 10l10 2q14 8 26 8l8 4l26 8l20 6h6l8 4h6q26 11 46 12q3 2 6 2l6 2q12 4 22 4q18 8 34 8l4 12l6 6l2 8l4 4q6 16 10 24l6 6l4 10l8 18l2 4q7 10 10 16l4 6l4 12l8 12l12 26h-28h-26h-8h-36h-8h-8h-8h-34h-6h-24l-6 2h-6h-6h-14l-44 2h-16l-62 4h-6l-66 4
l-16 2h-6h-8h-6l-4 2h-24l-12 2h-16q-10 2 -16 2h-14l-14 2h-12l-12 2h-12l-14 2h-12l-12 2h-12h-14q-20 3 -34 2q-11 3 -20 2l-26 2q-16 -1 -28 2h-6h-8h-6l-40 2q6 4 12 6l10 6l10 4l24 10q3 2 6 2q21 13 36 18l8 4l8 2l8 6l8 2q13 8 22 10l8 4l26 14l14 6q11 7 20 10
q2 4 4 4l6 2q2 4 4 4l6 2q18 15 32 20q2 4 4 4l12 8l6 4l6 6l12 8l2 4l12 8l2 4l4 2q10 13 20 20l4 6l18 26l4 2q12 26 22 40q0 5 2 8l2 6q5 10 6 16l2 8l2 8l2 4l2 6q3 15 6 26l-2 14v14l-4 40v14l-2 6v8v6l-2 14v6q-1 23 -4 38v8v16q-2 2 -2 4q0 27 -4 46v6v8v6l-2 6v6v14
q-5 27 -4 44l-2 12l-2 38l-2 12v12l-4 34v20l-2 6v6v6v8q-2 7 -2 14q-3 21 -2 36l4 4l4 2l6 6l4 4q15 9 24 20q-3 6 -4 12l-4 8v6q-5 12 -6 22q-9 18 -10 34l-4 8l-10 34v6q-5 11 -6 20l-2 6l-4 16q-2 2 -2 4q-5 16 -10 26z" />
  </g>

</svg>
