<?xml version="1.0" standalone="no"?>
<!DOCTYPE svg PUBLIC "-//W3C//DTD SVG 1.1//EN" "http://www.w3.org/Graphics/SVG/1.1/DTD/svg11.dtd" >
<svg viewBox="-120 -410 2048 2048">
  <g transform="matrix(1 0 0 -1 0 1638)">
   <path fill="currentColor"
d="M418 1386l-4 -6l-4 -5q-6 -10 -12 -16q-4 -9 -10 -16l-4 -5v-3q-6 -7 -10 -13l-8 -11l-2 -4l-4 -4l-2 -4l-4 -4v-3l-2 -1q-2 -6 -6 -10l-2 -3l-2 -3l-2 -3l-2 -3l-2 -2l-2 -3l-2 -1q-4 -7 -8 -12v-5q1 -1 2 -3v-9v-8l2 -2l2 -28q2 -4 0 -8l2 -5v-7q2 -12 2 -20
q2 -8 0 -13q2 -1 2 -3v-8l2 -16v-4v-9q2 -6 2 -10v-3v-7q4 -13 2 -22l2 -2l2 -36l2 -3l4 -51v-7l2 -13v-7l2 -25q4 -9 2 -17l2 -4v-17l2 -3v-6v-4l6 -59v-3v-9l2 -3v-7l2 -25v-7q2 -1 2 -3v-7v-3v-6l2 -13q0 -6 2 -11v-11v-8q2 -4 2 -8q2 -12 2 -20v-3v-2v-8l2 -2v-16l2 -3
v-20q1 -2 2 -6l2 -25v-2l4 -50q2 -3 2 -5v-14l2 -73q-1 -4 -2 -9v-25v-4l-2 -17l-2 -8v-5v-3v-7l-2 -8v-4l-2 -6q-2 -6 -2 -11v-3l-4 -18q-86 -116 -502 -136l120 -172l154 1l6 1l4 1q6 3 10 3l8 2q8 4 14 5l4 2l2 1l4 1q2 2 8 4l8 3q4 4 10 5l2 3l4 1l4 3l8 4l4 4l4 2
q6 4 10 6l2 3l4 1q6 6 12 9q6 8 14 12l4 5l2 3l4 3l4 3l2 2l6 8l6 5l2 2l2 1q4 7 10 11v2l2 2l2 2q6 10 12 15l2 3q3 4 8 11l2 3l2 1l4 7l4 6l2 4l2 2l8 11l2 5l4 7l2 3l2 1l8 18l4 4l2 5l2 5l2 4l2 2l8 16l2 4l2 2v2l2 2v3l2 2v2l6 12q78 -289 354 -287v20v3v3v31v7v6v7v6
v5v6v4v18v11v4v4v4v4v17v3v12q-134 9 -208 102l-4 7l-2 2l-8 11v3q-2 1 -2 2l-2 1q-4 10 -8 15v4l-2 3l-2 3l-2 7q-5 6 -6 9v5q-6 11 -8 19l-2 3q0 6 -2 10v3q-1 1 -2 3v4l-2 2v3l-6 18v5v3l-2 8q-2 8 -2 12l-2 5l-2 13v5l-2 4v3v3v3l-2 3v3v3q0 11 -2 18l-2 17v6v3l-2 3v6
v4v3v8l-2 8l-2 16v8v11q-2 1 -2 2v4v4v2l-2 16v8v6l-2 4v6v4v6v3l-2 4v6v3v8l-2 2v13l-2 25l-2 8v8l-2 23q-1 7 -2 8v8v11l-2 2v3v3v3v12q-2 4 -2 8v5v3l-2 11v3v3v3v3v3l-2 3v20q-2 4 -2 8v3l-2 20q-2 4 0 8l-2 8v8q0 6 -2 10v4v3v3v2v8l-2 7v8v3v5q-2 1 -2 2v3v7v3v3l-2 6
v6v8v3l-2 8l-2 20v7v3v5l-2 4v3l-2 23v8v7q-2 2 -2 3q0 12 -2 20v19q-4 13 -2 22q-2 11 -2 19l-2 6v8v6v3q-2 12 -2 20l-2 7v7v2v3v3l-2 6v6q-2 12 -2 19v6v6l-2 6v3v4v2v4l-2 7v3v3v6v6q-2 8 -2 13v3v3v4l-2 4v7q0 13 -4 22q-4 -8 -12 -19z" />
  </g>

</svg>
