<?xml version="1.0" standalone="no"?>
<!DOCTYPE svg PUBLIC "-//W3C//DTD SVG 1.1//EN" "http://www.w3.org/Graphics/SVG/1.1/DTD/svg11.dtd" >
<svg viewBox="0 -410 2048 2048">
  <g transform="matrix(1 0 0 -1 0 1638)">
   <path fill="currentColor"
d="M72 1447l-4 -6q-4 -7 -8 -12l-1 -4l-3 -3l-2 -4l-2 -4l-2 -4l-2 -4l-10 -17l-2 -5l-1 -3q-4 -7 -6 -12l-2 -4l-2 -4l-2 -5l-2 -4l-2 -5l-2 -5l-2 -4l-1 -3l-1 -3l-1 -3l-1 -3q-2 -5 -3 -8l-1 -3l-7 -18v-26q1 -1 1 -3l3 -30v-3q2 -8 2 -13q3 -8 3 -15q3 -6 3 -11l1 -3
l1 -3l1 -4l8 -25q24 -58 72 -86l1 -2l2 -6l2 -4l1 -4l1 -2l2 -7q6 -12 8 -21l2 -2q4 -13 8 -21l2 -8q3 -4 3 -8l2 -2l7 -21q3 -4 3 -8l4 -7l2 -8q1 -2 1 -3l2 -2l3 -11l2 -2v-3l2 -2l1 -4l4 -11l1 -2l4 -9l1 -4l1 -2l4 -10l1 -3l7 -18q3 -8 5 -12v-3l2 -2q4 -13 8 -21l1 -3
l1 -4l2 -3v-3q1 -1 1 -3l2 -2v-3l7 -15l8 -22l3 -7l8 -22l1 -4l2 -2l1 -3l9 -25l2 -3l1 -4l9 -23l6 -17q5 -8 6 -15l9 -22l2 -7q1 -2 1 -3l2 -2l1 -3l1 -3l8 -23l2 -3l1 -3l1 -4l3 -7q2 -4 3 -8l3 -7l1 -4l2 -2q4 -13 8 -21l2 -5l4 -13l2 -3l4 -13l2 -3q3 -7 5 -12v-3l2 -2
q4 -13 8 -21l-1 -2q-5 -3 -7 -6l-2 -1l-3 -3l-4 -2q-5 -6 -10 -9q-9 -10 -17 -15l-4 -5l-16 -15l-3 -3l-4 -4q-6 -8 -11 -12l-6 -8l-3 -2q-9 -14 -18 -22l-2 -4l-3 -3l-2 -4l-3 -3l-7 -12l-3 -4l-8 -11l-1 -4l-2 -2l-2 -4l-2 -3l-2 -3l-1 -3l-2 -4l-2 -3l-2 -4l-2 -2l-1 -2
l-1 -2l-1 -3l-1 -2l-1 -2q-3 -8 -6 -12q-24 -86 -5 -163q1 -2 1 -3l2 -3v-3l2 -3l5 -13l4 -7l4 -7l6 -10q80 -95 204 -18l3 3q3 5 7 7l5 5l2 4l2 1q2 4 5 6q4 8 9 13l1 4l3 3l1 3l6 10q6 14 11 22q64 172 18 330l3 2l2 3l3 2q1 1 2 1l5 6l6 4q5 6 10 9l2 3l2 2l6 4l4 4l2 2
q5 5 9 7q4 6 9 8q4 5 8 8l6 6l3 1q6 8 12 11q8 9 16 14q3 4 6 6l6 6l2 2l3 1l1 2l2 1q5 6 11 10q1 2 3 2l3 4l3 2l2 3l3 1q3 5 6 7q7 4 10 9q5 3 9 8l5 4q5 5 9 7q4 6 9 8q3 5 6 7l3 1l5 6l2 2q8 6 13 11l4 3q3 4 7 6q3 5 7 6q5 7 10 10l6 5q6 7 12 10l2 3l4 3l1 2q5 3 8 6
q1 2 2 2q1 1 2 1q5 7 11 11l5 5l6 4l5 6l6 5l2 2l6 4q5 7 10 10l2 2l2 1q5 7 11 10l5 5l5 5l6 5l4 3l3 4l4 3l9 8l4 3l2 3l3 2q6 7 12 10q6 8 14 13l1 2l2 2l6 4q3 5 7 7q10 10 17 15l14 14l7 6l10 9l2 2q5 5 10 8l3 3l3 4q8 6 12 11l4 2l2 3l3 3l3 3l3 2l2 1q3 5 7 7l3 2
l5 5q9 10 17 15l2 3l6 8l2 2l2 2q7 7 10 12l2 2l2 2l1 2l8 10l2 2q1 2 2 2l1 3l2 2q1 2 2 2l2 3l13 25v11l-6 3h-3q-5 -2 -9 -2l-3 -2h-3q-4 -3 -9 -4q-10 -7 -18 -10q-7 -7 -14 -9q-1 -1 -2 -1q-4 -4 -7 -6l-4 -2l-3 -3l-3 -2l-2 -2l-2 -2l-22 -15q-1 -2 -3 -2q-1 -2 -3 -2
l-2 -3l-3 -1q-1 -2 -2 -2l-2 -2l-18 -13l-6 -4q-6 -6 -12 -9q-8 -8 -15 -11q-3 -4 -6 -6l-3 -1l-1 -2l-16 -11l-6 -5l-2 -2q-11 -7 -17 -13l-7 -4l-1 -2l-18 -13l-3 -2l-3 -3l-6 -5l-3 -1q-1 -2 -3 -2l-2 -3l-3 -1q-1 -2 -2 -2l-3 -2q-1 -2 -2 -2l-2 -2l-13 -10l-5 -4l-4 -3
l-4 -2q-7 -8 -14 -11l-3 -3l-3 -3l-4 -3l-2 -1l-2 -2l-6 -4l-2 -2l-3 -1l-2 -3l-3 -1l-2 -3l-3 -1q-1 -2 -2 -2l-3 -2q-10 -9 -17 -14q-6 -5 -10 -7q-5 -6 -10 -9l-5 -3q-5 -5 -9 -7l-3 -3l-2 -2l-7 -4q-4 -5 -9 -7q-7 -8 -14 -11l-1 -2l-2 -1q-1 -1 -2 -1q-6 -7 -12 -10
l-5 -4l-5 -5l-7 -4q-5 -5 -10 -8q-6 -7 -13 -10l-5 -4l-5 -5l-2 -2l-13 -10q-6 -5 -10 -7q-11 -11 -20 -16l-5 -4q-3 -4 -7 -6l-2 -1q-9 -10 -17 -14l-4 -3q-9 -10 -18 -14q-4 -6 -10 -8l-1 -2l-6 -4l-1 -2l-3 -1q-5 -5 -10 -8q-1 -2 -2 -2l-2 -2l-2 -1q-5 -6 -10 -8
q-7 -8 -15 -11v3q-6 12 -8 21l-2 2q-4 13 -8 21l-2 8q-1 2 -1 3l-2 2v3l-7 15l-1 3l-7 21l-2 2v3q-1 1 -1 2l-7 16l-1 5q-3 4 -3 8q-1 1 -1 2l-4 9l-4 10l-7 21l-4 7l-2 8q-3 5 -4 8v3q-4 6 -5 11l-1 2q-3 9 -6 15l-1 4l-1 4l-2 3q-3 8 -4 13q-5 8 -6 15q-1 2 -1 3l-2 2
l-3 11l-2 2v3l-2 2l-1 4l-4 11l-9 23l-1 4l-6 13l-1 5q-2 3 -2 5l-2 3l-4 13q-3 4 -3 8l-2 2v3l-2 3l-10 26l-8 23q-4 6 -5 12q-3 6 -4 11q-7 15 -10 26q-3 6 -4 11l-3 5l-4 13l-2 2v3q-3 5 -4 10q-1 2 -1 3l-2 3l-1 3l-7 18l-1 5q-2 3 -2 5l-2 3q-3 8 -5 12v3q-1 1 -1 3
l-2 2v3l-7 15l-1 5l-2 3v3l-2 2l-3 11l-2 2v3q-4 6 -5 12q-3 6 -4 11q-1 1 -1 2q-5 9 -6 16q-1 2 -1 3q-1 1 -1 3q-5 9 -7 16l-1 2l-1 3l-8 23q-3 4 -4 8l-2 7q-3 4 -3 8l-3 7l-3 7l-1 4q-1 1 -1 3l-2 3l-1 4q-8 18 -11 29q-2 3 -2 6q-2 3 -2 5l-3 5l-2 5l-2 5l-1 5l-2 6
l-2 4l-2 3l-3 11q-3 4 -4 9l-2 4l-1 4l-1 3q-3 6 -4 11q-1 2 -1 3l-2 2q-3 10 -7 17zM385 334l3 -7q5 -6 7 -11l1 -3l1 -3q1 -2 1 -3l2 -2l3 -7q9 -24 12 -39q3 -5 3 -11l2 -8l1 -2v-3q4 -13 4 -22q1 -1 1 -3l4 -23q-55 -67 -133 -52q-48 11 -54 55l2 1q4 8 9 13q2 6 5 9
l3 3l2 3l3 3l1 3l3 3l3 3l2 3l3 3l2 3l3 3l2 3l7 7q3 5 6 8l3 3l2 2l3 3q3 5 7 7l5 5q1 2 2 2q10 13 20 19l4 4l2 3l4 2q3 5 6 7q5 3 9 8q9 6 14 12q3 -2 5 -4z" />
  </g>

</svg>
