<?xml version="1.0" standalone="no"?>
<!DOCTYPE svg PUBLIC "-//W3C//DTD SVG 1.1//EN" "http://www.w3.org/Graphics/SVG/1.1/DTD/svg11.dtd" >
<svg viewBox="0 -608 2048 2048">
  <g transform="matrix(1 0 0 -1 0 1638)">
   <path fill="currentColor"
d="M1193 1400l-4 -10l-6 -12q-4 -16 -10 -26l-16 -44l-4 -8l-4 -8l-2 -8l-8 -16l-2 -6l-2 -4l-2 -8l-20 -44l2 -12v-6q3 -8 2 -16q4 -12 4 -22q4 -16 4 -28q2 -6 2 -16q2 -4 2 -14q7 -27 8 -44l2 -16l2 -16l2 -8v-8q2 -3 2 -6v-6l8 -44l2 -16l2 -8l2 -16l2 -20q3 -8 2 -16
l6 -26v-12l2 -6l2 -10v-6l4 -30q3 -8 2 -16q5 -11 4 -24q2 -6 2 -16q5 -15 4 -26q4 -12 4 -22l6 -30q0 -10 2 -16l2 -18l2 -8v-10q4 -15 4 -26l2 -8l2 -14l2 -14l6 -36l2 -12v-6l4 -26l2 -12l2 -10l2 -12q1 -17 4 -28v-10q6 -19 6 -34l4 -22l2 -18q0 -15 2 -34l2 -6
q1 -22 4 -36v-12q1 -48 -8 -78q-115 -125 -272 -124q-3 -2 -6 -2h-10l-4 -2h-6h-6q-18 -4 -30 -4l-4 -8l-2 -10l-4 -8l-2 -6l-2 -6l-2 -6l-10 -26q-3 -11 -8 -18q0 -5 -2 -8l-2 -6q-3 -11 -6 -16l-2 -6l-2 -4l-8 -32q10 -10 22 -14h8l10 -4l6 -2h6l6 -2l6 -2q23 -4 40 -10h6
l16 -4l50 -12h6l6 -2l6 -2l6 -2q10 -2 16 -6h6l6 -4h6l6 -2l6 -4l6 -2q10 -3 16 -6l4 -2l6 -2l4 -4q27 -10 42 -22l-6 -6l-22 -10l-4 -4l-6 -2l-4 -4l-20 -8l-4 -4l-36 -18l-14 -6l-14 -6l-24 -10l-8 -2l-4 -4h-6q-30 -16 -54 -20l-6 -4q-14 -4 -24 -8l-8 -2l-10 -2
q-12 -5 -22 -6l-8 -2q-3 -2 -6 -2q-36 -11 -58 -14l-8 -2l-38 -8h-12q-12 -4 -22 -4h-8q-19 -5 -34 -4q-15 -3 -26 -2q-19 -4 -32 -2q-289 -18 -388 174q-88 186 30 394q5 30 -20 34l-24 -16l-2 -6q-8 -15 -16 -24q-4 -12 -8 -20l-4 -2q-5 -16 -12 -24l-8 -20l-4 -6l-4 -8
l-10 -22l-4 -8l-2 -6l-14 -32l-6 -22l-4 -6l-2 -10l-4 -10l-2 -10l-2 -8l-2 -4l-4 -12q-3 -21 -8 -34v-8l-6 -38v-86q2 -3 2 -6v-8q8 -27 10 -46l4 -8l2 -8q6 -14 8 -24q7 -11 10 -20q3 -2 4 -4l12 -22l4 -4l2 -6q14 -15 20 -28l6 -6q8 -7 12 -14l6 -4l4 -4l12 -14l10 -10
q18 -10 28 -22l6 -2l4 -4q8 -3 14 -10q14 -5 22 -12q16 -5 24 -12l10 -2l6 -4l6 -2l6 -2q12 -4 20 -8h6l6 -2l4 -2q17 -3 28 -8h8q23 -6 38 -6l6 -2h8l10 -2h8h10h26h8h34h6h24q20 5 36 4q6 2 12 2l16 2q16 5 28 6h8q20 7 36 8q18 8 32 8l8 4l8 2l8 2l4 2l18 4q12 5 20 6
q3 2 6 2q12 7 24 8q11 7 22 8l8 4l8 2l4 4h6q21 12 38 16q5 3 10 4l8 6l10 2l4 4l6 2l44 22l12 4q6 4 12 6q2 2 4 2q13 9 24 14l10 4l10 6l24 14l22 12l4 2q8 7 16 10l6 2q10 9 18 14l8 2q3 3 6 4q17 15 32 20q20 19 40 26l4 6l6 4l4 6l4 4l4 4l4 4l6 4l6 6q2 4 4 4q2 4 4 4
q4 8 10 12q7 15 16 24l14 36q2 43 -20 74q-7 5 -12 10l-44 20q-10 6 -18 8l-6 4l-16 4l-4 4h-6l-6 2q-10 5 -16 6l-8 2l-6 2q-16 6 -28 8l4 6l6 6l6 4l4 4l4 2l2 4l12 8l2 4l4 2q7 10 14 16q62 66 78 146q80 -116 202 -136v12v62v28v6v10v6v8v6v40q-81 44 -120 116l-2 6
l-2 6l-4 4l-8 20l-4 6l-2 8l-4 6v6l-4 6l-4 16l-4 6q-3 13 -4 22q-8 18 -10 32l-2 16l-4 16l-2 16l-2 16l-6 34l-6 44v6l-4 14v10l-2 6v6l-4 32l-2 14q-5 16 -4 28q-2 5 -2 10l-2 6l-2 24l-2 6v6l-2 4l-4 36l-2 16q-3 8 -2 16q-2 3 -2 6l-4 24q0 10 -2 16v8l-2 4l-4 32l-2 8
v8q-4 16 -4 28l-2 4v6l-6 50q-2 3 -2 6l-6 34q0 10 -2 16v6l-6 40l-2 16l-6 38v8q-2 3 -2 6l-4 34l-2 6l-2 24l-4 12v14l-2 8l-2 8v10l-2 8q-2 11 -2 20q-4 16 -4 28l-2 8v8q-7 27 -8 44h-2h2h-2h-6z" />
  </g>

</svg>
