<?xml version="1.0" standalone="no"?>
<!DOCTYPE svg PUBLIC "-//W3C//DTD SVG 1.1//EN" "http://www.w3.org/Graphics/SVG/1.1/DTD/svg11.dtd" >
<svg viewBox="-94 -410 2048 2048">
  <g transform="matrix(1 0 0 -1 0 1638)">
   <path fill="currentColor"
d="M267 1386l-4 -6l-4 -5q-6 -10 -12 -16q-5 -9 -10 -16l-4 -5l-1 -3q-6 -7 -9 -13l-9 -11l-2 -4l-3 -4l-2 -4l-4 -4l-1 -3l-2 -1q-2 -6 -6 -10l-2 -3l-2 -3l-2 -3l-2 -3l-2 -2l-1 -3l-2 -1q-4 -7 -8 -12v-5q1 -2 1 -3l1 -9v-8q1 -1 1 -2l2 -28q2 -4 1 -8l1 -5v-7
q2 -12 2 -20q2 -8 1 -13q1 -1 1 -3q0 -5 1 -8l1 -16l1 -4v-9q2 -6 1 -10l1 -3v-7q3 -13 2 -22q1 -1 1 -2l3 -36l1 -3l4 -51q1 -3 1 -7l1 -13l1 -7l2 -25q3 -9 2 -17l1 -4l1 -17l1 -3v-6l1 -4l5 -59l1 -3v-9l1 -3v-7l3 -25v-7q1 -1 1 -3v-7l1 -3v-6l2 -13q0 -6 1 -11
q0 -6 1 -11v-8q1 -4 1 -8q2 -12 2 -20v-3q1 -1 1 -2v-8q1 -1 1 -2l1 -16l1 -3l1 -20q1 -2 1 -6l2 -25q1 -1 1 -2l4 -50q1 -3 1 -5q1 -7 1 -14l1 -73q-1 -4 -1 -9l-1 -25v-4l-2 -17l-1 -8v-5l-1 -3v-7l-2 -8v-4l-1 -6q-2 -6 -2 -11l-1 -3l-4 -18q-89 -116 -324 -133v-175
l97 1l6 1l4 1q6 3 10 3l7 2q8 4 15 5l3 2l3 1l4 1l8 4l7 3q5 4 10 5l3 3l4 1l3 3l9 4l4 4l4 2q6 4 10 6l2 3l3 1q6 6 12 9q6 8 14 12l4 5l3 3l3 3l4 3l3 2l6 8l6 5l1 2l2 1q5 7 10 11l1 2l1 2l2 2q7 10 13 15l1 3q3 4 8 11l2 3l2 1l4 7l4 6l3 4l1 2l8 11l3 5l4 7l1 3l2 1
l9 18l3 4l2 5l3 5l2 4l2 2l7 16l2 4l2 2l1 2l1 2l1 3l1 2l1 2l6 12q77 -289 354 -287v20v3v3v31v7v6v7v6v5v6v4v18v11v4v4v4v4v17v3v12q-134 9 -209 102l-4 7l-2 2l-7 11l-1 3q-1 1 -1 2l-2 1q-4 10 -8 15l-1 4l-2 3l-1 3l-3 7q-4 6 -5 9l-1 5q-6 11 -7 19l-2 3q-1 6 -3 10
v3l-1 3l-1 4l-1 2l-1 3l-5 18l-1 5v3l-2 8q-2 8 -2 12l-1 5l-3 13v5l-1 4v3q-1 1 -1 3v3l-1 3v3l-1 3q0 11 -2 18l-1 17l-1 6v3l-1 3v6v4q-1 1 -1 3v8l-1 8l-2 16l-1 8v11q-1 1 -1 2v4v4l-1 2l-1 16l-1 8v6l-1 4v6l-1 4v6v3l-1 4v6q-1 2 -1 3v8q-1 1 -1 2l-1 13l-2 25l-1 8
l-1 8l-2 23q-1 7 -1 8v8q-1 6 -1 11l-1 2v3v3v3q-1 7 -1 12q-1 4 -1 8l-1 5v3l-1 11v3v3q-1 1 -1 3v3v3l-1 3l-1 20q-1 4 -1 8l-1 3l-1 20q-2 4 -1 8l-1 8l-1 8q0 6 -1 10v4v3v3q-1 1 -1 2v8l-1 7l-1 8v3v5q-1 1 -1 2v3l-1 7v3v3l-1 6v6l-1 8v3l-1 8l-2 20l-1 7v3v5l-1 4v3
l-2 23l-1 8v7q-1 2 -1 3q0 12 -2 20l-1 19q-3 13 -2 22q-2 11 -2 19l-1 6q0 5 -1 8v6v3q-2 12 -2 20l-1 7v7q-1 1 -1 2v3v3l-1 6v6q-2 12 -2 19l-1 6v6l-1 6v3v4l-1 2v4l-1 7v3v3l-1 6v6q-2 8 -1 13q-1 2 -1 3v3v4l-1 4l-1 7q1 13 -3 22q-5 -8 -12 -19z" />
  </g>

</svg>
