<?xml version="1.0" standalone="no"?>
<!DOCTYPE svg PUBLIC "-//W3C//DTD SVG 1.1//EN" "http://www.w3.org/Graphics/SVG/1.1/DTD/svg11.dtd" >
<svg viewBox="0 -994 2048 2048">
  <g transform="matrix(1 0 0 -1 0 1638)">
   <path fill="currentColor"
d="M553 1380l-3 -7l-2 -3l-3 -7l-2 -3l-1 -2l-1 -3l-9 -16l-1 -2q-3 -9 -7 -14l-2 -5l-3 -6l-2 -3l-1 -2l-1 -3l-9 -16l-5 -11l-6 -11l-1 -3l-2 -3l-2 -3l-1 -3l-2 -3q-6 -13 -11 -21q0 -5 1 -8l1 -8l1 -4v-6q1 -3 1 -5q2 -8 2 -14q2 -6 2 -11l1 -7l1 -7l4 -22l1 -8l1 -4v-7
q3 -7 2 -13q1 -3 1 -5q2 -8 2 -14q2 -6 2 -11l1 -7l1 -7l4 -22l1 -8l1 -8l1 -8l2 -8l1 -13q2 -6 2 -12l1 -4l1 -4v-5q1 -2 1 -7q1 -2 1 -7q1 -2 1 -3l1 -7l3 -18l2 -16l1 -2v-6q3 -10 3 -17l1 -5l1 -11q1 -3 1 -5q2 -4 1 -8q2 -6 2 -12l1 -6l1 -4l1 -8l1 -5l1 -8l4 -25l1 -8
l4 -23v-4q2 -6 2 -11l1 -3v-6l1 -3v-3q2 -4 1 -8q2 -6 2 -12l2 -7v-6l1 -3v-3q2 -4 1 -8q2 -6 2 -12l1 -3v-4q1 -1 1 -3l1 -6v-3q2 -4 1 -8q2 -6 2 -12l1 -7l2 -7v-7l2 -7l1 -10q1 -5 1 -9q1 -3 1 -5l1 -7l1 -3l1 -6l1 -5v-3l2 -15l1 -7q2 -10 3 -16v-4q1 -3 1 -5l1 -5l1 -3
v-6l1 -3l1 -6l1 -5l2 -18l-3 -2q-3 -5 -6 -7l-3 -2l-2 -3l-9 -8l-2 -2l-2 -1l-1 -2l-2 -1q-1 -1 -2 -1q-6 -7 -12 -10l-3 -2q-4 -4 -7 -6l-3 -1q-1 -2 -2 -2q-4 -4 -8 -5l-6 -4l-2 -2q-8 -4 -13 -8l-4 -2l-4 -1l-4 -3q-7 -4 -11 -5q-6 -4 -11 -6l-3 -1l-2 -2l-4 -1
q-1 -1 -2 -1l-6 -4q-8 -2 -13 -6l-3 -1l-10 -4l-3 -2q-9 -4 -16 -6l-6 -4q-8 -3 -13 -6l-3 -1l-4 -1l-3 -2l-3 -2q-5 -1 -8 -3l-3 -1l-2 -2q-12 -5 -19 -10l-7 -3l-2 -2q-6 -2 -9 -5l-7 -3q-1 -1 -2 -1q-1 -2 -2 -2l-2 -1l-11 -8l-3 -1l-3 -2l-3 -2q-1 -2 -3 -2q-1 -2 -3 -2
q-8 -8 -15 -12q-1 -2 -3 -2l-2 -3q-8 -7 -13 -10l-2 -3l-3 -2q-1 -2 -2 -2l-3 -3l-2 -3q-12 -11 -18 -19q-111 -108 -129 -247q0 -6 -1 -10l-1 -13q0 -8 -1 -14v-73q1 -2 1 -3q0 -7 1 -12l1 -22q1 -4 1 -8q3 -12 4 -19l3 -17q2 -6 2 -11q1 -2 1 -3l1 -3l1 -5v-3q4 -13 4 -22
l2 -6v-4q1 -2 1 -3l4 -19v-3q2 -6 2 -11q1 -2 1 -3l4 -19l1 -10q1 -2 1 -3l1 -8q4 -11 4 -20l1 -2l1 -4v-4l6 -29l1 -8l2 -8q0 -5 1 -8l1 -5l1 -8l1 -4l1 -7l1 -3v-4q4 -15 5 -25l1 -8l2 -8v-3l1 -5l1 -3v-4l5 -23l3 -22l2 -7l1 -8l1 -8l2 -7l1 -7l1 -7l1 -8q4 -13 4 -22
l1 -8q1 -3 1 -5l1 -4l1 -8q3 -8 3 -15l1 -5l1 -4q0 -8 2 -13v-5q3 -9 3 -17l1 -2v-3l3 -16l1 -7l1 -6l1 -8l1 -6l2 -8q1 -11 3 -17l1 -7l1 -7l1 -7l1 -7l1 -5v-3q1 -2 1 -7q4 -13 4 -22l1 -7l1 -6l1 -5l1 -2l2 -18l1 -5l1 -7l1 -4l3 -20l1 -4l1 -8l3 -17v-4q2 -6 2 -11
q2 -24 12 -5l2 4l1 2l5 12l2 4q4 5 5 11l1 2l1 2l1 3l1 2q3 8 6 14q1 6 3 11l1 4l1 2l5 17v3l1 2l3 17q2 5 2 9l1 5l1 3v5l1 8l3 25v31v4v4v4v17l-1 4v3v3v5q-1 1 -1 3v3v4l-1 2v3v3q-2 9 -2 15l-1 7l-1 3v4q-4 15 -5 25l-4 18l-1 5l-1 7l-1 4q-1 10 -3 16v4q-2 6 -2 11
q-2 6 -2 10q-6 24 -7 39q-3 8 -3 14q-4 13 -4 22q-2 6 -2 11q-2 6 -2 10l-1 3l-1 4v4l-1 3q-3 15 -4 25q-1 1 -1 3l-1 2q-1 7 -2 12l-1 6l-1 6q-3 12 -3 20q-1 3 -1 5l-1 4l-2 11l-1 4v3l-1 3v4l-2 7v4q-2 6 -2 11l-2 6v6q-1 3 -1 6q-3 9 -3 17l-1 6l-1 4v3q-4 13 -4 22
l-1 3v3l-1 3v3v3q-1 1 -1 3v3l-1 2l-1 12l-2 6v7q-1 3 -1 6l-1 6q-2 9 -2 16q-1 3 -1 6l-1 6l-1 6l-1 6v4l-1 3v4l-2 10v3v3q-2 8 -2 15l-1 5v6q-1 3 -1 6l-1 6l-1 6v5l-1 6v5l-1 6v5l-1 6q-1 10 -1 17q-1 4 -1 8l-2 16v4v3l-1 10l-1 16v5v3l-1 4v3v4v3v3q-1 7 -1 12l3 1
l2 2l3 2l4 1l3 2l3 1q5 2 8 3l2 1l8 2q6 3 11 4h3l16 3h4l10 1h14h3h5l3 -1h4l23 -2q6 -2 11 -2l3 -1l2 -1q10 -1 18 -4q6 0 10 -2l3 -1l14 -3l22 -8l7 -1q13 -6 23 -7q65 62 68 143l-2 2l-2 3l-2 2q-3 5 -7 9l-4 7q-7 5 -10 12q-5 3 -7 6l-2 2l-1 2q-7 5 -10 10l-3 1l-1 2
l-2 1l-3 2q-7 6 -13 10q163 66 223 206l1 3q0 3 1 4l1 3l1 4q2 6 3 11l1 4l1 3l1 4l1 3l1 4v3l1 4v3l2 7l1 9v20v14v6v5v6v4v4v5v13v5v3v8q-1 12 -1 20l-1 5v10l-1 9v6l-1 6v5l-1 4v6q-2 10 -2 17v4q-2 10 -2 18q-2 8 -2 14l-1 4v5l-1 5v3q-1 2 -1 3v3l-1 3l-1 7l-3 22l-1 8
l-1 3v5q-5 18 -5 30l-2 7l-1 7v4q-1 2 -1 3v3q-2 6 -2 10l-4 22l-1 6l-1 7l-1 6l-1 7l-2 5v6q-1 3 -1 6q-1 3 -1 5q-1 3 -1 6q-1 3 -1 5l-1 6l-1 4l-2 10l-1 3l-1 11l-1 4l-1 5v4l-1 4l-5 25l-2 17l-1 6l-1 4l-1 5q0 8 -2 13v4l-1 4l-1 4v4l-1 3l-1 10q-1 5 -1 9l-1 4v3
q-1 1 -1 3l-1 7l-1 6l-2 20l6 5q4 5 8 8l2 3l3 2q1 2 2 2q1 2 2 2l1 2l3 2l5 5l1 2l2 1q5 7 10 10v4q-6 9 -7 18l-3 7l-3 7l-3 7l-1 4l-2 2l-1 5l-3 7l-1 3q-4 6 -5 12l-3 7l-2 6q-3 4 -3 8l-4 7l-8 22l-2 4l-1 5l-3 6l-2 4l-1 4l-2 4l-1 4l-2 4q-2 5 -3 8l-2 3v3q-1 1 -1 2
q-5 9 -7 16h-1h1h-1z" />
  </g>

</svg>
