<?xml version="1.0" standalone="no"?>
<!DOCTYPE svg PUBLIC "-//W3C//DTD SVG 1.1//EN" "http://www.w3.org/Graphics/SVG/1.1/DTD/svg11.dtd" >
<svg viewBox="-111 -410 2048 2048">
  <g transform="matrix(1 0 0 -1 0 1638)">
   <path fill="currentColor"
d="M362 1410l-4 -5q-5 -5 -6 -8l-2 -2l-2 -3l-2 -2v-2l-2 -1l-2 -2q0 -2 -2 -2v-2l-10 -14l-4 -4l-2 -4l-2 -2l-6 -8q-4 -4 -6 -7l-4 -5l-8 -11l-2 -3l-4 -3v-3l-2 -3l-4 -2v-3l-2 -2l-2 -3l-6 -7l-4 -5q-4 -7 -8 -10v-6v-2l2 -34l2 -4v-11v-7l2 -3v-21q2 -5 2 -11l2 -11
v-21l2 -4v-16l2 -4v-7l2 -14v-7v-2v-3q2 -11 2 -18v-9l2 -4v-5q2 -6 0 -11q2 -4 2 -8v-3q2 -10 2 -18l2 -25v-7l2 -3v-7l2 -25v-7q2 -10 2 -18v-3q1 -4 2 -16l2 -20l2 -5v-6v-14l2 -5v-9l2 -26l2 -4l2 -29v-7l2 -8v-16q2 -1 2 -2v-8q2 -8 2 -15v-3q2 -14 2 -22v-8l2 -8v-3
q2 -12 2 -20v-12q2 -4 2 -8v-2l4 -49q2 -12 2 -20q1 -2 2 -17l2 -9v-5q2 -6 0 -10q2 -6 2 -10q2 -6 0 -11q2 -1 2 -3q0 -11 2 -19v-7v-9l4 -32v-3v-6l2 -13v-7l4 -25v-8q0 -4 2 -16l2 -21v-4v-3q2 -9 2 -16v-10q2 -1 2 -3v-7v-2l2 -23q-101 -112 -471 -102l111 -176h146h8
h20h4q0 1 2 1h2l18 3q6 3 12 3l4 2l2 1l8 2q7 0 10 4l2 1l2 2l4 1l8 4q10 7 18 10l6 4l2 2l10 7l4 3l2 2l2 2l4 2l2 1q8 9 14 13q6 7 10 10l2 2l8 10l4 2l2 3v2l4 3q10 14 16 21q4 6 8 10l2 4q0 2 2 2q2 6 4 10l2 2l2 3l2 1q2 9 8 14v2q6 13 12 21v4l2 3l2 4v2q4 7 4 9l2 4
q4 12 8 19l2 3q0 1 2 10l6 16l2 10l2 4v4l2 4l2 13l2 4v4v4l2 8q4 12 4 23v8l2 2v18v4v3v5v3v4v3v20l-2 25v10q-4 8 -2 15l-2 5v7v7q0 6 -2 10v9v3v7q-2 8 -2 14v3v4l-2 23v7q-2 12 -2 20l-2 7v19l-2 5v4v8v4v4l-2 4l-2 25v3l-2 22v5v4v3v4v3l-2 3v3v4v3v2l-2 20v8l-2 16v5
v4l-2 22v3l-2 11v17l-2 2v3v16v3q-2 13 -2 22l-2 4v11v4q0 5 -2 8v3v4v3q-2 12 -2 20v8l-2 25v8l-2 2v4v3v8v4l-2 17v3l-2 20q-2 4 0 8v5q-2 6 -2 11v2v4l-2 23v8q-1 1 -2 3v20l-2 4v5v4v5v3l-2 8v4l-2 17v22l-2 2v11v2v4v3v3q-2 1 -2 2v8v7v7q-2 4 -2 8v4v2l-2 16v6v3v3
l-2 20v4v4v3q-2 1 -2 3v3v6v3v3l-2 20q0 8 -2 13v3v11v3v4q-2 1 -2 2v8v3q0 11 -2 18z" />
  </g>

</svg>
