<?xml version="1.0" standalone="no"?>
<!DOCTYPE svg PUBLIC "-//W3C//DTD SVG 1.1//EN" "http://www.w3.org/Graphics/SVG/1.1/DTD/svg11.dtd" >
<svg viewBox="-139 -410 2048 2048">
  <g transform="matrix(1 0 0 -1 0 1638)">
   <path fill="currentColor"
d="M632 1435l-6 -8l-4 -2q-5 -10 -12 -16l-4 -6l-4 -6l-18 -18l-2 -6l-4 -4l-4 -2q-11 -20 -24 -30v-34q3 -13 2 -24v-84l2 -14v-90q4 -14 2 -24v-44l2 -14v-44l2 -14l2 -72q-1 -24 2 -40l2 -80q3 -10 2 -18v-20q3 -13 2 -24l6 -104q3 -15 2 -26l2 -8l2 -46l2 -6v-24
q2 -3 2 -6v-14l2 -4v-20q2 -2 2 -4l2 -30q-290 291 -482 -230h-6l-8 -2h-8l-8 -2h-8l-8 -2h-6l-14 -2l-183 -2v-166h145h16h6h6q8 3 16 2l32 2l32 6q18 1 32 6q12 1 20 4l32 6q16 7 28 8l6 2l8 4l8 2l4 2l18 4q6 3 12 4l10 6l14 6q11 3 20 8h6l6 -2l4 -4q10 -2 16 -6l24 -8
l22 -10h6l14 -6l16 -4l22 -8l12 -2q12 -5 22 -6l8 -2l6 -2l28 -6l16 -4h6l6 -2h6h6l4 -2l32 -4h10l6 -2h20h8h8h6h8h36l6 2h6h6q1 1 4 2l30 8q157 104 148 278v6q-8 12 -10 22q-8 8 -12 16q-16 12 -24 24q-14 7 -20 14q-11 7 -18 14l-6 2l-6 4l-38 26q-3 2 -4 4
q-13 5 -20 14q-20 15 -36 26q-3 2 -4 4q-25 21 -38 38v6v40l-2 16v6v40q-3 8 -2 16v16v6v16q-5 23 -2 40v14q-3 8 -2 16v14v16v6q-3 23 -2 40q0 11 -2 20v6v14q1 27 -2 44v8v36l-2 12v40q-2 14 -2 26v14v8v14q-2 5 -2 10v28l-2 34v10v6v14v6q-4 22 -2 38l4 4l12 8l2 4l24 22
l-2 8l-4 14v6l-2 14l-2 8l-4 16l-6 32q-7 27 -8 44q-2 5 -2 10q-2 5 -2 10q-1 1 -2 6l-6 24q-2 21 -8 36zM484 285q-139 -94 -288 -110q27 142 152 182q91 1 136 -72zM616 349q9 -7 14 -12l4 -2l4 -4l2 -4q23 -15 36 -30l6 -2l4 -4l4 -4l4 -2l6 -4l24 -20q13 -8 20 -16l4 -2
l12 -10l12 -8l6 -6l10 -12q17 -16 26 -30q10 -23 10 -44l-28 -6h-26h-28h-8h-6l-10 2q-26 1 -44 6l-20 2l-8 2l-8 2h-6l-8 2l-8 2l-34 10l-16 4l-22 8q76 81 66 188z" />
  </g>

</svg>
