<?xml version="1.0" standalone="no"?>
<!DOCTYPE svg PUBLIC "-//W3C//DTD SVG 1.1//EN" "http://www.w3.org/Graphics/SVG/1.1/DTD/svg11.dtd" >
<svg viewBox="-144 -410 2048 2048">
  <g transform="matrix(1 0 0 -1 0 1638)">
   <path fill="currentColor"
d="M292 1410l-4 -6q-5 -12 -10 -18l-1 -3l-2 -2l-2 -4l-10 -17l-3 -4q-4 -8 -7 -13l-2 -4l-3 -4l-2 -3l-2 -4l-6 -11l-2 -3l-2 -2l-1 -4l-2 -2l-1 -3l-3 -3l-1 -2l-4 -7l-1 -2l-4 -7l-4 -7l-4 -6l1 -4v-11q0 -1 1 -10l1 -12q0 -13 2 -22l4 -69q1 -1 1 -2l1 -20q1 -10 1 -17
l1 -4v-8q1 -6 1 -10l1 -9v-11l1 -4l1 -25q1 -4 1 -7q0 -5 1 -8l1 -25l1 -4q0 -6 1 -11v-11q1 -4 2 -25l5 -73q1 -2 1 -6l1 -11v-11l1 -4v-9l1 -4q0 -6 1 -11l1 -23l1 -4q0 -9 1 -16v-9q1 -7 1 -12l1 -5v-11l1 -2q0 -9 1 -16v-8l1 -3v-13q1 -1 1 -2v-7q1 -11 1 -18
q2 -4 1 -11q1 -10 1 -17q1 -2 1 -3l1 -18q0 -6 1 -8q0 -8 1 -14v-11l1 -3v-7q1 -10 1 -17l1 -8v-7q1 -2 1 -6l1 -12q1 -9 1 -10v-13l1 -4l2 -35q1 -9 1 -16q1 -3 1 -6v-6l1 -3v-11l1 -2q0 -9 1 -16l2 -38q2 -4 1 -12l1 -2q-1 -8 1 -15v-12q2 -14 2 -22l-12 -8l-2 -3l-4 -2
l-3 -3l-3 -1l-1 -2l-3 -1q-8 -9 -17 -13l-5 -4l-2 -3l-3 -1q-1 -2 -3 -2q0 -1 -2 -2l-3 -2q-3 -3 -6 -5l-2 -2l-3 -1l-1 -2l-3 -2l-3 -1l-1 -2l-2 -1l-2 -2l-11 -6q-86 -63 -327 -59v-165l147 -2h3h8l2 1q11 0 18 2h4l8 1q3 1 5 1l3 1l4 1l25 7q6 4 12 5q3 2 5 2l4 3l4 1
l4 2l2 2l4 1l2 2l3 1q4 3 8 5q9 7 16 10l2 2l3 2q4 4 7 6l12 8l3 3l10 9l4 3l4 3l2 3l5 3l2 3q5 3 8 6l3 3l2 2l2 2l3 1l5 6q4 2 6 5q8 5 12 10l4 3l3 1l2 3l4 3l9 5q1 2 2 2q4 4 8 5l2 2l3 1l1 2q10 5 16 9q54 -152 194 -187l3 4l3 1q3 5 7 7l2 3l2 2q3 4 7 7l2 1l12 15
l5 5q4 7 8 11q4 9 9 14q2 6 5 9l5 11l2 3l1 2l1 2l1 2l1 2l6 12q2 8 5 13q0 1 1 4l1 3l2 7l7 22l-1 13q-31 102 -114 150l-3 1l-2 2q-6 2 -10 6l-4 2l-4 1l-3 1l-8 5q-1 0 -4 1l-3 1l-8 3l-3 2h-3l-2 2q-1 0 -4 1l-17 5l-8 2l-7 2l-1 14v5l-1 3v3v5l-1 4v4v4q-2 10 -2 18v4
l-1 4v3v3q-1 1 -1 2v4v4l-1 2l-1 16l-1 8l-1 8v8l-1 3v3v5l-1 4v4v4q-2 10 -2 18l-1 4v3l-1 16l-1 8v4l-1 4v7q-2 6 -1 11q-1 1 -1 3v8q-1 2 -1 3q0 6 -1 11v8q-1 6 -2 15l-1 16l-1 5l-2 22v5l-1 3v3l-1 7v3v3l-1 6v6l-1 8l-1 8l-1 8v6l-1 5v4v3v3q-1 1 -1 3v3v3l-1 3l-1 20
l-1 8l-1 8l-1 7v3v3l-1 6v6l-1 5v6l-1 2q0 6 -1 11v3l-2 20l-1 12v4l-1 7v3l-1 12l-1 8l-1 6v7q-1 8 -1 14l-1 4v3v3q-1 1 -1 2v4v4l-1 2l-1 16v3l-1 4v7l-1 2l-1 16v3l-2 13l-1 19l-1 4v4v4q-2 10 -2 18v4q-1 1 -1 3v3v3l-1 3l-1 20l1 2l2 1q3 8 8 13l1 3l2 3l3 4q3 5 6 8
l1 3q4 6 5 8l14 20l2 8q-4 9 -4 16l-2 6l-1 4l-1 2l-6 23l-2 9l-2 8l-3 10v4l-1 2l-1 3l-5 18v3l-5 16l-1 6l-1 6l-2 6l-4 13v3l-2 8l-1 2v3q-1 1 -1 3q-3 7 -4 12v3q-2 6 -3 11l-1 3l-1 3l-1 3v4q-3 5 -3 8q-2 11 -4 17h-1h1h-1z" />
  </g>

</svg>
