<?xml version="1.0" standalone="no"?>
<!DOCTYPE svg PUBLIC "-//W3C//DTD SVG 1.1//EN" "http://www.w3.org/Graphics/SVG/1.1/DTD/svg11.dtd" >
<svg viewBox="-50 -410 2048 2048">
  <g transform="matrix(1 0 0 -1 0 1638)">
   <path fill="currentColor"
d="M446 487q-8 -3 -14 -3q-9 -5 -17 -6l-4 -2l-2 -2l-2 -1q-9 -4 -12 -7q-5 -3 -9 -5q-1 -2 -2 -2q-1 -1 -2 -1l-1 -2l-3 -2q-7 -7 -13 -10q-5 -7 -11 -11l-1 -2l-3 -3l-3 -2q-11 -15 -20 -23l-2 -4l-2 -3l-3 -3q-6 -8 -10 -13l-3 -4l-2 -3l-3 -3l-2 -2l-2 -3l-1 -3l-3 -2
q-9 -16 -18 -24l-2 -3q-5 -7 -7 -9l-1 -3q-6 -8 -10 -12q-4 -7 -8 -11l-5 -8l-3 -2l-4 -6q-13 -10 -18 -20q-1 -2 -2 -2l-1 -3l-3 -2q-3 -5 -6 -7q-1 -2 -2 -2l-1 -2q-4 -3 -5 -6l-2 -1l-10 -9l-2 -3l-2 -1l-3 -2l-3 -3l-3 -2l-2 -2q-7 -4 -10 -7l-4 -1l-2 -2l-3 -2l-7 -4
l-18 -8h-3l-7 -3l-8 -2q-2 -1 -11 -4l-3 -1h-4q-9 -3 -17 -3q-6 -2 -10 -2l-4 -1h-5q-6 -1 -10 -1l-3 -1h-4h-3h-3l-3 -1h-4h-3h-4l-68 2v-175q170 6 242 79q5 3 9 7l6 4l2 2l2 2l3 1l1 2l16 11l3 -1l3 -1l3 -1h3l23 -9l8 -3l3 -2l3 -1l3 -1l2 -2l22 -10l3 -2l11 -6l4 -2
l3 -1q4 -3 7 -5l4 -1l10 -6q6 -2 10 -5l4 -1l3 -2l3 -1l3 -2l12 -5l12 -5l15 -5q73 -32 116 22l1 5l2 4q3 7 5 11l1 4l1 3l1 2l1 3q5 9 6 16l2 2q2 10 6 17l1 5l1 3l1 4l1 3l1 3l6 18l3 11l1 4l1 3l4 14l3 15q33 129 2 191q-1 2 -1 3q-1 1 -1 3l-2 4l-1 3q-1 1 -1 3l-2 2
l-4 10l-2 2l-10 18l-3 2l-1 3l-3 3l-2 3l-3 2l-5 6q-10 7 -15 13q-8 3 -13 7h-3q-5 3 -10 4l-3 2l-17 4h-1h1h-1h-2h-2h-2h-2h-2h-2h-2h-2h-2h-2h-3h1h-2h1h-2h1h-2h1h-2h1h-2h1h-2h1h-1zM450 319l5 -4q10 -4 16 -11q36 -50 39 -106l2 -20l-11 2l-4 1l-2 1l-16 4l-3 1l-3 1
l-2 1l-16 5l-5 2l-5 1l-5 2l-13 5l-5 2q-4 2 -8 3l-11 6q-7 2 -11 4l-3 2q-3 0 -4 1l-3 1l-4 3q-8 2 -13 5l-3 1l-2 2l-22 10q26 63 84 79q16 0 28 -4z" />
  </g>

</svg>
