<?xml version="1.0" standalone="no"?>
<!DOCTYPE svg PUBLIC "-//W3C//DTD SVG 1.1//EN" "http://www.w3.org/Graphics/SVG/1.1/DTD/svg11.dtd" >
<svg viewBox="0 -410 2048 2048">
  <g transform="matrix(1 0 0 -1 0 1638)">
   <path fill="currentColor"
d="M724 802q1 -11 4 -19q2 -1 2 -2q4 -3 7 -6l3 -1l1 -2q9 -3 14 -7l2 -1q11 -3 18 -7l2 -1q9 -2 15 -5l7 -3l18 -6l4 -2l3 -1l2 -1l3 -1l2 -1q8 -3 14 -6q10 -3 16 -7q5 -2 8 -4q8 -3 12 -6q14 -5 22 -12l-6 -2l-3 -1l-5 -2l-4 -1l-3 -1l-3 -2h-3l-3 -2l-3 -1l-7 -2l-16 -7
h-3q-13 -7 -23 -9q-1 -1 -3 -1l-3 -2l-3 -1l-29 -11l-4 -1l-4 -2l-11 -5l-10 -3l-2 -2q-11 -3 -18 -7l-13 -5l-2 -1q-5 -2 -9 -4q-5 -1 -8 -3q-9 -4 -16 -6l-2 -2h-3l-2 -2l-22 -9l-6 -2l-5 -3l-3 -1l-6 -2q-5 -4 -9 -4l-6 -4q-4 -1 -7 -3l-5 -2l-6 -3q-5 -1 -8 -3l-2 -1
l-7 -3q-6 -4 -11 -5q-9 -6 -17 -8l-2 -2l-3 -1l-7 -4l-3 -1q-7 -4 -12 -5l-5 -4l-2 -1q-8 -3 -12 -6l-10 -4q-4 -3 -8 -4q-8 -7 -17 -9q-1 -2 -2 -2l-3 -1l-2 -2q-5 -3 -9 -4q-6 -5 -13 -7l-1 -2l-17 -9q-9 -6 -16 -9l-1 -2q-13 -6 -21 -13l-5 -2q-7 -5 -12 -8l-4 -2
q-10 -9 -19 -13l-3 -3l-4 -2l-3 -3l-3 -1q-1 -2 -2 -2l-2 -1l-6 -4q-8 -8 -15 -11q-7 -7 -13 -10q-6 -7 -12 -10l-3 -3l-3 -3l-13 -10l-3 -2q-5 -6 -10 -10q-4 -4 -8 -6q-1 -2 -2 -2q-1 -2 -2 -2l-1 -2l-2 -2l-2 -2l-3 -3l-3 -2q-6 -7 -12 -11l-1 -3l-2 -1l-1 -2l-2 -1
q-5 -7 -10 -10l-2 -3q-1 -2 -2 -2q-3 -4 -6 -7l-9 -11l-3 -3q-1 -2 -2 -2l-1 -2l-2 -3l-2 -2l-2 -2q-7 -10 -13 -16l-2 -5l-2 -2l-7 -9l-2 -4l-3 -4l-2 -3q-8 -14 -14 -21l-1 -4l-3 -3q-2 -5 -4 -9l-2 -4l-2 -2l-5 -11l-9 -16l-3 -17l-1 -3l-1 -9v-43q6 -48 33 -80l4 -1
l2 -1q10 -2 16 -5l7 -1l14 -4h5l4 -1l3 -1q9 -1 14 -3h5l4 -1h3l8 -2h6l4 -1l17 -2h4l11 -2q8 0 14 -1h5l17 -1l4 -1h3h4h3h6l5 -1h17h3q7 -2 12 -1h8h3h3h31h7h20h7h6h5h6h4h18h11h4h14l2 1h8h20h3q12 2 20 1h8l7 1h8h7h3q8 2 13 1h3l20 1h6h3q12 2 20 1l6 1h5h6h4l4 1h5h4
h3h4q2 1 3 1h5h3h3h3l2 1h3h3h13q4 1 7 1q8 0 13 1h6h3h7q3 1 6 1q8 0 14 1h10l20 1l7 1h4h5h3l3 1h5h3h4h3q12 2 20 1q4 1 7 1h7h4l18 2h13h5l4 1h5h4h5l4 1h5h4h3h4l4 1h3q10 0 17 1h14l3 1h3h3h7l12 1h10h7l7 1h5q10 0 17 1h4h17l4 1h5h3h5h3h4h3q12 2 20 1h8h7l7 1h3h3
h20h4h3h3l2 1h3h4h18h17h8h7h4h3h20h4h3h18h13h4h17h8h7l6 -1h3h4h3h4h5q9 0 16 -1q15 1 25 -1h6h3h4h3l3 -1h3h4h3h4l18 -2h3h3l20 -1l2 -1l18 -1l4 -1h6l4 -1h6l4 -1h6l4 -1h5l3 -1h3h4l2 -1l7 -1l22 -2l4 6l4 6l1 2l10 15l4 5l3 6l4 5l3 4l2 5l3 3l1 3l2 3l2 2l10 16l3 5
l6 8l2 4l2 3l6 8q12 20 21 31v3q-13 1 -22 4q-11 1 -19 3h-5l-3 1q-9 0 -14 2h-3l-12 2h-6q-9 3 -17 2l-3 1q-11 0 -19 2h-6l-5 1h-7q-8 1 -14 1q-8 2 -13 1q-5 1 -8 1h-5h-6l-3 1h-4l-17 1q-8 -1 -15 1h-4h-5h-4q-10 0 -17 1h-3h-3h-31q-12 2 -20 1h-3h-3h-31h-7h-5h-5h-6
h-4h-18h-11l-10 -1h-3h-5h-3h-4h-3h-20h-6l-7 -1h-6h-7h-6h-4h-4l-3 -1h-4h-3h-4h-18q-8 -2 -14 -1h-3h-4h-3h-3q-15 -2 -25 -1l-7 -1h-3h-13l-4 -1h-3q-12 0 -20 -1h-5h-5l-17 -1h-6h-5l-4 -1h-3h-4h-6q-6 -1 -11 -1h-7h-3q-11 -2 -19 -1q-4 -2 -8 -1h-9l-4 -1h-17
q-9 -2 -16 -1h-3q-9 -2 -16 -1l-5 -1h-3h-13l-4 -1h-6l-31 -2h-14l-3 -1h-5h-3h-4h-3q-12 -2 -20 -1l-6 -1h-3q-10 0 -17 -1h-14h-3q-9 -2 -16 -1h-5l-3 -1h-3h-3h-12l-6 -1h-5h-4h-6l-3 -1h-11h-4l-17 -1h-3h-12l-7 -1h-3h-4h-5h-4h-4h-7q-11 -1 -18 -1h-7h-20l-7 -1h-8h-8
h-14h-3h-5h-3h-4h-3h-20h-17h-3h-12h-4h-3h-20l-5 1h-4h-11h-4l-17 1h-4h-7h-3q-11 2 -19 1l-4 1h-3l-16 1h-4q-6 1 -11 1l-4 1h-4h-4l-4 1h-4l-4 1h-4l-4 1h-4h-4q-8 2 -14 2l-3 1q-6 0 -11 1h-3l-4 1l-10 2h-3l-3 1h-3l-5 1l-3 1l-3 1l-8 1l-2 1l-14 4q-9 4 -14 9
q3 8 10 11l2 3q8 8 14 12q3 5 6 7l23 20l4 2q2 3 6 5q8 9 16 13q4 5 9 7l7 7l3 2l10 7l2 1l1 2l11 7q5 5 10 7q4 5 9 6l1 2l9 5l1 2l5 2l3 3l4 3l5 2l3 3l4 2l3 3l4 1l3 3l9 5q4 3 8 5q8 6 14 8l1 2l7 4q8 5 14 7q1 1 2 1q9 7 17 10l4 2q6 5 11 7l3 2l12 5q1 2 3 2l3 2
q5 3 9 4q1 1 2 1l1 2l3 1l7 3q5 4 10 5l4 3l12 5l4 2l3 2q7 4 11 5l2 2l16 7l3 2l2 1l6 2q11 7 20 9l4 3l4 1l4 3l4 1q6 4 12 5l4 2l11 6l4 1q7 4 11 5l3 1q1 1 2 1l2 2l23 9l2 2l19 8l6 3l6 2l5 3l6 2l3 1q6 4 12 6l5 2l5 2l6 3l4 1q6 4 11 6l4 2q6 2 10 4l3 1l3 2l12 5
l2 1l2 1l22 9q3 2 6 3l7 3q3 2 6 3q1 1 2 1q8 5 15 7q10 6 18 8l4 3l3 1q11 6 19 9l5 3l4 1l4 3q6 2 10 5l4 2l10 4l2 2l6 2q3 2 6 3q8 6 16 8l2 2l2 2l6 4q5 7 10 10l1 3l6 6l2 3l1 3l6 7l4 7q3 6 6 10l2 3l1 3q5 8 8 15l2 3l5 11l7 14l8 23l2 16q-1 4 -1 8q-1 1 -1 2
l-6 18l-4 7q-7 7 -10 13l-3 2l-1 2q-7 5 -11 10q-7 5 -11 9l-4 2l-2 2q-6 3 -9 7q-7 3 -11 6q-5 3 -8 5l-4 2l-1 2q-10 4 -16 9l-3 1l-2 1l-3 2l-3 1q-10 6 -17 9l-4 3l-5 2l-4 3l-22 10l-2 2l-3 1l-3 2l-3 1l-2 2l-22 10q-5 3 -8 4q-17 12 -32 15q-66 -60 -79 -138z" />
  </g>

</svg>
