<?xml version="1.0" standalone="no"?>
<!DOCTYPE svg PUBLIC "-//W3C//DTD SVG 1.1//EN" "http://www.w3.org/Graphics/SVG/1.1/DTD/svg11.dtd" >
<svg viewBox="0 -1060 2048 2048">
  <g transform="matrix(1 0 0 -1 0 1638)">
   <path fill="currentColor"
d="M661 486l-24 -14q-8 -10 -18 -14l-2 -4l-12 -8l-2 -4l-4 -2q-10 -13 -20 -20l-4 -6l-4 -6l-4 -4l-4 -6q-7 -6 -10 -12l-2 -4l-20 -30h-6l-14 6h-6l-20 6q-27 1 -44 4q-249 -20 -324 -264l-2 -8l-2 -20q-4 -16 -4 -28l-4 -26l2 -194q3 -13 2 -24l2 -12v-24l2 -8v-12
q3 -16 2 -28q3 -12 2 -22q2 -3 2 -6v-12l2 -6v-16q4 -16 4 -30l2 -12q1 -21 4 -34v-16q2 -7 2 -14q5 -23 4 -40q3 -8 2 -16q4 -12 4 -22l2 -16q0 -10 2 -16q0 -10 2 -16l2 -28q2 -3 2 -6l2 -16l4 -32l2 -14l4 -36l2 -12l4 -32v-8q3 -15 4 -26l6 -44v-10q2 -2 2 -4l2 -14v-14
q2 -3 2 -6l4 -40l2 -10v-8q2 -4 2 -14q3 -8 2 -16l2 -4l4 -36v-6q7 -31 6 -50l4 2l2 6l14 22v6l4 4l2 6l2 4q4 14 10 24v6l2 4l8 32l2 4q3 15 6 24v6l2 4q1 22 4 36l2 22v22l2 6v6v8v6v8l-4 62v6q-5 16 -4 28l-2 14v10l-2 6v6v8l-6 50q0 15 -2 26v12q-2 11 -2 20v8
q-2 3 -2 6l-2 40l-4 32q0 12 -2 22v8v6l-2 14l-2 44l-2 6q1 16 -2 28v12l-2 32v8q-2 3 -2 6v16q-3 23 -2 40l-2 4q1 22 -2 36q0 23 -2 40v12v16q-3 23 -2 40v12l-2 4v6v8v36v10l-2 28v22v10v6v8v6v40q251 172 416 -140h6l2 4l6 2q14 12 26 18q7 8 14 12q16 16 28 24q2 4 4 4
l2 6l6 4l4 6l4 4l4 4l2 4l4 4l4 4q13 21 26 32q72 -63 151.5 -89t162.5 -33v34v8v34v22v8v34v6v24h-6l-6 2q-11 0 -16 2h-6l-34 8q-15 4 -24 8l-20 6l-6 4l-6 2l-4 4q-63 13 -156 84q-13 11 -18 22q-7 5 -10 12q-4 2 -4 4q-10 11 -14 20q-13 12 -18 26q-8 8 -12 16l-4 4
l-12 22l-4 4l-4 6l-12 24q-15 18 -20 36l-10 6z" />
  </g>

</svg>
