<?xml version="1.0" standalone="no"?>
<!DOCTYPE svg PUBLIC "-//W3C//DTD SVG 1.1//EN" "http://www.w3.org/Graphics/SVG/1.1/DTD/svg11.dtd" >
<svg viewBox="0 -900 2048 2048">
  <g transform="matrix(1 0 0 -1 0 1638)">
   <path fill="currentColor"
d="M1130 651l18 -14l22 -6l6 -2l6 -2h6l6 -4q11 -1 20 -6l14 -4l6 -2l8 -4l6 -2l4 -2l4 -2q22 -6 36 -16l-12 -6l-4 -4l-14 -8l-4 -2q-9 -7 -16 -10l-12 -6l-6 -2q-2 -3 -4 -4l-6 -4l-4 -2l-12 -4l-4 -4l-42 -18l-8 -4l-8 -4l-14 -6q-11 -7 -20 -10l-8 -4l-8 -4l-6 -2
l-10 -4l-6 -4l-14 -6q-11 -7 -20 -10l-12 -8l-6 -2q-9 -8 -18 -10q-7 -8 -16 -10l-8 -6q-8 -8 -14 -12l-8 -6l-8 -4l-4 -6l-6 -2q-2 -3 -4 -4l-6 -6l-12 -10l-6 -2l-2 -4l-30 -24q-54 -76 -34 -138q10 -7 18 -16l12 -4l6 -2l8 -2l24 -6l6 -2l16 -4l30 -10q5 0 8 -2l34 -8
l14 -4q11 -4 20 -6q12 -5 22 -6l4 -2l6 -2l6 -2l42 -10q41 -13 10 -40l-6 -2l-6 -4l-6 -2l-4 -4q-18 -9 -28 -16l-8 -2l-4 -4l-6 -2l-4 -2q-10 -6 -18 -8q-19 -14 -38 -18q-8 -6 -16 -8l-4 -4h-6q-18 -12 -34 -16l-6 -4q-13 -3 -22 -8l-4 -2q-15 -5 -24 -10l-34 -10
q-16 -9 -30 -10l-6 -4l-46 -12l-8 -2l-8 -2q-11 -6 -22 -8h-8l-8 -2l-10 -2l-8 -2l-8 -2l-8 -2l-8 -2q-11 -2 -20 -2q-3 -2 -6 -2l-24 -4h-6h-16q-23 -5 -40 -2l-6 -2h-10l-6 2h-6q-21 -1 -34 2h-16l-14 2q-68 13 -108 38l-4 2q-17 6 -28 18q-28 17 -44 36l-4 6l-4 4l-2 6
q-3 2 -4 4l-12 14l-2 6l-4 4l-2 6l-16 30v6l-6 14l-2 6q-5 10 -6 16v6l-4 16q-2 3 -2 6l-6 28v6q0 10 -2 16q0 19 -2 32v8v6v10l2 8q-1 20 2 34v18l6 34v6l4 22l2 6q5 32 14 54v8l2 6q5 12 6 22l4 6l4 18q5 8 6 16l2 6l2 4l4 8q3 13 8 22q10 33 0 38l-6 -8l-6 -4l-2 -6
l-16 -18q-7 -15 -16 -24l-2 -6l-2 -6q-18 -34 -26 -58l-4 -4v-6l-4 -4l-2 -6l-2 -4l-2 -8q-8 -20 -12 -34q-5 -8 -6 -16l-2 -6l-16 -44l-4 -18l-2 -6v-6l-4 -16q-5 -15 -6 -24l-6 -34l-2 -8l-2 -16v-8q-4 -15 -4 -26v-104l2 -8l2 -14v-8q6 -15 6 -26l2 -8l4 -16
q9 -16 10 -30l4 -4l2 -4l4 -14l4 -4l2 -4q6 -15 14 -24q11 -23 26 -36l2 -6l8 -6l4 -6l6 -6q9 -7 14 -14q14 -7 20 -14q11 -7 18 -14l4 -2q27 -11 42 -22l4 -2q15 -4 24 -8l44 -14h8q12 -3 20 -4l4 -2h8q15 -2 24 -2q11 -3 20 -2h20h8h8h6h8h36q5 2 10 2h8l10 2l6 2l22 2
l34 6l4 2l32 6l22 8q20 4 34 10l24 6l8 4q14 6 24 8q5 3 10 4q11 7 20 10l8 2q10 6 18 8l6 4l20 8l14 8l6 2l30 16l26 12l6 4l6 4q11 7 20 10q2 3 4 4q13 9 22 12q13 11 26 16q12 12 24 16q15 15 30 20l10 10l4 2l16 10l18 16l6 4l6 4l6 4l6 6l6 2q2 3 4 4q2 2 4 2
q14 17 30 24q13 16 28 24q11 18 22 28q28 51 26 100q-14 47 -48 76l-10 4l-8 2l-4 2l-32 8l-6 2l-32 8q-11 1 -20 4l-18 4l-14 2q-23 5 -36 10q-26 4 -44 16l14 6l12 8l4 4l6 2l24 14l12 4l4 4l6 2l24 12l44 22l6 2l24 10q11 7 20 10q11 8 20 12l6 2l6 2l4 4l22 10q2 2 4 2
q12 10 22 12l12 8l6 4l8 4l6 6l6 2q2 3 4 4l12 10q20 13 32 24q82 105 32 190q-2 0 -4 4q-3 2 -4 4q-4 2 -6 6l-8 4l-8 2l-10 4q-12 4 -20 8h-8l-10 4l-8 2l-10 4q-11 3 -16 6q-32 8 -50 16l-6 2l-6 2l-14 4l-6 2l-12 4l-14 2q-57 -75 -58 -144zM737 -674q-10 -13 -108 -109
q54 -78 117 -117l114 119q-59 49 -83.5 76.5t-39.5 30.5zM504 -674q-10 -13 -108 -109q54 -78 117 -117l116 116l-2 3q-59 48 -83.5 76t-39.5 31z" />
  </g>

</svg>
