<?xml version="1.0" standalone="no"?>
<!DOCTYPE svg PUBLIC "-//W3C//DTD SVG 1.1//EN" "http://www.w3.org/Graphics/SVG/1.1/DTD/svg11.dtd" >
<svg viewBox="0 -1086 2048 2048">
  <g transform="matrix(1 0 0 -1 0 1638)">
   <path fill="currentColor"
d="M407 493q-3 -3 -6 -5l-3 -3l-4 -2l-2 -3l-3 -2q-5 -5 -9 -7q-6 -8 -12 -12l-3 -3q-3 -4 -6 -7l-1 -2l-2 -2l-2 -1q-5 -9 -11 -14l-1 -3l-2 -2l-1 -2l-2 -2l-9 -14l-2 -3l-2 -4l-3 -3l-2 -4l-4 -7q-2 -6 -6 -10l-1 -3l-1 -3l-4 -6l-1 -3l-2 -2l-1 -3l-10 -22
q-117 -44 -159 -150q0 -3 -1 -4l-8 -25q-2 -6 -3 -11l-2 -8l-2 -8l-2 -7q0 -5 -1 -8l-1 -6l-1 -4v-4l-2 -10l-1 -8v-7l-1 -4v-7l-2 -18l1 -64l1 -4l2 -36l1 -4v-11l1 -4v-9l1 -5l2 -31q1 -11 1 -18q3 -15 2 -25q2 -6 1 -11l1 -5v-11l1 -4v-5q1 -10 1 -17l1 -3l1 -18
q0 -5 1 -8v-10l1 -3v-11q1 -1 1 -2v-10l1 -6q0 -5 1 -8v-9l1 -4v-11l1 -5v-10l1 -4l3 -48q2 -4 1 -8q0 -5 1 -8v-11q3 -13 2 -22q1 -10 1 -17l1 -4v-7l1 -2l1 -23l1 -2l1 -23q1 -1 1 -2v-3q0 -11 2 -18l5 -63l1 -3v-3q1 -9 2 -16l1 -16l1 -5l1 -20q2 -7 2 -12l3 -39
q1 -3 1 -9l1 -7v-4l4 -41l1 -8v-3q2 -8 1 -13l1 -4v-8q1 -1 1 -3v-6l1 -2v-12q1 -1 1 -2l1 -20l1 -7v-6q2 -4 1 -8l3 -46q2 -9 1 -17v-3q2 -6 1 -12q1 -12 1 -20l1 -5v-20l1 -7v-19l1 -3l1 -51q0 -8 6 0l2 2l6 5l2 3l2 1q7 10 13 15l2 5l3 2l1 4l2 3l2 2l2 4l2 2l1 3l2 2
q1 5 3 8l8 15q0 3 1 4l5 12l1 5l1 2q1 5 3 9l1 3l1 5l1 3l1 3v3l1 2l2 9l1 4v3l5 23v6q1 4 1 8q2 9 2 16l1 4v3v8l1 2v7v3q1 5 1 8v14q0 8 1 12v3v3v20v5l-1 5v4v17v5l-1 2v4v8v5q-1 2 -1 3v4v3l-2 22q0 5 -1 8v3l-1 16l-1 5v4v6q-1 2 -1 3v3v4l-1 4v3l-2 22q0 5 -1 8v8
l-1 8v3q-2 8 -1 13q-2 4 -1 8l-1 8q0 5 -1 8l-1 17v6l-1 4v5v4q-1 3 -1 5v3l-1 8v4l-2 17v3v4l-2 17v11q-2 6 -1 11l-1 4v11q-3 13 -2 22l-1 8q0 5 -1 8v8v3l-1 3v5v3l-1 4v3l-1 20l-1 3v5l-2 31l-1 8v8q-3 16 -2 25l-1 3v3v5v3l-1 3v3v3l-1 18l-1 8l-1 13v3l-1 16v3l-1 3
v10l-1 9l-1 12v10q-2 4 -1 8v8q-1 4 -1 8l-1 7v8v4v3q-1 2 -1 3v4l-1 12v10l-1 7v8l-1 7q0 6 -1 11v13l-1 3v3l-2 29l-1 22l-1 17v8q-1 4 -1 7l-1 13v8v3v3q-1 1 -1 3v3v3v7l-1 6v11q-2 6 -1 10v3l-1 11v3v4v3q-2 12 -1 20l5 1q8 3 14 3l5 1l3 1l11 2q10 2 17 2q3 1 5 1l3 1
h3q11 0 18 2h10l4 1h4h18h4h4h4h17h3h12h4l18 -2h4h7q6 -2 10 -1q12 -2 19 -2l2 -1q9 0 15 -2h5l5 -1l5 -1l5 -1h6q10 -3 17 -3l17 -3l3 -1l7 -2q7 -1 13 -2l14 -3l13 -3q2 6 6 10l1 2l2 4q4 6 6 11q3 4 5 8l2 3l1 3l12 21l2 5l3 7l1 2l6 12l1 4l2 3l1 4l3 4q0 3 1 4l2 5
l2 4l1 3l2 6l1 3l1 3l3 8l1 3l8 22v7v3l-6 23l-2 4q-1 1 -1 2l-2 2l-2 6l-2 1l-8 14q-86 98 -202 96q-1 -2 -3 -2z" />
  </g>

</svg>
