<?xml version="1.0" standalone="no"?>
<!DOCTYPE svg PUBLIC "-//W3C//DTD SVG 1.1//EN" "http://www.w3.org/Graphics/SVG/1.1/DTD/svg11.dtd" >
<svg viewBox="-91 -410 2048 2048">
  <g transform="matrix(1 0 0 -1 0 1638)">
   <path fill="currentColor"
d="M643 986l-3 -3l-7 -7l-2 -4l-3 -2l-1 -3l-3 -2l-1 -3l-3 -2l-1 -3l-2 -2l-1 -2q-8 -9 -12 -16l-3 -2q-6 -13 -14 -21l-1 -3l-2 -2q-4 -8 -11 -21l-1 -2l-8 -23v-6q-2 -9 -1 -16l5 -3l5 -4l5 -3l14 -9l5 -3l5 -3l1 -2q6 -2 10 -6q6 -3 10 -6l11 -8l3 -1l8 -6l3 -2l3 -1
l3 -2l2 -2l2 -1q8 -4 14 -10q-351 -60 -375 -404l-21 -10l-3 -3l-4 -2l-3 -2l-4 -2q-4 -4 -7 -5l-1 -2l-3 -1q-9 -10 -17 -14q-1 -2 -2 -2q-3 -5 -6 -7q-4 -3 -7 -5l-1 -2l-3 -2l-5 -5l-1 -2l-2 -1q-5 -7 -10 -10l-1 -3l-3 -2q-1 -2 -2 -2q-1 -2 -2 -2q-10 -13 -19 -19
l-1 -3l-3 -2q-1 -2 -2 -2q-1 -2 -2 -2q-1 -2 -2 -2l-1 -2l-2 -2l-6 -5l-1 -2l-6 -5q-8 -9 -15 -13q-55 -54 -220 -53v-165l113 1l4 2l3 1l4 2l3 1l3 1l3 1l3 1q1 1 3 1l2 2l3 1l2 2l3 1l3 1q6 5 12 7l3 3l4 2l4 4l5 2l4 4l3 3l3 2l4 3l2 2l6 5l3 2q3 3 6 5q8 9 15 14l2 4
l4 3l3 3l2 2l3 4l7 6l2 3l2 2l2 1q1 2 5 6l5 5q6 9 12 13l2 3q4 5 7 7q6 9 12 13q6 10 14 15q8 12 18 18l1 2l2 2q11 11 17 14l1 2l2 2l3 1l5 5l2 2l9 5l2 2l3 2q7 4 12 7l7 2q7 4 13 6h3q1 -7 2 -10l2 -7q4 -7 5 -13l3 -3l1 -2l2 -6l2 -1l8 -14l3 -3l7 -9q6 -7 7 -10l4 -4
q9 -9 11 -12l3 -2l8 -9l3 -1l2 -2l2 -3l23 -20q9 -6 14 -12l3 -1l2 -2l2 -2q9 -6 14 -11l4 -3l4 -2l4 -3l2 -2q7 -5 12 -9q4 -2 10 -6l3 -2q6 -6 11 -8l17 -12l6 5l1 2l2 2l2 3l2 1q6 9 12 14l2 4l3 3l2 3l2 3l2 3q4 6 6 8l1 3l10 15l1 2q5 9 8 15l3 4l2 5l2 3l2 4l1 3l2 3
l1 2l2 2q5 14 10 22v3l-1 4v4l-1 5l-1 2v4q-4 9 -4 17q-3 8 -4 15q-3 5 -4 11l-2 8l-7 15q-51 120 -171 120l-1 3q-6 13 -8 23q-21 52 -14 101l1 3l6 7l2 2l3 3l2 2l1 2l8 8q8 5 13 11l4 2l8 7l9 5l3 3l2 1l3 2l3 1l3 2l2 2l2 1l7 3l2 2l11 6l10 4l2 2h3q1 1 2 1q7 5 13 7h3
q3 2 7 3q4 3 11 5l3 1l10 4l13 4q6 3 11 3q9 4 16 6h4l3 2h4q5 2 11 4l4 1h4l4 2h3l2 1l16 3q8 2 14 3l2 1h4q10 3 17 3l3 1h3l4 1l16 3h5l4 1h5q3 1 5 1l4 1h6l11 2h8q1 1 3 1l11 1h4q10 1 17 1q8 2 15 1q1 1 2 1q6 5 11 7l1 2l6 4q1 2 2 2q6 8 11 12l1 3l2 1q4 8 9 12l1 3
l2 2l2 3l1 3l2 3l1 3q7 11 8 14l1 3l1 3l1 2l2 2v3l2 2l1 4q4 10 6 17q5 9 7 16v8v3v13l-2 8q-1 1 -1 3q-1 2 -1 3l-4 7l-9 18q-2 1 -2 3l-3 3l-2 3l-3 3l-1 3l-2 1l-4 6q-6 4 -9 10q-7 5 -10 10l-3 1l-2 3l-5 5q-10 7 -16 14l-3 2l-3 2q-2 1 -2 2l-5 4q-8 4 -13 10l-3 2
l-3 1l-2 2l-2 2l-21 13l-3 2l-3 3l-10 5l-9 7l-4 2l-10 5l-3 2l-3 2l-3 2l-4 1q-7 5 -13 7l-2 2l-3 2l-3 1l-3 1q-11 7 -20 9z" />
  </g>

</svg>
