<?xml version="1.0" standalone="no"?>
<!DOCTYPE svg PUBLIC "-//W3C//DTD SVG 1.1//EN" "http://www.w3.org/Graphics/SVG/1.1/DTD/svg11.dtd" >
<svg viewBox="-119 -410 2048 2048">
  <g transform="matrix(1 0 0 -1 0 1638)">
   <path fill="currentColor"
d="M654 876q11 -5 18 -10l8 -4l8 -4l6 -4l4 -4l12 -8q26 -10 40 -24h-16l-16 -4h-6l-32 -4l-6 -2h-6h-6q-18 -6 -34 -6l-6 -2l-6 -2h-10q-5 -2 -10 -2q-2 -2 -4 -2h-6l-16 -4l-14 -4q-15 -1 -26 -6l-34 -6q-7 -3 -14 -4q-22 -9 -38 -10l-8 -4l-20 -6l-8 -2l-16 -4
q-16 -9 -30 -10q-3 -2 -6 -2q-8 -5 -16 -6q-18 -10 -32 -12q-5 -3 -10 -4q-5 -3 -10 -4q-5 -3 -10 -4l-10 -6l-10 -4l-8 -2q-15 -8 -26 -12q-15 -9 -28 -12q-2 -2 -4 -2q-10 -7 -24 -14l-4 -2l-12 -4q-15 -13 -30 -16l-4 -6q-29 -17 -44 -36l-12 -10q-7 -11 -16 -16l-2 -6
l-4 -4l-4 -4l-2 -4l-6 -4l-2 -4l-18 -30h8q21 -1 34 -4q17 0 30 -4h8l8 -2l4 -2l18 -4q20 -3 34 -10q21 -5 34 -10l6 -4l32 -10l4 -2q14 -7 24 -10l14 -6l12 -8h6q18 -11 32 -16l32 -16l10 -4l12 -6l8 -4l8 -4l30 -16l12 -6q21 -10 26 -14q23 -6 40 -18l8 -2l8 -4l14 -6
l6 -2l30 -14l-6 -2l-8 -2l-10 -2q-19 -6 -34 -8l-14 -6h-6q-12 -7 -24 -8l-8 -4l-6 -2l-8 -2l-6 -2l-16 -6q-28 -10 -42 -14q-3 -2 -6 -2q-3 -2 -6 -2q-10 -5 -18 -8h-6l-4 -2l-18 -8h-6q-22 -10 -40 -12q-8 -5 -16 -6l-6 -2l-32 -8h-8q-11 -5 -20 -6h-8l-8 -2h-8
q-3 -2 -6 -2h-6q-3 -2 -6 -2h-8q-19 -5 -34 -4q-16 -4 -30 -2l-8 -2h-34h-6l-143 -1v-168l155 1q10 3 18 2q11 2 20 2l4 2l32 4l10 2l6 2l6 2h10l16 4q2 2 4 2q24 8 40 10q8 4 26 10l24 8l26 8l16 8h6l4 4h6l4 2l32 14q17 8 34 12l4 4l36 14l36 16l6 2l6 2l6 2l6 2l6 2
l32 10q16 5 20 6q48 16 78 20l4 2h8q2 1 6 2l44 8l22 4h10q3 2 6 2h6l6 2h6h6l6 2l40 2l8 2h8h8l26 2h8h10h8h6h10h10h6h24h6q27 1 46 -2l62 -2h6q12 -3 22 -2q15 -2 24 -2l6 -2h6l40 -4l6 8l4 10l6 10l4 6l6 8q3 8 10 14l4 6l2 8l4 6l4 4l4 6l2 6l34 52q-2 4 -4 4h-8h-28
h-24h-34q-10 3 -18 2h-8q-15 -1 -26 2h-8q-12 0 -22 2h-6h-6h-6l-6 2h-6q-19 1 -32 4h-6h-8l-6 2h-8l-6 2q-17 1 -28 4h-6l-24 6q-12 0 -20 2l-38 10q-6 1 -20 4l-8 2l-8 2l-6 2q-27 5 -46 14h-6l-8 4h-6l-8 4l-6 2l-6 2l-8 2l-6 4h-6l-6 2l-4 4h-6l-6 4l-4 2q-27 7 -44 18
q-2 0 -8 2l-22 8l-8 6l-6 2l-8 4q-9 3 -20 8l-22 10l-4 2l-12 4l-4 4l-4 2q-19 6 -30 14h-6l-6 4l-6 2l-44 20l-4 2l-24 10l-16 8l-6 2l-6 2l-6 2l-4 2q-24 9 -38 18q15 5 24 10h6q2 2 4 2q23 11 40 14q12 7 24 8q3 2 6 2l8 4h6q3 2 6 2q3 2 6 2l34 12l22 4q19 8 34 8
q2 1 6 2l10 2q3 2 6 2l6 2h6l6 2l36 8h10q12 4 22 4l20 4h10q2 1 10 2l38 6h10l10 2q16 0 28 2h12h8q3 2 6 2h10h6h6l6 2h8h6h8h36q5 10 14 18q6 10 12 16q7 9 12 14q7 13 14 20l4 8l4 4l2 6l4 2q9 23 20 36v6q3 12 2 22q-8 11 -12 20l-22 16l-10 12l-6 2q-6 7 -12 10
l-16 16q-18 9 -28 20l-6 2l-4 4q-10 6 -16 12l-6 2l-16 10l-6 4l-14 8l-6 2q-22 15 -42 20q-67 -57 -80 -134z" />
  </g>

</svg>
