<?xml version="1.0" standalone="no"?>
<!DOCTYPE svg PUBLIC "-//W3C//DTD SVG 1.1//EN" "http://www.w3.org/Graphics/SVG/1.1/DTD/svg11.dtd" >
<svg viewBox="0 -410 2048 2048">
  <g transform="matrix(1 0 0 -1 0 1638)">
   <path fill="currentColor"
d="M926 778l-4 -8l-4 -10l-1 -3l-12 -29l-1 -3l-2 -3l-1 -3l-7 -18l-3 -7l-6 -13l-1 -5l-2 -4l-2 -4l-1 -5l-1 -2l-2 -5l-1 -3l-6 -11l-1 -5l-1 -3l-3 -2l-1 -5l-9 -23q144 -197 148 -412q-130 -136 -303 -169q-133 -23 -247 10q-124 33 -197 116l-3 3q-3 4 -5 8q-3 1 -3 2
l-3 3l-1 3l-3 2l-1 3l-2 2l-5 8l-11 17l-1 3l-3 3l-1 2q-4 8 -7 12l-1 5q-3 3 -3 7l-2 3v3l-2 2v3q-4 6 -5 11l-6 17q-30 132 15 244l2 6v3l2 3q2 10 7 17q3 9 6 15v3l2 3q3 9 6 13q6 14 12 23v2l2 2q0 3 1 5l1 3l1 4l2 3l1 2l4 18q1 38 -37 31l-8 -7l-12 -7l-2 -4l-3 -3
l-2 -3q-1 -2 -2 -2l-3 -3l-2 -2l-2 -3l-1 -2l-2 -3l-1 -2l-1 -3q-3 -6 -6 -8l-8 -13q-2 -9 -4 -17l-4 -3l-5 -19l-2 -6l-1 -2l-3 -11l-1 -3l-2 -2l-1 -4q-3 -10 -6 -18l-1 -3l-3 -14l-1 -4l-4 -4v-4l-1 -2l-1 -3l-1 -2l-1 -8l-2 -14l-2 -7l-2 -6l-1 -6l-1 -4v-3
q-5 -12 -6 -20l-1 -5l-1 -5q-3 -10 -3 -16q-1 -10 -3 -15v-6l-1 -12l-3 -5q0 -8 -2 -14v-3l-1 -14l-1 -5v-3l-2 -23v-78l1 -4v-12q1 -7 1 -10l1 -3l1 -17q2 -8 2 -14q4 -8 4 -14l1 -5l1 -7q3 -8 3 -14l1 -5q3 -5 3 -10q1 -1 1 -4l4 -3v-4l2 -3l1 -5l1 -4q7 -15 11 -27l3 -4
l1 -2l4 -11l2 -3l7 -11q6 -11 9 -17l5 -4l1 -3l2 -3l2 -3l5 -9q5 -3 7 -6q1 -2 1 -3q10 -9 15 -17q2 -1 2 -2l4 -3l2 -3l4 -4q7 -4 12 -10q12 -10 20 -17q7 -4 12 -8l4 -3q7 -5 12 -8q7 -3 12 -7l4 -2l3 -2l2 -1l3 -2l4 -2l2 -1h3l2 -1l3 -1l18 -10q6 -1 10 -4l5 -1l3 -3
l5 -1h4l12 -5l6 -1q11 -5 20 -7l4 -1l5 -2l4 -1h4l5 -1q10 -3 20 -3l3 -1l2 -1h4l3 -2q11 -1 19 -3h12l2 -1h3l22 -1q7 -2 11 -1h15h4h5h3h4h5h21h19l5 1h3l17 1l15 2l13 1l3 1q16 2 26 4l10 1q7 2 12 3l5 1l4 1h2q11 3 18 4l4 2l5 2l4 1l3 1l3 1h2q8 4 15 4l5 1q9 6 17 7
q3 2 5 2q6 4 10 4q4 3 9 5l3 1q10 6 19 8l4 3l2 2l7 2q7 6 16 8l5 4l4 3q7 5 13 7l1 2l3 3l21 13l3 3l3 2l1 2l4 1l2 1q9 10 16 14q4 5 8 7l3 4l3 2l3 2l2 4l6 5q6 7 12 11l2 4l1 1q4 7 9 9l2 2q7 11 14 16l3 4l2 4l2 4l7 6l1 3l1 3l3 3q7 14 15 22l2 5l1 4l5 5l1 3l3 4l4 8
q2 5 6 9q2 7 4 11l2 4l2 4l8 17l10 25l1 7l4 7l1 3l3 14l4 14v5l1 6l1 2l1 3v3v9l4 6v5l1 3l1 14l1 2v3l1 8q0 8 1 12q0 6 1 11v5v4v4v3v20v6v4v4v5v17l-1 5v4v4v4l-1 4v5v4q-3 10 -2 18q-1 4 -1 7l-5 22v4q-1 3 -1 5q-3 10 -3 16q-4 11 -4 19q-6 9 -6 17l-2 3l-1 6l-1 6
l-2 4l-3 16q-1 2 -1 4q-10 18 -12 30l-2 2v3q-3 5 -4 11q-5 7 -6 14q-5 6 -6 14q-2 3 -2 5q-6 8 -7 14q-2 4 -3 7l-3 7q-6 4 -7 9l-2 6l-3 6l-2 4l-2 5l-3 6l-3 2l-12 23q-6 7 -8 15q-7 6 -8 12l-4 4l-1 3l-2 3l-1 4l-2 2l-1 2l-3 3l-5 7l-1 3q-7 8 -10 16h-3h3h-3z
M562 1285q-10 -13 -108 -109q54 -78 117 -117q111 113 116 116l-2 3q-59 48 -83.5 76t-39.5 31z" />
  </g>

</svg>
