<?xml version="1.0" standalone="no"?>
<!DOCTYPE svg PUBLIC "-//W3C//DTD SVG 1.1//EN" "http://www.w3.org/Graphics/SVG/1.1/DTD/svg11.dtd" >
<svg viewBox="0 -521 2048 2048">
  <g transform="matrix(1 0 0 -1 0 1638)">
   <path fill="currentColor"
d="M1061 355l-2 -7l-2 -3l-1 -3l-1 -3l-12 -24l-2 -6l-1 -2q-3 -7 -6 -12l-2 -5l-2 -6l-3 -5l-2 -6l-3 -6l-2 -4q-2 -6 -5 -10q-2 -8 -6 -13l-1 -3l-1 -4l-2 -4l-2 -3q-2 -6 -4 -10l-1 -3l-2 -3l-1 -2q-3 -8 -6 -12v-4l2 -3l1 -4l1 -3q1 -1 1 -2l1 -3l1 -3q1 -2 1 -3l7 -16
v-3q5 -10 6 -18l2 -4q2 -7 3 -12q3 -5 3 -10q1 -2 1 -3l2 -3v-4l3 -7v-3q3 -7 4 -12l4 -16l1 -4l1 -3v-3q3 -9 4 -16l2 -6v-3l3 -13l4 -19l1 -4v-4q1 -1 1 -3l4 -22l1 -6l1 -6l1 -6l1 -6l1 -5l1 -5l2 -14l1 -4l1 -11q1 -3 1 -5l1 -2v-8l2 -7q0 -5 1 -8l3 -25
q-160 -137 -346 -164q-200 -28 -353 68l-3 2l-4 2l-4 3q-5 5 -9 7l-3 3q-5 3 -8 6l-3 2l-6 5l-3 3l-5 5q-2 1 -2 2l-2 1l-12 11l-1 3l-6 5l-2 2l-4 6q-6 5 -10 11l-2 2l-1 3q-5 5 -7 10l-2 1l-1 3q-10 12 -14 23q-2 1 -2 2q-5 9 -8 14l-1 4l-2 3l-1 4l-2 3l-1 4l-2 3l-1 4
l-2 4l-1 3l-1 2l-3 9l-1 5l-1 3l-1 4q-2 4 -2 7l-5 18q-18 118 20 216q2 10 5 16l1 3l1 2l1 3l1 2q3 8 6 14l1 3l2 3v3l5 10l1 2l1 3l9 16l1 3l1 3l4 13l5 11v3l2 7l2 6l1 2v3q5 16 4 31q-3 4 -5 7q-19 -3 -32 -19q-6 -9 -12 -14l-2 -4l-3 -3l-6 -7l-3 -3l-1 -3l-2 -2l-2 -2
q-5 -9 -11 -14l-1 -3l-2 -3l-2 -3l-1 -2l-1 -3q-6 -9 -9 -16l-2 -3q-3 -5 -4 -8l-7 -11q-3 -8 -5 -12l-2 -2l-1 -3l-2 -2q-4 -11 -8 -18l-6 -13q-3 -7 -5 -11q-2 -5 -4 -8l-1 -3l-2 -7l-1 -3l-1 -2l-4 -9q-3 -10 -7 -17q-1 -6 -3 -11q-2 -6 -4 -10q0 -3 -1 -4q-1 -7 -4 -11
l-1 -4q0 -3 -1 -4l-1 -4l-2 -7l-5 -22l-2 -4v-5l-2 -4v-4q-3 -10 -3 -17l-1 -3l-3 -16v-6l-1 -3l-1 -7v-4l-1 -2v-3q0 -12 -2 -20v-65l1 -3v-10q2 -12 2 -20l1 -4l2 -13l1 -6l4 -16l1 -3l1 -8l2 -8q3 -5 3 -10q4 -8 5 -15l2 -3l1 -3l1 -3l4 -10l1 -4l2 -4q6 -11 9 -19l2 -3
l2 -3l1 -4l3 -3l1 -4q7 -9 10 -16q4 -4 6 -8l1 -3q10 -10 14 -19q4 -3 6 -7q6 -5 9 -10l2 -3l3 -2l8 -9l5 -4l3 -4l3 -2l3 -3l8 -8q2 -1 2 -2q4 -2 6 -5q10 -5 15 -12q8 -4 12 -8q7 -4 10 -7l3 -1q4 -3 7 -5l4 -2l2 -2q7 -4 12 -7l3 -1l3 -2l2 -1l3 -1l16 -9l11 -4l5 -2
l10 -5l5 -2l4 -1l4 -2l7 -3h3l3 -2l2 -1h3l3 -1l13 -5l3 -1l4 -1h3l3 -1l3 -1l4 -1l8 -2l8 -2l7 -2h3q6 -2 11 -2q8 -3 14 -3l4 -1l6 -1l5 -1l6 -1h5l6 -1h3l3 -1q11 0 18 -2h4h3l20 -2h6h3h13h5h13h4h17h3h12q8 0 14 1h11q5 1 10 1l11 1h3h3l2 1h8l7 1q4 2 8 3l25 8
q287 89 393 336v3l5 13l1 3l1 3q2 10 5 16v4l2 3v4l3 10l2 11l1 4l1 4l2 13l1 4v4l1 2v4q2 9 2 16l1 4v4l1 4v5v5l1 3v3v3l1 17v3v12l2 -1h3l3 -1l12 -4h3l7 -2h3q9 -3 16 -3l13 -2h6l4 -1h4h5h4q6 -1 10 -1h4h4h4h17h8h7v3v3v3v13v7v20v5v6v5v4v3v20v4v3v18v13v4v17v3v12
h-3h-3h-14h-4h-3l-4 1h-3l-2 1h-3l-8 1q-9 3 -16 4l-3 2l-3 1l-3 1l-3 1l-8 3l-2 2q-13 6 -21 11q-92 75 -108 182l-16 1q-4 -14 -10 -22z" />
  </g>

</svg>
