<?xml version="1.0" standalone="no"?>
<!DOCTYPE svg PUBLIC "-//W3C//DTD SVG 1.1//EN" "http://www.w3.org/Graphics/SVG/1.1/DTD/svg11.dtd" >
<svg viewBox="0 -496 2048 2048">
  <g transform="matrix(1 0 0 -1 0 1638)">
   <path fill="currentColor"
d="M781 412q-146 -115 -142 -285v-17q2 -4 1 -8l1 -3q0 -6 1 -15q1 -2 1 -3l1 -7l2 -8l5 -20q2 -3 3 -6q4 -3 6 -7l3 -1l2 -2l19 -11l3 -1q3 0 4 -1l7 -2l12 -3l6 -2l4 -1h4l4 -1h3l4 -1l18 -3h5h5l5 -1l6 -1h3q9 0 16 -1h17l6 -1h3h5h3h4h3h20h4h14h4h10h4l7 1h4h18v-4
q1 -1 1 -3q4 -12 5 -20l1 -10l2 -13v-7q2 -6 2 -11v-13q2 -8 1 -14v-10q2 -12 1 -20l-2 -2l-3 -2q-6 -9 -13 -14q-2 -4 -4 -6l-2 -2l-6 -5l-1 -2l-16 -14q-1 -2 -2 -2q-1 -2 -2 -2q-1 -2 -2 -2l-2 -2l-12 -11l-2 -1l-2 -1q-4 -6 -10 -8q-4 -5 -9 -7l-2 -3l-2 -1q-4 -4 -8 -5
l-2 -3l-3 -1q-6 -6 -12 -8q-8 -7 -15 -10q-1 -2 -3 -2l-3 -2l-3 -2l-4 -2l-3 -2l-3 -2q-5 -3 -9 -5l-3 -2q-5 -3 -9 -4q-1 -2 -2 -2l-3 -1q-1 -1 -2 -1q-1 -1 -2 -1q-4 -3 -8 -4q-1 -1 -2 -1q-9 -5 -15 -7l-5 -3l-10 -3q-11 -6 -20 -8l-3 -2h-3q-4 -3 -8 -3l-3 -1l-2 -1
l-16 -5l-3 -1l-3 -1h-3q-1 -1 -3 -1q-15 -5 -25 -6l-8 -2l-4 -1l-17 -2q-1 -1 -2 -1h-3l-2 -1l-25 -2q-2 -1 -3 -1l-19 -1h-10l-3 -1h-3h-3h-4h-8l-3 1h-12q-13 0 -22 2q-137 12 -225 98l-3 2l-8 8l-3 4l-3 3l-1 3l-3 2l-1 2l-2 2l-5 6l-1 2q-4 7 -8 11l-1 4q-2 1 -2 2l-1 3
q-2 1 -2 2l-2 3l-1 4q-6 7 -8 14l-1 4l-2 2l-1 2v3l-2 2v3q-1 1 -1 3l-2 2v3q-4 7 -5 12v4q-3 6 -3 10l-1 4l-1 4v3q-1 2 -1 3l-1 3v5l-1 2v4l-3 25v7v12v13l1 3v8l1 3v3v3l1 3v3l2 16l4 17l2 9l4 17l3 8q1 6 3 11l1 2q3 11 7 18l1 3q1 5 4 10l1 3l1 3l1 3l1 3l2 2
q5 16 12 25q5 13 11 21l5 11l2 1q3 8 7 12q3 8 6 13l2 5q5 9 7 15l1 3l1 2l2 2q2 10 6 17q14 43 -6 47l-7 -3q-4 -4 -8 -6l-2 -1q-1 -2 -2 -2q-8 -10 -15 -15q-4 -7 -7 -10l-3 -3l-3 -4l-3 -3q-4 -9 -10 -14q-6 -12 -13 -19q-2 -6 -4 -10l-2 -2l-2 -3l-1 -4q-8 -13 -11 -21
q-92 -175 -80 -351q1 -3 1 -6l1 -4v-3l2 -17q1 -4 1 -7q3 -8 3 -14l2 -8q4 -10 4 -17q3 -6 4 -12l1 -4q1 -1 1 -2l1 -4l2 -2v-3q2 -3 2 -6l3 -5q4 -12 9 -20v-3q5 -7 7 -14l3 -3l1 -4l2 -2l12 -21q4 -4 6 -8l1 -2q8 -8 11 -15q6 -5 9 -10l10 -10l1 -2q4 -4 6 -7l3 -2l3 -3
l4 -3l2 -3l3 -2l3 -2l1 -2l2 -1l2 -2l2 -2q10 -7 16 -13l3 -2l3 -1l11 -8l4 -3q6 -2 9 -5l3 -1l3 -2l4 -2l2 -2q5 -1 8 -3l15 -8q3 0 4 -1l11 -5l4 -1l10 -4l5 -1l3 -2l4 -1q3 0 4 -1l3 -1h3l8 -2l3 -1l10 -3l9 -2l6 -1q132 -17 241 24q8 3 14 4q4 3 9 4l4 1l2 2l4 1l3 2
l4 1q5 2 8 3l2 2h3q8 5 15 7l3 2l3 2l2 1q8 3 12 6l4 1l3 2q6 4 10 6q5 3 9 4q1 2 2 2l4 2l3 2l4 3l2 1l3 1l2 2l7 4l3 1q5 5 11 7l4 4l5 2l5 4q3 2 5 3q7 7 14 10l4 3q7 7 14 10q5 6 10 9l2 2q8 5 13 10l4 2l3 3q3 4 7 6l1 2l11 8q9 11 18 16l3 5q5 5 7 9l2 1q3 5 6 8l2 4
q6 6 8 11l1 2l3 2l1 2q5 11 11 18l1 2l1 2l1 3l2 3l2 3l2 4l1 3l2 4l2 2l1 2l1 2l1 3l1 2l1 2q3 8 6 12v3l2 2v3l2 2q4 13 8 21v3l3 7q3 11 6 18l1 4v3l1 2q2 9 4 14v3l1 2l2 9q1 8 3 13v4q2 8 2 13l1 4l1 4v5l1 3v5l1 3q0 8 2 14l1 22l4 -1l5 -1h3h3h18h5h4q15 2 25 1v7v7
v3v3v31v7v6v7v6v5v6v4v18v11v4v4v4v4v17v3v12h-17l-9 1h-3h-5l-4 1h-4h-4q-11 2 -18 2l-8 2q-7 1 -12 2v3q-1 1 -1 3l-1 3l-1 3l-1 3q-3 9 -4 15l-2 3l-1 3v3q-3 6 -4 12l-2 3v3q-4 7 -5 13q-4 6 -5 12l-1 3q-5 9 -7 16q-4 7 -5 11l-6 11l-2 4l-1 4q-5 6 -7 13q-2 1 -2 2
l-1 3q-2 1 -2 2l-1 2l-2 2l-10 17l-2 3l-3 3l-1 3q-8 7 -11 14l-2 1l-1 2q-7 5 -10 11l-4 2l-3 3l-8 8l-3 1l-1 2q-7 4 -12 8h-1h1h-1l-2 1l-2 1l-2 1l-2 1l-2 1l-2 1l-3 1l-3 1l-3 1l-3 1h-3l-3 1h-8h-3h-13zM800 246l1 -2q40 -25 57 -63h-4l-4 1h-3l-16 2h-4l-4 1l-4 1h-6
l-3 1h-3l-4 1h-3l-3 1l-23 4l-5 1l-17 5l-15 4q-16 7 -25 14q20 28 50 36q21 1 38 -7zM956 1076q-10 -13 -108 -109q54 -78 117 -117l114 119q-59 49 -83.5 76.5t-39.5 30.5zM723 1076q-10 -13 -108 -109q54 -78 117 -117l116 116l-2 3q-59 48 -83.5 76t-39.5 31z" />
  </g>

</svg>
