<?xml version="1.0" standalone="no"?>
<!DOCTYPE svg PUBLIC "-//W3C//DTD SVG 1.1//EN" "http://www.w3.org/Graphics/SVG/1.1/DTD/svg11.dtd" >
<svg viewBox="0 -410 2048 2048">
  <g transform="matrix(1 0 0 -1 0 1638)">
   <path fill="currentColor"
d="M757 514l-3 -1l-3 -1l-2 -1l-6 -2q-1 -1 -2 -1q-6 -5 -13 -8l-3 -3l-6 -5q-7 -9 -14 -14q-91 -116 -85 -245q2 -25 16 -46q2 -1 2 -2q8 -6 12 -11q8 -3 12 -7h3l2 -2h3l3 -1l8 -3h3l2 -1q11 0 18 -2h17q8 2 14 1l19 3h4q3 1 5 1q3 1 5 1q6 2 10 3h3l18 5q8 2 14 4h4
q1 1 3 1l3 2l3 1q6 1 11 3l8 2q4 3 8 3l7 3l2 -6q4 -6 5 -11q4 -4 5 -9l1 -2l1 -2v-3q6 -11 8 -21l2 -2v-3l3 -7l2 -8l2 -6q2 -5 3 -12q2 -4 3 -8l1 -3l1 -6v-3l2 -8l1 -6q3 -8 3 -15l1 -4v-6q4 -15 3 -25v-3q2 -4 1 -8v-43l-4 -3l-4 -3l-3 -3l-2 -1l-6 -4q-6 -7 -12 -9
l-2 -3l-4 -3l-2 -1q-5 -3 -8 -6l-3 -1q-1 -2 -3 -2q-1 -2 -2 -2l-2 -2l-3 -1q-6 -6 -12 -8q-8 -7 -15 -10l-1 -2q-11 -7 -18 -10q-5 -5 -9 -7l-4 -2l-3 -2l-7 -4q-11 -6 -18 -9l-1 -2l-3 -1l-11 -6l-7 -3q-5 -4 -10 -5l-2 -2l-4 -1l-2 -2l-11 -5l-7 -3q-5 -3 -10 -4
q-8 -5 -14 -7l-15 -6l-10 -4l-4 -1q-14 -6 -24 -8q-10 -5 -18 -6l-4 -1l-4 -2q-8 -2 -14 -4l-4 -1l-5 -1l-16 -4l-6 -1h-3l-4 -1l-4 -1l-4 -1h-3l-14 -3h-4l-2 -1l-16 -2h-4h-4l-4 -1h-4q-13 -1 -22 -1q-7 -1 -13 -1h-14l-5 1h-4h-3h-4q-8 0 -12 1h-4h-4l-2 1l-16 1
q-6 2 -11 2l-4 1h-3l-7 2l-3 1l-10 1l-3 1l-2 1l-12 3l-3 1l-3 1l-3 1h-3l-3 1l-18 7q-170 70 -211 232q-3 7 -4 12v3l-1 2q-1 11 -3 18q-15 161 70 281l1 4l2 2l1 2l2 3q6 13 11 21q13 29 3 44q-24 -3 -45 -28l-2 -4q-5 -5 -7 -9l-10 -14q-129 -235 -89 -464l2 -5l1 -4
l1 -4l1 -4l1 -4l1 -2l2 -9l1 -4q4 -8 5 -14l2 -3l3 -11q5 -9 7 -16l2 -4l2 -2l2 -6q6 -9 9 -16l2 -3l2 -4l3 -3l1 -3q6 -7 9 -13l4 -6q2 -1 2 -2l2 -2l1 -2l2 -1l2 -3q7 -8 10 -13l4 -3l2 -3l3 -3l2 -1l1 -2q7 -5 10 -10q9 -6 14 -12l5 -4q8 -4 13 -10q120 -77 248 -71h4h4
h4h4h4h4h4h4h4h4l4 1h4q6 0 10 1h3q6 0 10 1q10 0 17 2q16 1 27 4h6l2 1q10 1 16 3l17 3l4 1l6 1l4 1l6 1l4 1q2 1 3 1l30 8l16 6l18 5l3 2l3 1l13 4q2 1 3 1l2 2h3q10 6 19 8q6 4 10 5l4 2l10 5l4 2l4 2l4 1q6 4 10 6l3 1l2 2l4 1q1 2 2 2l3 2l3 1l2 2l7 3q6 6 13 8l3 3
l4 3l10 6l3 3l7 4l1 2l2 1q5 3 8 6l6 4q4 5 9 7l2 3l3 2q11 12 20 18l3 4l3 2l2 3q5 7 11 11l11 15l2 2l10 12q3 7 7 10l6 11l2 3l2 3l2 2l1 3l2 3l1 3l2 2l1 2l1 2l1 3l9 16q118 315 -74 550l-1 3q-2 1 -2 2l-2 2l-1 3l-2 1l-4 7q-5 4 -7 9l-3 2l-2 3l-3 2l-5 6
q-10 7 -15 13q-26 15 -52 13q-2 -1 -3 -1zM834 1124q-10 -13 -108 -109q54 -78 117 -117l114 119q-59 49 -83.5 76.5t-39.5 30.5zM601 1124q-10 -13 -108 -109q54 -78 117 -117l116 116l-2 3q-59 48 -83.5 76t-39.5 31z" />
  </g>

</svg>
