<?xml version="1.0" standalone="no"?>
<!DOCTYPE svg PUBLIC "-//W3C//DTD SVG 1.1//EN" "http://www.w3.org/Graphics/SVG/1.1/DTD/svg11.dtd" >
<svg viewBox="-353 -410 2048 2048">
  <g transform="matrix(1 0 0 -1 0 1638)">
   <path fill="currentColor"
d="M441 586q-1 -4 -3 -7l-2 -7l-4 -6q-1 -6 -4 -9l-1 -3l-7 -16l-2 -6l-4 -6l-2 -7l-2 -2q-2 -7 -5 -12l-7 -16q-2 -6 -5 -10l-1 -4l-2 -3q-3 -8 -6 -13q-3 -9 -7 -15v-3l-2 -3l-1 -2l-1 -2l-1 -3l-1 -2l-1 -2q-3 -8 -6 -12l2 -5l2 -4l2 -3l2 -4l2 -3l3 -4q3 -5 4 -9
q8 -10 11 -20l2 -2l5 -12q4 -5 5 -10q72 -143 55 -285l-8 -11l-2 -1q-3 -7 -8 -10l-1 -3l-2 -1l-1 -2l-2 -1l-1 -2l-1 -2l-2 -2l-2 -1q-6 -9 -13 -14l-1 -3l-3 -2l-11 -12l-2 -1q-4 -4 -7 -6q-4 -5 -9 -8l-1 -2l-6 -4q-5 -6 -11 -9q-2 -3 -6 -5l-1 -2l-3 -1l-1 -2l-7 -4
q-6 -7 -13 -9q-1 -2 -2 -2l-2 -2l-3 -1q-1 -2 -2 -2l-2 -1l-2 -2l-7 -4l-3 -1q-5 -5 -11 -7l-2 -2l-18 -10q-6 -2 -10 -5l-4 -1q-5 -4 -10 -5l-6 -4h-3q-8 -6 -16 -7q-4 -3 -9 -4q-4 -3 -8 -3q-2 -1 -3 -1l-2 -2h-3q-6 -3 -12 -4q-8 -4 -15 -5l-3 -2h-3q-1 -1 -2 -1l-3 -1
q-14 -5 -23 -6l-3 -1l-3 -1q-6 -2 -11 -2q-18 -6 -30 -6l-4 -1q-11 -3 -19 -3l-4 -1l-3 -1h-8q-8 -2 -15 -2l-3 -1h-5l-8 -1h-4q-9 -2 -17 -1l-4 -1h-3h-13l-4 -1h-5h-5h-4h-4h-18h-4h-11h-4h-3l-3 1h-3q-9 0 -16 1h-4h-3h-7q-14 2 -22 2l-2 1h-7l-3 1h-3l-16 2h-3l-13 2
l-5 1h-3l-14 3l-5 1h-5l-23 5q-8 1 -13 3l-17 3l-4 1l-3 1l-3 1l-3 1h-3l-3 1l-3 1l-3 1l-3 1h-3l-2 1l-16 4l-2 1l-15 7q-13 4 -23 0q3 -18 22 -34l3 -1l2 -2l3 -2l2 -2l2 -1q10 -9 17 -13l6 -6l3 -1l2 -2l3 -2l2 -1l2 -2l19 -14q9 -5 14 -9q5 -3 8 -6l4 -1l8 -6l3 -2l3 -1
q4 -3 7 -5l3 -1l2 -2l3 -2l3 -2l3 -1l2 -2q14 -6 22 -12l4 -1l19 -10l5 -2l4 -2l4 -3q8 -2 13 -5l13 -6l4 -1l3 -1l5 -2l3 -2h3l3 -1l3 -2l3 -1l3 -1l8 -2l3 -1l13 -5h4q6 -2 11 -3l4 -1l4 -1l3 -1l17 -4h3l12 -3h4l31 -4h8h20h4h4h4h5h8h4h4l7 1h3l12 1q2 1 3 1h3l3 1l9 1
l8 2l16 3q7 3 12 4l4 1l13 4l4 2l13 4l3 2l4 1l2 1l4 1l4 2l3 1q4 3 8 4l3 1q9 7 18 9l3 3l3 1l3 2l9 5l2 2l3 1q6 5 12 7l1 2l6 4l9 5l3 3q4 4 8 5q2 3 4 4l2 2l6 4l4 3q1 2 2 2l3 2l1 2q12 9 18 16l4 2l2 3l4 3q3 5 7 7l2 3l7 6l1 2l3 2q3 5 7 7q5 7 10 11q6 8 11 12l2 4
l3 3l3 4l9 10l2 3l10 12l2 3l2 3l3 3l2 3q3 5 6 8l2 3l1 2l2 2q2 4 5 6q4 8 9 13l1 4l2 1q2 5 4 8l1 4l2 3q3 7 6 11l1 5l6 11l2 5l2 5l2 5l2 4l2 5l1 5l5 11l1 4l1 4l2 5l3 6l1 5l1 4l2 6l1 3l1 4l5 17v3l4 12q1 10 3 17l1 6l2 11l1 4l1 4v4l1 5v4l1 3v5l1 4v4l3 25v14v5
v31v14v3v3v3v4q-2 16 -2 25l-1 2l-1 9v3l-2 17q-2 8 -2 15q-1 3 -1 5l-1 4l-1 5l-1 4l-1 3v5q-3 7 -3 13q-1 2 -1 3l-2 8q-4 12 -5 21l-3 7v3q-2 4 -3 8l-2 8q-3 6 -4 11l-2 7q-4 7 -5 13q-4 10 -6 17q-5 8 -6 15l-3 4l-1 4q-4 7 -5 12l-2 3l-2 4l-1 4q-4 7 -6 13l-2 4l-2 3
l-2 4l-1 3l-2 2l-1 3l-1 3l-2 2q-3 8 -6 12q-4 9 -8 14zM316 1230q5 -28 26.5 -154.5t22.5 -140t1 -38.5l-4 -21q-10 -28 -30 -44l-3 -1q-53 -15 -131 -17q-2 -1 -2 -2q34 -24 67 -27q156 -15 235 15.5t105.5 66t-3.5 98.5q-36 41 -75.5 35t-65 -29.5t-61.5 -56.5
q-12 -19 -17 -24l3 7l6 14q9 20 9 55q-46 299 -49 308h-2h2h-2zM572 879h-3q-4 -3 -49.5 -19.5t-85 -21t-51.5 -6t-18 -1.5q16 28 33 46t29.5 31t47.5 33l16 3q71 3 81 -65z" />
  </g>

</svg>
