<?xml version="1.0" standalone="no"?>
<!DOCTYPE svg PUBLIC "-//W3C//DTD SVG 1.1//EN" "http://www.w3.org/Graphics/SVG/1.1/DTD/svg11.dtd" >
<svg viewBox="-349 -410 2048 2048">
  <g transform="matrix(1 0 0 -1 0 1638)">
   <path fill="currentColor"
d="M467 414q-8 -9 -11 -16q-1 -5 -3 -8l-6 -11l-1 -3l-9 -16l-2 -6l-1 -3l-9 -16l-2 -6l-2 -2q-3 -10 -7 -15l-2 -4l-2 -5l-2 -4q-3 -7 -6 -11q-3 -8 -6 -13l-2 -4l-1 -2q-2 -5 -4 -8q-2 -6 -4 -10l-2 -2q-4 -12 -9 -18l1 -5q3 -4 3 -8l2 -2l1 -5l2 -3v-3q1 -1 1 -2
q6 -13 8 -23q4 -7 5 -12v-3q6 -13 7 -23q3 -5 3 -11q3 -7 3 -13q2 -4 2 -7l1 -3l2 -10l1 -2v-3q2 -8 2 -13q2 -6 2 -11q2 -6 3 -16q0 -11 2 -18v-13q2 -6 1 -11v-18l1 -3q-2 -14 -1 -22l-13 -19l-3 -2l-1 -3l-2 -2l-2 -3l-2 -2q-1 -2 -2 -2l-4 -6l-2 -1l-12 -15l-2 -1
q-6 -8 -12 -12l-2 -3l-2 -1q-4 -4 -7 -6l-2 -3l-3 -2l-3 -2q-3 -4 -7 -6q-1 -2 -2 -2q-6 -6 -12 -9l-1 -2l-3 -2l-7 -4q-9 -9 -17 -12q-1 -2 -3 -2q-1 -2 -3 -2q-4 -4 -8 -6l-5 -2l-3 -2l-2 -2l-18 -9l-2 -2l-7 -4l-3 -1l-12 -5l-2 -2l-2 -1l-22 -9l-3 -2l-3 -1l-2 -1l-6 -2
l-7 -2q-8 -4 -14 -5l-3 -2l-2 -1l-16 -4q-1 -1 -2 -1q-14 -5 -23 -7l-4 -1l-13 -3l-4 -1l-4 -1l-4 -1l-4 -1l-4 -1l-4 -1h-4q-2 -1 -3 -1l-14 -3h-3q-12 -3 -20 -3q-217 -30 -392 53l2 -3l2 -5l2 -1l1 -3l2 -1l1 -3q7 -7 10 -13q8 -6 11 -13q188 -193 431 -145l12 2l4 1l4 1
l4 1l5 1q6 3 12 4l4 2l5 1l5 2l4 1l3 1q4 3 8 3q4 3 8 3q9 5 16 7l4 2q6 4 10 6l4 2l4 1l3 2l4 2q1 1 2 1q6 5 12 7l3 2q1 1 2 1q9 7 16 10q5 5 9 7l2 2l3 1q1 1 2 1q4 5 8 6q2 3 4 4l4 2l3 3q4 4 8 6q6 7 13 11q5 7 11 10l4 5l4 3q5 6 9 10l2 1q4 5 7 8l3 1q1 2 2 2l2 3
l4 4l3 2l3 4l2 3l3 2l3 3q1 2 2 2l2 3q3 5 7 7q3 6 7 9l2 3q5 9 11 14q3 6 7 10q4 8 7 12l2 4l3 3l2 3l1 3l2 3l2 3l4 6l1 3l9 16l5 11l6 11l4 7l1 3l3 8q7 11 9 20l3 4q2 8 5 13l2 5l2 6l5 11l1 3l3 7l1 4l2 3q1 5 3 8l4 12l7 -2l3 -1l3 -2q10 -2 17 -5l15 -5q6 -1 10 -2
l3 -1l5 -1l4 -1l3 -1h3l2 -1q11 0 18 -3h5h4l11 -2h4h4l4 -1h11h3l17 -1q9 2 16 1v20v3v3v31v7v6v7v6v5v6v4v18v11v4v4v4v4v17v3v12q-164 11 -198 177q-1 2 -1 3q-1 1 -1 3q-3 10 -4 17l-1 2v3q-4 9 -4 17q-4 18 -14 19z" />
  </g>

</svg>
