<?xml version="1.0" standalone="no"?>
<!DOCTYPE svg PUBLIC "-//W3C//DTD SVG 1.1//EN" "http://www.w3.org/Graphics/SVG/1.1/DTD/svg11.dtd" >
<svg viewBox="0 -434 2048 2048">
  <g transform="matrix(1 0 0 -1 0 1638)">
   <path fill="currentColor"
d="M1636 579q-11 -3 -18 -4l-8 -2q-3 -2 -6 -2l-6 -4l-14 -6l-6 -2l-4 -2q-20 -12 -34 -18l-8 -6q-8 -8 -16 -12l-4 -4l-6 -2q-2 -3 -4 -4l-6 -4l-2 -4l-6 -2q-15 -18 -30 -26l-6 -6l-6 -8l-8 -6l-8 -10l-32 -30l-6 -6l-2 -6l-4 -4l-6 -4l-12 -16l-4 -2l-2 -4l-22 -24l-8 -8
q-10 -17 -18 -26l-22 -24l-8 -10l-2 -4l-14 -20l-6 -4l-4 -8l-4 -6l-4 -4l-14 -18q-6 -9 -12 -14l-2 -4q-9 -15 -18 -24l-14 -22q-200 27 -236 216l-6 4l-6 -8l-4 -10l-14 -24q-5 -16 -12 -24l-2 -6l-14 -32l-4 -8l-2 -8l-4 -4v-6l-4 -4v-6l-4 -4q-4 -20 -12 -34v-6
q8 -12 10 -22l4 -4l2 -4l4 -12l12 -26l2 -6q5 -11 8 -16v-6l6 -14l2 -6l4 -6l4 -18l4 -6l4 -20q7 -15 10 -28t4 -22q5 -11 6 -28q2 -3 2 -6l2 -6l2 -8v-8q6 -27 6 -44q-144 -120 -306 -142q-235 -33 -380 118q-144 176 -22 396q4 20 12 34q10 28 -4 36q-3 -3 -6 -4l-4 -6
l-6 -4l-4 -8l-6 -4l-2 -4l-4 -4q-12 -18 -22 -28q-4 -10 -8 -18l-4 -2l-4 -12q-80 -139 -82 -282q3 -210 168 -308l4 -4l6 -2l4 -4l6 -2l4 -2l38 -18q416 -120 640 208v2v-2v2q60 103 56 212h8l20 -6q19 -1 32 -6l28 -2l20 -4h8q12 0 22 -2h14h6h6q18 0 32 -2l8 2h8h8h26h8
q28 4 46 4l10 2q15 1 26 4h12l12 4h10l8 2l12 2l8 2l12 2q3 2 6 2l4 2l6 2h6q31 11 52 14h6q12 -4 22 -4q12 -4 22 -4q11 -3 20 -4l8 -2h6q16 -4 28 -4q24 -6 42 -6l10 -2l6 -2h10h8l6 -2h10l8 -2h8l50 -6h10h8h6l8 -2h6h6h14h10h6h6l16 -2l32 2v62v28v6v10v6v8v6v40h-8h-10
h-8h-10h-8h-10h-26h-8h-34h-6h-24q124 164 52 324l-2 2l-4 6q-2 2 -2 4q-4 2 -4 4q-2 2 -2 4l-2 2q-4 2 -4 4l-8 8l-12 10l-30 20l-4 2l-6 2l-4 4l-6 2l-26 10l-20 4h-6h-36q-3 -2 -6 -2zM1746 249l-6 -2q-2 -2 -4 -2l-18 -8l-46 -18l-22 -8l-8 -2l-8 -2q-2 -2 -4 -2
l-32 -12l-12 -2l-8 -2l-4 -2l-18 -6l-12 -2l-22 -6h-8q-11 -5 -20 -6h-8q-3 -2 -6 -2h-6q-12 -5 -22 -6q-19 -1 -32 -4h-8h-8q-12 -3 -22 -4h-26l-6 -2h-6h-26h-6l-44 2q4 12 10 18q8 13 14 20q2 3 4 4l2 6l12 16l4 6l2 4l4 4l4 4q13 21 26 32q6 10 14 16l2 4q2 3 4 4
q7 9 12 14q7 6 10 12l4 4l4 4l4 4l18 16l14 12l4 4l4 4l6 4l6 4l12 8q12 12 24 16q11 9 22 12l12 8h6q30 15 58 16q137 -13 156 -182z" />
  </g>

</svg>
