<?xml version="1.0" standalone="no"?>
<!DOCTYPE svg PUBLIC "-//W3C//DTD SVG 1.1//EN" "http://www.w3.org/Graphics/SVG/1.1/DTD/svg11.dtd" >
<svg viewBox="-71 -410 2048 2048">
  <g transform="matrix(1 0 0 -1 0 1638)">
   <path fill="currentColor"
d="M892 606h-3l-17 -3q-6 -2 -11 -3q-6 -3 -11 -3q-2 -1 -3 -1l-3 -2l-5 -1l-3 -2l-4 -1q-6 -4 -12 -5q-9 -7 -18 -9l-3 -3l-4 -2q-6 -3 -10 -6l-10 -5q-5 -5 -9 -7q-7 -4 -10 -7q-6 -4 -10 -6l-1 -2l-3 -1q-9 -10 -18 -14q-5 -7 -12 -10l-3 -4l-5 -3l-3 -4l-6 -4
q-7 -8 -11 -11l-4 -3l-3 -4l-4 -2l-3 -3l-3 -3l-8 -8l-2 -3l-3 -2l-1 -2l-3 -2l-5 -5l-1 -2l-2 -1q-5 -7 -10 -10l-1 -3l-2 -2l-3 -3l-2 -2l-2 -1q-5 -7 -10 -11l-2 -3q-7 -8 -12 -12q-3 -5 -6 -7q-1 -2 -2 -2q-6 -10 -14 -16l-2 -3l-2 -3l-3 -2l-1 -2l-5 -5q-4 -7 -8 -11
q-7 -9 -12 -13l-1 -2q-1 -2 -2 -2q-6 -9 -11 -14l-4 -6l-5 -5l-4 -5l-4 -6l-2 -1q-5 -9 -11 -14l-4 -5l-1 -3l-8 -9q-5 -9 -11 -14q-4 -8 -10 -13l-2 -3l-2 -4l-2 -3l-3 -2l-2 -4l-3 -3q-4 -7 -7 -10q-3 -5 -6 -7q-3 -6 -7 -10l-10 -15q-121 40 -143 153
q-151 -178 -349 -158v-175l74 2q1 1 3 1l3 1h3h3q7 2 13 2q6 2 11 2l1 5q115 45 174 144q2 -1 2 -2l1 -4q1 -1 1 -3q3 -4 4 -9q6 -11 9 -18q2 -1 2 -3l4 -6q6 -6 9 -12l2 -1l1 -2q2 -1 2 -2l2 -1l1 -2l9 -10l3 -2l8 -6l2 -3q3 -2 10 -7l4 -3l3 -1l9 -7l11 -5l3 -2l2 -2l2 -1
l2 -1l3 -1l2 -1l2 -1l12 -6l12 -4l4 -2l4 -1l4 -2q1 0 4 -1l5 -2l6 -1l5 -2l5 -1l4 -1q6 -2 11 -3l5 -1l10 -3h3l25 -5h3h4l2 -1q10 0 17 -2h8l2 -1h8l20 -1h11h5h13h4h17h3h12q262 23 442 175q150 203 80 273q-1 1 -1 3l-1 3l-1 8l-2 3q-2 12 -7 21q-44 101 -157 126h-5h-3
h-4h-3h-20q-1 -1 -3 -1zM829 450h3h8h7q4 -1 8 -1l2 -1l14 -2q5 -2 8 -3l3 -1l8 -3l3 -2l21 -12q57 -51 71 -119q1 -2 1 -3l5 -17v-3q3 -8 3 -14q3 -10 3 -18l-11 -4l-4 -2l-17 -7l-4 -1l-2 -2l-4 -1l-6 -2q-13 -7 -24 -9q-1 -1 -3 -1l-2 -2q-8 -2 -14 -5l-12 -3l-4 -2
l-8 -2l-4 -2q-6 -3 -11 -3l-16 -6h-3q-5 -3 -8 -3h-3q-1 -1 -2 -1q-14 -5 -23 -6q-5 -3 -8 -3h-3q-5 -3 -8 -3h-4q-9 -4 -17 -4q-5 -2 -9 -3l-10 -1q-14 -4 -22 -5l-3 -1h-6q-2 -1 -3 -1l-4 -1h-3l-3 -1h-3l-2 -1l-18 -2l-19 -3h-4l-17 -2h-3h-4l-4 -1h-4h-5l-3 -1h-3h-3
l-7 -1h-4h-18q-8 -1 -13 -1h-31h-3q-6 1 -11 1h-8h-3l-4 1h-3l-20 1q-6 1 -1 7l2 2l1 3l2 1q4 8 7 12q8 13 15 20q5 11 12 17l2 4l3 3l2 4l1 2l2 1q5 9 11 14l1 3l2 1q3 7 8 10q8 14 18 22q5 8 11 13l2 3l2 3l8 8l11 13l2 2l2 2l2 1l1 2l2 1q4 5 7 8l3 3l9 8l2 3l2 2l2 1
q4 4 7 6l2 3l5 3q3 5 7 6l2 3l3 1l2 3l2 2l6 4l2 2l2 1l6 4l1 2l9 5l1 2l4 2l3 2l4 2q1 2 2 2l3 2l2 2l4 1q1 2 3 2l2 2l7 4l22 11h3l2 2l3 1l10 3q1 1 3 1l3 2h4q1 1 3 1q2 1 3 1l3 1l2 1h3l23 4h3z" />
  </g>

</svg>
