<?xml version="1.0" standalone="no"?>
<!DOCTYPE svg PUBLIC "-//W3C//DTD SVG 1.1//EN" "http://www.w3.org/Graphics/SVG/1.1/DTD/svg11.dtd" >
<svg viewBox="-50 -410 2048 2048">
  <g transform="matrix(1 0 0 -1 0 1638)">
   <path fill="currentColor"
d="M880 603q-10 -3 -17 -4l-4 -1l-14 -5q-5 -2 -10 -3q-7 -5 -14 -6l-2 -2l-3 -1l-7 -3q-5 -4 -10 -5q-9 -7 -13 -9l-18 -10l-4 -4l-5 -3l-3 -1l-1 -2l-2 -1l-2 -2l-2 -1l-2 -2l-6 -4l-2 -2q-6 -3 -9 -7l-7 -4q-5 -7 -12 -10l-4 -4l-5 -4l-3 -4l-6 -4q-7 -8 -13 -12l-4 -4
q-4 -4 -7 -6l-3 -4l-3 -3l-2 -2l-4 -3l-2 -3l-3 -2l-1 -2l-3 -2l-5 -5l-1 -2l-2 -1q-5 -7 -10 -10q-2 -3 -4 -5q-3 -5 -7 -7l-2 -3l-3 -4l-6 -5l-1 -2l-9 -10l-2 -1q-3 -5 -6 -8q-4 -5 -7 -7q-1 -2 -2 -2q-5 -8 -10 -13l-2 -1q-4 -8 -10 -12l-4 -6l-5 -5l-4 -5l-4 -6l-2 -2
l-2 -1q-5 -10 -12 -15q-2 -4 -5 -6q-2 -4 -4 -6l-5 -5q-1 -3 -4 -6l-4 -5l-3 -5l-2 -1l-1 -3q-5 -5 -8 -10l-10 -12l-9 -13l-9 -10l-3 -4q-4 -7 -7 -10l-3 -5l-3 -2l-1 -3l-2 -3l-3 -3l-2 -3l-2 -3l-1 -2l-2 -2l-1 -2l-3 -2l-1 -2q-3 -6 -8 -11q-121 39 -142 153
q-111 -145 -328 -157v-175l53 1l4 1q3 1 4 0q1 1 3 1h3q13 4 22 4l1 5h3q13 7 22 9q98 51 149 135l2 -3l1 -3l1 -3l1 -3l2 -3l1 -3l2 -3l1 -3q3 -5 4 -9l2 -2l1 -3q5 -5 7 -10q6 -6 9 -12q9 -7 14 -14l3 -2l3 -3l3 -2l8 -8l3 -1q5 -4 7 -6q11 -5 17 -11q12 -4 19 -10l4 -1
l4 -2l5 -2l4 -2l5 -2l5 -2l4 -1q2 -1 11 -4l3 -1l3 -1l2 -1l6 -2q10 -2 16 -5q8 -1 14 -3l6 -1l5 -1l14 -3h4l10 -2h4l5 -1l3 -1h3q11 0 18 -2h13q13 -2 22 -1h14h3h5h3h4h3h20h4l5 1h4h5h3l4 1h7q10 2 18 2l3 1h4l2 1l29 4h3q6 2 11 2l5 1l16 4l7 1l6 2l5 1l4 1l5 1l3 1
l5 1q6 3 11 3q6 3 11 3l4 1q2 1 3 1l3 2h3q1 1 3 1q4 3 8 3q8 3 12 4l3 -1l2 -1q6 0 10 -2h5l3 -1h3q9 -3 16 -3l4 -1l5 -1l3 -1h3l3 -1h3l2 -1q11 0 18 -3h3h3l17 -3h3q6 -2 11 -2l3 -1h5l3 -1h4l2 -1h3h3q4 -1 8 -1l7 -1l2 -1q8 0 12 -1h3l2 -1q11 0 18 -2q6 0 11 -1h4
l17 -2h8l7 -1h3l7 -1h6h3q6 -2 11 -1l7 -1h10l5 -1h17q9 -2 16 -1h4h4h5l4 -1h13h10h4h14h3h3h3h4h3h3h10l9 1v20v3v3v31v7v6v7v6v5v6v4v18v11v4v4v4v4v17v3v12h-7h-8h-3h-5h-3h-4h-3h-20h-4h-5h-13h-4h-17h-3h-12h-4h-4h-3h-18h-13h-4h-17h-3h-12q98 134 76 278l-2 8
q-4 7 -4 13l-2 2q-42 107 -159 132h-5h-3h-4h-3h-20q-8 -2 -14 -2zM826 448h3h3h3h3h8l3 -1h7q6 -2 11 -2l2 -1l11 -3q5 -3 9 -4l3 -1l4 -2l2 -2l3 -1q6 -5 11 -7q56 -50 71 -117l2 -3v-4q1 -2 1 -3q3 -8 4 -14l1 -3q1 -6 2 -10v-3q3 -10 3 -17l-6 -2q-6 -4 -12 -5l-4 -3
l-5 -2l-5 -2l-5 -2q-8 -2 -13 -5l-5 -2l-11 -4l-4 -1l-4 -1q-1 -1 -2 -1q-13 -7 -23 -8q-1 -1 -3 -1q-2 -1 -3 -1l-7 -3q-13 -5 -23 -7l-3 -2h-3l-3 -1l-2 -1l-16 -5h-3l-4 -2h-3q-13 -5 -23 -6l-4 -1q-1 -1 -3 -1l-4 -2h-3l-13 -3l-25 -6h-4l-6 -1l-5 -2h-4l-4 -1l-4 -1h-3
l-4 -1l-7 -1l-18 -3l-13 -1l-4 -1l-4 -1h-8q-8 -2 -15 -2h-5q-8 -2 -13 -2h-5h-3h-3l-3 -1h-3h-3q-9 0 -16 -1h-4h-4h-3h-20h-5h-14h-5h-3l-7 1h-6h-3q-8 0 -12 1h-10q-12 0 -6 7l3 3q2 4 4 6q7 14 15 22q2 5 4 8l3 2l1 3l2 3l2 3q5 6 8 11l2 2q6 9 11 14q3 5 6 8l2 3
q1 2 2 2q9 14 18 22l2 4l2 2l2 2l2 3l2 3l2 1q1 2 2 2l11 14l2 2l8 8q5 6 9 10l10 10l3 3l4 3l3 3l2 3l4 3l3 3l2 3l3 2l3 3l3 2l2 3l4 3l3 2l4 3q1 2 2 2l3 3l6 4l14 12l2 1q5 3 8 6l4 2q6 4 10 6q1 2 3 2q4 4 8 5l3 2l2 1l3 1l1 2l2 1q8 3 12 6l3 1q8 3 13 6h3q2 1 3 1
q1 1 2 1q13 5 23 7l23 4h3z" />
  </g>

</svg>
