<?xml version="1.0" standalone="no"?>
<!DOCTYPE svg PUBLIC "-//W3C//DTD SVG 1.1//EN" "http://www.w3.org/Graphics/SVG/1.1/DTD/svg11.dtd" >
<svg viewBox="-60 -410 2048 2048">
  <g transform="matrix(1 0 0 -1 0 1638)">
   <path fill="currentColor"
d="M1262 845l-6 -11l-3 -6l-2 -2q-3 -9 -7 -15l-3 -4l-7 -16l-4 -5l-1 -4l-2 -4l-1 -2q-3 -6 -9 -15q-4 -13 -11 -21l-1 -4l-2 -3l-4 -9l-2 -2q-6 -13 -11 -21l1 -7l2 -7q2 -3 2 -6q2 -3 2 -6l3 -6l1 -6l2 -5q1 -5 3 -8v-3q3 -6 4 -12q4 -8 5 -15q1 -2 2 -5l1 -5q1 -2 2 -5
l1 -4l2 -4l1 -5l2 -3v-3q1 -2 1 -3q1 -1 1 -3q1 -2 1 -3q4 -10 6 -17q3 -8 4 -15q-200 10 -200 160l-5 -12q-1 -6 -4 -10q-27 -82 -85 -131l-3 -1l-6 -4l-2 -2l-3 -1l-2 -2l-4 -1q-13 -8 -24 -10q-17 -3 -30 -2l-17 1l-3 1l-16 4q-65 29 -98 82l-3 2l-2 3l-1 3l-2 3l-3 3
l-1 4q-8 10 -11 19q-5 6 -7 14l-4 7l-3 3l-6 7l-1 3l-3 2l-2 2l-4 6q-11 9 -18 16q-50 33 -84 16q-2 -1 -3 -1l-4 -2l-4 -1q-6 -4 -12 -5q-6 -5 -11 -6q-6 -6 -13 -8l-2 -3l-3 -2l-3 -1l-3 -3l-3 -2l-3 -3l-3 -1q-1 -2 -2 -2q-5 -5 -9 -7l-1 -2l-6 -4l-1 -2l-2 -1
q-4 -5 -7 -8q-170 -143 -199 -342l-4 -2q-8 -8 -12 -10l-2 -1l-6 -4q-5 -6 -11 -10q-1 -2 -3 -2q-6 -8 -12 -11q-3 -5 -7 -7l-2 -3l-3 -2q-1 -2 -2 -2l-1 -2l-2 -2l-2 -1l-1 -2l-2 -1q-4 -5 -7 -8l-3 -3l-9 -8l-2 -3q-5 -5 -9 -7q-1 -2 -2 -2l-1 -2l-20 -17
q-79 -50 -219 -40v-174q125 3 161 32l4 2l4 3q1 2 3 2l2 3l2 1q4 3 8 5q8 9 15 13l2 3l11 8q6 8 12 11q1 2 2 2q1 2 2 2l1 2l3 2l1 2l3 3l2 2l2 1q5 7 11 10l2 3l6 5q5 7 11 11l2 3q5 5 10 8l2 3l3 2l2 3q4 4 8 6q1 2 2 2q5 7 11 10l5 6l3 2q7 7 14 11q6 7 13 10l1 -3l6 -10
l2 -3l1 -4l2 -1l13 -19q6 -5 10 -10l2 -3q5 -3 7 -7q2 -1 2 -2l3 -2l4 -3l1 -2l6 -4l5 -6q7 -4 11 -9l4 -2l11 -9l5 -3l3 -2l2 -1l2 -2l14 -10l3 -2l3 -2l6 -4q7 -4 12 -8q8 -3 12 -7l6 -3l4 -3l4 -2l14 -8l7 -4l3 -1q6 -5 7 -5l13 -6l3 -2l3 -2l21 -11l2 -1q2 -1 12 -5
q74 78 83 174l-2 3l-1 3l-2 3l-3 4q-3 4 -4 9l-2 3q-4 4 -5 8l-2 3l-1 2l-2 2q-4 9 -9 14q-69 115 -176 140h-3h-3l-3 1h-4h-4h-3h-4h-8h-4h-3q-8 -2 -14 -2v4v3v7v3q-2 11 -1 19q0 6 1 11v3l4 15q42 75 109 112l2 2l2 2l3 1l2 2l22 11l2 1l1 2l3 1l3 1q1 1 2 1q1 1 2 1
q1 1 2 1q1 1 2 1q1 1 2 1q11 6 21 8q34 0 56 -20l8 -9l3 -3q7 -7 9 -10l4 -6l14 -16l5 -9q5 -5 7 -8l2 -3l2 -3l2 -2l7 -10l2 -3l2 -2l2 -3l1 -2l2 -3q10 -10 14 -18q6 -6 9 -11l6 -5q3 -5 6 -8l3 -3l2 -1l3 -3l6 -7q9 -6 14 -12l3 -2l3 -1l2 -3q9 -6 15 -9q2 -1 2 -2
q12 -4 18 -9h3l2 -1l2 -1l7 -3h3l2 -1q8 -2 13 -3q15 -4 26 -3q69 24 106 79l2 4l1 3l2 1q4 10 9 16l1 4l2 4l2 3l2 4q6 16 11 25q36 -77 108 -104q78 -26 141 16l2 3l3 1q4 4 8 6l2 3l3 2l3 3l3 4l6 5q3 5 6 7q2 4 5 6q4 8 9 13l1 4l2 2l1 3l2 1q3 8 7 14q63 196 -19 360
q-1 -4 -3 -8z" />
  </g>

</svg>
