<?xml version="1.0" standalone="no"?>
<!DOCTYPE svg PUBLIC "-//W3C//DTD SVG 1.1//EN" "http://www.w3.org/Graphics/SVG/1.1/DTD/svg11.dtd" >
<svg viewBox="0 -410 2048 2048">
  <g transform="matrix(1 0 0 -1 0 1638)">
   <path fill="currentColor"
d="M1422 961q-6 -15 -12 -24q0 -5 -2 -8l-4 -12l-4 -6l-2 -6l-10 -22l-4 -6l-2 -6q-3 -10 -6 -16l-2 -4l-2 -4q-6 -15 -12 -24l2 -10l6 -20l2 -6l4 -10l6 -20l2 -6l2 -8l6 -14l2 -4v-6q7 -14 10 -26q-9 -5 -14 -10q-74 -25 -130 18q-76 53 -64 138l-4 14q-13 -9 -20 -22
q-40 -149 -160 -144q-124 38 -106 194l-6 2l-10 -8l-6 -8l-4 -8l-6 -8l-4 -8l-6 -8q-7 -11 -14 -18l-4 -8l-6 -6l-2 -6l-8 -10q-6 -10 -12 -16l-6 -6l-2 -6q-13 -15 -18 -26l-4 -4l-22 -26l-6 -4l-6 -6l-4 -4l-18 -16l-12 -10q-20 -13 -32 -24l-12 -8l-18 -10l-4 -4l-4 -2
l-4 -2q-20 -14 -36 -20q-2 -3 -4 -4l-6 -2l-4 -4q-10 -5 -18 -8q-13 -10 -26 -14l-10 -6l-8 -6l-26 -12l-22 -12l-26 -12l-8 -6l-6 -2l-6 -2l-4 -4l-38 -18q-14 -12 -28 -16l-4 -4q-12 -6 -20 -12q-201 -106 -244 -302q-24 -63 8 -110l6 -2l2 -4l6 -2l2 -4q13 -4 22 -10h6
l4 -2l34 -10h6l8 -2h6l6 -2h6l8 -2l36 -6h12l10 -2l40 -2h12l6 -2h6h8h36h6h26h62h28h6h6h6h14h8h6h6q13 3 24 2h8h8h6l22 2h20l40 2q23 3 40 2l10 2h10h6l22 2h22l8 2h6h14l6 2h6l32 2h12l12 2h12h6q10 0 16 2l40 2l34 2h12l12 2h12h12l12 2h20l18 2h12h12q6 2 12 2h6l32 2
h14l12 2h8h36q18 4 34 2h16l14 2h34h12h8h6l40 2h10h28h22h6h6h8q31 -4 50 -2q7 13 14 20l14 24l6 8l2 4q7 9 10 16l4 6l4 6l4 4l8 10q11 23 24 36v2v-2l2 4l-6 6h-14l-20 4h-14l-10 2h-14l-8 2h-22l-14 2q-27 -1 -44 2h-34h-8h-10h-26h-8h-34h-6h-24h-10h-6q-19 -3 -32 -2
h-12h-6h-16q-23 -5 -40 -2q-16 -3 -28 -2q-10 0 -16 -2h-20l-40 -2l-14 -2l-40 -2l-44 -2l-8 -2h-6l-44 -4h-10h-6h-8h-6q-2 -2 -4 -2l-40 -2l-14 -2h-14q-10 0 -16 -2h-6h-20l-18 -2h-6l-40 -2l-12 -2q-22 1 -38 -2h-12h-14q-14 -2 -26 -2h-6h-26l-8 -2h-12h-10h-12h-8h-8
l-34 -2h-6h-6h-62l-6 2h-14h-6h-6q-19 -1 -32 2h-6h-16l-40 4l-44 4l-6 2h-6h-6l-6 2h-6q-12 4 -22 4l-8 2l-4 2q-19 2 -32 8v6l4 4l4 6l6 4q2 3 4 4q2 3 4 4q2 3 4 4q2 3 4 4q2 3 4 4q2 3 4 4l4 6l6 4l4 6l6 4l4 4l8 4q2 3 4 4l6 4q20 17 34 26l10 6l8 4l8 6l6 2l6 4l6 4
l8 2l6 6q11 5 18 10l6 2l32 18l8 2l8 4q8 7 16 10l4 2l30 16l4 2l12 4l6 4l14 8q23 11 36 20l6 2l6 2q3 3 6 4l8 6l6 4l28 14l6 6l8 2l6 6l8 6l8 4l8 4q2 3 4 4l14 8q2 3 4 4l6 4q20 19 36 28l4 6l8 4q2 3 4 4q21 25 38 38l2 6q16 15 22 28l4 2l8 14l16 28l6 14l10 24
q3 13 6 22l14 18l10 -4q-12 -168 120 -206q112 -5 158 132q2 -21 6 -34q93 -154 232 -66l2 4l4 4l4 2q10 14 20 22q118 196 24 382z" />
  </g>

</svg>
