<?xml version="1.0" standalone="no"?>
<!DOCTYPE svg PUBLIC "-//W3C//DTD SVG 1.1//EN" "http://www.w3.org/Graphics/SVG/1.1/DTD/svg11.dtd" >
<svg viewBox="-90 -410 2048 2048">
  <g transform="matrix(1 0 0 -1 0 1638)">
   <path fill="currentColor"
d="M718 168h-3q-16 -6 -31 -5q-1 -1 -3 -1q-4 1 -8 1h-3l-13 2q-87 32 -113 123q-66 -134 -196 -124q-122 26 -119 159q-79 -149 -319 -150v-174q52 1 103 2h3l16 4q101 30 142 135l1 -3l1 -7v-6l1 -3v-3q4 -12 5 -20q40 -90 132 -107q11 -2 19 -1h3h3h3h3h3l2 1h3l13 2l3 2
l10 2l2 2h3q8 5 15 7l2 2l21 13l1 2l2 2l3 1q2 4 6 7l6 5q4 5 8 8l9 12l10 13q2 4 6 10l2 3l2 3l1 3l2 2l1 2l1 3q9 15 12 25q29 -101 129 -126q4 -1 8 -1h10h11q9 3 16 3l3 2l9 2l3 2l10 4q8 6 14 8q6 6 12 9q2 3 6 5q5 7 11 11q6 8 11 12q3 6 7 9l5 8l7 11l2 3l2 4l3 3
l2 4l1 3l2 3l2 3l1 3l2 3l2 3q4 13 10 21q34 -143 210 -134v3v5v3v4v3v20v4v5v13v4v17v3v12v4v4v3v18v13v4v17v3v12q-141 8 -160 154q-40 -119 -127 -160z" />
  </g>

</svg>
