<?xml version="1.0" standalone="no"?>
<!DOCTYPE svg PUBLIC "-//W3C//DTD SVG 1.1//EN" "http://www.w3.org/Graphics/SVG/1.1/DTD/svg11.dtd" >
<svg viewBox="-80 -410 2048 2048">
  <g transform="matrix(1 0 0 -1 0 1638)">
   <path fill="currentColor"
d="M796 400l-4 -6l-3 -6l-3 -5l-4 -5l-1 -3l-2 -3l-1 -3l-2 -3l-2 -2l-1 -2l-4 -7l-4 -7l-4 -6l-2 -4l-7 -13l-6 -11l-2 -4l-2 -5l-2 -2l-7 -16l-2 -4l-2 -2l-1 -2l-1 -2l-1 -3l-1 -2l-1 -2l-6 -12l1 -4l9 -19l2 -5l2 -6l1 -4l1 -2v-3q3 -5 5 -13l1 -4l1 -7l2 -6l1 -4l1 -3
l2 -8l2 -8q3 -7 4 -12q-158 -22 -227 123l-4 3q-55 -132 -180 -128q-120 21 -121 154q-47 -90 -129 -126l-12 -4l-3 -1l-3 -1h-3q-1 -1 -2 -1l-16 -4h-4l-3 -1h-4q-2 -1 -3 -1h-3l-2 -1h-11q-1 -1 -3 -1l-100 -1v-166q202 10 249 134q18 -114 127 -141q8 -2 14 -2h11h3l20 1
q5 2 9 2l4 2l3 1h3l7 3l2 1q7 3 9 4q9 6 16 9l2 3l2 1l3 2l6 4q5 6 11 10l1 2l2 2l11 12l2 3l2 3l3 2l2 4l2 3l2 3l3 4l2 4l3 4l2 2l1 4l2 3l1 2l2 2q6 14 11 22q94 -131 231 -110l3 2l7 1l10 4q2 1 3 1l2 2l3 1l22 12l2 3l3 1l17 15l1 2l2 1q6 7 7 8l3 2l1 3l2 2l2 2
q6 9 11 14q3 7 7 11l1 3l4 6l1 3l9 16q0 6 2 11v3v3l1 3q1 8 2 14v5l1 4v5l1 14v5v13v4v17v3v12v3q-2 8 -2 13v4v3l-1 2v3v3l-1 3v3l-2 15l-1 4l-5 22v5l-1 4l-1 4l-2 4l-1 4v4l-2 5l-1 4l-2 8q-4 10 -5 16q-3 6 -3 11l-2 2v3q-5 9 -6 17z" />
  </g>

</svg>
