<?xml version="1.0" standalone="no"?>
<!DOCTYPE svg PUBLIC "-//W3C//DTD SVG 1.1//EN" "http://www.w3.org/Graphics/SVG/1.1/DTD/svg11.dtd" >
<svg viewBox="0 -410 2048 2048">
  <g transform="matrix(1 0 0 -1 0 1638)">
   <path fill="currentColor"
d="M466 1416l-12 -17l-4 -5l-1 -2l-2 -2l-9 -13l-4 -4l-3 -4l-1 -2q-4 -7 -8 -11l-2 -4l-2 -2l-7 -9l-3 -4l-1 -2q-6 -9 -11 -14q-3 -7 -7 -10l-1 -3l-2 -2l-1 -2l-2 -2l-10 -13v-4q3 -14 4 -23l1 -4l1 -4l1 -8l1 -4v-5l1 -3v-4q1 -2 1 -3v-3q1 -1 1 -2v-3q3 -12 3 -20l2 -8
l1 -8l1 -8q4 -14 4 -24l1 -4l1 -7l3 -15v-4l2 -7q1 -11 3 -18v-3q3 -12 3 -20q2 -6 2 -10q2 -8 2 -14l2 -8v-3q2 -4 1 -8q2 -6 2 -12l1 -4l1 -7l3 -15v-4l2 -7q1 -11 3 -18l1 -11q1 -2 1 -3l1 -3v-4l1 -6l1 -6q3 -12 3 -20l1 -4l1 -8l2 -7q1 -11 3 -18v-5q1 -2 1 -7
q1 -1 1 -3l1 -3v-4l1 -6l1 -6q3 -12 3 -20l2 -7v-3l2 -8q1 -7 2 -12l1 -7v-3q3 -12 3 -20l2 -7l1 -7v-4q3 -9 3 -17l1 -2q1 -8 2 -13l1 -7v-3q2 -6 2 -11l1 -6l1 -6l1 -6q3 -12 3 -20q1 -3 1 -6q1 -3 1 -6q1 -3 1 -6q1 -3 1 -6q1 -3 1 -6l2 -6l1 -7l1 -11l4 -19v-5
q4 -13 4 -22l1 -2v-6q3 -10 3 -17l1 -7l3 -14l1 -6l1 -5v-4l3 -16l1 -4l1 -9l1 -4q1 -8 2 -13v-4q2 -6 2 -11l1 -4l2 -39q1 -13 -1 -22v-17l-1 -4v-7q-2 -6 -2 -10l-1 -6v-7l-1 -3l-3 -14l-1 -3l-1 -6l-5 -19q-29 -79 -89 -124l-6 -1h-3q-9 -4 -16 -4l-6 -2h-4q-4 -2 -7 -2
l-2 -1l-7 -1l-6 -1l-6 -2h-5l-5 -2l-5 -1h-5l-3 -1h-3q-6 -2 -11 -2q-9 -3 -17 -3l-3 -1l-18 -3l-7 -1l-7 -1h-4l-2 -1l-16 -2h-7q-4 -1 -8 -1q-9 -3 -16 -2l-4 -1q-10 -1 -17 -2h-8q-4 -1 -7 -1h-3l-25 -3l-19 -1l-6 -1h-8q-8 -2 -13 -1l-5 -1h-6l-4 -1l-22 -1h-5l-31 -3
l3 -1l16 -9l11 -6l10 -5l4 -2l2 -2q12 -4 18 -9l3 -1l3 -1l7 -4q8 -2 14 -6q8 -2 13 -5l5 -1l8 -4q9 -1 15 -5q9 -2 16 -5l5 -1l4 -1l6 -1q8 -2 13 -3q8 -2 14 -3l4 -1l4 -1h4l4 -1h3l14 -3h4l18 -3l17 -1h3q6 -2 12 -1q8 -2 14 -1q10 -2 17 -1l4 -1h6h4h4h4h3l22 -1h3h4h3
h5h3h4h3h20l20 1h5h4h11h3h4l7 1h3h3h3h7l6 1h11l23 2h4h3l7 1l22 1q6 2 11 1l16 2l16 1l6 1l13 1l4 1q10 0 17 2h8q4 1 7 1l5 1h3q4 2 8 1l4 1h4q3 1 5 1q5 1 10 1q1 1 3 1h3l3 1h3l2 1l18 2l17 3l4 1h6q3 1 5 1l6 1l3 1h3q9 3 17 3q3 1 5 1l4 1l8 2l4 1h4l4 1l25 6l3 -1
l3 -1h3l3 -1l18 -4l5 -2l3 -1l8 -2l7 -1q8 -2 14 -4h4q15 -5 25 -6q6 -2 10 -2q5 -2 9 -2l2 -1h3l8 -2l7 -2q8 0 13 -2l11 -2h3l7 -2l17 -2l14 -3h4l3 -1h3h3l3 -1q8 -1 14 -2l14 -1l13 -2h6l16 -2h5h3q8 -1 13 -1l5 -1l20 -1h14l3 -1h14h3h5h3h4h3h20v3v5v3v4v3v20v4v5v13
v4v17v3v12v4v4v3v18v13v4v17v3v12h-4h-3l-20 -1h-6h-14l-6 1h-5h-4h-3l-2 1h-12l-6 1h-5l-3 1h-4h-3q-4 1 -8 1l-4 1h-3h-4l-3 1q-5 0 -8 1l-20 2q99 78 115 190q12 117 -64 193q-98 81 -221 60q-6 -3 -10 -3l-3 -1l-4 -1l-2 -1h-3q-2 -1 -3 -1q-1 -1 -2 -1l-21 -7
q-5 -4 -11 -5q-4 -3 -8 -4l-7 -3l-2 -2l-7 -4l-3 -1l-3 -1q-6 -5 -12 -7q-6 -6 -11 -8l-2 -1q-6 -5 -11 -7l-4 -4l-4 -2l-4 -4l-3 -2l-4 -3l-3 -2l-3 -3q-8 -6 -12 -10l-2 -1l-2 -1q-8 -9 -15 -13l-4 -5q-5 -5 -9 -7l-1 -2l-3 -2l-5 -5l-1 -2l-2 -1q-5 -7 -10 -10l-1 -2
l-3 -2l-5 -5l-1 -2l-2 -1q-5 -7 -10 -10l-4 -6l-5 -5l-6 -5l-1 -2l-4 -5l-2 -1l-13 -15q-4 -4 -6 -7l-2 -1l-7 -9l-5 -5l-4 -5l-2 -2l-11 -13l-2 -1q-6 -9 -12 -14l-3 -5l-3 -3l-3 -4l-4 -3q-3 -5 -7 -9l-3 -4l-6 -7l-9 -10l-4 -6l-3 -2q-1 -2 -2 -2q-7 -12 -15 -18
q2 6 4 10q3 5 4 9l9 18l1 4l1 3l1 2l1 3q5 9 6 16l2 3q5 16 9 25q1 8 4 14l1 5l1 4l5 17l1 7l1 5l1 4l1 5l1 5l1 3v3l1 5v3l1 3v3l1 3q0 11 2 18v4v4v4l1 4v4v4v4v14v4v3v4v6q-1 2 -1 3v3v3v3l-1 3v8q-2 8 -2 15l-2 8l-1 7l-2 16l-1 4l-1 5v4q-1 3 -1 6q-1 3 -1 5l-3 14v4
l-3 17v3q-1 1 -1 3v3q-4 15 -4 25l-2 8v3q-2 8 -2 13q-4 16 -4 25l-1 4v3q-3 9 -3 16l-1 8l-2 8v5l-1 6l-1 4l-1 3v7q-1 3 -1 6q-1 1 -1 3v3l-1 4l-1 3v3l-1 3v3v3q-3 9 -3 17l-2 8q0 5 -1 8l-1 8l-1 8l-2 8l-1 8l-1 8l-2 8v4l-1 2l-2 16q-2 8 -2 14l-1 4l-1 3v3l-1 4v3v3
q-3 9 -3 17l-1 7l-2 7q0 5 -1 8l-1 7l-1 3v3l-3 16v6q-2 8 -3 14v5q-1 3 -1 6l-1 4l-1 3v4l-3 17v3q-1 1 -1 3v3q-4 15 -4 25q-1 2 -1 3v4q-1 1 -1 2v3l-1 3v3l-1 2l-1 12l-2 6v4l-1 2l-2 16l-1 4l-2 17q-1 3 -1 5l-1 3l-2 17q-2 6 -2 11l-2 10l-1 6l-2 16l-1 6l-3 14l-1 7
l-2 17q-1 3 -1 6q-2 9 -3 16l-1 3v4l-1 5v3l-1 4l-1 3v3v3q-3 10 -3 17h-1h1h-1zM1121 281q-10 -4 -17 -6l-3 -2l-5 -1l-4 -2l-5 -2l-4 -1l-5 -2l-4 -1l-5 -2h-3l-3 -2l-5 -1q-1 -1 -3 -1q-11 -5 -19 -7l-9 -2q-2 -1 -3 -1q-1 -1 -3 -1q-7 -4 -12 -5h-3q-9 -4 -17 -5
q-7 -4 -13 -5l-14 -4l-5 -1l-4 -2h-4q-5 -3 -10 -3q-7 -3 -13 -4q-9 -3 -16 -4q-8 -4 -15 -4q-2 -1 -3 -1l-12 -4l-16 -4l-8 -1q-11 -5 -20 -5l-17 -5l-17 -3q-1 -1 -3 -1l-4 -1l-3 -1h-4q-5 -2 -9 -2q-2 -1 -3 -1l-2 -1h-4q-10 -3 -18 -4l-6 -1q-3 -1 -6 -1l-6 -2l-7 -1
l-2 -1h-3l-3 -1l-4 -1q-11 -1 -19 -3l-4 -1h-3l-2 -1q-8 -1 -13 -2h-3q-15 -4 -25 -4q-3 -1 -6 -1q-11 -3 -20 -3q-3 -1 -5 -1l-5 -1l-5 -1h-5l-5 -1h-3q-6 -2 -11 -2h-4q-1 -1 -2 -1l-20 -2q-4 -2 -8 -1l-2 -1q-11 0 -18 -2l-12 -1l3 4l9 11l3 4l8 11l3 4l2 3l3 2l4 7l3 2
l1 3l3 2q7 12 15 19l3 4l1 2l2 2l1 2l2 2q8 12 15 18l4 5q4 7 8 10l2 3l9 11l3 3q5 7 10 11q1 2 2 2q8 12 17 19q2 4 5 6l10 12l4 4l2 1q1 2 2 2q8 10 15 15q3 5 6 7l3 2l2 3l9 8l2 2l3 3l7 5q1 2 2 2q3 3 6 5q8 9 16 13l2 3l4 2l3 3l11 8l6 5l2 1l2 2l7 4q6 4 10 6q5 5 9 7
l3 2l3 1l4 2q4 4 8 5l7 4l14 8l4 1l4 1l4 1l5 1h4l4 1q8 2 13 2q4 1 8 1q1 1 2 1h3l16 2q177 4 214 -188z" />
  </g>

</svg>
