<?xml version="1.0" standalone="no"?>
<!DOCTYPE svg PUBLIC "-//W3C//DTD SVG 1.1//EN" "http://www.w3.org/Graphics/SVG/1.1/DTD/svg11.dtd" >
<svg viewBox="0 -410 2048 2048">
  <g transform="matrix(1 0 0 -1 0 1638)">
   <path fill="currentColor"
d="M471 1444q-1 -2 -2 -2q-4 -9 -10 -14l-3 -5l-4 -5l-4 -5q-5 -9 -9 -14l-3 -4l-2 -1l-1 -3q-6 -8 -9 -13l-4 -4q-3 -5 -6 -8l-2 -4l-3 -3l-2 -4l-2 -2l-2 -3l-4 -6q-6 -8 -10 -12q-4 -7 -8 -11l1 -9l3 -22q1 -2 1 -7l2 -8v-4l2 -7q1 -11 3 -18l1 -8l1 -3v-6q2 -6 2 -10
l1 -3v-5q4 -18 5 -30l2 -8l1 -10q2 -8 2 -13q1 -2 1 -3v-3l2 -8v-4q3 -9 3 -17q4 -15 4 -25l2 -8l3 -16q0 -5 1 -12q1 -3 1 -5l1 -3l1 -7v-3l4 -19q0 -5 1 -8l1 -8l1 -8q3 -9 3 -17l1 -5l1 -3l1 -7v-3l4 -19q0 -5 1 -12q3 -9 3 -17l1 -2v-3l3 -16l2 -15l1 -3l1 -7v-3l4 -19
l1 -11q3 -11 3 -19q2 -6 2 -10l7 -38l2 -16l1 -2v-6q3 -10 3 -17l1 -2v-6q3 -9 3 -17l1 -4l3 -16l1 -8l1 -4v-5q1 -3 1 -6q1 -3 1 -5l1 -5l1 -7l3 -14l1 -8l1 -3v-4l1 -6l1 -6q3 -12 3 -20q1 -1 1 -2l2 -17l2 -6v-6q1 -3 1 -6q1 -3 1 -5l1 -5l1 -6q3 -12 3 -20q3 -9 3 -16
l1 -5l1 -3v-6q3 -9 3 -17q2 -6 2 -11l1 -3l2 -41l1 -3v-14q-1 -6 -1 -11v-14l-1 -4v-8l-1 -5l-1 -9l-1 -7v-3l-1 -6l-1 -5l-1 -3l-1 -3l-1 -6v-3l-2 -8l-2 -7q-28 -84 -91 -133l-4 -1l-4 -1l-4 -1l-5 -1q-2 -1 -3 -1l-2 -1l-7 -1q-7 -3 -13 -3l-4 -1l-3 -1l-7 -1l-3 -1
l-19 -4l-6 -1l-6 -1h-3l-4 -1q-10 -3 -17 -3l-3 -1q-11 -1 -18 -3l-7 -1l-31 -4l-7 -1l-6 -1h-6q-3 -1 -5 -1l-3 -1q-7 0 -12 -1h-5l-3 -1q-11 0 -18 -2h-7l-7 -1h-5l-23 -3h-7l-6 -1h-5l-6 -1q-10 0 -17 -1h-7l-5 -1h-5q-8 -1 -14 -1h-5l-4 -1h-3h-5l-3 -1h-3h-8l-16 -2
l3 -1q5 -2 8 -3l7 -3l18 -7l2 -1q5 -3 9 -4l7 -3q6 -3 10 -4l11 -6l14 -5l3 -2l4 -2l13 -5l3 -1l16 -7l4 -2l4 -1l4 -2l2 -1l12 -4l4 -1l4 -2l3 -1l4 -1l3 -1l10 -3l4 -1l2 -1l16 -4h3l16 -2l8 -1l14 -1l6 -1h6l3 -1l17 -1h4l3 -1h4h4q5 0 8 -1h8q9 0 16 -1h3h3h13h6h6h5h6
h3h20h13h6h3h13h14h3h4l3 1h20l6 1h4h6l7 1h11q6 2 11 1l4 1h3h3h3l2 1h4h8q1 1 2 1l13 1h4l4 1h4l4 1h5l4 1l17 1q10 2 17 3h4l8 1l2 1h3l16 2q8 2 13 2q6 2 11 2l14 3h5l4 1l6 1l4 1h3q6 2 11 2l8 2l2 1h3q9 3 16 3l6 2q10 2 17 4q6 1 10 2l9 2l2 1l16 3q4 2 7 2l16 5l4 1
l6 1q8 3 15 4l4 2l6 1l4 2l6 1l3 2h3l3 2l4 1l5 1q1 1 2 1l4 1l7 2q9 5 17 6l5 3h3q7 4 13 5q2 1 3 1q9 5 16 7l4 2l10 3q8 5 14 7l2 1l4 1q1 1 3 1l2 2l6 2q6 4 11 5q7 5 14 7l4 2l1 2l19 9q11 8 20 12l4 3q7 5 12 7l4 3l3 2l4 3l3 2l3 3l7 4l1 2l6 3q6 7 13 11
q89 108 83 232q-1 1 -1 2q-9 63 -43 108q-75 84 -177 90h-3l-7 1h-6h-10h-3h-4h-5h-3l-4 -1h-3h-5q-10 -2 -17 -2q-8 -3 -14 -3l-3 -2h-4l-3 -2h-4l-3 -2h-3q-4 -3 -8 -3l-12 -5q-13 -6 -22 -9l-3 -3l-6 -2q-4 -3 -8 -4q-1 -2 -2 -2l-3 -1l-2 -2l-7 -4l-3 -1q-5 -5 -11 -7
l-6 -4l-1 -2l-3 -2l-18 -12l-3 -4l-4 -2q-1 -1 -2 -1q-8 -9 -15 -13l-3 -3l-3 -2q-1 -2 -2 -2l-2 -2l-6 -5l-1 -2l-3 -1q-6 -9 -14 -13l-4 -4q-1 -2 -2 -2q-3 -5 -6 -7l-9 -8l-3 -3l-3 -4l-9 -8q-3 -5 -6 -8l-2 -1q-1 -2 -2 -2l-2 -3l-2 -2l-2 -2q-4 -4 -6 -7q-6 -5 -9 -10
l-5 -5l-2 -2l-3 -3q-1 -2 -2 -2q-3 -5 -6 -7l-2 -3l-2 -2l-2 -1q-1 -2 -2 -2q-6 -10 -14 -16l-4 -6l-4 -4q-6 -8 -11 -12l-2 -4l-4 -3q-3 -5 -6 -7l-8 -11l-3 -3l-2 -1q-4 -8 -10 -12q-3 -5 -6 -7q-3 -5 -6 -7l-1 -3l-2 -1q-1 -2 -2 -2q-3 -5 -6 -7l-8 -11q-1 2 0 3l1 2l1 3
l1 2l2 2q3 10 7 17l2 4l2 6l2 3l1 3l3 8l5 12l8 22l3 10l1 3l4 14l1 3l1 3l1 3v3l1 3l6 23v4l3 17l1 3v4q1 4 1 8q1 4 1 8q2 7 1 12h1h-1h1v4v4q0 8 1 12v10v13v3l-1 16l-2 25l-2 8q0 8 -2 13v4l-1 4v3q-1 2 -1 3l-1 3v4l-4 23l-1 8l-1 4v5q-3 10 -3 17l-1 8q-1 1 -1 2v3
q-2 8 -2 13l-1 7l-2 8l-1 4v7q-1 3 -1 6q-1 3 -1 5l-1 6l-1 4v3l-1 4l-2 14l-1 4l-1 4v4l-1 2v3v3q-3 9 -3 17l-2 8v6l-1 4l-1 5l-1 3v4l-1 3l-2 17q-2 4 -1 8l-2 7v3l-1 3l-1 12l-2 6q0 5 -1 8l-1 8l-1 8l-2 8l-1 10q-2 6 -2 11l-1 5v3l-1 4v3q-3 13 -4 22l-1 8l-1 2v4
l-3 17v3l-2 8v4l-1 3v4l-2 8v3q-2 4 -1 8q-2 6 -2 12q-3 13 -4 22v3q-1 2 -1 3l-1 3v4l-4 23l-1 7l-1 7v3q-3 9 -3 17l-1 8l-2 7l-1 7q-1 11 -3 18l-1 7l-1 7v4q-1 1 -1 2v3q-3 12 -3 20l-2 7v5q-1 2 -1 3l-2 14l-2 8v3v3q-3 7 -2 13q-2 6 -2 11l-1 2l-2 17l-1 6q-2 8 -2 13
q-2 6 -2 11l-3 14v5q-2 8 -2 14q-1 1 -1 3v3q-1 1 -1 3v3q-4 15 -4 25h-2h2h-2q-2 -4 -4 -6zM1132 290l-13 -4q-2 -1 -3 -1q-4 -3 -8 -3q-9 -4 -16 -6l-4 -1q-3 -2 -6 -2q-3 -2 -5 -2l-5 -2l-5 -1l-7 -3l-5 -1q-3 -2 -6 -2q-2 -1 -3 -1q-4 -3 -8 -3q-8 -3 -12 -4l-17 -6
l-3 -1h-4l-3 -2l-4 -1l-3 -1l-4 -1l-3 -1l-3 -1h-3l-16 -6l-5 -1l-2 -1l-12 -3l-8 -2q-9 -3 -16 -4q-8 -3 -14 -4l-4 -1q-6 -3 -11 -3l-4 -1l-4 -1l-4 -1q-5 -3 -8 -3q-10 -2 -17 -4l-14 -3q-8 -3 -13 -3l-5 -2h-3l-13 -3l-3 -1l-4 -1h-3l-5 -1q-2 -1 -3 -1q-6 -2 -11 -2
q-10 -3 -16 -4l-6 -1l-4 -1l-17 -3l-3 -1h-4l-4 -1l-3 -1h-3q-2 -1 -3 -1l-2 -1h-3q-15 -3 -25 -4q-1 -1 -2 -1h-3l-4 -1l-2 -1h-3h-3q-10 -3 -17 -3l-3 -1h-5l-4 -1l-26 -4l-17 -3h-4l-6 -1h-5q-6 -2 -11 -2h-4l-8 -2l-17 -1q-8 -2 -14 -2l-6 -1h-6l3 5q2 4 5 6l3 5l2 3
l2 1q4 7 8 10l2 3l2 4l9 10l2 3q3 5 6 7l1 3q4 4 6 8l2 2q8 12 15 18l2 4l3 4l2 3l2 1q3 5 6 8q3 5 6 8q5 7 10 11q9 14 18 22l2 4l4 3l7 10l3 3l2 2q5 6 9 9l1 3l3 2q1 2 2 2q1 2 2 2q1 2 2 2q6 8 11 12q8 10 15 15q5 6 9 10l2 1q4 5 7 8l3 2l2 2q5 5 10 8q5 7 12 10l2 3
l4 2l2 3l12 8q8 8 15 12l3 2l4 3l3 2l4 3l4 2q4 3 8 5l4 3l3 1l3 3l4 2l7 4q11 6 18 10l4 1q6 2 11 2l4 1l4 1l3 1l11 1l4 1h3l8 2h4l17 2q186 3 220 -195z" />
  </g>

</svg>
