<?xml version="1.0" standalone="no"?>
<!DOCTYPE svg PUBLIC "-//W3C//DTD SVG 1.1//EN" "http://www.w3.org/Graphics/SVG/1.1/DTD/svg11.dtd" >
<svg viewBox="-96 -410 2048 2048">
  <g transform="matrix(1 0 0 -1 0 1638)">
   <path fill="currentColor"
d="M195 1320l-5 -5l-4 -5l-4 -6l-5 -5l-3 -4l-4 -4l-3 -4l-4 -5l-3 -5l-2 -2l-2 -1q-6 -11 -14 -17l-2 -3l-2 -3l-2 -3l-2 -2l-6 -7q-6 -8 -10 -12q-2 -3 -6 -8l-6 -7v-4q1 -2 1 -5l1 -8v-6q1 -4 1 -8l2 -11l1 -9v-5l1 -3q0 -6 1 -11v-7q1 -1 1 -3v-3l2 -16v-5q2 -7 2 -18
l1 -2v-4l1 -7l2 -18l2 -20l1 -13q2 -6 2 -10v-8q1 -1 1 -2l3 -35q0 -1 1 -5l1 -7v-6q1 -4 1 -8l2 -11q0 -5 1 -8v-8l1 -5q1 -8 2 -14l3 -35l1 -2q0 -11 2 -18l1 -18q1 -2 1 -3l1 -7v-7q2 -10 2 -18q2 -4 1 -8l1 -8l1 -8l1 -8l1 -6v-9q1 -2 1 -3l2 -23q2 -4 1 -8l1 -4v-7
q1 -1 1 -3l1 -6l4 -46l1 -4l1 -5q0 -11 2 -18l1 -17l1 -3l1 -9v-7q1 -4 1 -8l2 -11v-8l1 -3l2 -19l1 -7l4 -40l1 -6l1 -10l1 -11q1 -11 1 -13l1 -3v-5l1 -3l1 -9l1 -15l1 -2v-3q-1 -11 1 -18v-41q-1 -5 -1 -8v-14l-2 -13v-7l-1 -4l-1 -6q-2 -10 -3 -14l-3 -15l-2 -3l-1 -6
q-3 -7 -6 -12v-3l-5 -8l-1 -3l-2 -2q-6 -10 -9 -17l-2 -2l-5 -8l-2 -2l-2 -2q-2 -3 -6 -8l-6 -7l-3 -1l-3 -1h-3l-7 -3q-5 -2 -10 -2q-3 -2 -11 -3l-11 -2l-3 -1h-4l-3 -1h-3l-4 -1h-7q-10 -2 -18 -2q-6 0 -11 -1h-3h-17h-8q-51 -1 -103 -3v-163l99 2h13h3h31h4h3h20h17h5h5
h14l5 1h4h5h4h4l3 1h7l22 1q9 1 16 1l4 1h3h4l4 1q6 0 11 1h4l7 1h3h3l6 1h6q6 2 11 2h3h3l17 3h5l3 1h4l2 1l29 4l5 1h5l6 1q9 2 16 3h3l8 2l20 4l6 1l17 4l5 1l5 1h3l3 1l14 3l6 2l17 3l3 2h4l4 1q6 3 11 3q1 1 2 1l3 1l2 1h3l8 2q9 4 17 5q3 2 6 2l6 3l5 1l5 2l4 1
q13 5 22 7l3 2l4 1l4 2l10 3q7 4 12 5q11 5 19 7l4 3h3l2 2h3q8 5 14 7q8 4 13 5q3 2 6 3q9 6 17 8l5 3l5 3l5 2l5 2q3 2 6 3q3 2 5 3l4 2l4 2l4 2q6 5 11 6l6 4l4 2l3 2l4 2l4 2q6 6 12 7q5 5 10 6q4 4 8 6l2 1l2 1q4 4 9 6q83 103 74 219h-1h1h-1v2v2v-2v2v2v-2v2
q-1 1 -1 3q-2 6 -2 11q-5 13 -7 22l-2 4q-1 2 -3 8q-3 4 -4 8q-6 9 -9 16q-3 3 -7 9l-2 3l-2 3q-5 5 -8 9l-2 2l-2 3l-3 2l-5 6q-7 5 -11 10q-93 65 -196 47q-11 -4 -19 -5q-11 -5 -18 -6q-5 -3 -11 -4l-2 -2l-4 -1l-3 -1l-2 -2l-3 -1l-21 -10l-4 -3q-6 -5 -13 -7l-4 -3
l-3 -3l-5 -2q-1 -2 -3 -2l-2 -3l-3 -1l-3 -3l-3 -1l-2 -3l-7 -4l-1 -2l-3 -1l-2 -2l-2 -2l-2 -1l-1 -2l-3 -2q-7 -7 -13 -10q-6 -8 -10 -10l-3 -2l-2 -3l-2 -1q-4 -4 -7 -6l-2 -3l-8 -8l-2 -2l-6 -5q-7 -9 -14 -14l-2 -3l-2 -1q-3 -6 -7 -9l-8 -8q-7 -8 -12 -12q-2 -4 -5 -6
q-3 -5 -7 -7q-3 -6 -8 -9q-2 -4 -4 -6l-5 -5l-4 -4l-3 -5l-4 -4l-4 -4l-4 -6l-11 -12l-2 -2q-7 -10 -13 -15q-5 -7 -9 -11q-6 -8 -11 -12l-1 -3l-8 -8q-5 -8 -11 -13l1 4l1 2v3l1 2l5 18l1 3l1 2q1 9 4 16l1 5l1 3v3l2 8l2 7l2 5v4l1 2l3 15l2 6l1 5l1 5l1 6l3 13l1 5l2 17
l1 5l1 4v5l1 3v3v4l1 2q0 13 2 21v3v18v3v31q-2 4 -1 8l-1 8l-1 8v7q-2 10 -2 18l-1 8l-2 16v4l-1 4v7q-2 10 -2 18l-1 3l-1 12v5l-1 3q0 11 -2 18v7q-2 10 -2 18l-1 4q0 6 -1 11v4l-1 3v3v3l-1 4v7q-2 10 -2 18l-1 8l-1 8v4l-1 4v4l-1 4v3v4l-1 2l-1 16l-1 8l-1 8v3v3
q-1 2 -1 3l-1 10l-2 20v4l-1 3v4l-1 7l-2 18v3q-1 6 -1 10v3q-1 1 -1 3l-2 20q-1 7 -1 8v4l-1 4l-1 16l-1 3v6v3q-1 2 -1 3l-1 10l-2 20v4l-1 3v3v3l-1 3v8q-2 8 -2 15l-1 7q0 5 -1 8v8q-1 1 -1 3v3l-2 16l-1 7v5q-1 6 -1 10v3q-2 10 -2 18l-1 3v3v3l-2 13v3v4q-2 10 -3 25
l-1 13l-1 4v3l-1 7l-2 22l-1 4v3l-1 11v3q-2 4 -1 8v3q-3 9 -2 17l-3 16zM768 272l-6 -2l-5 -2l-5 -2l-2 -1q-12 -5 -20 -7l-4 -2l-4 -1l-4 -2l-4 -1q-7 -4 -14 -5q-3 -2 -5 -2l-4 -1l-4 -2l-8 -2q-1 -1 -3 -1q-2 -1 -3 -1q-1 -1 -3 -1l-16 -6l-4 -1l-3 -1h-3q-2 -1 -3 -1
l-3 -2h-4q-1 -1 -2 -1l-2 -1h-3q-1 -1 -3 -1l-12 -4l-6 -1l-4 -1l-4 -1q-6 -2 -11 -3l-4 -1l-3 -1l-3 -1h-3l-3 -1q-6 -2 -11 -2q-2 -1 -3 -1l-19 -5h-5q-8 -3 -14 -3l-6 -1q-1 -1 -3 -1l-14 -3h-4q-6 -2 -11 -2l-14 -3h-4l-2 -1l-16 -2l-2 -1h-4h-3q-2 -1 -3 -1
q-6 -1 -10 -1l-9 -2h-7q-3 -1 -5 -1l-5 -1q-10 -1 -16 -2h-6l-3 -1h-5l-3 -1h-5l-2 -1h-3q-11 0 -18 -2h-6l-8 -1h-3q-8 -2 -13 -1q-1 -1 -2 -1l-20 -1l-14 -2h-3h-5h-3l-3 -1h-3h-3l-18 -1q-6 -1 -10 -1q5 7 9 11l2 4l2 1q3 6 7 9l2 4l6 7l9 13l2 2l1 2l2 2l5 5q2 5 6 8
l2 4l3 4l2 2l1 2l2 2q8 12 15 18q9 14 18 22l1 3l3 2q6 9 12 14q8 12 17 19l4 6l3 2l5 5l1 2l2 1q5 7 10 10q6 9 14 13q1 2 2 2q1 2 2 2q1 2 2 2l7 7l3 2l12 10q9 8 16 11l1 2l3 2l19 13l3 1l2 2l3 1l2 2l3 2l7 4l19 9l5 4l10 2l4 1q6 2 11 2l4 1h3l4 1l3 1h4l25 3
q169 1 199 -178z" />
  </g>

</svg>
