<?xml version="1.0" standalone="no"?>
<!DOCTYPE svg PUBLIC "-//W3C//DTD SVG 1.1//EN" "http://www.w3.org/Graphics/SVG/1.1/DTD/svg11.dtd" >
<svg viewBox="-84 -410 2048 2048">
  <g transform="matrix(1 0 0 -1 0 1638)">
   <path fill="currentColor"
d="M182 1417l-12 -17l-2 -3l-2 -2q-8 -12 -14 -19l-3 -5l-1 -2l-2 -2l-2 -2q-4 -7 -7 -10l-3 -3l-2 -4l-10 -13l-2 -4l-3 -3l-2 -4l-6 -7l-2 -3q-1 -2 -2 -2l-1 -2q-8 -13 -15 -20l1 -7l1 -2l2 -16v-3q3 -9 3 -17l1 -2v-3l3 -16l1 -8l1 -5v-3q3 -9 3 -17l1 -2l1 -7v-3l4 -19
q0 -3 1 -8l1 -5v-3l3 -16l1 -8l1 -8l2 -8l4 -25l1 -8l1 -8l2 -7q1 -11 3 -18l4 -25l1 -8l1 -8q1 -3 1 -5l1 -4l1 -4l1 -8l1 -3v-4l1 -6l1 -6q3 -18 3 -20l2 -7q1 -11 3 -18l1 -8l1 -8l1 -8l2 -8v-3l3 -14l1 -10l1 -4l4 -23l1 -8l1 -8l2 -8v-3l4 -19q0 -5 1 -11q2 -8 2 -13
l2 -7q1 -11 3 -18v-6q3 -9 3 -17l2 -7q0 -1 1 -8l1 -7l1 -8q2 -10 4 -22l1 -7l1 -8l2 -7l1 -8l1 -8l1 -7l2 -8v-3q3 -12 3 -20l2 -6l1 -7l1 -11q3 -9 3 -16l1 -3l1 -6q1 -11 3 -18v-5q1 -3 1 -6q0 -1 1 -5l1 -6l1 -4l1 -3l1 -11q2 -6 2 -13q1 -1 1 -2l1 -6v-3l2 -8
q1 -7 2 -12l1 -16q1 -8 1 -10v-10l1 -3v-54l-1 -2v-6l-1 -3v-6q-2 -7 -2 -12q-22 -75 -84 -116l-4 -1l-3 -1l-8 -3l-3 -1h-3q-2 -1 -3 -1q-7 -3 -12 -4h-5q-6 -2 -11 -3h-5q-8 -2 -13 -2l-4 -1l-17 -1q-3 -1 -5 -1h-3h-4l-4 -1h-11h-4h-7h-102v-175l102 -1h17h8h7h6h5h4h18
h4h4h4h17h8h7q7 2 13 1h4l14 1h10l4 1h11l5 1h3h4l17 2h7h3l3 1h7q13 3 22 2q2 1 3 1q8 0 14 2h5l5 1h5l4 1h6q3 1 6 1l10 2h5l2 1h3h3q1 1 3 1h3q16 4 25 4l4 1h4q6 2 11 2l4 1l26 5l17 3l4 1l6 1l3 1l5 1q9 3 16 3q6 3 12 3l3 1l19 5h4l3 -1l2 -1q8 0 14 -3h4l5 -1l3 -1
l3 -1l8 -1l16 -4q8 0 13 -2h3l8 -2h3l7 -2l4 -1h5l5 -1l4 -1h3l4 -1l11 -2h3l13 -3q12 0 20 -3h4h3l2 -1l17 -2l5 -1l5 -1l16 -1l5 -1l16 -2h5l5 -1h4l3 -1q11 0 19 -2h3h4l5 -1h5h3l3 -1h4h3h5l3 -1h4l16 -1h6l6 -1h6h6l5 -1h3h8q9 0 16 -1h14h3h18h13h4h17h8h7v20v3v3v31
v7v6v7v6v5v6v4v18v11v4v4v4v4v17v3v12h-7h-6h-17h-3h-12h-13h-4h-17h-3h-12h-11h-5h-13h-4h-17h-3h-12q9 7 16 10q4 4 8 6l2 2l20 13q88 105 82 224q-22 155 -178 194q-8 2 -13 3l-3 1l-11 1h-4l-3 1q-7 0 -13 1h-4h-13h-10l-3 -1h-3h-4h-3l-20 -2l-4 -1l-4 -1l-4 -1l-2 -1
l-4 -1l-25 -8q-9 -4 -16 -6q-3 -2 -8 -4l-3 -1q-9 -7 -18 -9q-5 -5 -10 -6l-3 -3l-4 -2l-4 -2l-2 -2l-4 -2l-3 -2l-4 -2q-5 -5 -9 -7l-2 -2l-3 -1l-1 -2l-3 -1l-1 -2l-3 -1q-7 -7 -13 -10l-3 -4l-4 -3l-4 -3l-4 -3l-2 -3l-3 -1l-2 -3l-3 -3l-3 -1q-1 -2 -2 -2q-1 -2 -2 -2
l-2 -3l-2 -2l-2 -2l-13 -11l-4 -5l-5 -4q-1 -2 -2 -2q-10 -13 -19 -19l-10 -12l-4 -3l-4 -5l-2 -2l-9 -9l-3 -3l-3 -4l-9 -11l-3 -3l-3 -2l-2 -3q-1 -2 -2 -2q-1 -2 -2 -2l-1 -2l-13 -15l-2 -1q-3 -5 -7 -8q-4 -7 -8 -10l-2 -3l-2 -2l-13 -15l-9 -11l-3 -3l-10 -12l-12 -15
l-2 -1q-6 -9 -12 -13l5 11l5 10l1 3l2 4l1 2l2 6l2 2q4 14 9 22v3l1 3l1 3q5 12 8 22l1 4q4 11 6 19l1 4q2 8 3 13l1 4l1 4l1 5l1 2l1 4v3l1 2v3l4 25v4l1 4q0 11 2 18v3v13v3v4v8v4v3v3v4l-2 23l-1 13q-1 1 -2 12l-1 7l-1 6l-1 4l-1 3l-1 13q-1 2 -1 3v3l-1 4l-1 3v3l-1 3
v3v3q-3 9 -3 17l-1 3v3q-2 8 -2 14q-1 1 -1 2q-1 6 -2 10l-1 9v3l-1 4l-1 4l-1 5v4l-1 5v3l-1 2v3l-1 2v3v3q-2 5 -3 17l-1 8l-2 8v5q-1 3 -1 6q-1 3 -1 5l-1 4l-1 7l-1 5l-2 16l-5 25l-1 8l-1 8l-1 4l-2 17l-1 4l-3 17v4q-2 6 -2 11l-1 3v4q-2 5 -3 17l-1 8l-2 8l-1 8l-1 8
l-2 8v3v3q-3 7 -2 13q-2 6 -2 11l-2 8v4l-1 4v3l-4 22v3l-1 4l-3 16q0 5 -1 8v4q-5 18 -5 30l-2 8l-1 11q-1 3 -2 9l-1 8l-1 4l-4 25l-1 7l-1 9l-2 8l-1 9v3q-1 1 -1 2l-3 16q0 1 -1 8l-1 7l-1 7l-1 6l-1 7l-1 3l-2 16l-1 3v6l-1 3l-1 4l-1 7v3l-1 2l-2 17l-1 5l-2 11v4
q-1 3 -1 6l-1 4l-1 4v3l-1 4v3q-3 13 -4 22h-1h1h-1zM824 283l-6 -2l-5 -3l-5 -2q-8 -3 -13 -4l-3 -2l-10 -4l-5 -1l-3 -2l-10 -3l-12 -5q-8 -2 -14 -5h-3l-3 -2l-5 -1l-3 -1l-8 -2q-4 -3 -8 -3l-12 -4l-4 -1l-16 -5l-42 -11l-5 -1l-14 -4l-16 -3l-5 -1l-5 -2h-5l-4 -1
q-2 -1 -3 -1l-4 -1l-3 -1l-10 -1q-11 -4 -20 -4q-3 -1 -5 -1l-4 -1l-4 -1h-4l-4 -1l-3 -1h-5q-1 -1 -3 -1l-8 -1l-8 -2q-7 -1 -12 -2h-6q-1 -1 -2 -1h-3l-3 -1h-3l-16 -2l-5 -1l-5 -1l-20 -2l-5 -1h-5q-4 -2 -8 -1q-10 -2 -16 -2h-4q-10 -3 -18 -2l-5 -1h-5q-13 -3 -22 -2
l-5 -1l-16 -1q-5 -1 -10 -1h-5q-1 -1 -3 -1h-4h-3l-2 -1h-4h-3l-20 -1q-8 -2 -15 -1q5 8 10 13l3 4l2 4l3 3q5 7 9 11l1 3l3 2l2 3l2 4l14 16q6 11 13 17q3 6 7 10q8 12 15 18l2 4l3 4l3 3l3 3q3 5 7 9l1 2l2 2q6 8 12 13l1 3l6 5l1 2q11 15 21 22l1 3l2 2l7 6q1 2 2 2
q10 13 20 19q3 5 7 6l5 6l3 1q10 12 21 17l2 3l4 2q1 2 3 2l3 3l4 2q1 2 3 2l2 3l3 2l5 2l3 3l3 2l3 1q1 2 3 2l3 3l4 2l5 3l3 2l3 1l2 2l2 1l3 1l2 2l3 1l15 8h3q6 3 12 3l6 2h5q1 1 3 1l5 1h3l3 1h3l3 1q11 0 18 2q187 7 221 -190z" />
  </g>

</svg>
