<?xml version="1.0" standalone="no"?>
<!DOCTYPE svg PUBLIC "-//W3C//DTD SVG 1.1//EN" "http://www.w3.org/Graphics/SVG/1.1/DTD/svg11.dtd" >
<svg viewBox="0 -410 2048 2048">
  <g transform="matrix(1 0 0 -1 0 1638)">
   <path fill="currentColor"
d="M210 586l-2 -3l-2 -3l-2 -3l-2 -2l-1 -3l-2 -3l-2 -1q-1 -4 -3 -7l-4 -6l-1 -2l-2 -1l-7 -13l-3 -3q-5 -12 -11 -18q-3 -8 -6 -12q-4 -6 -6 -11l-3 -3l-2 -4l-2 -4l-2 -4l-2 -4l-7 -11l-10 -21l-2 -4l-2 -3l-2 -2l-1 -3l-1 -3l-1 -2l-1 -3q-5 -9 -8 -16l-6 -11l-2 -5
l-1 -3l-1 -2l-1 -3l-7 -16l-2 -5l-3 -10l-1 -2q-2 -5 -3 -8l-1 -3l-7 -18l-3 -14l-4 -11l-1 -5l-2 -9l-1 -4l-1 -3l-1 -5q0 -11 -3 -18v-6l-1 -4v-7q-1 -4 -1 -8v-43q29 -173 203 -172l31 1l3 1h3h3q6 2 12 2q173 44 237 194l2 3v3q4 7 6 15q5 11 6 18l1 4l2 4l1 4v4l2 4v4
l1 4l1 3v3q2 8 3 13v4l1 2q0 8 2 14v3v3v13v4q-2 8 -2 14l-1 6l-1 4v3l-2 8l-2 12l-1 2v3q-4 9 -4 17l-2 4l-1 3l-2 10l-6 17l-1 2v3q-5 9 -6 17l-2 3l-1 4q-1 1 -1 2l-3 7l-1 3q-5 9 -7 16l-3 4l-4 10q-1 1 -1 2l-2 2q-4 10 -8 15l-7 13l-9 13l-1 4q-5 5 -7 9q-3 5 -5 9
l-2 1l-2 3l-1 2q-8 9 -11 16l-3 2l-7 9l-1 3l-3 3l-4 4l-2 3l-2 3l-3 2l-2 3l-1 2l-6 5l-13 16l-4 3l-9 10l-4 3l-9 10l-2 1l-12 11l-1 2q-4 2 -6 5q-8 6 -12 11l-4 3q-2 1 -2 2q-9 6 -14 11l-5 4l-3 3q-5 3 -8 6l-30 22h-2h2h-2q-80 -78 -82 -179zM305 538l3 -2l9 -7l1 -2
q10 -7 15 -13l3 -3l2 -1l1 -2q7 -5 10 -10l3 -2l2 -3q2 -1 2 -2q8 -6 11 -12l2 -1l2 -2l1 -2q7 -5 10 -11q7 -5 10 -12l2 -1l1 -2q7 -7 10 -13l2 -1q4 -5 6 -9l2 -1l2 -3q6 -8 9 -14l5 -5l1 -2l1 -3q5 -5 7 -11l2 -1q4 -8 8 -13l1 -3l1 -3q8 -9 10 -18q6 -9 8 -17
q4 -5 5 -11q5 -8 6 -15l2 -3v-3q1 -1 1 -3l2 -2l1 -4v-3q3 -4 3 -8l1 -3l6 -25q-4 -3 -7 -5q-7 -7 -14 -10q-8 -8 -17 -11q-1 -2 -2 -2l-2 -2l-4 -1q-1 -2 -2 -2l-3 -1l-2 -2l-11 -6l-4 -1l-2 -2l-4 -1l-7 -3l-2 -2l-21 -7q-75 -27 -142 -3q-67 30 -76 98v3l-1 20
q36 140 128 229zM441 1307q-10 -13 -108 -109q54 -78 117 -117l114 119q-59 49 -83.5 76.5t-39.5 30.5zM208 1307q-10 -13 -108 -109q54 -78 117 -117l116 116l-2 3q-59 48 -83.5 76t-39.5 31z" />
  </g>

</svg>
