<?xml version="1.0" standalone="no"?>
<!DOCTYPE svg PUBLIC "-//W3C//DTD SVG 1.1//EN" "http://www.w3.org/Graphics/SVG/1.1/DTD/svg11.dtd" >
<svg viewBox="-373 -434 2048 2048">
  <g transform="matrix(1 0 0 -1 0 1638)">
   <path fill="currentColor"
d="M386 444q-6 -2 -11 -2q-1 -1 -2 -1q-7 -4 -13 -5l-3 -2l-3 -1q-1 -1 -2 -1q-1 -2 -2 -2l-3 -2l-3 -1q-9 -8 -16 -12l-2 -3l-7 -7l-2 -3l-3 -2q-6 -9 -12 -14q-4 -6 -7 -10l-2 -2l-2 -2q-7 -10 -13 -16l-1 -3l-8 -9q-4 -7 -8 -11l-2 -5l-3 -3l-2 -4l-3 -4l-2 -4l-7 -9
l-2 -5l-2 -2l-1 -3l-2 -3l-2 -3l-2 -4l-2 -3l-4 -7q-5 -14 -11 -22q0 -3 -1 -4l-2 -3v-3q-5 -8 -6 -15l-1 -3l-2 -3l-1 -6l-3 -8v-3l-2 -8l-1 -4l-3 -16v-14q-1 -22 5 -39l1 -7l2 -3l1 -3l1 -3l6 -12q1 -1 1 -2l2 -1l9 -14q5 -3 7 -7l11 -9l3 -3l22 -15l3 -1l4 -2l11 -5
l4 -2l4 -1l22 -9h3l3 -1l2 -1l14 -4l4 -1l4 -1l7 -1l2 -1q10 -1 16 -3l5 -1q10 -1 16 -2l4 -1h5l4 -1l17 -1l4 -1q8 0 14 -1h12l3 -1h3h20q5 -6 1 -18l-1 -3l-4 -8v-3l-2 -3l-1 -3l-8 -14l-2 -3l-4 -6l-2 -1l-7 -11l-2 -2l-3 -2q-2 -4 -4 -6l-2 -2l-2 -1q-3 -5 -6 -8l-3 -2
l-2 -3l-9 -8q-4 -5 -8 -8q-5 -6 -9 -8l-1 -2q-4 -3 -7 -6l-4 -3l-3 -3l-4 -2l-3 -3l-3 -3l-3 -3l-3 -2l-6 -4l-2 -2l-2 -2l-3 -1q-5 -5 -10 -8l-3 -3l-4 -2l-3 -2q-5 -5 -10 -7l-1 -2l-7 -4q-1 -1 -2 -1q-8 -7 -15 -10l-1 -2l-6 -3l-5 -4l-6 -3q-4 -4 -8 -5q-1 -1 -2 -1
q-9 -7 -17 -10q-6 -5 -13 -7l-3 -2q-9 -5 -15 -7l-2 -2h-3q-1 -1 -2 -1q-12 -8 -24 -10q-1 -1 -2 -1l-7 -3q-11 -5 -19 -6l-3 -2l-4 -1l-4 -1l-4 -1l-17 -5q-6 -2 -11 -2q-7 -3 -13 -3q-18 -5 -30 -5q-1 -1 -3 -1h-3q-15 -3 -25 -3l-3 -1h-12q-3 -1 -6 -1q-8 0 -13 -1h-5h-4
h-4h-18h-4h-4h-4h-3h-7q-7 1 -12 1q-6 0 -10 1h-4q-7 0 -13 1h-3h-3l-7 1h-4l-3 1h-3l-16 2l-11 2h-3l-3 1h-3l-20 3l-14 3q-7 1 -12 3q-11 1 -18 4l-7 1l-3 1h-3q-9 3 -16 4l-5 2h-3l-3 1l-4 1l-17 5l-3 1l-3 1h-3l-4 1l-3 1l-8 3l-3 1q-11 2 -18 6h-4l-5 2l-4 1l-5 2l-4 2
h-3l-3 2l-3 1h-3l-12 5q-8 2 -14 5l2 -3l2 -1l1 -2q7 -5 10 -10l13 -12l2 -1q6 -7 12 -11l3 -4l4 -4l4 -2l3 -3l3 -3l2 -1l1 -2q7 -5 11 -10l3 -2q6 -4 9 -8l3 -1l2 -2l9 -7l2 -2q5 -3 8 -6q5 -4 7 -6l2 -1l6 -4l2 -2q6 -3 9 -7l4 -2l5 -3l3 -3l4 -2l5 -3l3 -2l3 -3l3 -1
l4 -3l4 -2l2 -2l3 -2l7 -4l3 -1l15 -10l14 -6l4 -2l4 -3l5 -2l5 -2l3 -2l5 -2l5 -2l3 -2q5 -1 9 -4h3q7 -4 13 -5l2 -1l12 -5l5 -1l17 -5q9 -2 14 -4l10 -1q6 -2 10 -2l3 -1q11 -1 18 -3h4h3h3l3 -1h8h3h13h8h3h13h4h3l3 1h8q8 2 15 2q2 1 3 1l8 1q6 2 11 3l14 3q6 3 11 3
q6 3 10 3q9 5 17 6l3 2l4 2l5 2l4 1q7 4 11 5l3 1q6 4 10 6l6 2q8 6 16 9l3 2l2 2l3 1q6 5 12 7q1 2 2 2l7 4l1 2l2 1l14 9q11 10 18 14l4 3l4 4l2 2q5 3 9 7t8 6q1 2 2 2l1 2l2 1l10 9l2 1q5 7 10 10q5 7 11 11l3 3q1 2 2 2q3 5 6 7l9 8q5 7 10 10q3 5 7 7l2 3l2 2l2 2l2 1
q1 2 2 2l15 18l3 3l3 2l1 2q10 14 17 21l2 4l3 3q3 5 6 8q2 5 5 7l2 3l2 3l4 7l14 22l1 3l2 2l1 3l2 2l1 3l2 2l1 2l9 16l2 3l1 4l2 3l6 11l1 2l1 3l7 12l6 13l2 5l2 3l2 4l1 2l2 6l2 2q5 14 10 22h3h13h31h14h3h5h3h4h3h20v3v5v3v4v3v20v4v5v13v4v17v3v12v4v4v3v18v13v4v17
v3v12h-4h-3h-13l-3 -1h-14h-3h-3h-3h-4q-15 -1 -25 0q-1 9 -3 16q0 6 -2 10l-3 17l-3 11l-1 7l-2 8q-3 9 -4 16q-3 7 -4 14l-2 4l-1 4l-1 4l-2 4v3l-3 7l-1 4l-1 4q-3 6 -4 11l-2 2l-1 4q-3 6 -4 10l-1 3l-2 2l-1 3l-1 3q-5 9 -7 15l-3 4l-2 3l-1 4l-3 3l-1 4q-2 1 -2 3
l-2 2l-1 3l-2 1l-1 3q-8 9 -12 16q-6 5 -10 9l-1 2q-2 1 -2 2l-6 5l-7 6l-7 4l-14 8l-12 3l-3 1l-3 1h-8h-20q-1 -1 -2 -1zM379 277l4 -6l2 -1l2 -2l1 -3l2 -1l5 -6l1 -3q1 -1 1 -2l2 -1l1 -3q9 -12 12 -22l2 -2l1 -3l3 -7q6 -10 8 -19l2 -3l1 -3l6 -16q-93 2 -154 53l-1 3
l-2 1q-3 4 -5 8q-5 6 -8 11v3q-2 3 -3 6q27 29 60 39q35 1 57 -21z" />
  </g>

</svg>
