<?xml version="1.0" standalone="no"?>
<!DOCTYPE svg PUBLIC "-//W3C//DTD SVG 1.1//EN" "http://www.w3.org/Graphics/SVG/1.1/DTD/svg11.dtd" >
<svg viewBox="-291 -410 2048 2048">
  <g transform="matrix(1 0 0 -1 0 1638)">
   <path fill="currentColor"
d="M386 554h-3l-9 -4l-3 -1q-4 -3 -8 -5q-7 -5 -12 -7l-1 -2l-6 -4l-1 -2l-6 -4l-1 -2l-2 -1q-5 -7 -10 -10l-2 -4l-2 -1q-6 -9 -12 -14l-2 -4l-3 -3l-1 -3q-4 -4 -5 -7l-3 -3l-3 -5l-2 -3q-4 -7 -7 -10l-1 -3l-2 -2l-1 -3l-2 -3q-6 -11 -11 -17q-1 -5 -3 -8l-1 -2l-9 -25
l-3 -8l-5 -14l-1 -3l-1 -3v-3l-2 -7l-1 -2l-2 -6q-1 -7 -3 -12v-4q-2 -6 -2 -10l-1 -2l-2 -17q-1 -9 -1 -16q0 -32 11 -57q6 -6 8 -12l4 -3l5 -6q8 -6 12 -10q6 -2 9 -5l4 -1l2 -2l5 -1q14 -6 22 -8h3l4 -1h3l4 -1l18 -3h4h10q5 -2 9 -1h5h5h14h7q10 2 17 1q10 2 17 2l17 2
h4h3q1 1 3 1h3l2 1l18 2q1 -8 1 -14l1 -6v-32l-1 -16l-1 -13l-1 -3l-1 -11l-1 -4l-1 -7l-1 -2l-3 -16q-226 -267 -560 -248h-3h-18l-5 1h-4h-3h-4q-10 1 -17 1l-2 1h-10q-5 2 -9 1l-6 1h-4l-2 1h-3l-7 1l-11 1l-17 2l-3 1h-3l-2 1h-7l-11 2l-6 1l-11 2l-7 2q-15 6 -28 6
q1 -7 5 -13q154 -145 344 -146h11h4h12h5l2 1l19 1l22 4l4 1h5q1 1 3 1l2 1l9 2l5 1h3q8 3 14 4q8 3 14 4q149 56 235 173l3 2l1 3l3 4l3 2l1 3q5 5 7 9q8 12 14 19l1 2l1 3l2 2q2 4 5 7q2 7 6 11q2 5 4 8l1 3q2 5 4 8l1 3l10 18l9 22l5 9l1 4l1 3l2 4l2 3l2 7l1 3l12 28
q1 7 4 13l1 4l1 3l2 4l2 7q3 11 6 18v3l2 8q2 6 3 11l1 3l4 17l1 3v4l3 11v4l1 3v3l1 2q1 11 3 18v6v3q1 4 1 8l2 16v14v4v11v5v4v3v3v17v3q-2 7 -1 12l-1 4v4l-1 3v3l-1 3v3v3q-3 9 -3 17l-1 4q-1 2 -1 3l-7 29q-3 6 -4 12q-1 2 -1 3q-8 18 -11 29q-4 6 -6 11l-1 4l-2 4
q-3 4 -4 8q-4 6 -6 11l-2 4l-2 2l-1 3l-2 2l-1 3l-4 7q-7 7 -9 14q-5 4 -7 9l-2 3l-2 3l-3 2l-2 3q-5 3 -7 7q-7 5 -11 10q-32 22 -67 19z" />
  </g>

</svg>
