<?xml version="1.0" standalone="no"?>
<!DOCTYPE svg PUBLIC "-//W3C//DTD SVG 1.1//EN" "http://www.w3.org/Graphics/SVG/1.1/DTD/svg11.dtd" >
<svg viewBox="0 -410 2048 2048">
  <g transform="matrix(1 0 0 -1 0 1638)">
   <path fill="currentColor"
d="M1400 882h-4q-10 -2 -17 -2l-13 -3h-3l-4 -1h-3l-3 -1h-3l-8 -2q-7 -2 -12 -2l-5 -2l-5 -1l-5 -2h-3q-6 -3 -11 -3l-4 -1l-17 -6l-6 -2l-4 -1l-4 -1l-3 -1q-6 -3 -10 -3l-2 -2h-3q-4 -3 -8 -3q-8 -5 -16 -6l-6 -3l-6 -2q-5 -4 -11 -5l-5 -3l-5 -1l-4 -2l-4 -3l-4 -1
q-8 -5 -15 -7l-2 -2l-4 -1q-4 -3 -8 -5l-5 -2l-3 -1q-8 -6 -15 -8q-6 -5 -13 -7q-9 -7 -17 -10l-5 -4l-5 -2l-13 -9l-5 -2l-4 -3l-4 -2l-3 -3q-7 -5 -12 -7l-4 -4l-5 -2l-3 -3l-4 -2q-7 -6 -13 -9l-2 -3l-2 -1l-2 -2l-9 -5l-1 -2l-12 -8q-6 -7 -12 -10q-1 -1 -2 -1
q-5 -6 -10 -10q-7 -4 -11 -9q-8 -6 -12 -11l-4 -2l-3 -3q-5 -6 -10 -10l-3 -2l-4 -5l-6 -5q-4 -5 -8 -8l-3 -3q-3 -5 -6 -7l-3 -3l-2 -3l-6 -5q-5 -7 -10 -11q-3 -5 -7 -9l-1 -2l-2 -2l-11 -13l-1 -3l-3 -2l-1 -2q-9 -14 -16 -22q-3 -8 -7 -12l-2 -4q-4 -7 -7 -10
q-2 -6 -4 -10l-6 -9l-1 -4l-3 -5q-1 -5 -3 -8l-7 -16l-2 -7l-1 -3l-1 -5l-4 -14v-6l-2 -8q0 -6 -1 -10l-1 -17l1 -22q10 -47 40 -78l3 -2l3 -2l2 -3l3 -2q11 -6 17 -12l4 -1l8 -6q12 -4 18 -9l5 -1l3 -2l14 -5l5 -2l3 -1q5 -3 9 -4l3 -1l3 -1l8 -2l3 -1l13 -5l3 -1h4l3 -1
l7 -3q11 -2 18 -5l11 -2l3 -1l2 -1l14 -4q7 -1 11 -3q8 -2 12 -4h3l16 -5l4 -2q3 0 4 -1l8 -2l3 -2l2 -1h3q9 -5 15 -6q5 -3 9 -4l2 -2l16 -7l9 -7q13 -6 20 -16l-3 -1q-12 -8 -21 -11l-3 -2l-4 -2q-4 -3 -8 -5q-7 -3 -11 -6l-6 -3l-4 -1l-3 -2q-11 -6 -19 -9l-2 -2l-4 -1
l-2 -2q-6 -2 -10 -4l-2 -1l-3 -1q-8 -5 -15 -7l-3 -2l-4 -1l-2 -2h-3q-9 -6 -17 -8l-3 -1q-11 -6 -20 -8l-3 -2l-4 -1l-3 -2q-8 -3 -13 -4q-8 -5 -15 -6l-3 -2h-3q-9 -5 -17 -6q-6 -3 -11 -4l-4 -2l-5 -1q-7 -4 -13 -5l-6 -1l-3 -2h-3l-3 -1l-4 -1q-1 -1 -2 -1l-3 -1l-2 -1
h-3q-1 -1 -2 -1l-23 -6l-2 -1h-3q-4 -2 -8 -3l-17 -4l-17 -4l-5 -1l-17 -3l-5 -1l-5 -1l-4 -1l-5 -1l-17 -2l-4 -1l-5 -1l-4 -1h-5l-4 -1h-6q-9 -3 -17 -2q-2 -1 -3 -1q-11 0 -19 -2h-6h-5l-22 -2h-4h-5h-6h-5h-4h-18h-4h-4h-4h-3h-7h-3q-11 2 -19 1l-4 1h-8q-9 2 -16 2h-3
q-8 2 -15 2l-14 3q-7 1 -13 2l-7 1l-7 2l-5 1l-11 2q-6 2 -11 3l-2 1q-7 2 -12 4l-22 6l-3 2l-3 1l-3 1q-5 1 -9 4h-3l-11 6l-3 1l-2 1q-10 3 -15 7l-3 1q-5 3 -8 4l-2 2q-11 5 -18 11l-3 1l-2 2l-3 1l-2 1l-9 8q-6 2 -9 5l-2 2q-4 3 -6 6q-7 4 -11 8l-2 3q-6 5 -10 9
q-9 8 -13 15l-2 1l-2 2l-1 3l-2 1l-2 2l-1 3q-9 9 -13 18q-6 7 -9 12l-1 2l-1 2l-1 2l-9 19l-4 7l-1 3l-1 3l-1 3l-1 3l-4 9l-1 4l-5 17l-1 4v3q-2 6 -2 11l-1 4v3q-2 8 -2 14l-2 15v4v3v4v3v3v17v3q2 6 1 12l1 7l1 4v7l1 6l1 3v3q2 6 2 11q2 6 2 10l1 3q2 5 2 9l1 3l4 12
l1 3q3 11 6 19q1 6 4 10v3l1 2l3 7l1 2l1 2q3 11 8 18l1 3l1 3l2 3q2 5 4 8l1 2q7 18 15 28l1 4l2 2l1 4l5 12q1 7 3 11q4 23 -15 23l-6 -4q-4 -4 -7 -5l-4 -6l-2 -1l-6 -8q-4 -5 -6 -7q-120 -202 -100 -409l1 -4l2 -13l1 -6l4 -16l1 -3l1 -8l2 -8q3 -5 3 -10q4 -8 5 -15
l2 -4q3 -6 4 -11l2 -4l1 -3l8 -16l2 -4l1 -4q5 -7 7 -13l3 -3l1 -4q7 -7 9 -14q7 -8 10 -15l3 -2l1 -3q2 -1 2 -2l8 -10l2 -3l3 -2l1 -3l3 -2l2 -3l3 -2l1 -3l3 -2l2 -2l8 -9l6 -4l1 -2q2 -1 2 -2l13 -10l2 -3l2 -1l2 -2q9 -6 14 -11l3 -2q7 -3 10 -7l4 -2l12 -7l4 -2l3 -3
l6 -3l5 -2l3 -2l5 -2l4 -3q10 -3 15 -7l7 -3q14 -4 22 -9l18 -5l10 -4q3 0 4 -1l3 -1h3l8 -2l4 -1l2 -1l16 -4h4l4 -1l13 -3h3q9 -2 16 -2q6 -2 11 -2h3h3l3 -1h4l17 -2h8h3h13h14h14h31l4 1h10l3 1h3q10 0 17 2h8q4 1 7 1l5 1l4 1h6q13 3 22 4l4 1h4l4 1l5 1l8 2l12 2
q1 1 2 1h3q9 4 17 4l5 2l17 4q6 3 11 3q6 2 10 3l4 1q13 6 23 7q4 3 8 3q13 5 21 7q3 2 5 2l3 1l16 7l6 1l4 2l8 4l4 1q6 3 10 4l3 1l7 4l3 1l13 5l5 3l5 2l2 1q8 3 12 6q10 3 15 7l4 1q6 4 11 6l2 1l4 2l3 1q1 1 2 1l2 2l2 1l3 1l12 6l2 2l4 1l2 2l3 1l16 9l13 7l2 2
q9 4 14 8l5 3l4 2l4 2q6 5 12 7q4 4 8 6l3 2l3 1l2 2l10 5q7 7 14 9l4 4l5 3q7 5 12 7q1 2 3 2l3 3l4 2q4 4 7 6l3 1l2 2l2 1l2 2l7 4q7 6 13 9q70 96 69 196q-1 1 -1 3v3l-1 3l-1 8l-2 8q-4 10 -5 16l-2 2l-5 12l-2 2l-1 3q-2 1 -2 2q-4 4 -5 8q-8 8 -12 14l-2 1l-6 4l-2 2
q-6 3 -9 7q-10 4 -15 9q-5 1 -8 3l-16 9l-3 1l-2 1q-16 5 -25 10h-3l-3 1l-5 2q-5 2 -8 3q-16 4 -25 8h-3l-8 2q-6 2 -10 3l-5 1l-3 1l-8 2l-2 1q-5 1 -9 3h-4l-3 1l-8 3q-6 0 -10 2l-2 1h-3l-8 2l-3 1l-17 6h-3l-3 1l-3 1l-3 1l-3 1q-18 5 -29 11q-5 1 -10 4l-2 1
q-11 3 -18 8q-6 2 -9 5q-18 7 -29 20l6 4l5 4l3 3q10 9 17 14q6 5 11 8q8 8 15 12l4 3l4 3l4 3l4 3l4 3l2 2l3 1q9 8 17 12l3 3l12 8l8 6l4 2l3 2l3 1q4 4 7 6l3 2l3 1q4 3 8 5q1 1 2 1q7 6 15 9q4 4 8 6l3 2l10 5l3 2l2 1l14 8q10 6 17 9q6 4 10 6l19 9l2 2q10 4 16 8l5 1
q4 3 8 5l4 1q1 1 3 1q1 1 2 1l6 4h3q8 6 16 7l4 2l3 1q11 6 20 8q2 1 3 1q9 5 16 7q6 2 11 4h3l7 3l3 1l3 1l3 1l3 1h3q1 1 2 1l16 5l5 1h3q6 3 11 3l17 4l7 1l22 3q40 3 70 -10q21 -16 17 -40q3 -8 4 -12q6 -3 11 -2q3 5 7 7l1 2q5 9 7 16q52 80 40 162q-1 2 -1 3
q-26 57 -102 46q-3 -1 -6 -1z" />
  </g>

</svg>
