<?xml version="1.0" standalone="no"?>
<!DOCTYPE svg PUBLIC "-//W3C//DTD SVG 1.1//EN" "http://www.w3.org/Graphics/SVG/1.1/DTD/svg11.dtd" >
<svg viewBox="0 -608 2048 2048">
  <g transform="matrix(1 0 0 -1 0 1638)">
   <path fill="currentColor"
d="M872 162h-5l-3 -1h-3h-4l-8 -1l-20 -3l-4 -1h-6q-3 -1 -6 -1q-8 -3 -15 -3q-6 -2 -11 -2q-1 -1 -2 -1h-3q-10 -4 -18 -4l-5 -2l-4 -1l-6 -1l-5 -1q-2 -1 -3 -1l-5 -1l-3 -2l-4 -1l-3 -1l-10 -2l-12 -4q-9 -3 -15 -4q-7 -4 -12 -5l-3 -1l-4 -1l-25 -8q-1 -1 -2 -1l-16 -7
l-4 -1l-4 -1l-2 -2h-3l-7 -3q-11 -6 -20 -8q-4 -3 -9 -4q-4 -3 -9 -4l-3 -2l-4 -1l-2 -2l-10 -4l-2 -1l-7 -3q-6 -4 -11 -5l-3 -2l-10 -5l-3 -1l-2 -2l-3 -1l-3 -2l-6 -2q-10 -7 -19 -10l-3 -3l-4 -1q-6 -5 -11 -7l-11 -6q-7 -4 -11 -7l-3 -1l-2 -2l-2 -1l-7 -3
q-6 -5 -13 -8q-1 -2 -2 -2l-3 -1l-6 -4q-6 -5 -12 -8q-3 -2 -5 -3l-4 -4l-5 -2l-5 -4l-5 -3q-1 -1 -2 -1q-6 -6 -12 -9l-4 -3l-5 -4l-4 -3q-7 -5 -12 -8q-2 -3 -4 -4l-4 -2l-12 -11l-4 -2l-3 -3l-2 -2l-6 -4q-3 -3 -6 -5q-13 -13 -22 -19q-6 -7 -12 -11l-1 -2l-2 -1
q-5 -7 -10 -10q-5 -7 -10 -10l-4 -5l-4 -3q-4 -5 -8 -8q-3 -6 -7 -9l-3 -3q-5 -7 -10 -11q-6 -9 -12 -14l-2 -4q-4 -5 -8 -9q-3 -7 -7 -10l-2 -3l-2 -3l-3 -5l-3 -3l-1 -3l-6 -8l-2 -3l-1 -3l-2 -3l-1 -3l-2 -1q-3 -9 -8 -14l-1 -3q-3 -8 -7 -13l-2 -4l-1 -4l-2 -3l-1 -3
q0 -3 -1 -4l-1 -4l-1 -2q-1 -5 -3 -9l-1 -6l-1 -2l-1 -5q-1 -6 -3 -10q-1 -13 -4 -62q-9 -77 15 -139q7 -2 11 -4l3 -2q3 0 4 -1l4 -1l3 -2l13 -4l3 -1l2 -1l4 -1l17 -6l5 -1l5 -1l2 -1l6 -2l3 -1h4l2 -1l3 -1l3 -1h4l3 -1q12 -3 20 -4l4 -1l4 -1l3 -1h4l2 -1h3l20 -4h5
l4 -1h3l8 -2h7l18 -3h5h3l13 -2h5h5l3 -1q8 0 14 -1q6 0 11 -1h11h5l2 -1h7l22 -1h5h4h18h4h4h4h17h3h12h6h6h8h20h6h5h6h5q12 2 20 1h5h5l5 1h3h13l7 1h18q6 2 11 1l11 1h4h4l8 1l20 1h7l5 1h5h3q9 1 16 1l2 1q8 -1 15 1h10l3 1h3h4q10 1 17 1l3 1h3h7l6 1l14 1h3l2 1h7
q11 1 18 1q2 1 3 1h8q12 2 20 2h5q6 2 11 1l4 1h3h4l2 1h3l20 1l6 1l31 2q3 1 6 1h6l3 1q6 0 11 1h3l20 1l6 1h7l4 1h3l22 2h10l9 1h7l3 1h3h4l23 1q2 1 3 1q9 0 16 1q9 0 16 1h3h18q6 2 11 1h3l20 1h6h6l17 1h6h5h6h4h18h11h4h4h4h4h17h8h7q7 0 12 -1h4h4h4h4h3l3 -1h3
q9 0 16 -1l22 -1l5 -1h7l6 -1l4 -1q8 0 13 -1h4l5 -1h3l8 -2q12 -1 20 -3h4l4 -1l4 -1l3 -1h3l4 -1l22 -5l2 3q1 2 2 2q9 18 18 27l2 5l4 5l4 6q4 8 9 13q3 8 8 13l2 4l3 3l2 3l2 4q1 2 2 2q4 9 9 14l1 3l2 3l2 2q3 6 6 10l2 2l4 7q6 11 12 17v3q-7 0 -12 2q-10 1 -16 2
l-4 1h-5h-3q-6 2 -11 2l-17 2l-7 1h-7l-3 1h-3h-4l-3 1l-20 1l-6 1l-20 1h-3h-3q-5 1 -8 1q-8 0 -13 1h-7h-11h-3l-3 1h-3h-3h-4h-3h-7q-13 0 -22 1h-3h-3h-31h-3h-20h-8h-3h-3h-31l-3 -1h-4h-3h-4h-18h-14q-8 -1 -13 -1h-17h-4q-8 -2 -14 -1h-3h-4h-3h-4q-1 -1 -2 -1h-3
h-20q-3 -1 -6 -1h-13h-4q-3 -1 -6 -1h-5h-3h-6l-6 -1h-5h-5l-11 -1h-3h-4l-23 -1l-4 -1h-17q-9 -2 -16 -1l-7 -1h-4h-3l-7 -1h-4l-18 -1h-6l-7 -1h-6h-5q-12 -2 -20 -1l-4 -1h-6l-16 -1h-4h-4q-3 -1 -5 -1h-4l-12 -1h-3h-3l-20 -1l-7 -1l-20 -1h-7h-5q-6 -2 -10 -1h-3
l-11 -1h-3h-4h-3q-12 -2 -20 -1q-12 -2 -20 -1l-2 -1h-7h-4h-3h-3q-7 -1 -12 -1h-7h-6q-4 -1 -7 -1h-7h-7l-2 -1h-4h-3h-3h-10l-16 -1h-20l-7 -1h-6h-6h-8q-12 0 -20 -1h-6h-5h-6h-4h-18h-11h-4h-4h-4h-4h-17h-3h-12l-16 1h-8q-9 0 -16 1h-3h-13h-3q-6 2 -11 1l-16 1l-5 1
h-3l-20 1l-5 1h-5q-5 1 -8 1l-4 1q-5 0 -8 1q-15 1 -25 3l-3 1h-3q-6 0 -10 2q-9 1 -16 3q-6 0 -10 2h-4l-2 1l-3 1l-7 1l-2 1l-9 2l-11 3l-3 1l-3 1l-4 1l-3 2h-3l-3 1q-35 13 -13 67l7 9q2 6 5 9l7 9q3 6 7 9l2 3l2 3l3 3l2 4l2 2l13 15l3 4l2 2l3 2l2 3l2 2l2 2l2 1
q5 7 10 11l3 3l10 10l2 1l7 6q1 2 3 2l2 3l3 2q1 2 3 2l3 3q1 1 2 1q5 7 12 10q3 4 6 6l4 2l9 8l4 2l3 3l3 2l3 1q4 4 7 6l3 1q6 6 12 8l1 2l14 8l4 3l4 2l12 8q6 3 10 6l4 2l5 2l3 2l4 2q1 1 2 1l6 4l6 3l3 2l6 2q1 1 2 1l2 2l3 1q6 4 12 6l5 3l5 2l5 3l6 2l5 2l4 3l5 1
l4 2q3 2 5 2q5 4 11 5l4 2l4 2l10 4l2 1q5 1 10 4h3l2 2q9 2 16 6h3l7 3l16 6h3q3 2 6 2q3 2 6 2q9 5 16 5l3 2h3q13 6 24 7q2 1 3 1q1 1 3 1l3 1q15 5 25 6q9 4 16 4l4 2l5 1l4 1h3q6 2 11 2l8 2l2 1h3q9 3 16 3l5 1l4 1l5 1l16 2l5 1l13 2h3q12 3 21 3l14 2l38 3v7v3v3v31
v7v6v7v6v5v6v4v18v11v4v4v4v4v17v3v12h-3h-3h-3h-13z" />
  </g>

</svg>
