<?xml version="1.0" standalone="no"?>
<!DOCTYPE svg PUBLIC "-//W3C//DTD SVG 1.1//EN" "http://www.w3.org/Graphics/SVG/1.1/DTD/svg11.dtd" >
<svg viewBox="0 -410 2048 2048">
  <g transform="matrix(1 0 0 -1 0 1638)">
   <path fill="currentColor"
d="M896 777q-3 -4 -7 -6q-6 -9 -12 -14l-4 -7v-3l-2 -2q-3 -10 -7 -16q-1 -5 -3 -8l-1 -3l-1 -2l-1 -2l-1 -2l-1 -2l-2 -2q-4 -10 -9 -16l-1 -3l-2 -3l-7 -13l-2 -1l-1 -3l-2 -3l-2 -3q-3 -5 -6 -8q-4 -7 -8 -11q-4 -7 -7 -10q-7 -10 -13 -15q-3 -5 -6 -8l-3 -3q-3 -5 -6 -7
l-1 -2l-3 -2q-1 -2 -2 -2l-1 -2l-2 -2l-2 -1l-1 -2l-2 -1q-4 -5 -7 -8l-4 -3l-3 -3l-3 -3l-4 -2l-2 -3l-3 -3l-3 -2l-3 -3l-3 -1l-2 -3l-3 -1l-2 -3l-4 -3l-2 -2l-2 -1l-3 -2l-2 -2l-3 -1l-1 -2q-7 -5 -12 -9l-4 -2q-6 -4 -10 -6l-3 -3l-3 -1q-1 -2 -2 -2l-2 -1l-2 -2
q-9 -5 -14 -9l-13 -7l-3 -1q-1 -2 -2 -2l-3 -1q-13 -10 -24 -13q-1 -1 -2 -1q-1 -1 -2 -1q-10 -8 -19 -10q-1 -1 -2 -1l-2 -2l-2 -1l-3 -1l-12 -6l-6 -3l-16 -7l-3 -2l-3 -1l-2 -1l-3 -1l-12 -6l-5 -2l-6 -2q-4 -3 -8 -4q-11 -6 -19 -8l-4 -2l-3 -1q-8 -5 -14 -7l-7 -2
q-9 -5 -16 -7q-5 -4 -9 -4q-10 -7 -19 -9l-5 -2q-8 -5 -15 -7l-4 -3l-5 -1l-4 -2l-4 -3q-6 -2 -10 -5l-3 -1q-7 -4 -11 -5l-6 -4l-2 -1l-6 -2q-12 -9 -22 -12l-4 -3l-4 -3l-13 -7l-4 -3q-5 -3 -9 -5l-3 -3l-3 -1l-1 -2l-3 -1q-7 -7 -14 -10q-6 -6 -12 -9l-3 -4l-10 -7
q-1 -2 -2 -2q-5 -6 -10 -9l-2 -3l-2 -2l-3 -3l-3 -2l-2 -3q-4 -3 -6 -7l-13 -13q-5 -9 -12 -16l-1 -3l-2 -3l-2 -3l-2 -2l-2 -4l-2 -2l-1 -3l-2 -1q-5 -12 -10 -18l-2 -4q0 -3 -1 -4l-5 -13q-3 -7 -4 -12q-4 -7 -5 -13l-2 -5q-2 -8 -5 -14l-4 -16l-2 -5l-1 -5l-1 -5
q-3 -8 -4 -14l-1 -4l-1 -5l-1 -4q-2 -6 -3 -10l-1 -4l-1 -4l-1 -7l-1 -7l-1 -3l-1 -3q-1 -9 -3 -16l1 -26q11 -17 29 -20h8h20h7l7 -1h7h7h7l6 -1h7h7l4 -1h3h4h3h5h3h5h3q11 -2 19 -1h5h3l7 -1h6h14h3h4h3l20 -1h4h4h3h4h18h4h5h13h4h17h3h12h4h4h3h18h13h4h17h3h12h6h5h5
h5l7 1h4h4h17h8h7q8 2 14 1h10l20 1h4h4h3l8 1h3q10 0 17 1h14l8 1h4h4h3l22 1l2 1q13 0 21 1h4h3h7l3 1h3h3h7l6 1h3l20 1l3 1h11h3l2 1h12l6 1h3l20 1q4 2 8 1l14 1h3h3l3 1h4h7l2 1l16 1h7q9 2 17 1q9 2 16 2q8 0 14 1h7l4 1h4l17 1l5 1h4h3h5l4 1h4l22 2l20 1h8l4 1h4
l7 1l22 1h7l6 1h3h7l3 1h3h7h3q11 2 19 1q3 1 5 1h14l4 1h5q8 0 14 1h11h4h3l4 1q15 -1 25 1h6h7h4h7q11 1 18 1h6h3h3l-110 1h4h3h5h3h4h3h20h6h6h3h4h3h5h3h4h3h20h5h5h4l17 -1h3h14h3h5q14 -2 22 -1l4 6l4 6l4 6l4 6l4 5l3 5l3 6l2 3q6 8 9 14l4 6l2 1q2 6 6 10l3 4l2 4
l2 2q5 11 11 17l1 3l2 3l6 8q1 2 2 2l4 7q8 14 15 22l1 2q-8 4 -16 3l-6 1h-3l-20 1q-5 0 -8 1h-7h-8q-6 1 -11 1h-3l-20 1h-6h-7q-9 1 -16 1h-14h-13h-6h-4h-6l-3 1h-4h-10h-4h-4h-3h-4h-18h-8h-3q-12 -2 -20 -1h-8h-3h110q-12 -2 -20 -1h-3h-3h-13q-1 -1 -2 -1h-20l-4 -1
h-4h-4h-3l-20 -1h-4h-3h-4q-10 -1 -17 -1h-3h-3l-2 -1h-3h-3h-13l-3 -1h-3h-3h-7l-3 -1h-3q-9 0 -16 -1h-5l-22 -1q-8 -1 -14 -1h-3l-4 -1h-3l-20 -1q-5 0 -8 -1h-3h-3h-7l-6 -1h-7q-9 -2 -17 -1l-4 -1l-17 -1h-4h-3q-1 -1 -2 -1l-17 -1h-3l-11 -1h-3h-3h-3q-4 -2 -8 -1h-4
q-9 -2 -17 -1q-1 -1 -2 -1l-20 -1l-14 -1h-5l-3 -1h-4h-3h-3l-2 -1h-4h-3l-20 -1l-5 -1q-6 0 -10 -1h-4q-6 0 -11 -1h-4h-3h-3q-10 -1 -17 -1l-2 -1h-13q-10 -2 -17 -1q-10 -2 -17 -1q-1 -1 -3 -1h-4q-6 0 -10 -1l-33 -1l-4 -1h-5h-4h-5l-2 -1h-7l-22 -1h-6q-6 -1 -11 -1h-4
h-7q-11 -1 -18 -1h-6l-6 -1h-4h-3h-4h-18l-6 -1h-4h-4h-3h-4h-18l-6 -1h-7h-4h-4h-17h-3h-12h-7h-3h-3h-31h-3l-16 1h-6h-13l-22 1h-11q-6 2 -10 1h-3h-4l-3 1h-3h-3q-8 0 -12 1h-10q-6 2 -11 1l-3 1h-3h-3l-4 1q-21 -1 -35 2q1 5 2 8l3 3l3 3l4 2l2 3l2 2l13 10q5 7 12 10
l2 3l3 1q1 2 2 2q5 5 10 7q1 2 2 2l10 7q6 4 11 6l3 3l5 2l3 2l2 2l2 1l7 3q1 1 2 1q6 5 11 7l4 2l12 5l13 7l6 3h3q8 5 15 7q1 1 2 1l3 1q7 4 12 6l2 1l6 2l16 7l15 5q3 2 5 2l2 2h3l2 2q11 3 18 7l6 2l3 1l3 2l22 8l5 3l5 1q4 3 9 4l2 2h3l2 2l18 7q8 5 15 7q6 4 11 5
q6 4 11 6q5 3 9 4l2 2l2 1l6 2q9 7 18 10l1 2l18 10l4 2l4 3l3 2l4 3q7 4 10 7l3 1l3 3l4 2q3 3 6 5l2 2l2 2l18 13l3 3l3 4l3 2l3 2l3 4l3 2l3 4l2 2l3 2l2 3l6 5q5 7 10 11l1 3l6 6q5 8 10 12l1 3q6 7 9 13l2 3l2 1q4 10 10 16l2 4l2 5l3 3l1 4l2 3l1 3l2 3l2 3q2 6 5 10
l1 4l1 2l1 3l8 18l6 8l1 3q4 5 5 8l2 1q3 6 6 10q15 21 35 30q12 -1 18 -9q4 -7 6 -14l2 -4l3 -10l3 -16l1 -5q3 -6 3 -11l2 -3l1 -6l1 -3l1 -3l1 -3l1 -6l2 -2v-3q1 -2 1 -3q3 -4 3 -8l4 -7q5 -4 10 -4q1 2 2 2q3 7 6 11q44 139 -4 257q-7 8 -11 14q-10 5 -20 4z" />
  </g>

</svg>
