<?xml version="1.0" standalone="no"?>
<!DOCTYPE svg PUBLIC "-//W3C//DTD SVG 1.1//EN" "http://www.w3.org/Graphics/SVG/1.1/DTD/svg11.dtd" >
<svg viewBox="0 -631 2048 2048">
  <g transform="matrix(1 0 0 -1 0 1638)">
   <path fill="currentColor"
d="M1186 162l-20 -2l-13 -3h-5q-3 -1 -5 -1q-1 -1 -2 -1l-7 -1q-8 -3 -13 -3q-2 -1 -3 -1l-8 -2q-9 -4 -16 -5l-4 -2l-5 -1l-3 -2l-5 -1q-3 -2 -5 -2q-1 -1 -3 -1l-2 -2q-10 -3 -17 -7l-4 -1l-2 -2l-3 -1l-2 -1l-6 -2q-1 -1 -2 -1q-8 -6 -17 -9q-3 -2 -5 -3l-4 -2
q-1 -2 -3 -2q-1 -1 -2 -1q-7 -7 -14 -9l-6 -5l-14 -8l-2 -3l-9 -5q-1 -2 -2 -2l-3 -2q-1 -2 -2 -2l-3 -2q-10 -9 -17 -14l-6 -5l-3 -3l-2 -2l-6 -4q-3 -5 -7 -7q-6 -8 -12 -11l-4 -5l-4 -4l-4 -3l-2 -4l-3 -3l-10 -9l-3 -3l-3 -4l-6 -8l-3 -2l-3 -3l-1 -3q-4 -3 -6 -7l-2 -2
l-2 -3l-2 -2l-13 -15l-1 -4l-2 -2l-1 -3l-6 -8q-2 -6 -4 -10l-2 -2l-1 -3l-1 -3q-7 -13 -10 -23q-25 -66 0 -123l8 -6l2 -3l3 -2q5 -5 9 -7l2 -3l3 -1l3 -2l2 -2l2 -2l2 -1q8 -4 12 -8l3 -1q8 -3 13 -7l4 -1l3 -2l2 -1q5 -1 9 -3l4 -1l9 -4q3 0 4 -1l5 -1l8 -3l3 -1h4l2 -1
l8 -2l25 -5q6 -2 11 -3h3l3 -1l8 -2l16 -3l3 -1l2 -1q9 -2 14 -4q16 -3 26 -10h-3l-2 -2l-4 -2l-4 -1q-8 -5 -15 -7l-2 -2l-22 -9q-11 -6 -18 -9h-3q-9 -6 -18 -8l-2 -1q-7 -4 -13 -5l-13 -6h-3q-10 -6 -19 -7l-3 -2l-10 -4h-3q-1 -1 -3 -1q-1 -1 -2 -1l-16 -6h-3
q-4 -3 -8 -3l-7 -3h-3q-1 -1 -2 -1l-13 -4l-4 -1l-19 -6l-3 -1h-3q-9 -4 -16 -5l-3 -1h-4l-4 -1l-4 -2q-6 0 -10 -2l-11 -2l-3 -1h-3q-9 -4 -16 -4l-5 -1l-5 -1h-3q-6 -2 -11 -2l-4 -1q-8 -2 -14 -2l-5 -1h-3l-7 -2h-7q-3 -1 -6 -1l-14 -2h-3h-4q-2 -1 -3 -1q-12 0 -20 -2
h-5h-13l-4 -1h-6h-5h-4h-18h-4h-4h-4h-3h-3h-4h-3q-12 2 -19 1l-4 1q-11 0 -18 2h-7l-6 1l-3 1h-3l-7 1l-2 1l-16 2l-5 1l-17 5h-3l-8 2q-6 2 -11 3l-3 1l-9 4h-3q-5 3 -9 4l-3 1l-8 3l-3 2q-13 4 -21 10q-16 6 -26 15l-3 1l-3 2l-3 2l-3 2l-3 3q-5 2 -8 6l-3 2l-2 1l-10 8
l-2 3l-2 1l-2 3q-2 1 -2 2l-2 1l-2 2l-1 2l-2 1l-1 2q-5 4 -8 7l-2 3l-2 2l-2 4l-2 1l-1 2l-3 3l-11 16l-2 3l-1 3q-4 4 -5 9q-2 1 -2 2l-2 4l-1 3l-2 2l-9 19v3q-4 7 -6 13l-1 4l-1 4q-3 6 -3 11l-1 4q-4 10 -5 17v3l-4 19v5l-1 4l-1 17l-1 4v4v4l-1 25q2 13 1 22v5
q2 13 2 22q3 16 3 25l1 4l1 4v4l1 4l2 11l1 4q1 8 3 12v4l1 3l4 19l2 6l2 5l1 7l2 6l1 5l1 3l5 13l1 5l2 5q1 9 5 15l1 5l2 4l1 5l2 5l2 3q2 7 4 12l10 26q7 27 -12 28q-5 -4 -9 -5q-3 -5 -7 -7l-2 -3l-3 -2q-2 -4 -4 -6q-5 -9 -10 -15q-3 -8 -5 -13l-1 -2l-7 -16l-4 -10
l-2 -3q0 -3 -1 -4l-1 -3l-1 -3l-1 -3l-2 -3q-1 -5 -3 -8l-4 -12q-3 -6 -4 -11l-1 -3l-2 -2q-2 -11 -6 -18l-1 -5l-2 -4l-5 -16l-1 -2q-1 -5 -3 -9l-1 -6l-3 -7q-2 -11 -5 -18l-1 -4l-1 -7l-1 -4l-1 -3l-1 -4l-3 -12l-3 -11v-4q-2 -5 -2 -9l-3 -10v-3l-1 -7q-3 -11 -3 -18
l-1 -4l-1 -8l-2 -13l-1 -10l-1 -11l-1 -14l-1 -9v-72q2 -8 1 -14q2 -8 2 -13v-4l3 -18v-5q3 -9 3 -17q1 -1 1 -2l4 -20q3 -4 4 -8q2 -5 3 -8q3 -4 4 -9l2 -2l1 -2q5 -12 10 -19l4 -9l3 -3l2 -3l1 -3l2 -2l1 -3l2 -3l4 -6q2 -1 2 -2l2 -2l4 -7l11 -12l1 -2l2 -3q10 -9 15 -17
l8 -6l3 -3l6 -7q9 -6 14 -12l4 -2l2 -2l4 -3l3 -3l3 -1l2 -2l2 -1l3 -2l13 -10l4 -2l4 -2l11 -6l2 -1q9 -6 16 -8l11 -6l5 -2l3 -1l4 -2l4 -1l4 -2l3 -1l23 -9l4 -1q3 0 4 -1l3 -1h3l3 -1l12 -4l5 -1l13 -2l4 -1q9 -3 16 -3l4 -1l4 -1h4l6 -1l4 -1l17 -1l16 -2h3h3h20h4h3
h20h17h4h3l11 1l16 1q8 1 14 1l4 1h3q9 2 16 2q2 1 3 1l18 3h3l8 1l8 2l12 2l16 4l5 1l16 3l6 2q10 3 17 4q9 4 16 5l5 1l4 1l4 2l4 1l5 1l3 2q6 1 11 3l5 2l4 1l3 1l3 1l3 1q5 1 8 3l4 1l17 6l2 1l9 4q8 2 13 5h3q8 5 15 6l5 3l5 2q9 4 16 6q1 1 2 1l3 2l2 1l18 8l3 1
q9 5 15 7l7 3q7 5 14 7q11 8 20 10q3 2 6 3l5 4q10 4 16 8l14 7q1 1 2 1q6 5 12 7l4 2l6 4q10 6 17 9l4 3l4 3q5 2 9 5l3 1l3 1q1 2 2 2l7 4q8 6 14 8q1 2 3 2q1 2 2 2l3 2l2 2l7 4q7 9 16 13l2 3l7 6l3 2l2 3l5 6l6 5l2 3l1 2l2 1l10 14l9 13l1 3l2 2q4 12 8 18q2 10 4 17
v8v20q-3 8 -4 14l-2 2l-1 3l-8 15l-3 2l-1 3q-9 7 -14 14l-3 1l-2 2l-5 5l-4 2l-3 2l-4 2l-3 2l-3 3l-3 1l-2 2l-3 1l-3 2l-2 1l-3 1l-5 4q-7 2 -11 5h-3l-2 2h-3q-7 4 -12 5l-4 2l-5 1l-4 1l-4 2l-4 1l-4 1l-11 3l-4 1l-3 1l-14 3l-3 1l-10 2q-5 2 -9 2l-4 1l-4 1l-5 1
l-7 2l-10 3h-3l-8 2q-6 2 -11 3l-3 1l-3 1l-4 1l-7 3q-6 2 -10 4q-20 5 -32 15l3 1q10 9 19 12q8 8 17 11l1 2l3 1l2 2l2 1l3 1q1 1 2 1q7 7 15 9q1 2 2 2l7 4l2 1q5 3 8 5l9 5l3 2l4 1l9 6q8 3 12 6l2 1l6 2q3 2 7 3q9 6 17 8l4 2l2 1l3 1l12 6l4 1l4 1l4 2l3 1l4 2l5 1
l10 4l3 1l7 2h3q1 1 3 1q7 3 12 4h4q2 1 3 1l14 3h4q1 1 3 1h4q2 1 3 1l11 1l17 1v7v14v3v5v3v4v3v20v13v7v14v3v18v13v4v17v3v12h-13q-2 -1 -3 -1z" />
  </g>

</svg>
