<?xml version="1.0" encoding="UTF-8"?>
<svg xmlns="http://www.w3.org/2000/svg" viewBox="0 0 900 1560" width="900" height="1560">
<defs>
  <style>
    .en { font-family: system-ui, -apple-system, 'Helvetica Neue', Arial, sans-serif; }
    .ar { font-family: 'Arabic UI Text', 'Noto Naskh Arabic', 'Geeza Pro', serif; }
    .tag { font-family: system-ui, sans-serif; font-size: 10px; font-weight: 700; letter-spacing: 2px; fill: #C5933A; }
  </style>
  <filter id="shadow">
    <feDropShadow dx="0" dy="2" stdDeviation="4" flood-color="#00000020"/>
  </filter>
  <filter id="glow">
    <feDropShadow dx="0" dy="0" stdDeviation="8" flood-color="#C5933A55"/>
  </filter>
  <filter id="privglow">
    <feDropShadow dx="0" dy="0" stdDeviation="12" flood-color="#4CAF5066"/>
  </filter>
</defs>

<!-- ▓▓▓ BACKGROUND -->
<rect width="900" height="1560" fill="#F4EFE8"/>

<!-- ▓▓▓ HEADER -->
<rect x="0" y="0" width="900" height="190" fill="#1B3A5C"/>
<rect x="0" y="187" width="900" height="4" fill="#C5933A"/>
<line x1="45" y1="20" x2="855" y2="20" stroke="#C5933A" stroke-width="1" opacity="0.4"/>
<line x1="45" y1="172" x2="855" y2="172" stroke="#C5933A" stroke-width="1" opacity="0.4"/>
<circle cx="45"  cy="20"  r="3" fill="#C5933A" opacity="0.6"/>
<circle cx="855" cy="20"  r="3" fill="#C5933A" opacity="0.6"/>
<circle cx="45"  cy="172" r="3" fill="#C5933A" opacity="0.6"/>
<circle cx="855" cy="172" r="3" fill="#C5933A" opacity="0.6"/>

<text x="450" y="82" text-anchor="middle" class="ar"
      font-size="52" fill="#C5933A" filter="url(#glow)">لسان الدعوت</text>
<text x="450" y="118" text-anchor="middle" class="en"
      font-size="20" font-weight="700" fill="#FFFFFF" letter-spacing="1.5">
  LISAN UD DAWAT DIGITAL TOOLS
</text>
<text x="450" y="148" text-anchor="middle" class="en"
      font-size="13" fill="#8BB8D8">
  A keyboard and transliteration engine for the Dawoodi Bohra community
</text>

<!-- ▓▓▓ COMMUNITY STRIP -->
<rect x="0" y="191" width="900" height="155" fill="#FFFFFF"/>
<text x="50" y="226" class="tag">THE COMMUNITY</text>
<line x1="50" y1="232" x2="850" y2="232" stroke="#EEE" stroke-width="1"/>

<!-- 3 quick facts as chips -->
<rect x="50"  y="248" width="245" height="60" rx="10" fill="#F0F4F8" filter="url(#shadow)"/>
<text x="70"  y="275" class="en" font-size="22">🌍</text>
<text x="105" y="270" class="en" font-size="13" font-weight="700" fill="#1B3A5C">Global community</text>
<text x="105" y="288" class="en" font-size="12" fill="#666">Dawoodi Bohras worldwide</text>

<rect x="327" y="248" width="245" height="60" rx="10" fill="#F0F4F8" filter="url(#shadow)"/>
<text x="347" y="275" class="en" font-size="22">🗣️</text>
<text x="382" y="270" class="en" font-size="13" font-weight="700" fill="#1B3A5C">Everyday language</text>
<text x="382" y="288" class="en" font-size="12" fill="#666">Spoken at home and in prayer</text>

<rect x="604" y="248" width="245" height="60" rx="10" fill="#F0F4F8" filter="url(#shadow)"/>
<text x="624" y="275" class="en" font-size="22">✍️</text>
<text x="659" y="270" class="en" font-size="13" font-weight="700" fill="#1B3A5C">No typing tools existed</text>
<text x="659" y="288" class="en" font-size="12" fill="#666">Until now</text>

<!-- ▓▓▓ THE KEYBOARD -->
<rect x="0" y="346" width="900" height="240" fill="#F0F4F8"/>
<text x="50" y="380" class="tag">THE KEYBOARD</text>
<line x1="50" y1="386" x2="850" y2="386" stroke="#D5DDE8" stroke-width="1"/>

<!-- Feature list -->
<text x="50" y="414" class="en" font-size="17" font-weight="700" fill="#1B3A5C">A native iPhone keyboard for Lisan ud Dawat</text>

<rect x="50"  y="428" width="26" height="26" rx="7" fill="#1B3A5C"/><text x="63"  y="446" text-anchor="middle" class="ar" font-size="13" fill="white">ض</text>
<text x="88"  y="446" class="en" font-size="13" fill="#333">All LSD characters, including ٹ ڈ چ پ گ ھ</text>

<rect x="50"  y="462" width="26" height="26" rx="7" fill="#2E7D52"/><text x="63"  y="480" text-anchor="middle" class="en" font-size="13" fill="white">⇧</text>
<text x="88"  y="480" class="en" font-size="13" fill="#333">Three layers: letters · diacritics · numbers</text>

<rect x="50"  y="496" width="26" height="26" rx="7" fill="#C5933A"/><text x="63"  y="514" text-anchor="middle" class="en" font-size="13" fill="white">…</text>
<text x="88"  y="514" class="en" font-size="13" fill="#333">Hold any key to see alternate characters</text>

<rect x="50"  y="530" width="26" height="26" rx="7" fill="#7B5EA7"/><text x="63"  y="548" text-anchor="middle" class="en" font-size="11" fill="white">🔄</text>
<text x="88"  y="548" class="en" font-size="13" fill="#333">Suggests Roman spellings as you type</text>

<!-- Phone mockup -->
<rect x="598" y="360" width="248" height="210" rx="28" fill="#2C2C2C" filter="url(#shadow)"/>
<rect x="614" y="378" width="216" height="178" rx="16" fill="#0D1B2A"/>
<rect x="614" y="378" width="216" height="18" rx="0" fill="#111B28"/>
<rect x="648" y="384" width="80" height="6" rx="3" fill="#333"/>
<rect x="614" y="396" width="216" height="32" rx="0" fill="#1A2A3A"/>
<text x="635" y="418" class="ar" font-size="16" fill="#C5933A">بِسمِ اللّٰهِ</text>
<rect x="614" y="428" width="216" height="128" fill="#1C2B3A"/>
<!-- key rows -->
<rect x="618" y="432" width="13" height="20" rx="3" fill="#2E4060"/><text x="624" y="447" text-anchor="middle" class="ar" font-size="8.5" fill="#EEE">ض</text>
<rect x="634" y="432" width="13" height="20" rx="3" fill="#2E4060"/><text x="640" y="447" text-anchor="middle" class="ar" font-size="8.5" fill="#EEE">ص</text>
<rect x="650" y="432" width="13" height="20" rx="3" fill="#2E4060"/><text x="656" y="447" text-anchor="middle" class="ar" font-size="8.5" fill="#EEE">ث</text>
<rect x="666" y="432" width="13" height="20" rx="3" fill="#2E4060"/><text x="672" y="447" text-anchor="middle" class="ar" font-size="8.5" fill="#EEE">ق</text>
<rect x="682" y="432" width="13" height="20" rx="3" fill="#2E4060"/><text x="688" y="447" text-anchor="middle" class="ar" font-size="8.5" fill="#EEE">ف</text>
<rect x="698" y="432" width="13" height="20" rx="3" fill="#2E4060"/><text x="704" y="447" text-anchor="middle" class="ar" font-size="8.5" fill="#EEE">غ</text>
<rect x="714" y="432" width="13" height="20" rx="3" fill="#2E4060"/><text x="720" y="447" text-anchor="middle" class="ar" font-size="8.5" fill="#EEE">ع</text>
<rect x="730" y="432" width="13" height="20" rx="3" fill="#2E4060"/><text x="736" y="447" text-anchor="middle" class="ar" font-size="8.5" fill="#EEE">ه</text>
<rect x="746" y="432" width="13" height="20" rx="3" fill="#2E4060"/><text x="752" y="447" text-anchor="middle" class="ar" font-size="8.5" fill="#EEE">خ</text>
<rect x="762" y="432" width="13" height="20" rx="3" fill="#2E4060"/><text x="768" y="447" text-anchor="middle" class="ar" font-size="8.5" fill="#EEE">ح</text>
<rect x="778" y="432" width="16" height="20" rx="3" fill="#2E4060"/><text x="786" y="447" text-anchor="middle" class="ar" font-size="8.5" fill="#EEE">ج</text>
<rect x="626" y="456" width="13" height="20" rx="3" fill="#2E4060"/><text x="632" y="471" text-anchor="middle" class="ar" font-size="8.5" fill="#EEE">ش</text>
<rect x="642" y="456" width="13" height="20" rx="3" fill="#2E4060"/><text x="648" y="471" text-anchor="middle" class="ar" font-size="8.5" fill="#EEE">س</text>
<rect x="658" y="456" width="13" height="20" rx="3" fill="#2E4060"/><text x="664" y="471" text-anchor="middle" class="ar" font-size="8.5" fill="#EEE">ي</text>
<rect x="674" y="456" width="13" height="20" rx="3" fill="#2E4060"/><text x="680" y="471" text-anchor="middle" class="ar" font-size="8.5" fill="#EEE">ب</text>
<rect x="690" y="456" width="13" height="20" rx="3" fill="#2E4060"/><text x="696" y="471" text-anchor="middle" class="ar" font-size="8.5" fill="#EEE">ل</text>
<rect x="706" y="456" width="13" height="20" rx="3" fill="#2E4060"/><text x="712" y="471" text-anchor="middle" class="ar" font-size="8.5" fill="#EEE">ا</text>
<rect x="722" y="456" width="13" height="20" rx="3" fill="#2E4060"/><text x="728" y="471" text-anchor="middle" class="ar" font-size="8.5" fill="#EEE">ت</text>
<rect x="738" y="456" width="13" height="20" rx="3" fill="#2E4060"/><text x="744" y="471" text-anchor="middle" class="ar" font-size="8.5" fill="#EEE">ن</text>
<rect x="754" y="456" width="13" height="20" rx="3" fill="#2E4060"/><text x="760" y="471" text-anchor="middle" class="ar" font-size="8.5" fill="#EEE">م</text>
<rect x="770" y="456" width="24" height="20" rx="3" fill="#2E4060"/><text x="782" y="471" text-anchor="middle" class="ar" font-size="8.5" fill="#EEE">ك</text>
<rect x="618" y="480" width="22" height="20" rx="3" fill="#1A2E44"/><text x="629" y="495" text-anchor="middle" class="en" font-size="8" fill="#AAA">⇧</text>
<rect x="643" y="480" width="13" height="20" rx="3" fill="#2E4060"/><text x="649" y="495" text-anchor="middle" class="ar" font-size="8.5" fill="#EEE">ذ</text>
<rect x="659" y="480" width="13" height="20" rx="3" fill="#2E4060"/><text x="665" y="495" text-anchor="middle" class="ar" font-size="8.5" fill="#EEE">ر</text>
<rect x="675" y="480" width="13" height="20" rx="3" fill="#2E4060"/><text x="681" y="495" text-anchor="middle" class="ar" font-size="8.5" fill="#EEE">ز</text>
<rect x="691" y="480" width="13" height="20" rx="3" fill="#2E4060"/><text x="697" y="495" text-anchor="middle" class="ar" font-size="8.5" fill="#EEE">و</text>
<rect x="707" y="480" width="13" height="20" rx="3" fill="#2E4060"/><text x="713" y="495" text-anchor="middle" class="ar" font-size="8.5" fill="#EEE">ط</text>
<rect x="723" y="480" width="13" height="20" rx="3" fill="#2E4060"/><text x="729" y="495" text-anchor="middle" class="ar" font-size="8.5" fill="#EEE">د</text>
<rect x="739" y="480" width="13" height="20" rx="3" fill="#2E4060"/><text x="745" y="495" text-anchor="middle" class="ar" font-size="8.5" fill="#EEE">ظ</text>
<rect x="755" y="480" width="39" height="20" rx="3" fill="#1A2E44"/><text x="774" y="495" text-anchor="middle" class="en" font-size="8" fill="#AAA">⌫</text>
<rect x="618" y="504" width="32" height="20" rx="3" fill="#1A2E44"/><text x="634" y="519" text-anchor="middle" class="en" font-size="7" fill="#AAA">١٢٣</text>
<rect x="654" y="504" width="112" height="20" rx="3" fill="#3A5070"/>
<rect x="770" y="504" width="24" height="20" rx="3" fill="#2E6645"/><text x="782" y="519" text-anchor="middle" class="en" font-size="7.5" fill="white">↵</text>
<!-- transliteration bar on screen -->
<rect x="614" y="528" width="216" height="20" fill="#0D1B2A"/>
<text x="635" y="542" class="en" font-size="9" fill="#4CAF50">bismi allāh  ✓</text>

<!-- ▓▓▓ TRANSLITERATION -->
<rect x="0" y="586" width="900" height="155" fill="#FDF6E8"/>
<rect x="0" y="586" width="5" height="155" fill="#C5933A"/>
<text x="50" y="618" class="tag">TRANSLITERATION</text>
<line x1="50" y1="624" x2="850" y2="624" stroke="#E8D9B8" stroke-width="1"/>
<text x="50" y="650" class="en" font-size="16" font-weight="700" fill="#1B3A5C">
  Type in LSD script — get the Roman spelling automatically
</text>
<rect x="50" y="664" width="800" height="58" rx="10" fill="#1B3A5C"/>
<text x="196" y="700" text-anchor="middle" class="ar" font-size="32" fill="#C5933A">سَلَام</text>
<text x="320" y="700" text-anchor="middle" class="en" font-size="28" fill="#5A8AAA">→</text>
<text x="450" y="700" class="en" font-size="26" font-weight="600" fill="#FFFFFF">salām</text>
<line x1="562" y1="674" x2="562" y2="712" stroke="#2E4060" stroke-width="1"/>
<text x="582" y="690" class="en" font-size="11" fill="#7AA8CC">Short vowels restored</text>
<text x="582" y="707" class="en" font-size="11" fill="#7AA8CC">from context automatically</text>

<!-- ▓▓▓ PRIVACY — CENTREPIECE -->
<rect x="0" y="741" width="900" height="310" fill="#0D2A14"/>
<rect x="0" y="741" width="900" height="4" fill="#4CAF50"/>
<rect x="0" y="1047" width="900" height="4" fill="#4CAF50"/>

<!-- large lock -->
<text x="450" y="820" text-anchor="middle" font-size="64" filter="url(#privglow)">🔒</text>

<text x="450" y="862" text-anchor="middle" class="en"
      font-size="26" font-weight="700" fill="#FFFFFF">
  Your words never leave your phone.
</text>
<text x="450" y="892" text-anchor="middle" class="en"
      font-size="18" fill="#81C784">
  Only the learning does.
</text>

<!-- divider -->
<line x1="200" y1="910" x2="700" y2="910" stroke="#2E5E3A" stroke-width="1"/>

<!-- 3 mini steps inline -->
<text x="165" y="946" text-anchor="middle" class="en" font-size="28">📱</text>
<text x="165" y="966" text-anchor="middle" class="en" font-size="11" fill="#81C784">You correct</text>
<text x="165" y="981" text-anchor="middle" class="en" font-size="11" fill="#81C784">a suggestion</text>

<path d="M 215 960 L 275 960" stroke="#4CAF50" stroke-width="1.5"
      stroke-dasharray="4,3" marker-end="url(#arr)"/>
<text x="245" y="953" text-anchor="middle" class="en" font-size="9" fill="#4CAF50">only math</text>
<text x="245" y="975" text-anchor="middle" class="en" font-size="9" fill="#2E5E3A">not words</text>

<text x="360" y="946" text-anchor="middle" class="en" font-size="28">🔢</text>
<text x="360" y="966" text-anchor="middle" class="en" font-size="11" fill="#81C784">Phone trains</text>
<text x="360" y="981" text-anchor="middle" class="en" font-size="11" fill="#81C784">locally</text>

<path d="M 410 960 L 470 960" stroke="#4CAF50" stroke-width="1.5" stroke-dasharray="4,3"/>
<text x="440" y="953" text-anchor="middle" class="en" font-size="9" fill="#4CAF50">weight file</text>
<text x="440" y="975" text-anchor="middle" class="en" font-size="9" fill="#2E5E3A">no text</text>

<text x="550" y="946" text-anchor="middle" class="en" font-size="28">🔮</text>
<text x="550" y="966" text-anchor="middle" class="en" font-size="11" fill="#81C784">Community</text>
<text x="550" y="981" text-anchor="middle" class="en" font-size="11" fill="#81C784">averages it</text>

<path d="M 600 960 L 660 960" stroke="#4CAF50" stroke-width="1.5" stroke-dasharray="4,3"/>
<text x="630" y="953" text-anchor="middle" class="en" font-size="9" fill="#4CAF50">smarter</text>
<text x="630" y="975" text-anchor="middle" class="en" font-size="9" fill="#2E5E3A">model back</text>

<text x="735" y="946" text-anchor="middle" class="en" font-size="28">📱</text>
<text x="735" y="966" text-anchor="middle" class="en" font-size="11" fill="#81C784">Everyone's</text>
<text x="735" y="981" text-anchor="middle" class="en" font-size="11" fill="#81C784">keyboard improves</text>

<!-- privacy guarantee strip -->
<rect x="50" y="1000" width="800" height="36" rx="8" fill="#1A4A24"/>
<text x="450" y="1023" text-anchor="middle" class="en" font-size="13" font-weight="600" fill="#81C784">
  ✓ No accounts   ✓ No uploads of your text   ✓ Works even if you opt out entirely
</text>

<!-- ▓▓▓ WORD COLLECTION -->
<rect x="0" y="1051" width="900" height="205" fill="#F0F7F2"/>
<rect x="0" y="1051" width="5" height="205" fill="#2E7D52"/>
<text x="50" y="1084" class="tag" fill="#2E7D52">WORD LIBRARY</text>
<line x1="50" y1="1090" x2="850" y2="1090" stroke="#C8DFD0" stroke-width="1"/>
<text x="50" y="1115" class="en" font-size="16" font-weight="700" fill="#1B3A5C">
  Help build an open LSD word collection — on your terms
</text>
<text x="50" y="1135" class="en" font-size="13" fill="#555">
  Separate from model training. You review every word pair before anything leaves your phone.
</text>

<rect x="50"  y="1154" width="168" height="62" rx="10" fill="#FFFFFF" filter="url(#shadow)"/>
<text x="134" y="1181" text-anchor="middle" class="en" font-size="22">⌨️</text>
<text x="134" y="1200" text-anchor="middle" class="en" font-size="11" font-weight="600" fill="#1B3A5C">Keyboard captures</text>
<text x="134" y="1214" text-anchor="middle" class="en" font-size="10" fill="#666">saved privately</text>

<text x="246" y="1188" text-anchor="middle" class="en" font-size="20" fill="#2E7D52">→</text>

<rect x="268" y="1154" width="168" height="62" rx="10" fill="#FFFFFF" filter="url(#shadow)"/>
<text x="352" y="1181" text-anchor="middle" class="en" font-size="22">👁</text>
<text x="352" y="1200" text-anchor="middle" class="en" font-size="11" font-weight="600" fill="#1B3A5C">You review each pair</text>
<text x="352" y="1214" text-anchor="middle" class="en" font-size="10" fill="#666">approve ✓ or discard ✕</text>

<text x="464" y="1188" text-anchor="middle" class="en" font-size="20" fill="#2E7D52">→</text>

<rect x="486" y="1154" width="168" height="62" rx="10" fill="#FFFFFF" filter="url(#shadow)"/>
<text x="570" y="1181" text-anchor="middle" class="en" font-size="22">📤</text>
<text x="570" y="1200" text-anchor="middle" class="en" font-size="11" font-weight="600" fill="#1B3A5C">Only approved pairs</text>
<text x="570" y="1214" text-anchor="middle" class="en" font-size="10" fill="#666">shared — nothing else</text>

<text x="682" y="1188" text-anchor="middle" class="en" font-size="20" fill="#2E7D52">→</text>

<rect x="704" y="1154" width="145" height="62" rx="10" fill="#2E7D52" filter="url(#shadow)"/>
<text x="776" y="1181" text-anchor="middle" class="en" font-size="22">📚</text>
<text x="776" y="1200" text-anchor="middle" class="en" font-size="11" font-weight="600" fill="#FFFFFF">Open LSD library</text>
<text x="776" y="1214" text-anchor="middle" class="en" font-size="10" fill="#C8EFD4">for everyone</text>

<!-- ▓▓▓ OUTCOMES -->
<rect x="0" y="1256" width="900" height="236" fill="#F4EFE8"/>
<text x="50" y="1289" class="tag">OUTCOMES</text>
<line x1="50" y1="1295" x2="850" y2="1295" stroke="#DDD5C8" stroke-width="1"/>

<rect x="50"  y="1308" width="375" height="82" rx="12" fill="#FFFFFF" filter="url(#shadow)"/>
<rect x="50"  y="1308" width="6"   height="82" rx="3"  fill="#1B3A5C"/>
<text x="82"  y="1344" class="en" font-size="26">📱</text>
<text x="120" y="1338" class="en" font-size="14" font-weight="700" fill="#1B3A5C">Type LSD on any iPhone</text>
<text x="120" y="1358" class="en" font-size="12" fill="#666">Native iOS keyboard,</text>
<text x="120" y="1376" class="en" font-size="12" fill="#666">available on the App Store</text>

<rect x="475" y="1308" width="375" height="82" rx="12" fill="#FFFFFF" filter="url(#shadow)"/>
<rect x="475" y="1308" width="6"   height="82" rx="3"  fill="#C5933A"/>
<text x="507" y="1344" class="en" font-size="26">🔄</text>
<text x="545" y="1338" class="en" font-size="14" font-weight="700" fill="#1B3A5C">Transliteration that learns</text>
<text x="545" y="1358" class="en" font-size="12" fill="#666">Gets smarter from every</text>
<text x="545" y="1376" class="en" font-size="12" fill="#666">community correction</text>

<rect x="50"  y="1402" width="375" height="82" rx="12" fill="#FFFFFF" filter="url(#shadow)"/>
<rect x="50"  y="1402" width="6"   height="82" rx="3"  fill="#2E7D52"/>
<text x="82"  y="1438" class="en" font-size="26">📚</text>
<text x="120" y="1432" class="en" font-size="14" font-weight="700" fill="#1B3A5C">Open LSD word library</text>
<text x="120" y="1452" class="en" font-size="12" fill="#666">A community-built dataset,</text>
<text x="120" y="1470" class="en" font-size="12" fill="#666">free for all to use</text>

<rect x="475" y="1402" width="375" height="82" rx="12" fill="#FFFFFF" filter="url(#shadow)"/>
<rect x="475" y="1402" width="6"   height="82" rx="3"  fill="#7B5EA7"/>
<text x="507" y="1438" class="en" font-size="26">🌱</text>
<text x="545" y="1432" class="en" font-size="14" font-weight="700" fill="#1B3A5C">Foundation for more</text>
<text x="545" y="1452" class="en" font-size="12" fill="#666">Spell-check, autocomplete,</text>
<text x="545" y="1470" class="en" font-size="12" fill="#666">and language learning tools</text>

<!-- ▓▓▓ FOOTER -->
<rect x="0" y="1492" width="900" height="68" fill="#1B3A5C"/>
<rect x="0" y="1492" width="900" height="3" fill="#C5933A"/>
<text x="450" y="1524" text-anchor="middle" class="en" font-size="13" fill="#8BB8D8">
  Open source · github.com/abdealikhurrum/font-fatemi
</text>
<text x="450" y="1548" text-anchor="middle" class="en" font-size="11.5" fill="#4A6A8A">
  No accounts · No data uploads · Fully community-driven
</text>

</svg>
